<mxfile host="app.diagrams.net" agent="Mozilla/5.0 (Windows NT 10.0; Win64; x64) AppleWebKit/537.36 (KHTML, like Gecko) Chrome/133.0.0.0 Safari/537.36" version="26.0.16">
  <diagram name="Seite-1" id="5QZw53udl1Tq53wuOr0G">
    <mxGraphModel dx="1593" dy="820" grid="1" gridSize="10" guides="1" tooltips="1" connect="1" arrows="1" fold="1" page="1" pageScale="1" pageWidth="827" pageHeight="1169" math="0" shadow="0">
      <root>
        <mxCell id="0" />
        <mxCell id="1" parent="0" />
        <mxCell id="z_Cnbzt3vv1uX7zdXVBy-2" value="" style="rounded=0;whiteSpace=wrap;html=1;strokeWidth=3;" parent="1" vertex="1">
          <mxGeometry x="49.75" y="20" width="270" height="360" as="geometry" />
        </mxCell>
        <mxCell id="z_Cnbzt3vv1uX7zdXVBy-3" value="1" style="whiteSpace=wrap;html=1;aspect=fixed;" parent="1" vertex="1">
          <mxGeometry x="129.75" y="70" width="50" height="50" as="geometry" />
        </mxCell>
        <mxCell id="z_Cnbzt3vv1uX7zdXVBy-4" value="2" style="whiteSpace=wrap;html=1;aspect=fixed;" parent="1" vertex="1">
          <mxGeometry x="189.75" y="70" width="50" height="50" as="geometry" />
        </mxCell>
        <mxCell id="z_Cnbzt3vv1uX7zdXVBy-5" value="3" style="whiteSpace=wrap;html=1;aspect=fixed;" parent="1" vertex="1">
          <mxGeometry x="249.75" y="70" width="50" height="50" as="geometry" />
        </mxCell>
        <mxCell id="z_Cnbzt3vv1uX7zdXVBy-6" value="4" style="whiteSpace=wrap;html=1;aspect=fixed;" parent="1" vertex="1">
          <mxGeometry x="129.75" y="130" width="50" height="50" as="geometry" />
        </mxCell>
        <mxCell id="z_Cnbzt3vv1uX7zdXVBy-7" value="5" style="whiteSpace=wrap;html=1;aspect=fixed;" parent="1" vertex="1">
          <mxGeometry x="189.75" y="130" width="50" height="50" as="geometry" />
        </mxCell>
        <mxCell id="z_Cnbzt3vv1uX7zdXVBy-8" value="6" style="whiteSpace=wrap;html=1;aspect=fixed;" parent="1" vertex="1">
          <mxGeometry x="249.75" y="130" width="50" height="50" as="geometry" />
        </mxCell>
        <mxCell id="z_Cnbzt3vv1uX7zdXVBy-9" value="7" style="whiteSpace=wrap;html=1;aspect=fixed;" parent="1" vertex="1">
          <mxGeometry x="129.75" y="190" width="50" height="50" as="geometry" />
        </mxCell>
        <mxCell id="z_Cnbzt3vv1uX7zdXVBy-10" value="8" style="whiteSpace=wrap;html=1;aspect=fixed;" parent="1" vertex="1">
          <mxGeometry x="189.75" y="190" width="50" height="50" as="geometry" />
        </mxCell>
        <mxCell id="z_Cnbzt3vv1uX7zdXVBy-11" value="9" style="whiteSpace=wrap;html=1;aspect=fixed;" parent="1" vertex="1">
          <mxGeometry x="249.75" y="190" width="50" height="50" as="geometry" />
        </mxCell>
        <mxCell id="z_Cnbzt3vv1uX7zdXVBy-12" value="*" style="whiteSpace=wrap;html=1;aspect=fixed;" parent="1" vertex="1">
          <mxGeometry x="129.75" y="250" width="50" height="50" as="geometry" />
        </mxCell>
        <mxCell id="z_Cnbzt3vv1uX7zdXVBy-13" value="0" style="whiteSpace=wrap;html=1;aspect=fixed;" parent="1" vertex="1">
          <mxGeometry x="189.75" y="250" width="50" height="50" as="geometry" />
        </mxCell>
        <mxCell id="z_Cnbzt3vv1uX7zdXVBy-14" value="#" style="whiteSpace=wrap;html=1;aspect=fixed;" parent="1" vertex="1">
          <mxGeometry x="249.75" y="250" width="50" height="50" as="geometry" />
        </mxCell>
        <mxCell id="z_Cnbzt3vv1uX7zdXVBy-15" value="&lt;font style=&quot;font-size: 18px;&quot;&gt;&lt;b style=&quot;&quot;&gt;Tastenfeld&lt;/b&gt;&lt;/font&gt;" style="text;html=1;align=center;verticalAlign=middle;whiteSpace=wrap;rounded=0;" parent="1" vertex="1">
          <mxGeometry x="154.75" y="30" width="60" height="30" as="geometry" />
        </mxCell>
        <mxCell id="z_Cnbzt3vv1uX7zdXVBy-20" value="4" style="ellipse;whiteSpace=wrap;html=1;aspect=fixed;" parent="1" vertex="1">
          <mxGeometry x="71" y="78.75" width="32.5" height="32.5" as="geometry" />
        </mxCell>
        <mxCell id="z_Cnbzt3vv1uX7zdXVBy-21" value="3" style="ellipse;whiteSpace=wrap;html=1;aspect=fixed;" parent="1" vertex="1">
          <mxGeometry x="71" y="138.75" width="32.5" height="32.5" as="geometry" />
        </mxCell>
        <mxCell id="z_Cnbzt3vv1uX7zdXVBy-28" value="" style="rounded=0;whiteSpace=wrap;html=1;strokeWidth=3;" parent="1" vertex="1">
          <mxGeometry x="440" y="20" width="340" height="310" as="geometry" />
        </mxCell>
        <mxCell id="z_Cnbzt3vv1uX7zdXVBy-29" value="&lt;font style=&quot;font-size: 24px;&quot;&gt;0&lt;/font&gt;" style="whiteSpace=wrap;html=1;aspect=fixed;" parent="1" vertex="1">
          <mxGeometry x="580" y="70" width="60" height="60" as="geometry" />
        </mxCell>
        <mxCell id="z_Cnbzt3vv1uX7zdXVBy-30" value="&lt;font style=&quot;font-size: 24px;&quot;&gt;0&lt;/font&gt;" style="whiteSpace=wrap;html=1;aspect=fixed;" parent="1" vertex="1">
          <mxGeometry x="650" y="70" width="60" height="60" as="geometry" />
        </mxCell>
        <mxCell id="z_Cnbzt3vv1uX7zdXVBy-41" value="&lt;font style=&quot;font-size: 18px;&quot;&gt;&lt;b style=&quot;&quot;&gt;Siebensegmentanzeige&lt;/b&gt;&lt;/font&gt;" style="text;html=1;align=center;verticalAlign=middle;whiteSpace=wrap;rounded=0;" parent="1" vertex="1">
          <mxGeometry x="615" y="30" width="60" height="30" as="geometry" />
        </mxCell>
        <mxCell id="z_Cnbzt3vv1uX7zdXVBy-51" value="DM9368M" style="rounded=0;whiteSpace=wrap;html=1;" parent="1" vertex="1">
          <mxGeometry x="655" y="147.5" width="100" height="40" as="geometry" />
        </mxCell>
        <mxCell id="z_Cnbzt3vv1uX7zdXVBy-53" value="TC4050BP" style="rounded=0;whiteSpace=wrap;html=1;" parent="1" vertex="1">
          <mxGeometry x="655" y="207.5" width="100" height="40" as="geometry" />
        </mxCell>
        <mxCell id="z_Cnbzt3vv1uX7zdXVBy-54" value="TC4050BP" style="rounded=0;whiteSpace=wrap;html=1;" parent="1" vertex="1">
          <mxGeometry x="535" y="207.5" width="100" height="40" as="geometry" />
        </mxCell>
        <mxCell id="z_Cnbzt3vv1uX7zdXVBy-55" value="DM9368M" style="rounded=0;whiteSpace=wrap;html=1;" parent="1" vertex="1">
          <mxGeometry x="535" y="147.5" width="100" height="40" as="geometry" />
        </mxCell>
        <mxCell id="z_Cnbzt3vv1uX7zdXVBy-57" value="" style="rounded=0;whiteSpace=wrap;html=1;strokeWidth=3;" parent="1" vertex="1">
          <mxGeometry x="64" y="560" width="700" height="350" as="geometry" />
        </mxCell>
        <mxCell id="z_Cnbzt3vv1uX7zdXVBy-60" value="&lt;font style=&quot;font-size: 18px;&quot;&gt;&lt;b style=&quot;&quot;&gt;ATmega328P&lt;/b&gt;&lt;/font&gt;" style="text;html=1;align=center;verticalAlign=middle;whiteSpace=wrap;rounded=0;" parent="1" vertex="1">
          <mxGeometry x="424" y="570" width="60" height="30" as="geometry" />
        </mxCell>
        <mxCell id="z_Cnbzt3vv1uX7zdXVBy-104" value="" style="shape=image;verticalLabelPosition=bottom;labelBackgroundColor=default;verticalAlign=top;aspect=fixed;imageAspect=0;image=data:image/png,iVBORw0KGgoAAAANSUhEUgAAAcIAAAC7CAIAAAEOJzk5AAAACXBIWXMAAC4jAAAuIwF4pT92AAAACXRFWHRDb21tZW50AACJKo0GAAAgAElEQVR4nOy9fUxTWbs4+rj2zD5seLNvOTPXzSm5tx1AyrmzORzIGYuDQSYjKD+PeIVrIL0ht/HmCp00EhRNWnB7aRuaSy0QLDQxexNtCAVpKCFNqRcihD9oY5CGRDGiNRHIaCYTnMxooiZm3bVa8OvV85G853dyct+dul2s/fXsZz3fz7PWBvxfZ4P/bAD+HdsnYB1VXjrdG86eBe/Ao173QtiPE/P//QH7xLYNqxMPGn6vObgO9vXE43kcDi74laXo5KOIL+7zBu2OjYawao8MooyEAZQps8ddUOeGMwoYFDD5yE0SrnEIhSqMY3AjJvSOgWVEtbImNg/AKQ8cV0A3DrppKJyFPVE4Og/4V/xiDdfP6XDi5at17IwprxMYP8OzD/Hrh1H8Bt9dx/jFWyAjH8Da/Krt3DJt9ypbsfDL2fHEzbF4NLQxqkRkT6JLikADujn/0tAqtkmXvJeHSwvzwu5g6Xe6XvcSWBHrYHkX+/jZzs3fYGkMTCNwaojui/ogtxuckypnADRDHOMl56PsHjXr5HgnKnTzXDcSutkyt2q3i890ogZZm9XDZg9wljGxdFo496vuA1jrf2vrXyDtrUAMx6YxgZXg9cZY1D8UueINWtunoBAmgkpX53lQwb69FQ9spge22pJ84dU9paABGCt7oq8mPQMKtMIedZ5OK5B7Wv3ASCxIqHIAdkvAdCOmm2OcPONgN9fw5irmJNVoSHlxD3NWlU2u3VjFGZLqoKR68RBnStoyG/vqIS4cqrCvqz6CtdY1S9uz63g2tDUbjI8qW7J3Kjo9dc0zfM5yHXIA8iHnWxa+hPLva9tabOZ8leZrVWYJMN9DZiv7/Feco4aiHLXmaxDVeeRWrzAuLqH3LHJBrgVW5jEBvTewxEo86fQNXcgw00Zg8lK2RcS/4xvz1wsdtYQSYstKpdeDf8Fb6y9Da39Gr8bfTK657XZ4PO5XErHQo1FlafBy8MrAgtU6+Hgx/nrlEWSAyXJe+BPQjYGyhooutwffx6c8FJHCV6p8taD5it2j3cZE18Alstc5gK8HpoljOthMimk23cIVdarBwmZb2CPdeWBlNVa2bchEMF0s8bMLQV5iixzsxsrL/CHk3fwQryd/O2Sd3m6PKtGQkpgdvzMh37nmue5TgrJ7KXVI+J6HbCAQ5x+GffXQ2wjNHuh3mbLNiBzVfKXSZOWJWt2eLP7F79gkX6APaEK5Vja7Bdr8U0wjizcxtHN/3MeDI1HeSsBaeLyKUStvdh8KL+I0K7fPwnlnEoyV13WgwDwu9LHSQ/UHsB59kjcxr0+1J0Y2ZieXAvKSz7vU71b6XZ4b/m2O4fMBBIiMiGIjgm/hnAw5TZBlAWhhURNXVAjFJbrQNCZsbh4Apl6Ff8a5TUgwQ7EEhEB3t6ADHXpoZb3T0fCiwptV12aioek2vpV/uo4Hhyo0kvD0IZ4In9cQqniBV1Yi5V4Tee4HsPZv1r7tujIwuDK94euZIu1Bx5Sr0yN7sMVlJHchJHvAivY1I0K+9NRbOORrexzHOEYlTLqBZWogzQBiJ7BWlNaKjtgEMLMZzWBwAtPKkXZ2C0tGvNKpPdqjJ2946rLu2twSgd4m16ytELzy/SOmlWXMWjn/pIm8avYAi9+c/wBW+UntgziOrlDU9rvOX/EEr10mXBWMjGw4pdOzczjfouUbWZOTFRspk5HtomS0dZj6bcYu6fzJhhp1BsBegGroDQHfCuTx0MKDgRUsoJbA0APpNQI0s/7wEiHTwPzSOWUYWnn/bORi4BFj4Uxew3H3BdIosvB1A+cJ/xVK/CmfLUfhbB/RwOwb5URQld0A6maU6nmdZEC/fJ3+9wxDI8uYWf4HOOlgR33J1+u7EBuZ2lrcWpmMjg4Mpq7SNEPvPOy2gH1h2DqmbLzC+RKkG8A0AKEZvK+TFdsJS3HN3ktPf8Ocmftp4PyDh4/Sm7muEWU2PJjRwk/EXsYW2jIt2he/4GhUKe7TfywHrv5m23yGNxOYa+JECxUlV8MbmgbW5o9avFDi1untaDCkzqyGo1ISfwCnGvVWS+3ZVt1ZyyGrpYaHZH8d9M5AhgWQxLIWPrr4SO8ErgG845BmZplmxLcgp1t7Yz5ySr5EEPx0DXtngmntqsfLS7NRTKgiEUvcjFLphpOapVBGH8Maw0E5qPzUKe6R2IwmCuuBvryLYzyRi4yFz2hlcyX2gJ2wCFvpAiI4t5YxgYziux5BHco0EPgQwT2YEWNFfDu5ChFQwIAOOukjShzIJoPeClwNMI3o2oiSbxE5M+rytu1u1WZa+XJJzTdqCSnnWISs1jxW4gokPt+m1cjsmRj6ANYjm3z4fvCUH5669UfcqH9ce07meTPPtyKNnQp2wZkXjdLhIADdva/nGtgTnjyuit4lqxltrO8njapuMCniFjnHzFba2FDcBK3cnkYo7ladkeFcH1R2sEILGN2EdtHZMci08KgOMS28ul1llk+TO2Q2sl3+IG20oFCMmAi4VIaP8Vr/q/j4CU7ro88usEBJoagvzGs2m+AHyHfwRAWpLSw5tLa4JBj47Su/3r6WsNp245udRvZOg4iL9Ue0kUUaiRfLU7RBVJRs/OCcNxia0eYmJqghvE/+1EgUEn4Mchbh4LrwIazP9gu34KeoXgiyxX7e2GgqyxdPWi4QWJl2XnAI0MTC94jZldRYu4jOershqsK+ID/EoAzaQMkehqMnIWC+JPtkT/IfbdK/kl3JJumnlxB5V8+zHXy+hdfY+H0DcGBsW10de6b/AFbD77WFq0nCugXgBTFfW1Swv2zvIWhEjA0xEk/sLKhnAQF8COXH267PHiGHEMOlIE6+7S7YRV5v5xCRMy1sZY+qug8EL39qRJszAwfjUL8OR3/9ENZB3FYWg2NBOBkkRipkeVFgpaLIAaUOULvANanLlziuCX0aiE9Bh5KoY95209YuZger74Yl+W5kEDLJgwbYwRlVQwDMfuifYc/cYk3L0L8C0quKD2D9N2701p8Cl2HQLtge/XfYfR/w7R52u2OHlnbtSuKYY/9NT/93wcp+yW1TJJOkMwYxDKR9KZA9+pIM8a4vOEgS9RcfQUtH+YsMhhFSKOY4FccJDPqbXUkk8yr1Xx7W/9ztr7D+B2z/ZQGV+14OXk64+jbkgQ2Xc+mqF88G/1MA+3jbBvTUm7bKJ/rKh9oJb/zG+B2/vBAYiozKw35f5MZYoirER+JtGhnlKyhLgZwB9kQ3GLxgluGkTIMDodC2rNl67SF71yRMLOad6WGbB6BBAds05IahcBqKF2FPjOhYXDfP4yf4j3vYNHPocTxCvL/BWAQ/2cCvcWAZv3647SnhN8MfA1r2RJT8tC174zenEwEl4VMiE76IfHkq5LtT3C6wTewZ9+myZrXVoD34nT7kVsR8kZyP2tlyOzAuNLi8jflXv+BzI2Dxw5kRODsO5/xwYgREF6TLbFcIGJlXO7kMN5vezeocLNfNZ3azolsgf/JOvryP3+3mhT5V21hFlofNHYEHm8oHgB5ZB36OYmViKE7cqdg0HvVGfHLkmnfY742KVdST3lzAugIiDGFfgTohGRPdJp4o+b2ADkODfEjMFwqy8wrUSFSLG2uY7SSqmP5yJTAFweCnLwPdCNz85upWeju/towf38JcBz8bDb64jzM6+FNu8fVDzEuq8g6WYH23XRB72I8xevQhZCS91htjG7PBlz45ERhbCg1F5B7lmidSWMcS2+cni6n8Wy2oYI9a16xF+m/FLqctjZgyP8LKGi7M4Y836Kv26vU5efg3nNaybXwRf5XsKz1gHSFuOya2rFPZzyWN92vjtVkd1OMLhQfzO/XEdpuNKvvcp2lAID58cmSBBhQ+AvTIfVDPwdYqnlC2rsnBsD8x6lvwKwty35TsCW6GNvrtJmK5wVdw0aLT5aupisqA3BwOtNt3KC3I06jZnCxdbpaWeGkXfQJ5zNMY3t1EA1u6buDMPCK2djunJkaPhResqkp3Hli5/A7WOmQkxnu+xMrBS+mSijQeLGO+myv3wltYtx9TeR/q4pTmrnmXvH3K3Tkcn8SDrqlR+U6vWyGWJU7ao6CmQYDsUhAbAL6Di5fhiJSXusOBH7Q5X6uzstg9XwkG83BzH0+gRDUotx22fhnOt8Efq9jkHSaO4dYaMbq50Mz1WOwlMbp7xy+E5jFjYasdwso92ihqZSNRzHfyBW64EccPPhj6VfbuM+pJP57DN/2J2yEcC+H+HkW+HL2iXCcUQ/ns8rC51YhfbVUSi9vMQhWIzZDeCHwjlLnVUAgF2WC2XyD+N9/EE29zc/7RWjPxoekjoAnts+StzGPeygfmPayZDyxseIdqmWZ25T4e9NVmtKqfb+Ir/orMJmoAhGfPF3QaUvHA+PuAzuLrqUa/S5nw3ZkNbPkcyoQ/PqpMhZSp/gEPjYiUwD4CUwva/SO8tfYz67YbDDExG1FWM2Q20igGY2XLJLXRBVUuCEVFsKKcdh7MPPG29Y486sbY1ae8emjhzsgV/uk7TCt7NWh89TMhYvbq+OlX5G1t/M3YJTL0V9+8B+jF+bxXb/Dxy6orTsXf5wkoEaf9/NU+T5d0WnYrxp6K9EbO5ERHiD9UQyMrkqXW3m7sldpcjkvW9rYH05HMAtjdCPV9yBwAphWBlYdGnridVT1gGlIRk3x0eiu9iQCKugJLyMIPBoavLBDPhLUql875FsCCqmzqYz2mjHaVaGHrZU86Mf57eMvcpcH3Ae1P7C/o5nLq0N35jVSPX5lKebTknYodeUYHaGzqSjuQISZ9g52mG0PDT+fxg1Acr+FrPRdmvTg+iw0eOCUD17HtVZ69fMgow9ZvEcYAYqPaK78skfinv2Ay4iaPaXMdpxlYSbatxCNpTazXH7x9S8lo5kMLeHbuvLqDf/0LJiqg//c7+H0VerS7huzTW6ngqLbqnq/jwcBUeiOb49RaPSC00tE8INGQCXHuyvbqzI2i2SLarDVnW/QTHoUpRAclNrcFjg8Acan5TtY57mGaWLMPTnqh0g1pFkQ8Ul07HHAYCcmG5xfOKm3khNk5Ze0eRi3o6fJWlLj8Fm4rvkX8vgzH9ts6X0y9A9R+K+/mCj7aWFHZAy/WsVAC12YrssxsYTvwnarcy2qBgGhhDziAuPkPNpde3yeeKj7nr7UN0QAEoU6hCTQWsHjBPkReCTFmhMwsoTxogFOupCi9DDoLnOxki6x6roXt97YJZjXXgroGagVrHrTy+yxajUVgOriCDiFHyuMdqhK3qnJMb/v9wjtAxRj0LwQFC9fmFn3zvDOksoyJ5HachWOJeIuaKLu0cP1zYrLB7q7jmWr29SvcH6ZMiixsf4AGvxv6YHASbv68QQZXbGWrZR3hG+5Hwl78SZk/4oQGDzo2AGwj4utZQqlcK5eKhmiaWJufxl93t3P+aersCw7+cVLa9L86/w5Q4pRaJ89n2vVbL/Apz6Hqw2J1TUX5d3oi1XI7k0PwK2YM3Lbs3Zu86hkmYnW7563znv9h481O4158Oz5wT0ldtbIYTMUH/ljwJAMwPPH0iRzlJD7FG2oZqcNQtALW16ffAbpvFWbxpbZbFYwMGqeu+Lv9B/aKNnvEPkb0NQcGBD9QP4k4mu/7k5kZ6qRbjKhnz+247ruod0VOJq4V6SE+HcNsu3vclyxtMyl3P7lPxg2oH92INNUoR1Jn2Lhiid03pK5MxnnO/MJdfPMeoGUJzrlKSYELsYyNzc/XFpaKmiot2DmQEA011n3Kdf7Yl9t+OqCdX6rrraeK+FQP8969GBoAAGhGJ/sE0YEKRrgsGXLHoTAKtl9qy9d5O35v6H1k6KPgm2W7FuDgZTjqgTNBKHDBxRl9vZeIGxaZeYaBf23bCTBsP59517HzSkzKx0e7UArZyRN54pt2s8IAe2UGzs2w8qqu977+bAxst0Bag158Cf+7XJGML7nkU9H7nn4KFuY9CD/a2C++3nmFL1LhiFSw5y2+yUWZKuFfffq/A9D8P7Esl6S8FEzUu6dYI53cF3wShYSCv0yGGj4GmcCTpFpyEQupsADHpW7Fc+yebPEvCeh/7vZXQP9/vP0Vp3/57V/HaZdzuLdn0OkctrmCXd2DxA2wOS71diuu7mC/+7pNGnY6Tnf1DA/2PHp7CfF0Esn9TZqRwTfe4CtP8LVN7F3HrgR2PcRd9/HFVWxZxpYVfDL68lQMn1vGZ+LYtILrYxtn5pea4y/rY3eOLUbrF4OVC7aG1UtXH8ZNq5caVs4bli8dvWWqW7UZlz0nltvO3jMeXzl9JF5huNd2/F7tifvGhjXxxD1T5Tp/ZN1UvcYfSAjHHh46sSpWr+qP3mfrV/iqe1C9yptWxaOr2spVaL4P9avaY6sq0728I6vo6D04e587tgrHVtmL99Wkv3qF77q//+gqf3RV3XW/ouG+UH+f9a3XGNa5c7/oHuMLclItfRqnFnzhyDOj/mfdqdXt/sgtfPXy8M2xrQlfNDK0FR6JB4Zoxjo+ufSA+Ksz+Jp856o3SvzV3u6NM5Lae7n2xliUePeDl22niD9ILXHYLbGjQwljkymxiAf7FojzuDJNLODarp5aUYI9DpTtQIID8onn6IDovUtHBlTFPah/kj05wlsDYAwg0S2c6EHll6HSRdxJqLzMF/ZAmReK3FB6GQ54QS+DdRpsIVD7ICPAaYbg2AhoZCjyAxdEGpkm6DYf4pzL/Kt1vHUP5/bkbT3EN6LKnh7ti4c4vODRuHWv7mPJf6jUu//5Ku4a26/r0RHL0eTT5XRXELPuiJst8VYQt7zcg4ou01c74oeDftoYfFbxWZyefGE4tskOzkHmTn2Cd+ZRwJe4ObkRGksQjER8Szf8d8L+O38s41ElPuFdCg0lHiy8DAxFvO6XZWZVRh1kGiA2eelMc82DELZ06/XVeZJr0FhjLFDnbQ0ojx3nHztObzpPF+frKwvY8hYdVKMyic1vodlW3gKZLeikPHjKMRiY33r+7H3ocJqEOBsiDk5OJ4h22GMDnQ12d4BhiJbpmIMgdMK5cWAuI8MkHPXS8FdhD8dc5gQPPzHjISOd6xYi04M0o+8UA8E2vI4LHOqJoIk0yly68Nxp0jgmn47HBokrc0wejseGyclng9HN+xvkUP8MfroWJ/j1xfCLn/GLewsriRRo1z+L0xPPao+sC11zwE/TfBsBYmUFTwwtJWKY4PTKwHDYt+DzTgV8EZ98xzswfNVz3S9Hr8nBwEjE0q7om/NoXCU/mejNAlDRAAtw1NgiGNR/q92SCUKNCfvpRLdJn68XMkAsgdGg0ankCTWIaYJeZarf/7IwX03sF42gq/6xZtBp7O+2DTracrPyXv9MgTSPwdkwfYez8jZ1ELRWDsDZWUhvh3Li8ThZxoEYO/mxnIMDJ2IcbIaF5SVVRie/u53lO3iwcoVOXpA44qztc2rVEk88hUq3sFsSSKPuch5Pxk+i0Yf0Dp7rRBalQi1xfCdvkQ2ZdpTZzUeiU6IXRD883YxafhY/i9P6Z/oj68g7B5p5UI+oyPBGf8aBkaVr8pJvaEEeeBQYiV69vHBlIHLDn5AHlKt91yNDG1f6LvX2DZtbBqtq2LRvgP0GslI4/YIi9GhdbcFXcFE6VPKN7sh3+spS/Yma2sJsVVkBDWBddFyCAniVwK8e0pR2Cox9xNHIUpeq1Rq1qljNnaiurdyrzs1Wp6JMZ2WIrkaIxM4sIMBHH9wy8gYodEL0li3LAvv6IDaPb0cx14zkWfziPk2/M+3czcWFleUEWLjZ+a0Hy4+YVtXNeeKpLzEWfi2GAzPRNAv3gPjYA2KahSfS4JhNndauurGASyWea6ch6GIrlynx0RgukNBuu3orgQvdSPRBdAVf3Kma+gROG57pKxPIPg3Z09zar9udfoVKwMQcjfWuzOAbk0vRmXh0cmt2nByKhOSl2PiGX7neK2EiECiaLG1kHwsGhRJ0vEpPqLXLJtwN7KcEq4L0bEgvTNLydwDfA/xIiRqvD25Ez6c3bgdxq2v0OWoh52u1Jkub/RWr+TpPo0b5WXm9Xno0vYkr7tbu61YX2bU5FuLeC3taQSeBK4B2NwER0M/v4yNSDWOAzTg+0W1kmwHa2UG/8cVrzFlUvskLr37Fma18/9Ah/ALzreorQ7XktpmtKu8YHeZMqyBPUimZZdWF5mykUSBVhBaou6mT9kdjg/gXrHfbHt+/Q8b4XPAl/rPtA5xWPqmtvo9MISidfof46OSGX474lWg0tEGokuil6PijifE7/QMK6ff2KD5vcNCjREbw+wFj5hvI/RaYbyElDfY1o8IaKGuEQjMSfgAgvwZEvfJmFpqShRYG1izDVvLasu90BJv5arLnc7Sq3K/zsr8SRCGv5EcaF8m28nyzuuoHvc8XT91HtNB4XdeYqtwBaVaU3oyyCXdbWMbM51hZaCeczusdqmIHj1r4uoFDYgdLCLZhoKLMyROCtfptZQ5yDtsfHqx3aQnlekNKtYNnrfzt2MujbjZdUhFJeLyH1TgpwRo8qt1O1dN72KgIBT4aj4n8khf/HE6NT3T7VlV3l7etouebdH9t4HpkZGkzhmcnNybGHt0Ix+OzeFSOjsoL/oH4lctTASV6xbsQ9uFEkjfx8sbmCq2AoFVr30BRI5S1QqWFLW6BzCoaHsz8HkWmz+dWoWb3Ia6FzW/lMy0ql99gcu0PTyvWEZPObLp9H9/9+ePxZ5pp1dVJhWgzIaea1ZUCS8i8kZa5ZDbCcxwvl2jELr9DT5gXWtgCSw1BAS2FaWdnY3gjjsHM313B18LXUTM/sYADoSnGzN29j68GFYLlWBxbvUamBcUT+JiTIJezhV/u62DTOvjB2Y3CJpRu5V3jj3RNRFVybSNKaTfKlVnX/JR9FcKfw2lqOze9v04WNS71UZ+B4lSeWpvFVy7f6XcNe93XL0oee+f5pwQO93CX7XqvSxkdmrraE7w2jo/atFBCmBpRHfUdlDZBdQcUE4S2o5yGJMFm08yAWKhl1MDlQ7oWOCIBvqZ5IW4vMKRdAF1Dh4osAp8sZ6p0gsYKghmYGoq1FHgFBuif3x6/aqdObYFqNw3Zkz+PO2kYkghTfbuY2QDXxqaKLGpyIcHv3U0sKZfSmtkH9+NtAyaumQ+E2gb9Snoz65s8HZjbYBv5K0MVo/MbnJm94jsUXsbpLaqr/tqby5i3CIOK7vmvmIzlRIhWhmVL+viyQoi3uGc7rXHlzTsEfoBT87qpeJYj4ub5zhmZNTtlVa/fFQgTFKc2704tZWqrdOQVdYpZhIsdLGNABC/lDrS7hmKqrc941KAz/phnsZy+2jPYazdeGzg/q0zhVRwYuBQfo5bKVZen30HFFjFWXtzC8bmXosQe7QPXJDrrR1lSMg7fiBjCuS1ss3f/YNBEevhWqPMC1wT+mN40AEwTi5rYYkkLZg6a2Eq7QE6GFq7yss7uPw8WZJJN5xRCjGzX+FTv0HkifPoDkejCAjEGCPrCcx5yfnQZE51GhodYssSWYizowTK+vXg9o1WViGICKjEAHt/C+MmSRkYpidf754myt9vmm8jNWFLuJk9Kr0dd7vMri6f7x3TXAkbLQNJo2MSaH6g+WVl8uftH9qRTRYa0ksgpp9rkIkRBDHhVllPI+BFsMnukE6CUPsXlflT0J5rwdNkMD8LxkDxFcCp7TP2OS9f6Lvn6Lo0OXAgrweRtca+C2/oUdSv8NAD9M1Avg2BB0ETIkKO8bGYp7ohEbkY6B9iCwBnoI8wDRBQAquN7lWEioKGK7ZKHkzhlq7sv9AYj0MQdc7b1h2ka7IDNJHlp1VmZo/ZUj4EcKu883dxnIIdKHMZym0hEbYFVV9zOM+28KOXpWgQiDQokkQirdDtf7NCL3XyWwh4d339ulet69ejTOD2xXlM4D+F7502yMdXDNbFEpbZdzqPm9wssj1zqD6Nqp8BbVdXUt1HtkbgDNkRMvxwbx7agZi8q6+aOyzx5fHo1pdMThB+r4PUbXJgssU1prbQcYHMgRfhE9R/vSJq09Rzdf89CNZz0UEGpMQPRYNYRqOsDzgzIAgal9sayqaqPKiv/LXxW0R10IpMChNOLbGDyojND0LugP9qDqgbA4OWkEZpTYpJWWrPLmJE0LRr6avgmNjkGF/gmeuic3LbdUEwZrexaYsM+NpjRzL36HfeHFc7Mba3jwDzOsar+WCfeV0JjE15t4qcJXOTVbrPsqz/L5b/dutaoYeGdnyKOIFetep0UW3sseeRer1bxgQ7dPok7aEd6C0e0Z1W3wEvc7k4+o5PaCZbAIcKYj/HL/rnaSicF8eIIW9BBH2EZEaEGEQK8ObdFUOxTlBuzG6iJj9wykZO5ZNFrscRL3uTJXuCbYPThwt2VQ4RtSc9PY7xGoofqukGQUHYjzxGyNVO8mPoo3v94s1HcCPlWek6zBEIT3F5TKluAjOu5y9qDEoidbGSh5qCFnMzOLp8W6og247zzEdGGoJV/uhkkjhxxXolOI5w+Szg1gRkr/3ydMiWT1PvEK+VTDSISHdt2UZGybf91/W77NE6PPBHLVuDm8tLKQ8zaWOcYjfnj9Q0CB9uk0hfodGp1YbYo5lcUfSMWV+cRNDEWFWPlyM8ycsEgi0yH6qxsanDnCXbd3Xt4Nv4yvZlvG7gwOjl1oBNZ5QtWL7Vee/1tK1GaraNZ7Sc4vZUbHI/fmN5gmvjBoSnikhMz6/YiDgSniJl1ewETT5z0TMxS14703Jjfuj23QXpGg49i81vIgO7GMLFMoApd822FxoNwmFr+j2fiZTYI+LbuzmGoYaOh5Dn1/OYCFdlcI5+Sb+Q+z4ll/QvtqXKLxMXim1QaA0uMqsxWrcbCM1aWWCZZjYjv5HZLqvxOlndzOV5eMwCaaTiwwBvvc5YX5z+N0/pfRHEFds9Bepjl/O2ZLTwAACAASURBVBwjs4yXTx/gQSKmmd4iLVTVHCJOzgmL6YSh4sj3Bs1hyGiC3Y48RuL/iOMHsQ3CaJFwwjc0Rbz47Qdk0Eds3cLEQ6WimLzVlzspKuZdI5EsyyaN579QRJNGKKkJiadwYzHZ+BJGx7cbvtntk68NbaQa4entntGhROqqi+5IqsfsSuYyEJzsPJ86dEI6nWoYHafX1mnjmGTcIGBUs9RSTooFuzx4JVmE0xsY1CRrbq9MB0dDO1UWPvCuU8J8jE+XJ6D6F501mYP6FE6f7S9dQyX33nV2/RbMmAToI1JSW/mjruoHQ0mh+liV0SadJ/47IQeQ0JUgjM7DRQXqXXDMAdmtNKP6flLn/axEKknEMKmExgepoY9qbt9lhFKllWgnT/MlvM147ZS4fqIUluHY91M5DMN+BMPHj07l+GoANSFiTpx1U23cPyKGExu8k2sIUbOyJCmaxBnQL+8kxn6+YPiVJz69871w3wc4bX5lOPgQxDiUroBxrWLfLSTMQEaI5WQ+bYDXeFjGxgmyFkl8s5wHdpaxs5lOxDi5dAeXaeOpUjaToUbEt0HMezhNZdE4/hMogz9D/acSWqmNprXeovJd1S0ki123S1c/xi7t3LVr17uaV2bn+anBYtBOsS5DoxMEm2w7myGxmXY+t4fN8aj0Q6hgBIpHQD8GBePgnBUaAtC2wJ2chdJl+CkOJ1fh3DPRhj8jT+349KlnOus9KF9h90WhMgZlC6Cbg/w5EGehaJorDYMYIg0khlH+tFA0A7og5I9D7hgSfWj3APBuFePm0x2qt1lLJpXC+3jbqYp+lyf8cud1v/gsUt/D+7v87Xup2Q/2KJVkfu/ZTDK1yHCA/uYjvDMojfkSZWbk9caGvStKaH3qyn0lsLlw89d4/EUk+urR2hv8NGmgbyWNzNf4X9r+o3InPM1Msjts+zZ7mUTH+/nsXe+lpMk7f6H64m92huIdR3+U/n7/z13vupK5WMRQDmYQ++5iZpsMEZNOztPkFO/cgoUdAv3iC5b/Eyt89a9nRP8t238UTg/m64vy/umf8sT/JfsfNX9XIPyd8D9nff3N17nqv9N6/p//92//9m81/+P/8G1Wme7v/um7/+mfvtNU5Gpzv83f//0/HtPlFBTk7N+Xe3j/niq9+N/qKs5XF/8f5lND//v/2ry/oGr/31f9mGs4IFbp/7GmUFNQUqAnnXXfN+8rOFxUoD9U3npI3L//7/X//A/N+7/9b/v/cf/RfzCU/X3lD/9w8J//sblK1B8tO3G8vLnuoPnA3pqa7+0/iP98oGR/6/81+3/+b+dOmaS+/3vzL/Luf83x/eW3v+L0L7z9FaF/4e2vCP0Lb39F6F94+1cQenMB++SXXjnici1ZpetWe0RyTnkv33F1b/S7N3zyltezNTuJJ5T/PtD+F9j+DYUnbqXLpfS6Fad7uN8d7HIPX+2JOh3XnS7F6RjssimyN9Lvjrx/yQb1fDFx2aMYB37Dvl+x/ATLm3hwEzsf0sITywpuu4XP3sLmZWyO4zPL2JRsmOK4fjFujW3URaN1i9G6haWq+WDd8uCpVY+cuF6/aqyKXjq+3Fa3Yjy+4jkRN1atnveve44vHzp675DxoenIPe2JVbHu/v7jD9WVCe7ouu74unhkPa/uodhwP+/IispwXzy2mle5SitNjPfY6hXh2Co6uao6tlpz/J5gusceWUX199TmVXRkVd18X/jpvpacY1oVz97jq1e5c2uidU1VfY/tX9f3/1xj2sy7+dp4Axsn8Ltg/AcIPYs9xlem6l8rKjfzqhKo/D6NeqxMb9wYi/uH4j75zqgSD/juRHzxm+N3ZkeWfPL1+Ay+PYl73XQWEfGg8Bs6D3iPwhG3VfSi3V5WLSPBy2q86NhlqOuBum5aw01+Z4bAPASnFPhJpr8rM1oyEIFZiMaS80ffXH/wRH91lubru8ZZ/2KN2Q+BmM4fEs4ob6ceJh7/Tuu5j3jhuAxiEHST27+cEJTNQ0EMcmJoTwxeJPDT+7hhmk7ZfnoPnwhTOFfi+MQkff2NFXxkhjZux15WhpNhnVV8IBku2VrFlZM0XPJqHZelwiWbuDKV7nyDjy9uYy+MNz6NUMMLY9kvh/atq/tj7+pSYuGXK7PY5526EcSyJxib3LgZ3robfnTDn7gx/igwsjGhJLw9lOfrzLCWDBeF5MjJFlrCXSWhSiub1s6WH9bLfdEHM7jOoH8wj6sO6w+W6IstkCOBYIdMB4g2JNqg2cfLi3lnJ4XSHlTqBmkmT+yGsj4odaMjLjjYTSt5yvuQ3ouKeuCATEt6jslwYABKvEAGUiODegyyhuhKMmQU7UHIDIIwhtbW8No9XOCBxDot5snvQxOLeOs+Fi9DLIZfJbDgYR+v45uLj9SX2cf3cSJOl164u0ZDjtkD6I9faLIkX4FUjXaukoyuPcMF4beThqOfRmjVs5rSdbV/Bs76tmOrr5/hu9N4I4onRqKzgY3RoaXI0NKEf0keWAjQyVuRwNCGb0CR+yilpDUjphGFlrFL8dRJ+oPmisJG4UoPDXT3dkclm1JftX/FGynP1w72BG02KiVG5xTopGmPDAmld/MZ5OdmE/cS70OV+Pll7NZC1zhc9IN5BM4OwRkf3ZtGKOLOBGiOpMoDlgBcDEOoR53pBWEAqgfgpzHgZGBkNr2HFxws281lOFmNg81wselONt/JpnWzux2qPS6U1s3vdrL7LrPpLjbLqSrrUfPdfI6bL+tDnJstGdAe9apzFO6ArDP68jK9/Em//kxAyA3ClZXz8Wc1tlefCT5V/qqPEE6Zh7rgdojz6c+YEBTh68jko4h/KaxE44S+5/GN8Xhk5E5IfiTL10NK5EoPrajhfwS+gc6eOFoC52y22TEFtGC0mmzuS/r8/ebG8xuOtoTD+NR56UC+qvK7Q6ckI5QC1CGmHrKtsNsKmRZgGj8A6cE67h+ZapD0hp68NDtb5kI6OyVM0QG5nVDggOxO0A+AuhPqFTg7BoIT0vpA7QbrOMV1rodjPOzGKr4Sun58QPhjDfumh8vc7INVHJieKuumrxmeiZY6acrAPzNcZKM9oeklTTsFIzAztVuih24uLOQmG4Sidd10GsTaCi70bmOpNzlv8hMIPfjLfn8UMudBCMJbCo1Obz1eoJPKAv5IQF6a8EUfz2OfErwxkpgNx58u4lHvsHyZUigqAJScGPE8imMzOIsD+NN2UVTRt0LYZrrrMCacxgf2WjyPK384xGSB8C1NNWeUQL7EMlb2uEfvGolkfo1ysvicLFatVhV8o9OpdWK+vryUyta76/EMCbIlSOugyxWRX/0AmMdhTzdUKnBqHPhuYJwI3HSyIm1089CDBufx3fjL3R2cfWzr9q2XnBlJ4zg2/5KzoP4QZfDMdvbKPC3hzJD43hAtJUqX2P45KjE5iXdOp7Kh3NUYjT5lOLhrUSpVNTKKJrNHtt9Nn0HoE11gAYR50Chamld5jZ8/wWszj1amt26HX0b8xISKjA5FbgcehZToVTkie5Ur7uErA9GQj8pQKAD4NvkrSNaXcdv1ZeRXvnd/pRoe2C88sJ9OOEyDUltpvri7EMrqoMtba+0R6wfy1FZk9xj9vjsMAycMl4py8qw2xdtjcnZfuDYwVVy4HRPKSC3I8vsOV12GM+MUxQdlODkCmRKNgtPKMgfZI3Cw4OA5iS3t5JlOju1g89tVjMRx7XxxJ13UiOBrH60v43kLW96tTZN4dSd/hHCDxOU7hBN9eWmdXIGdt/gMnJ0tdWjtgf28na+X9fFVZY+CnLHTr55dsPz+mRj+wZ/zwhShbPb49rzPB/fwbBgHfHFiG/mVhE9+5PcuRfyJKwML1waC/a7BCW/0as91chSnJkJ+A5ADXClfbajQ7eX5r7fjujlalahVVaqg+Rs4kq0q+Wa/qFbTNaj2JoshCOMfhgKJf/4rfr6G9wh8rpYrKmSPHtZrVHBwb17W11C2d3v1iLTWD4q5yi203rFMgisBODIERZJgcoub8Uf5Tu0xe97W/QjB7+047vJfMMs68jr945cMLj6xiq8GT590qeisv8kL5UlOvzarFFppYzQ8JSanwY3ODYvJpMjsYkTXThs3Ywt7kg3C8qJrRym9qP0cQnXhWciaUQkByJER71Q9WMEBJREe27gR2AiNbIzKUd/A1KhvSfZe9ytTPm/khm/LezkYn6Z2A6eGzEKUmUNxSpk9SZunWgxR+bxNaiO26vG6msof9UdL9Vc9CxelYUJlBqdR9l8nJmtaHaBGOoqvnuEctTo/Cw7k6zRZULlXLNSyOVlc2bfbCD3QQd7nDsZLr55sEZtHMMDZSTjayfqChHAgp5EjEnBzOTlnjhg9NhV0osqe80RoZrawxVLN2vJLxowKpP2v7mHSKOtu+2OVzjUr7jxNc58WVGY/T5R7Zie/z24ifM21s5XuC/hXzFn5Srfp8T2c7uAafFMvnmBBZs+EIy9+w9bfjJ9GaPmmKjQPu2f4gkDSbFrHK+GXsTC+EYxHxuK3p1/eDG3cnLwjDygBgk3C/t6lXvf1UWU45KeVVTH/cH2Napv3M+j8YsLyDY1Gl5RHCG0775ScJMP8CVgVXHErbCG8Wn5JwC1rgDMD1MB8/RvOEfhsQZX9tVqnztNkCfmCqiCHL8reXkfO5tO+g/gXLDZTXVTaTjXGST+kNQLfzEMrrSzjLRxYEeFrJKE9dhWtNbPyeknFtNMpfEccaiAmXQd3yi0yVo6zEL6uYCys0C70j9HloDQdvH/Gw3WoREk1Oz+VIamKneLacjTNwZ9Qav+4F8/ysvIylXXSs88gtGxd5V+AzJBKHN/uX1mgZTOz4URIWYqN47uzL2fH4sQUveqNe93B5DJowYgSTZlN+5IT8xIx/JNd9Ty2JWjhuGX/65WFY1XwYObC7nxgU8uj1STl7HfJ2scfACci+NcgfE/0clLOvMI5WXm5X2uzVULW10KuWp0rqHRqdVHB/hRIWR2qEptqT6uQ0cTnt0JuB1wMQqEFri7r64gpWgfHJNVGLL7bLFRZ0Ks1DFYuvootPnFifjAyT8aj5qKse02Mh8Dpc1494ZLeQK3JzT1fx97QhSNOnuhhb9BzzEb5enT+QqVEG6FFpSSp92/EggVJsbB2b6u8ZxtL1377DMsfWFcFpkEdhsrZbRm6GcMTPsrjxOkkBtPa7Mao8mhUWSDGfHhowe+NXPVOyZeDXjfN7E94tlfiSitMKqWvt0v1IAs0OwVl5HesBUEJXHWyDW6odFAAJsYTdQ5k9FIKJQa2RiBUKeR+LewRWF2+niBU+AoV5W8rJZNMYftjGRtcItSzmVZqgVLS/sVoCoFooW+7z0KnK8fncEm7CjpYtSQSzDINwDXysn+KaUJ8ky4y94hrYjObdcSoSmvlhWYtncfZinI6dKG5La5dldlK5/im0UX4xMDsRobEaazizRgm1ltupxhbxlkDbJlSsfkMn3n2ZwuFpbZ961ovrc5l6xe21RaxlmJzBKeJ+NzGbPDObBDf8C/cnkkQ8/PG2J2Q8sgnR8P+6KBr+P37MIVAJGn+dyi1JCJP6FFLBStDjKQS0DUCVCUrSZto+Rw0ImTmuQbKquTajSdYzOay1VpNtqAhZpNa0H2tJVbUvnz9ZjJPBoeRZSh47Mf9qJCWAPHtYAnDPgt9kXOTtDg/o4llCdeb6SKEhIUJp6MO7qg7j7J8B9vcVwEWjungu+RDdF0xi+pqoI21It7KRxaHiTTIauciC9dJQ21RERma0akqdOiI9CPXVnaLtHLCrtK7ta+IUPaiK7EF8ty2X99lpT5AaClh+RCcnVUX7+gv4ibdCN6JBTZik48m/PEJYnsGX47Kd8IjG8QZJdZol9PT7x70Kx+U++f/oPrjISZU+dPAhQeLF0ryYTcHxErlCmlhKWF2ojpzGkHTClmtNLPP1kNaC+JaVGUOYOoQTTC+wX+s0z39rWP/5NbgyKW0FpVgAajnkyMdx27xaAFkttBZo7akg/9TkPgF7HGJfUGIzqw6YmE3FjCy8qMz+KeBituLkZUVbBvSj06fv03cufHa+C1lLYEHQ239PhPBVG/A6PQcIo3BaePZvjxqAMy0ne2hdx6du3TCTmk/sjBsclI9QbScUd6W5uHfPoPQsnV6sWvWdnVsu5onNo39Q9G7s1uzk49C/kRkcisWejQ7jq8qw1f6goPdtCi33z0cGbvz/n2o/ZQszaXVoEmWJ3v+exDNCAqh3KLW5ECVJFZKQno92tPCecPDo/NTZ7trQjNT6s4PrKK3W+IFpsuTNSFRQtlVHF8K/RZATaxgpTNxKqnIi56bBWhkCecekOiqCQ/iuJiuVsAyTXxkLpFOKLeRj84/SmtETAMfv4VJD9+o3lghTjPPJJdnY8xsuln443fS4DLMAi1VauX5lryr4Tu0YseqnZjfShbqaC8OXRA8nF4Wb6wtWJ/t/zRCA/f0R4NUvpbbt3EfDeH+vuGA/OjuLLFGI7EQNY9GvVHZE5Q91wmne3sUoujlviAhK2e3MhFemAhhSFbdZ3y3LTQp139HV5ag2j+1dlxs+4mEFgsbdrR2sjOtCUUWicIF2xi0ycg6pjqXXG+WCD7RCYQToZ3XWPjKTq2mEZXagGuhMrTcQQNIUhCgmdW0s6iJyBO2oAOlWVlo5VAra/LWEIwwLcg1YqMVk03oil9hmrk0K3djMUjwKFhUj4mx1cpld9BisQwLnyMJpEHsgT0dHOGStBa2vE8kdgUvoeoBA6HfPTLYFqkBfvHZZyj07itFDCLv4mCmXZXfpxMs6hvj2OVWJpRIQIlM+O8QPBIM3vThfodi6TC5uj2DfZ5ex/WAl4ZbmO+gbsBIC51LQfgRSls5SC4mmr6XLtJBaVYLRYeTM9+/Bv4balSl7UVUg2mTKquQ7pEBTTjZfhmgBu2xgnEALONg9cH7eV6f8jLLyt+cx8SpZ8xgCkBVJ0Ho8Nkwrbs7O6B78StGjdwxK7txD0ML8oY3zgzpIzPDN+7hM0reg8VgeJmoewPBzs1bWPLpo/MKcdJtIxV3FwfX1rArcCi+eOnuPewKGW/ODxJLYHDywrUkqY3OD1s9eZvrdOFSeWYbj5vY8GmErr0ZJEMhh2hZbGRZVe0QuzqULtsFn6xccV3yK8q1vutRIs7cis+zcGM83mtv63cMWyy1ER+VzbAXGjx5hKE0DZBZDUIDooWi+ZBVlURZBq0yuNZn62o3nW2slTqMXVKtSzrfL5nOWmpNlkNOyXTbq3BfAPqWapvq7uSCGYTNG+naE7ntdCmnwXmgxT9mjq4D0IRybXTpyRMjkFrOxRgCMLBXwncqiY3Zwo5Ob5Q7tJQeGwXvSIQMFWriJe8lpolNb1XfvoVZwvtNvGtgKqOJSzPz/eNThIS5Vv4nt4m1EluVN3kuEbWWblWdHLhEmIO3qs8OXCIGqdCpNckmouUL/fqrcVvbr5/R8pUx/oifHquybGt5eWhq+9hvdJeaaEMYYXsR7vfKU8506vZYtAccuuIWamAelOCUE7gfIKuGkKq+2WE8a6PWbz8Zg06D//Ilr+MSXsGYuIA9Jl/PpbVgRHaaXBKmJXmEV+axpjQ5TyeFUAtFaP0AuCZpsX2RQ23o0x1wqnPsdGGPOgWOuumLnArQMtL8doGoOHJhWbeOGEZATKgOzjVyiWllids6OKIQTJG2byzONbNsO1pZ2MrsUBHPirwO38yld/C3F18S+ynTIsQXtzItSNOpji5sZLVDZXfF8xW8R+L0LnEthgsHQJodJCJ78FnNpxH6Gm/tCUCzvzZDQpoa0PwIle0flKk8mKPl5MSlSwnTd0t3/0YDroSOilppSVuWJNS7kuvs7KWFy3V2Gox5cYteEvBcioxdx3H8PIYjioKX8atb+BX58xYODChXHEtvQeEKkpZ/UhFxLajEBW1D4PNTbdkvL4kSH52mM+8IRox+whnw/Pepk0MADZwxWShLrLFmG10egZCqLbBV78nbWk70z+Nmr7gVj9oDWxZvxVos6JvHF+WKp7fi0WV8TtbjBJYXcdeIaW3++sYmdo4bHxP5ECUsX/sgdunFM8Lytui8afNnfHvl0e1Y2877v8up/VlO6VfcP7m95JjNs628JqaNvmmjc4giV6xWJZYpWnuDwQeLWwctbG67OkdSFXXnFbcjqId0SYUsqmMOaBuAjDqK0H0dRuqQuOlTw97Bqz1tPvfpqH8qokw5uyl5+gcGZfd5r4N6B1E58fgFNjgUlsjfmiSDN6P0VlRkp0FlZ5iqHWjkiGQk48fTRWrQyQGaSiHXHpeplh+d3zriEMlIOEciZZKKIJQxq7q8Hs5A1D3XP77EJDn9TJ8nrYlDjSq7z8M1kx62f2QKtXJMC2+6fJpp4cg51Z015BIw85UOA2dREdLWSzq+kyee/gEpL8fLFvh407xofnLo0wi9dv+QXlE/Xcf2IKUUo72WlsG3q6tc23NMrs7hfS26Fwl8bRanH2Zt8mB5J7u7hS90aI85BWJqtPVAUTvxQ9AxFzj9kPEjndJAOZcI070q4svfHInWH2bPteRZLYfInojRc2bjycM6U6MwOzQckiPEbafaqQapm+FEN7HPOWRGGe1Q1g1dIeifo/mSY1791fCwNGZMp4v+0hSIeQi2XsWZZsixQLqFrkbFtdJZoep26HWr04lOVyKEwQmyro5P7bZwaS1cfOGlpgVldvA3ZhcEM5vRzhNiym1l0y2q+DzOJpxu4xPLhMGBGABEteRKUOSk8YQCG1vuoYKx0gvWBerR+D4nQ8tWoXicf0C82pmk6HyGEeGXMTgg6Wj8cfOlya0KLRqzrepyB5fRLhxwQmBGq5HUWU7V1THtcVkk1obtMl3ZuNLBnfWCmphK1cToY4nNrG9X9Y8YITlnqd9tqLYI8riJ4I5Jzn2ikxkI6n9ATD2x8kSNGY676awG3pLct1MdJQXANwYGDyRuYWKNEilGjFBCWZV9UOkBdSsw1dAswyk/W+6Fag8YvVyagc7WkcZeHnEIm7emTnqvn+zLe73+0igvGIjpTjz6WfwT4XTCl1Fslvfj9Zd+avwb8fqj2TVsH6vdjG1MLOPeMTrV+cVvWJ5uw0kpH40H8bO3ubnPJOkwfkmQaB/zxOaXfnIcqrYYz/mBWL9lUjLS8+xleg3bP6PrCmp3m9muAOr1EXHJ8x2qDJvK60dpHbzJy/F0hXKW+Dw2P522RQiNeJnnvKK+Dmw9F7jvIOMwZ7Z78qtRGdGbjYjSbyN7bVqAOqDOdRPV6UaZsnaGhaMsIiGifOs80B+kREp4nGheRDixmaXLuZtZiy/pv3dDRjJ9kmsBoRkq7TSxGvbo1UQFNXBd8oWsw/RB9U7TQWqHsqe6awtb6KQIU0+b2aNGZu6E/RBrQdDC61vVaS08IQsxWXjPWFQlFl1aB5ch8cXteRl2lrdzYodK42ULfexPc/rmJ9rPIRQf8FOJnt6uOpDUm0QDEu7bXhP+F2wLVZxRYJ+dy7ewV6fVRDmy7Twn8WkWHr9SMmzURyYnZjn4g8l5ISe6gauHtVUTY+YzqtizLiNzmKh+zmyr3d3Ec4005kZQ1h+iAGU2qkQzvUowUzS5ZIGMhNCJLAN6uohcN0yExFME0a0oev80OQG1c5urbUBnjNH7nBigDEGf3ghCI2w8U6pccMYLR1pB3YEI59Y7eKLcmBZVVbeaqP50iT91WUewttuRJ/nyeAtPNHiVgyPo24xhvY3VJA37KodWcFAH8rhbrUv6O0av9uAA5fFz42xzmKbn7n4uwKxfhaJJnthCvE3YR3yPmLLh4ggn9k9C/5C6xIrOjagLrUhogUyrajBEly/LtCcnLHXwkZE8hpCqpPIO6SsdwLeoH8wbiRQnBk08OlXqYKEelVrFbOLttfBFTaIzfOFIcoKMzc9yHXQUM5sBJb8FcVaBVAhdI1F+Jw2Dl4ZRKLiEsmS4Gr9ETdFW7vbK6eTcA+6oW0uzoTKhYr15DOo9oLewhZ10It5PhPdlInbQ7hLKK6VudeYPwLSqGOJTNtK1xslokQFoG18weXWEaH4aWpAIy29iKUR4v5Zwun0eu8YMBLnESLg2f5r4SPFNHI7TGYyv8MfbBwgtSahe/YJ7Z5Wr8wuiczulJySta/EbseCbvIJ8UfxGn5+jK8xXU3lHV1rjCRJJ48HyAuEIxowexO5wxCq28ld6TMUOLd8i3AzFMwzsMSeMjgfNiuFgKwr5gzcW2s71qCOTW7wBUB1c8SylNbB8syqgLKXVAxG7AV+CGAmcQbUyjwWiT+r4WBgLDcDUs7EZnN7IpjVykUmcWU8EBb9G7NZGjqli/Uqc+xEyDHSdM+KtneoWbk/ijMOwp1m3uYDTqyGznsNrWDBAcSe1i4UmVOw8tBXD6lZW3yqyVorfEnNenbKfLpPZwHEddPFxTSPPE+FGyNZCP8aiHmBFN68Jgm4eTi4fOvM517NsndsXorZbpptFfezzZOc+O+Q0o+JCfWmJzmwx/tRuOnh4v75QR3xHMsiZEq+WUKnEF9Tzu6thX7eY9SNwdYg7LPwxr3CFoG+M/DHjURcAkw2bM20Z2ZD7Q5vVqubUNGjismoLfkDwFTjb1eRP/ls9Xo3QldHUdL1aYS9oqjfwelRXBcw3xEh8pNlLnS68nsj6gWNyAK8t8DRoIJIedSH1aPG6wgrA5AP+Oc7lp3qus6nGz3j3d8nLn9EPbDDfAN68w5TQiCJNatZRCZuM8/P4IT7bIwpWgRrt47VCO+Wb3uChQoly0uh8bbofCZNQsoJ0t6AswTZ8Lh6qT6g1UcichbQASvchzosyFR65WOhARaXiOcdgZamufK/uSLWpuHC/2VFR7QZEA46cxqJ+/ZAMMsol6utnzPyIii3YblFomPkrMJVqU4tsnDOYaIOBs9/rIZm/FUJS7AAAIABJREFUM+TrU9mn5kJ9akWDo4UCcf9pz+FDqdTpsXw6GKRhbthP/dc/QX2pSPMrpPEdT8/5Es7WqZmv6FW2Fn0q1Wr8UZV61jmDOpWMOXaYoxGDL6FNqqA9GdDcWEt94q/gYseFtGo67Y6I5iKn6afLeQSVN6OP2uQ84rw0j224/IeI87K2ikPLw4TT9XOU7OR105E1KN/kDb99zmxa5/csQ/4yst+vOBOtPbYicGOISc4GO1pfe6zaaJOu67/RHm8wEN6Hb0FsB2LrMe18hp2ugkjn1xA7WRF312khtXQ7szPFYNf2nITtGQWpeRjJ1eveTmxI+5LGTZgv6UcC0K5dzBf05VNH6YyEXZCdJW4v48YgjUrNpA7RuQoIfbF9c7Sz4CD/lYrZ/sjABzObECQXHISdCRU7AJGTdd/r6JzcRsiuooJe41AXEpVl4zLtSGxX6TysKMOJAV4/8z7SolVP8pp//0z4rnxTKFqBx3jbU5LvBdUzwAWA6ebFb7TlJXnHDotms+lUq7EwX5t9mH4QQ3TQ/O3FIWiT4YgNyjuI4OfhMPuJWRzvbQy3M+/mo9k3O+sspuZqILpuHf92mhjDvDcDbHsk3rt+13s3eddGzPvTT/4MJGbnuwNpDLevuSK5IgVl8Cor+GYqukZ40QZ8N1/Xl5wENgLFYSo335YK/YGv1/2qPfXbZxB68GehZBUG32zXQfSvDe+eQ6wfQQ+n+1Yl5ufptHzJ3trib/fnlOQRsxEkDuxcmpMWCkDq+yMEoDqWqeH/5Q87fPoI8/Fp6D00USJ8fzre9niwb8mf+eKLHXRzO/dDbz+Twew8ky46+PbmO3PuUsxU2lSLiDVmZrlGlNEAgo01+fXqHhAG6ISwkoBaPwI6H+TPQ9ktOLOubdtUV67D0U3U/Lv++ScRWrkpFK9CYRyOrvFn19tyFiBzkk0nZo0XZbjZeuICEQx2spzEITvLOHnkZBkXErp53s5zdpRcaoQmi5hq/mPS+5c29l1z5ysViPkzhO/a+UzINn6/fHcIJT9w8e6vPxuut1Pq3tuY1CABx3H0kw3pX6iKWyqYDpTWjjRuQXCyhZdRkYx0MuQOQeUYlE9C+TS4wnAmCmdCEFrXVy5DYE3X9RDMLyo2P4nQmw/Za5vi1YR4bhp8i+gg8Z2nwRoEeZGtlMEUEs5N0oXD2kbAPwv+W6LZD4KbLjec6+A0Ni6jg820IIM3jzUkEbrrUx/K+JwcQB+sAvrRxgD7PtsmJ3m9JVL0gUBMsXBKQP/5BD06sY5NLd65I9V3fYHoh1w4Tl3WIWqcvOBmxRHW6kfEVZfngZjb3jnONs02T0N49VDlIpjm4Ngi9K5rrfeR977gWxcuYtPGJxFqerH/+Do/GIPKKBTHQFwA/RyI81A0pxKnQZxmdWEonEEF00JBCPZMs/lByJ1Ee4KQM4ZyfCrCGryb59yc4NC+h5rU12fYD17sYwpCb2dgfhKdH578wdWfFAUM4oF5Nz3yHfG+P2DvyBZxHJ/+J21Vs9G3Hrm6NizfG/atKzefPLr9LB5/vbH2hvrqfyTnKL7+z5qj+E5owYdTX/8/9q44pK0s3X9zfXO3ty6XuPQZN5m3pmoTdxvX1WmbOHFru9VYx1UZffNasq9smAeO9kmHttpHtKbPJDRgGhVjDMi9okFM1WBEgqZUWskfJogahBqpNgWNTMtS7DCt0CmU8865aqd9r/NmB7owf/hxvNx7PLn3nnN/5zvfTb7v970tJBBx+490jnmd/eV/0/L+VFVAkef3gYDlXepeYdgT3oznpV6PacKH9H6GNXLvo+Pv4RzvElpgpE2gRG9bTjuZaV6PJkXCrGli9wjL8b5/krzu7Pcd/4mq4APqg51URrvqlP6QEW7mw+1YWtiG6hvnZH8pTkxkGlzvoeP/qAHdn8gQi/LD7WhsIWReGKadngg1RA8INMD7mO2RpcjgfijsC7TVH1DwpipISPjFm6P5TlVACcNKY6t2W8/uZBYi12US2O28V1RCIkXR1O6jxXUMA0kiUff7yKLyjxrQ7IOq9AMHPjmYrcg8knrgsOzXv0o/qJQekBZ8Ul36cfU/H/iN4l9kGR9lSqW/UXwkU/z6V5kH//Tx4SMnc45kywpUh4/8MS3/yEcFVafL/1L839pPaga60R8P//VIqvLYb1XaY+XZvztyOuc/839/Ki/t3/IzP8377amPZcXq3M8r//jX7NTM4mPaP6vLP/ldRb7y03/9Q0N26p8KcrSn/1B+NK3gtKb834uNeb8/Unzy07+cNmiy/lxWWNf8X4Evvuqo+Y8e9OrH+/Wjshf49Z5lb0Dfs+wN6HuWvQHdk5+77GF0T37usofRPfm5yx5G9+TnLu8Bo90On9k0YDB1N1iara281d59zTJgtAxfaxnutM2ZLM0NLXx7G+9y+K5ZeJsthBvb7N02u8/a6utsG+9zBNutfJ8r2NkWsFoGOFf8xy+5J+9Dtnnongvf9z4TssDEhP15gZVjFRE/3nnBY39qdxt4hW7tbvGh91sUwNst1PcUeZ4i7m+o52vUvo461xH3lOzg4voaXV9HJqFcW0fWDbLTiIuw0/MU9W0hNz6JcK13yg9itAehToRsCBm+Q3VP52qeBL7A5Wtev95V9cBU8qD5s+Wu9gekpcsxzLl4jDYPd8/fGxvl51wOnnNh/HX3uII3nQ/9HuTnQhPuYL8r4Baixvo6xnvsQZcj2NMV7Gwd77QNd7cFuI7hbsdwfRNxFTwTVqrDdFFYVDZLa4OSoukM1TSrnqByJ0F1m8qZhCyB5jB7klZNiHImGdWkLHeSzrstU0/SOX5Jjk+snRZpJkS5Y2z2BJszRiuF5L+qSSgUfpDAJXsKsqep7Gk2bxrUU7ieUk0z6mkonBbXLNC6WaooRJWGaE0ISghNRqxvsdK8oGpfKdYtiLRhtmqWuRZRlIRp/QLdGIXPp3Gbzc5oeX9E4l65UD0NrvVKbj2/ZBrmt7qnvqnVCcwajSHR+ZAohkzVYXiOAn3rqrO3iQtV6QyUBKFiGsqCkBcCTRgKZhnNAuHczMPbWcibJSyR6gjkLIImCnlROneZzsXbKKiiuIbSLkJnTL+0Mry6HOiMMhp8/7N0e7R+Y+Uh2kCdUUXRLOGM7F/m8SHaiFsXZPj82lnwLg8/XkSby/esERpfVztLv9wSwr63UGdEmReGkgVY3HiIHiG0vnkN30+Q/mJWTGgunhLHN+MC4aE8M0PCcITKzYYIHA9Bg5Djb/urPNuCGF+98/5rT2XUt0KfvS+a+t6REU+JytGfilED6qp91Xx260LR0/Kiv+WrNxSaddnxaMbrBngKdkaJW7ObC/qHYneGNlenUGAs5uaDkakX8SCaGkF+T2hq7MWEB2PXFxi6F/aj+cnNKU/8lvvevJ+wRLidwTv+F5xj3NUa4Lrmehz89RYSk1vgolMdEAjOBUZ2HcYFD/RwNLQRJSEYWMIbEamN2m+mGSu73yhirIzYLJKa2AqzSN1IpxpZsUEkb2JTLzKpF9nUJpHCyOSYWLWZLrSymjYo6qCPd4GqDTQdtKqLpCPSdIHGAeYJld+nuDmmmJhWBiLMJQ7806rIfd31wYy1B1cer3dtkdy1JGDDO7MTCKJyQr2QIbvntmpt+UR8Q9c5xCAUWYrWd3rES9ET14bo+IZ+62XEP5nx/FuTaQQCUf1aTAhAEEhlrnnBPEbKeR9oeuE6nlFekj0x1QdpPjwtFXIPtM/QtT7y+6lhEF8OGidJZp+cuyCdhkNBKJzc9WR5RTTkWS9d6tN9/6iekKRHZd7dgF8BXkUcnBeY/MnYPkHP7sfzeuHy1PB2g5dPCOFCHgemu3M7NY9ISzUP3TO7J9kgzCzZPHBB4Tr4I49IfVYvtbL+/VPDzdSDzM4Pc8Lt4TlQMEk/3yVAEGTcjR6id8kPYrTmpf7zb3QFT4qzN5TqdcYwC+4JuO56K6LBP7i59S26yQUIS4k/HpmIjXpCi36M2lB323Bg5B7+101ufJSP9LkC/Vxs9S4K+R/6SYrsmJcPefmHblfMIzQI9EZ6Ovh+Lmi+Spw0Lhkl1U10dQ1ca4IGo+AVuI7mPZsMQPIHUJCr+k6gdc46RzVaTrhd3Xd8w2vBoJsbLj2WkXVQ1mi6oZRnFB6tLNMWa0tOlJUXV5ToCnJPfF5VrJCLrMbgrcHxpbshF98sN1JgZCgTm9AioloIA4feRaJ5LrvhMg8NvTC6eOXyIKFFuuSCRg/J/1TKE5f0Kg4KOwijhMqBnzRIW0nQqb4LquwkV+5ZDsqcUOKCAjsc7yA0P7kOKHQSspQ8B+TYQWUHPE9y7aC0kpJrA6UDPnNBGQc5DjD4IbsLDD5I56gGJ13hhhQOWB7ELjANQq0HGr1Q74UkLyEB2j8ETC/FciBuE1W760tdlamtDNtGJ3aA2MKWWitLuorFFoq1k1+oWTNb0KrQWDNSrJBkp5NbWbFJnNciU5tkYivDttLJNkZiZXONGWqLJMnOsDaSsj3JJE5vlBTZM8T4sI1NslNiizjtqiitBe+LhMImm8Vyo0hpFSe1UcltjNTJpJqxXhArO0DiJMRTUieV7mCKOOUhDjK9IPeDZorS3pZdDitrV+j6J4r2VwPvAOL/g9Hq72q1T1WadYltkfYIHhRZPqgaequ9zRt7jNcRO8kxsjFDgo1CY/H5iYcePnTLF5ronfM4Q7eGIn534CY/Pj+GvL0Rt2uccw6HJza9fHCiN+jFxgAfcrtCuAHGdF/beEMdWSMyL4qghILTFIkFq6I0F8V5F+lqi/JQFaU4SxV9KSoxKNNOUtISWldXazPfQMvkfqxNzZlSUUoiZMokpqbaVeuVmLX2ceuNuKU51nrFdfVKlkwpZihNlqLoKHF673fG6l16knSHePFSuRdh/5ckjf1xO1XmpLQOKHWCViheIZVNJPZ/x4mEU5NT3SXbzkGicjz3UZqFTrTS4lb8gBkMwWwb5LSCwgIqG6haCUbzhERyWG1jFY4RnN0KSRaqehCkVsJR84UbDlmgwQ/dE6A0Ad0GtBOYNrq2F4wjwLZBqh2sI5DDwT4nk9DFJnQwCR203qNfWpjbWkHdfhU+G2umv+Brn0XR4wVk9qkYXGOhq3t1a+HNjSDqv63fZ6aSLEznmA83mLobN3okLMmLR9+8O/dsAW3MIpe/mCU8RExkAW0ukKg1q0+VbKEP2ZiVMKnBdqt5UJZsZbPbZM8eoJf3ybXavSfS7eKCLiWJwiIWAuqeyEh3iCq205IJNe2383M99PXg9wR1m6jW9vLdDIA/iFH9tzrNI8XnG8zUDLTfhpRpVnwXNN632nMzZB0JDMYfz6DHYcL5FPKhgCeG1WdPx7iHx4gMTQ09vDN2785YzOue83OxRf9DL7YN+HFPb2CUC3o4X7d92M/PcQ5+1BPrdwYb68iNGoyUVgcVNVBmgDON26xpDzMZuGaOdzvQ/AiS/hLKTrLE8XM74VsiocouOFmslucrUzJKJbBo0sUs9Svm+pipPm69stZajw83uWCuXFlUrjp0ACTHILUc2BKgS0BtZPdpQXoGEnXEG51qogir0VUqoYmiDEzCRSbrrK7inD5dJsk7qpJnqkp0F7KyMpRqmc5wQy6TpMlkmWl0ulycKqGUWQqjszbtKsM2UYUuCqtkiY1JMFJ0E+AVv0Eg9cLq+ZIHLgusdbW4ZhAwFGrcoOdBacOrOY21qcQIl0egxgusHcBGUzaKstOAT2WjE6wMbYUEwgIkMCvh+lY6ySbBj9893dwTJKz+epcsuYlYjaGFgVvhAbyya62iVFPG5jqKLNwLhwPPY0jTyua2EU/C+QU+NBvE0MkyMmoLsQfmwwN3Zn24RtlIaVpJoOVShA9HAugBwjPtM47YA+FZPrwQwGeWGmmdEK26FA0tLkaI73QLddkvPLT7vrX7ZEdsphqFlATYfiAwfYWULroz/AaYXgbbv3srm+XfgdFvygu/VlSsM4EZ6JzGGIWk27SCp95sc2caxWMo4t1cnN6MTBJVOjp4by2EAiORWyP37gzFp3pDeGdqJITNSgzTCU/8Jh+cGiOEBje5gZt8DL/OYxzjV64+Dr9L8X1OvqGJzC2tKX+HqyQTSHonqRCIf+DtLISJu4XZSaOnPqY6fiw/RyrprNPHLVc2LFfWzPVLV/WrJsLIFbNcQJMo+7Cs9FSlWgZiOSz59J6uDLQ+vBZqfhwmj/bl8sDWir7WSZb7191ssIeU8h2i+RSRqOFqt1KcoZRkaMuLJ7hhd9vAza7ufmegv6Orx8brzuk1p1UVNVfiQnou/NacYMRGAss2Eo4JQiN1laYIrRdDAmlaiMd4KQfyFqgdIyaE1AjnR0DjhEQD6AahhINEM4CVIqWVFgpJgEg4qsxCsTCk0kYDBm4LXlszjpuKk8gco4BcDtfI0g3i/U20kOKPpOvBh6kGGWPAM1CUbBHtN4ikF0XJXxJHS9yGbmGZq6y0jk2uYfc1UYxwq/uERB9JTWLGyCYRbiw2sYkRN4rFwmGCEVtKbIqRTTWKUow000IasCaWbRFJjKIkE5NkoZPtbJKVTbWKlHaJtIOVcCDthVTc0zHQhdiaFah9pHiTEuvvwmjVU13BI+XZdbE/CK5pSJ4GdoJWuFVvtpnfQCsRki90bQbdGtrE7+yjg7FRdxxrxMgEXkkDbu5hvys26gre8cbx4t7nmsNYHOXu9bR19XXxXEeoryvgwaj1vei0EnoDj8tXJ+hRiZoi6BT4thJOsTuZMg9CY2t99cUTx0+LehzjFeeUO5Rmu8RmWUcVqsMqeZqs5kvTpVP5EbMpZrmyamles9yYN14wncOKT6mWq9RyWRIjEFDIBNaeNCGA/zCJ8WNPg7wO8ixQ2LozMvMxVFpXq8pVpEvEEgl7KIVNPUBV150oO6mwWfQGY+V5Enapv3yxst1y5bpVnyUTYztYc/SEaxBNLaOVrxGhlTCwnhh5vdiMkteIdp4w6L0UarBkGyGlkSzxeU5gawiNIjZkWQNJPoUxqmwRhe7G/JORpfDcs2VEtLuRNk/6YuE4/ngmhqxpG7JsoSNjM0JU1ONogDHQdBOtd9biFXkliJbCwcSrNNNEXRpsXp3ByiUeCQ4kGamEq6wXL4bLaDWEnkfHkzDmjBLv9IvnERQLIdwIrwZJRtFqlCzQS2G0FY0ktzDppgyiDtfRahgbeAPJRkZulOHuxMOb2LR4vhJgCVsbiV5YCsbj2E6I+sQmtsBRiV+Vtu6TF6a1heYsDqrH3jBAX3a3f6dH75IfxOjZpyc0G5KKdToQJHo06S4wUyDxieVecYpLwWJr2kpHnhD2ponB8VFPZP5u3O+ec7vmpvxzGKkTQ6F220C/k/f3zrlcN272jnNdeGUP+d33um28xxkMDM31u/gJbIN2DS9OovmheL+LEJkZjCT8NEtL7dAVyQUAYbyeJqhttI9XfKmqalToGsvzSlTbeT6wZpVKgE2Ey8aB47mqLKmsRJt/XK4s+ERWU6c7X6f/7IxOczRfmSY2NvHZEln9V/zqAio5l5FZwu7w+G0HoR4j/FI5jRQGzaGvqMcIBaKo1vUiU04XnKpMSRGlpFCjroEKbXn1ufzLdaozJar6Rn2ZVuXtGui0XOhpGz6UAmkHFPgeqqoqq42VOtOc9X/Y+/6QNrK+39OTdtbRZe6EZ3EkXq5Zq0bYSFHYjV1L67LVVkSllaIEhNA/qimhYquFRJtiEgyYxkqMBiQRG4ppq6iIaIrSSv4wQbpKoJuibQqNsi1Lsct2C22hzP1+J7G/dve5z77v896776WHIY4nZ35k5nO+v845308gxLVyxWZmePqSFH8EgzUsU5DXz7bFN9Abpx6tXVI1IWEf+EkVTmLALGE4mU2uJbrr6Fqp2rjnj8VKJ1fTp371YFPWSlU21f2o2DioPDdy/lUc06URsCVM/I8x0R444pirff5MPOfTMAZublX0z2s98/oXP4n6PiXbxq+BTJk/452/AMZig10h7xLAE59Y1F1ZOA+Y22dm5F3KJwkxOH8hcPsSKOX9iFo1WHRzi5euLfkwm6oJDGuNpEXdc0tTSBBspKpuDfSNW+H2myszyCRnJKUOXLm9tnojuroprotZJlrhRenz2wNJ3T8T1X20ZuQDA9Tx65E/AOI/x+ihn5Q1cTq7RKxLhJ1n2AUmd/y9ZDZS6GvWF/d6g7dmH4KuH/XOjHqnRj1TVzyhK1IeHb/nLpiht0ZAuGK2ovgC0gtOjoCbPzXnD1/xBL3uGa9nBuwBvxdT72wsiR1GtHXCU8HwVGhj4W789p2teTf8yM2VuyjwBEnX86m8kJyS1NQfMRjLMQjyq9huLC/OymP3kNNm8OtV6sK8spLysq81pV9pDn6t2felst18lctgD3+jMdnjmI/GOnXMUC7/ilzxXro1O/VjGGMfmA9Bi0vtjWNiS++U+jsV9zkp+ka594s81Rd5ZUVqQ8sBbaN6r5Lbp+TLCjm7w32u+XxJgdBi0CsUNCc7b/9XB8zmGaOtvaL2wKlubd2AusjET8TePTkwM95/1MJRIrQS4zwpczI/JNY2H6PVsddEdCOktI9kNlGhhcts5rgmLr0Vs1TIwEQ2cpltyowWTD2JWeqkHJRIxgUauZXjDDymsmpjaCsntAjpzZysmZJOzGFHpVXxGU28zADtKVjetI3F1Y0GXMWJuYWkk6c3s1wzy+C1MLUlGOVsGwc1aSaWdqHRkm7iBahpA9OFpmEN5TpZEJ9wddbMM5gQE5cncp1MJq4TZlkrK/RjPty9YBY7wetnsr1MwQhTMkGrQ6QhSloSbMez4+IflT/FaMNTzcGfVJVxZnKJXFwg3DyTs0jUc6n46P1Qqtn2ijjhCwJA1xbE+4vi6OCNm9cfTlwPbS6JP8yJi4G74fHtoO9OeDoe9CFNM2aB895xDVz1DoYmvcGb10F2+hbH0ZEadg+BBu8woR58Edu8Gboj7Yi6enxnr1YfFmupuCreHPGVVbIe79UWY7n8y5Q9KuMJ5XfSRe4mTHLncwnKu9GQBSCig6WQUF5A6DeYSo5WSsZuIXkBxujGBTExFF200G9xtbuskRzubC8qVeQoaY6CHPxenavkc77gswRwjBiwR3P+IWQLinxBmZ3FFGTn7c3KK/hCUaDIU3+pLM5Wnm7Tu7xBbZvO1KuTtzBVnuP690SG3ql7/t481SITyW/DREqqXpLVCi4UI4ovcwwE3PwScKuN4GZdgucMcu5wN0NbEDcm//nF6firdRGpdjF8BrYmU9GPIbnA1N2N8FqmEZtpvRfWlsTRQGgjfDerjYMa19wMnCeyiGfL7eJYIz8Xwe4NXrn4CuQfprXxL6EACofiYkzM6WTSjdxiGEP64WU0ThRdoP3zQJBD+9mFTZAOhWYm36J8kUABOXcbz1zQxahB1/+Ebn4kIj5fC+eaqcapAfEZXxXX4IoPtksGScPUzkORnsblX/6iHD35i27/Fl8RJxNLxHibcAu0YkVRMsE+/3ASMFiiAQwbAeA2b81KnlNEBJX9w/zLyOLLR/Pi5rIYmdieDawFfMGA3zc6MDQ6OHNr7E5kWtyY3b7mm4Ft1Hdj0nfH5XD/ML3tfZvseH0nl1ky4vNMlH1BLvblBbyMx39hbiF0znIeAZdBXM68jXDtFa9qbZw5a6QsT/Z+i+jkviK44DuLZH0rJekqQbVe0cSw36XSRpJKJMZlj37gCKaVkItjpKiF5H7N7Cvi9n3Ft7Rpaxpqc7N54QsejNIchSI/iyIFtKDcq1AWZAFAOUBqjsAXKlSqLK6kQGnt9t1/IJpsl67N3+VaaaGZO2RXXPRrrd7y9r4jrokLlRbW7BNkTZiFIdOMeT+M46TI8u517DUS/TjR2DGRYDgiHuyilTblkwci2wSoVf6wJNY7ON2A/sfwS5kRZSRsEyvi8HS7aUrzGtRuxCczsLMLAJoLPdePvHgqdvg0IDsBMTfn3a7x2s17otGrkTXzP96DNmdc43oAmc4OEpebBO9i/sxQ4DwYlDV2nmtTPoqJi0vtQ1NnoOZgp5DRwm9ExR9CQxNLM+DX57cSwai8tSJGls+D9od+Aro+q1v9JA6IDG6sxAGsoOv32soxIdLP4os4gnLfANnv+UBwXn524Mlfwmj9z5qDCb76AeNfJB1zRD7H7Fugh6ZrP2q2GRI9/Vcj8y/jIXHu+p1b85tggE/41p5gHOpudDG0GNhcvH4nOBIHo/PW9DaYpAFvcHECdu7eGtt0OX0oUK8HPYNDVtvQcP/MtbcYffHRpUSuSBKEXxBMVval5Oxn7/g9Smm/gKiqsM0+rcTl3IgyMr+SsCXkBKhC5HClGVWY2odIuUpIQ5Jwj49spah6o7+KoE8Lu0mNjVSYdQazFszf0bHNE/VHCrPzVFmK3CyuIEuRr8gDpGZn0awsInwhFCrVe7OVOVlKhK+QV/Sl4tY0nu3mPHKby5oY6BJp9Zj2WmvQaJvLIyGxwswhqWIV3gZnJioTBqFAdoZD5ZsrtafMyC0Nnr7agiJWpmXSa7m0pmQclwFYUwMn07JMEyp0TErbxRBkP+dBI7NNrBz+NXASxy9lW7k0LQPopG2osqmJSTeAKudYA5vM0gDKPcPAZzRxadBA0vW4Br5NsiugDWh5KaMH18rL23jOBHqcB13Pmlg5NDMxjAl8OFbWCeKckZs4AdqbJE/fzLFd4NeD78+Cj890c5xNkFu5HCundrKKAVbw8CofU3KdOXGbaKOkMcEZnuru/yWM1v2s0SQUx2LKawvEPE0KpknFgrpoRPlRs8UpMTweD47f/WFxe2NpOxiIT3hn4kvirfH4D7PirdmXN8fCwetrEejQvhB+BkKj7qsTvrCrzweevt8bdDh918ZCgZHgqHso4A3N/TmTC5dL/L5weD6eX0g8XrfVdr7KqAZoquvJyigqAAAgAElEQVTpxT6NuDWz/2siPp0BnV5mILJCom6iad+S3FpS0CQlQ8IRAcq1UZWRFHYRtZGozbAhB0SJhWpsjMqCurVnHDmamTYuo5m3+jToVH3HMt9Q6ISKDAJusjqLvt4QVQoc/Dwt5Zput4Q2o8hE7/HeAd2nt5Sz3+IAxNlBhUyLeTpAZgPORhfCQ936IcuZRyExP5usmRV4crAFW0lpNzHPknxjSqJv/aRH1GIqNUbWQn+MzEQWtp9HRbNPB5hmWrmLEyjAMBg+ZqFGLpkvGSwK0DmR0Msnq9uHu/hsq+Ik1DwQr/iDr6JiqRnxZ53CPIaB6zOgl6p7WZmBG5W4VSfG0dc55uQyuri4FNEclkKeIO9B+4OnBea7y4fvptKuYjt5pPj9WezxnAcZWQa2ZqeQ9IRcYxg6rLKz1R4NHPLqZ9EbCMIjKrMwKkn7/5YQZ+eDcOcVblo9siPypMx2E79qbv4ljB57rDqU4Cuj5Pn6O9Sc6N3B6M6iyK1lEWQn4GYyEML96/E5/3Z04eXcRPzm7HZwLDzpC88F1uZ8az/OiTfH4tGFbf/IlH8wOOyZWpzdnhy7OzESigTuYChqcAoHpUY+vpNXUlK+HyOYT7uoUXnS3O7yXBr1T1W0loOw5EqJpU9TkE22Ylf3fkU2H7QzX5JDRsJ9h0jd1yxJ2VJMeCRvJC1OTBCLBNZSehhpiTWyr1OJJhzzmmF2QgYs/RxrHngwlQMoQjI6ub2NOPNj2Ism8uQC3s+TP6cOBImc3ixJ6CZcfXzQDm4KKxilUZY4AivuPy76NHGrcsiK+RnlraTOiXnAhObU6yhtIRorMczhrZJ6Ojcvam2K+j7Nb/fETC1lWvjIsnhuIK9lQIfpkg2Y3AAE6tq6+GgjaBjRzC7fDSxNpTVzcysiePT2gG5uads1cQlkanAVUPLQdf3I87joGNeD7Hz1VHwNSJrWv3gg9oxgkrVtQNIGtNGB4G/pF9g2TEz0en3bO4HxyzorJwdESiP+fnBnn4llnVTRqdzGcfmXt8Lo8kL/z7fXbj/FNhtSrjp1F5F3K+IJST1uSeP+vcw+t3Ir8e65Xf5FHfn4Wf5TjLY/VekSeRUx7NmR2N3LoRvbG8FH8Y9HAsAxuuK5MweOuS8YnRYfLYnRWRxwujl3Nzj9MLqEqB3u902O3PFLlC2TvhAIzoB3xtPvBo8KEOwdvOofDHkHfUP9l5BAQ+oRLqe7p0/saL27+UC83CkFZRNSzncpISzAjmviC6tAUqKKrzOj1DznVsBXh41U/jWm4SxolAxQjCjhT3gkDZaCyyWuvrt5jYGJroqnbYieBtPO8sU3HzdjWpj0ZsVEyCf/lnWNX4KO4fL7wGy9PH7jUKdGXcXkNPL7mpgWr76wkci+YYx+lRq17c4GPpOTO9GP6bt0A6RlAHNknHWQUhtmnMRUf83koAP9+kwDKTa/eyPWAKFtjCagQx9cS6XEflTy1vGc6IlDN2vFzDDULPUuI6WgnZsYWRuLmSsNPGmhoK/T2liZlAaMdGGOMahhW3kQzyjg2zBin9HKYnowE09NrAR30PsM28rKWnkU0uDvd4KHDtDk0kCPGzFogLrexIO6T4OzdfEsanZowGRBSwz7U/Dh0uFfM59rZdPNNN3CcFZesLEFvbzKye2VCKSyRlj1FD22xJxbo6cT3LmnB0b/EkY3cIA/1DBP1BNssUehdiqK3QqNV1lsVhV36srMGpUW41CROXF04MawJxRdFIMjL0c9UwFP6EkYoPkQhOXirBgYRNmz4Q8+uY2nnfCJw/1hhyXYYwU/aQb0vqN3yOUcGh0IAy69cLjE772vQcEWYaIgWkJpoRTPB0+8kuJnEZEfJYdaiOxrchAevYJUGDCzdpmByktJzlGibiCpZNHfkGT6XTjhrVURHI7nSyK4cSA2nkszbuTfEL3bPbdwB3CpUOB0Ge+EGFl4GbwejIyvXVtIPQrU1w1MNFwuO0ouenH+QP0gyTehqVDVh6HNDj96YB1ektFC6vox5/zWs3fKJ5rAjq1zqq6MhOBCVSbsctHQy/w2qvUSUPQZBnrYiRNT5NLho/Oa0XGuqpe0L5BkFmSL33dz7G5gZDt4ux3QBiAbvh3ejIhz0/Frs5Y0sCA7MSX1ob5y8Gl6vO33I+JZrxqwW+dpf50Qzf160HvnBpWyVtYyjmFza3/7q7ho8WrSWtnL86j9re721+ugqXUA6ElJmpkcx0FGXvQegR7ym6Q0LAOYY8XiOwCeflKROkZwcoXde4QzcnFJCrhGULJ2eDWZncL9ddTsnjF8FOcG87LNAqj+5wlxcRkh0XGdlAyo31+Hu/Gm1vVHSQv+FKOnNw40LIFmvxtNzLx1X070q9W9gtzC5Nrz6iSnDFyfnm6La8BttbgvO31Wy6XFQHzIORSZvePtH/I6rgY8My7HBavt0sTIWmTuZWAwfsU9MzkStNjO9NiHHDa3o9ftBUXvueGy+QDfAWmct9KsZCuZ/WaVadGNDvh3iAzwPFQGetBI0ksl2fkNqQSD/WtSaKCZlSTze5LTIPlSyQDTzurwTJ6cbtUMOfThqaCnr90z0H7FZwnfvrG9eve3lTsvYiHYebG6+WQVTcn4cigeCf24DIbyhX1fkdwCmpNN2C+IuoSU8piCusxIjvVKXPG1ZL+VFBhpAbjkAZLWTC6OE64ZGTf0PpV2QPHoadwSAQfwrid0nNUSWQu3mRDBm8a38osYDG3SJrqvl6S3kLROCtA8N0XkzaTGnnojcJWWccksMbC3lkTQvNX2A1urYnoTkRn4WdDd17Wn+jWPkPdIIg5o4xzSgLjeo752+244EgRJ6VpC3drhVXvmZ24uTbEtrF+aVmcPaB+tijdvT4Hcbfdj/MTh02/FxOHxdhCoFyUx4fHrX22J7W4VYNQrHTUsTeSrtzGsgXMt4HS+uduY76rKDJKYT07PWwzFwfrUgHw1cpZZtHviK1hfYqJCJ98ziz//9QO0XA87mRwn531PX7meqTx/tHT8n83Dn9yQpqm+EOP3tocW3hu22jmRd3pzyPbH41f/wfIrvr/tFbHalsc1c/JWvtDM1Q+o1Uam0kz1ZowZnbCTjG8w1S73LSkz0cxvSXaVpNmTI1JZqfC+jJDZvrD4WDSZdXbzeY/9QtDn+21Z3FraHLZrXXDbq+It/8yV/ksbU3dw3vkGGovDNsvrFdHb2263ttvNKDZe3RbzKcn5GpN543DUUewqmOG7GZP1at3o1lyex0CBcQzzxeeYSaGZMGZydgzTTLuWCAq5NskBl7JIgx1MmyXzt5URrCQHc3iTOg9pAaDXk2onTh7t6OfrneTkeDK7Mh4ia2RkDcnk35jQFn2pZo4mvzWCE83LzCldn/THJaceLgFtOFbLyM28dA+USHl/05opK5kBSVMEMJcDvjlYHejas9AyvY2XG6hkD4DlgJ/g6UuhAEbKFcqkgaJvZRRGySTABKKSrjey8jYWrIK0TvT000HRW3jOSAULw5oZ1sql25i9NlripAX9TOYgl+0j+8apdl5pXsvTPyDtzw5YfhfMEf8JRrUJ7eE1RnObqmdJoZ8W9glgTOS3vZvjLL4K5jfzh615/yRtgqXzQnLH0JyCct0OiVJFNvNnRwUC7WVmAWQnmFxCC1fYTHTd4BdjmCbDyB22UkCnfoDs78LQUrVVsjsLSHHTgVcxjNdCsduOJPkQjYYjw3YdgPJa/wWXXe8fuHBl8BLg0u+Gzed3+rzOdpfD7XG2T3gvBbw3Rp2WRe9Vf597COqduknPy+QtOWzvmDxuXn9YWkWyDeiHARDBx/LMIUb1I4g2BcYKCDXQ9jFysB9dzBwpB2qZXb0hSZrTToxUg6NdP6iAxlICUGLwkhNekt6MubyTAeFzHpwnCl8BCg3XpyKLL68ENjFFIliHIMZuh8DWDy6CzeDLQFsT0MaW9dVu3xPP9pZvRMShMQs8ruo+JPA4aylfDImjE+0gy0+N+EAQnOs+cH8NTIWhdCPrWkTNe9F5HGT89to2Z+CGFnB6fKNZ+SQu3l+5AZhOSl9jvxr6/KPow3QTO3oba3p8Z14/E6PLN/aahWTwzjqCLzq4eFzeJWzF0bf2z6Ou/yF8QehWgIf0ZCseicThru5vXC325CU9+p1yafj32Ub/lfVMlyPvGO8qTSQaSQ0xXXSqVK2YVk5vRiD+uOjzjxy3OFVGh9LiLDc6j5h7U3As/l6Ah7u5JmZ/mcLlCaPmRRT8rbtpRSS/itaZeXkVl14rlHRr1K2Kgi4B0Mm1seoWetJG05olM7+LS+/CMb3DNpJZRc4OEo2Zpn1NqqwUxVsp0Vr1mzjFAc//6PbOHb8Qh6xnejr1Hkf7nGfqt4i46JsKjly6Pxte9GEEBPR70Dv0W3j7/tLdUc+QeE9c9Livec6P9rtdzgvRZHr/ZwipZHm+Lq4tiuCWZbehUD/rQXVsmSYgbLQewrYQeRsGNUkbuRigTAPz6sUFhYGe8pcDhhzz2zeXN59LM9Wt/gsAa9aI0Xs81odpp4tsODn6hIfAmzrrJjWYdR77wI8xMRoJ1tk0Nxcf5oMAbmBcEyIYmg129c2lu7kgMgGjzWzVoBsw0dDLjy69vLkUUpj5Go8bNPi5fvWV2eCj1YcgMo+5ETE9XvD0xcmlq6yBqbC74SFcud4ej4m3lmbAkDgssbpeuW4BNX15RAf2bvWglBF+4er9FVFrV6cZ+DIrjuZPzl56BJ3NrGBMXEWv+9GGuHUvDk+1zMiAg3XYPoSSQvLcD3axIMsr+nwpifZGrOxji3xUO7b2VsZ5tsqHX73j/P0/Y1QSulf9W25wL5BJc+Jq8m29LSAV2GaGa2AVtWxOk1LdlVdqVhQZeW13ebVZ09CrqbOmRhHUR1MEWXWmFGplCpK80ZwmtriNNNgI24x55QvtirKBI4fcKk0nMQ7i60+TIn+cmUuHn92NCqvMilr+4gg5aEWlX2/DECPGw0skY7QA7dGMAsoSEo2hzXTFfb7dWK5vrrWb288aNGfbNKeaNLoWtb5Z3dKiOdmY19KsO9WkPt1c296sP6VV6+GrJo3BoHPZ28EAuD8nyncR9ivJkACP7ShDSilcmm1CXX/SQUHD9oBz04zT+TgjyWyjJXY0EI3X0eNxLUp+T6vkgLdJzjXuo38Nn5wZAQ0Y1ftxEj7Ymif6U28EjJl9/UQOMrJFSuqIqR2Z1NBDE0Utr5UYADAygGaDTMrtzTTio05vlNq0IiuIDFQ5dPI2TtoYHJEHTx9z1qMGl6IEgB6BNfBsM4dzZ6WWciMnGFhMQ47D9ywFRw3egpHLQL+exZN0Uc7I7DWBkcARqRlsnInLMjEKlCa8DIfv+QIrp7ZwgplyVk5uYwUbV+xUVnjy9nupYpDJHmFKxsnppQOuqKonwRgeq3p+/SsYnXtzIS4+PHY7r2iCFPqY3AE208F0TLSvzUpzVEXxlFGd1sKCQQ2GUeNg3pX58snb7xZVwduNrIS9E+6bK0P+hXZ7QFnRy8iR3UCocwhpTUxJG1tiAsHDHbIwhn7Mvay252WahSIbf2VCyZnZsn7G4sO07VmdjNlJM1pxhhvYOocshPueGEHe2Bl5IznllAY2GySnqorBBPrJ+JSMUGniczI9lhz8nq8ZzVfk4He0rlFZVsUerhfqmlSVrQc0lYqyKmVFLVfRqKzQag5pFVVQ35Ink5F0HvN/sRnJ1Pw4BADozGlFdFbaMZyJiGmmFydQ2oH8AwcING8Z3FILRUJNiRArEkNFVGNTJ9lXytowoy7sm/36TAPJ78IIlG6EVAwQtp5oR4jjtm4toZcfJe1+5O5VSTgusxFVJ9lrQmM3t5Oou0m+Edn71CaibiGjTsHuUB+yHXgF9ncvGhXba2ugcyrdx8WfRJ1ZHZh9uL26CQ/ZL3kw5t7aa3MvwabgwCYZx6j7Oaf62tJDkHnpLdQj+fXG/iO3Vjehk4PvPystQ3B5ziwuiffDM3Ijc0uK83sCusnQNpLStrFz0qQZz7hlckncCPsyu1LTjybGfT+uImYUFu6VtJQvHIljWPRxvGTwoyGhu5df/MEQzp9idAtXsYonl4WNBEI7Ij3fF5LK27iXGhiQd3H5FsboIzX9JNPAKloVk9MW8dmU+KtbTFxli4gAYtKuLrbkFdvy9tkUh+385XElssZ0so7rRNVGvX6uBuRiJ5sG3beLJdA7u7nRCTbTzKl6BZePFHQhIZ3Lx++zUtT1Ru6glTKVBC5aZsbpnjqnlMK6CbqK8Pbm67u5SSlkuzgXRMh+TdLr2VHv1ZvT4cnrU0bPcfHNmtHCn7BRWRMOAlk9PHyq+g+Q76nse1JlIQ29xODmDH3cOafQYGP0g4zeTQpaEU+VfWSvUQpttqA/cc6LsXoQSJVODB7JjRjsBF/EMkVoI52NKLPQ7wbByRkCV0fn44+eiqC7Ld52ZChsRd4FuHnrNMmUzFazL888CD+NlZtIgyf1drQWkmWguUYKBqvQgpOkMlrABKK5TSQ8QPQ2jjRQ2sSpumtfxEWtTbjo923Fttkmprhbez8qtg+ory2EtqEGDulE1PYMlk8ubj5avQNeUb5RFV0VR8cvAbaC4PuD/9SmiSfEyTkfmHWukTMyA80xogK8Hwk9iolahybNwGWbarcT4lYsBCZHvU0pM3DDEQQMjn49E/cbcGJUQace9XhyjqyR5HQL+UZJtUp8eoecjNrDHnRb3r61ywmV9cXQX8BosrwW1+CSjzYe2sfxXEbvmSo7qXGTnCbh/WZsK7e3FfuNy4vm8CtpTXOxFvQF55qnRWZW7y03jCkds8fPefmhWU2hkQwFmMpeRGe6EefjZHTzbDfq9DIbH146wLaxOGUdp3OztJPJ6edze1FLMmauxo6BJ9cYabCTQhMK2gorOdbLNHo4RQsPqo02MvLvme3XYkYVffJURFLGUsJ9x0DfTf+Obr4WuaOSxK1nXLcvbSe0RQZJBjcx6UheMINx+BYe9WY9o7Yx8Wdofx8ykwIz0paBGAMdB6LUcZ0HmzjTgl42NNi8p9V7cbwH1Pcx9w62vLjUk5EYH59LNWoHhz3KgKpZqnjZE+DlfQoixefxEDMNh5EDfb8dV5JEYihXTIMYN63qJ40jyTP7HH6cDW31K7gm8uQNBivr+6UgQCO67cmrn7QRVPfN6L/Dv/H4+SqokRx5UPpSk6FMsIZbefTBjfj6jE5SaYMaDmzQHJMClDsaEtJYP9vKg8MKViaLM6p4EBaskc3t4gQpG3pykv9eswJlShfLdrLEDI+Cz+/m99u5sl6etVDOzgm97GFPns6XV+/jcz00Zwz8emJY1g/H9N6EUv+T0vzLhb+A0WNb6rJVrmiJFkyTHC/NcdNMG5dh4xp9QjGouSbUYkmL+MW6SL6jWW2cuomvMWuGFzYbbednwyASDpjGuXNeUmShRd18z6yiY0IwjiBdi8lHMsy4ogB/qpnnrHxaF8d2C4JFMbHULr72qY0kDTlJwO7hz3rV126fAY1W0cvV28l+p2J26YyYCB0yEJAl9b2ktIv8sAr9L3SwjVCAVxMnq6KnrOc7LL7AWEhWT5gmln5Lbi68HO4PhUOiTAs4pme9qXfZ4GRYwNw8kTAqYQuEqIeisGxNtenwqomBgtTMkAYGoVycrYVvs83k5I4FaZ9Xg5N+chDJOJM1nqVaEHhnfYRLLskSXw7dPp6KQ6VQInqXVPivFEUqauX880duLQsgU+EJ7JNYcsXXodFZDnqj0Eb2d1NJEKi8i2qwfUFYcPXYJjCbZ/Iid4ocOZCxZnj+zEUvMYC1YKBpkmvrmm2v6aXJoS8q2RujS0Md/jzJTmVZCaNrG8GabtIjEZh1DKo2ouLrqJhpYtolPs0e7xHPBDqaKgvXI3mTdq/O7vW9XhcFI2uXalwTlsvXg6CFM42MV6oZnbs6OoWBglxr6tEtroZvSpT0Rd6P4Tf06g+Wi/z5nJLHSs0GU7RGtn6O/7Yh+uewUh84U+EhNQ5S1s29Wr2x6dHc71dfHCwHJ6bCDtqWAUO7pEldUE+vzF69MuW7tuA7bVNXNSiqjHk537H5lXkKMP5aWU03WGwYVGOSGAW/XppNA7KzsI0b8isVYKTDv528YM/jGkmjhdRYmbQ21Ji0lWOPEhfOK5NG81pBErPVdqG6k8obacMg3W8DxYcxP1k9TWvi7AvQNcOZWqQblFXCi8QX9mjdF4wNKRroKVueY4zLAMWNfgYra6SuiQM5WhDw2H8AN1wLV2bO844rKAokjgVBAr3RrDjUzQAcQQ8gg5GZO+vVXvYhIAh6HpzCrNq+t6YC0eJWYTizgY5Olw/NXS2y8pJkwgDnfrv6x4i7zCZQjJiic1PlPPLDqlhlUeCt1jLQlxrsWk/AV2fh0Sk8ivQywfDU5OxUlU0BBvF+M9QQ/aB2ciGoH9BAG6ol58bZjoEzk1Mzp5xKWRML3fhcgBuendoGhT5tkXjRWHg4w1Px2dntueUZRppOld7CLYY2g1N3o7EpuTSCGF1ee74O9uV5aJ/RpMAhohhKpR7vcZmRcoY8lN7SipF6cx7IVM6QYhIHPV6NAogRTOrXv6Q0eyUujOZy+96tfQf7sHCM7vO8ow/w/5Rnf3X+r2D0Z/XBhLAvRjCu/qs4tIhz5s5NW2R2mm5n670okyNLqchCdgvlWgBDtLo3T/1VXkGhujBXubdAVQxboVpdqCwuVBUVKufGpiq+U5V+o9jfIpBvCTVyad0808mDagD1wXbxGS3crUWMGNxavANmKGcS4LQ3pzdvjotD3ktZndDdWdm3fPJBQCls4g86NDlVBCPw0vPKqaWyoww8ox+X7kLlD/NDZc1MfDU8OaETH8RNZrSH6iWZEY60iw/ELRwIFA+bBHj9slISXxafSDW5Bg5s0/TGd0HcfPCpj+LgFl5Luno+gKaWaMzvHqsK/OtamtnwLmZc1Cog/XPDO9OopC0P0fYNBXck7EfWUO47nJb1fps0JdrQad9KVwdkPBCFIgxccJXY5pYPpxZw0myE6i6MWG8tYh4RTlqSlfZdaqAS8CT/Hmuym6RwylP84KS5s0VGad6FNMLJfI9XV7Vgm5s+jG5mNCR9weQEv6Rrz3EmPruLK+jiuFY2zciD/5DZyamxu8KLY6WleVxON3/YpjxkpYKZKXYr5RZaYlNoPXmnx9S5bir3MJk+JnOMCCM0a5wIc0z2baIKYS6W0nVSkxAan6pNr/8KRmt+1pTGKcjR3BDJmSOZU5yUa4CReanMy7ADXAamvOeYXk5mZ3DNlxHDyLndSs03B+q1uhptecXRWmPXmbJvVA31xxsajh+rKq88Wl5apD74jZIpkha4GUj9ALk8R0GDG9wEPjskFr69ZhR1AhhtLQwnUVMXmJB2S6L7pvLvUGVM9qOznKbAOSUyHnun/igBT06WXDX6OYH3dPpb/tWWmFo7KsNfeu57/JRJDbANGG2FeH72Hyn+d8CWqR71qeyL1HgVvMgTX2MN+SK1RuX1Y/HsUcSKTCHVfH7gfkI814hYEQqkM7PkVljsMWKNbGfc6+bCw2ELTkXLUEptMsis/8KQBdGMS7Kk+3kSEb3d+Fson1pFGPD4hq1SzRcSVQ1LrObj1mZF6g6lNQhXRoau2GpT12KxmXfwvP5b6Zd+mVqJMOm/4TDj2AGbvOc9xNCk8DpR0MgkbiUiEIdbL0qOBJcKbEmGQRu+2cP96MoYnZrTjvYXMfHaLPlN8uuNgwc6Bs/AY8/upAZpBPXy+HHXVFB8JU7OMpvS2a5F3Lckh3ufl+RMEPUcsixo15jGqBrQWRIjBzfIoQSt/knQPtN0vP4rur7+6YGyONXESE6EZIYIJy1fVi8R3bqmI67fO82nIV4ZxsuxA0TWR4kFvHImx6EoKRFOtVo6zLpTLWdO1B8pKcw723VBb77QbnaXlmrUXx05UVnrGtSrjuK6cmnuLSsz4aIZ/Gzjn2yJa8uifXwIA37ITcL7w7iyzzV9Vd7IZXxJMhVKo00s+YfycFFeckVoxhe0uulMzh6yNyu1jlm2hxz8XleMK5C4ZPJ4qBc+Z3NkfO7nHI6UsoTlSdY/GDkhOZ9LxEUSuFkZhZoCnmZnccmjWCm/u8DuLEqBy7HMXpaHGnkWBbhjYCuDZspotpCXxtOMbEz+n5mhyGHJ3s/5DD61bDVNOg9+SjUZPJPLC2mEcLukqyeZk1LXYmUSQGUS30zyysmaZNp/NpXmfyczfTI5PUnlyE/lxYdrkZ1DKHm7m2ojfabTVFZ7rN6Fp03bxWIz6YeXNR9ApEoR1rQmYSMuTTr8RRz2W3DA06iM7KzQsnjUnIXJ6ubjiVQEXe9U5zqYfHveo59TbRyLwv4QGX78gdt+Zav2tXi1/jGteSzUPNWc/LXc/EYv/q78+XqmZ+UVW0LpPaJeI+oYOfez2p/4AOPmNX3+MpXPEnacpo/waSBNLWymmVeXKA9+o65rOH7oO53VdqO4MA/0u6aAP2XQ1dWi3j9cqsE5nd9hcFvdRTwTRN7JyKWp3RzaMRT5j3GwGNwIHFg6PaAAVwADzqUMvuCdySJ/TOGQfOJ7WNn7NA/vtZRIDXboHXb+sjusB0l6BxnLyGTvMUbIPuR5elt2yKLe4iDFspHEBJ/i18JXLpPovHbtsEm9PVWSTelD9h4Z+aABMlm8x9jDJkmqkvcl0bDIPvx1f1BSPy11mOx3PwSpHKTblH4RRXIGSnK/V2G4oxGVPsWhPu6EBzVDWSfdfOWrGMizeFPj25lSBhTWxrbPtx+yIaJA6d3aAjhiWPWHZxZLVAHS7dAq/zuUiY/EoP5nrvqxUP9Mo3+hs4t/BaMnf62t/EnY/4DR3CP7N8gPYvijBqP34o0bB4Qlwk4T2RglgzRnkLm8PLU3WygsQKJGgOk5s07zlcJqu6Rt1Z3uPla/4JwAACAASURBVN9u1hXnqvcqWbYU1xIRMyuz4IJGppsy3ckkBWy6lZN1Sl5FU3KaME7yJVr4l0f2rN0foOs/WN5/SX9Ms/NHXDB/UuiuD8h1dtHU+dNYlfT1W/oO6UP2jnxmFzId7XpHvZOqZwh2GZIiod+527eMX7JdEo8KSbF9pO5hpx+9/2Rk7yTv737u2xuWCRJAdxifUn2UwnNWNSpTzz85stWGRlFRLXn1c2qd2eUxVTh84PnrbaRWczKCk8sZQFPtVrxcSofnE8VUqpyLa8gNVhQmVVHVaFzvj1+YjA95E7rRx7qOn7man/iqn1WA0ZZfyy1v9L9f0vTn+Z5eaI89VhyMo8WgjpKyDdq+ddwaTYnSi6s67Xp57jKRLzJpswwDWttLZIOMrA9DZYI0IuedXzvl1BvHrlaYNbD1BNBOz2giLE62lVbc2jiZDenHiB16ocDgJ8dZcbU4rtGRFu5IGCU4bb4KHBROJnv7Nv4vlD+D6a4kSt4TxFKR7XCYJSlm3tO8O8fRD06bEqs7LF07MKS7ELh0VwqCsl1pO1r6XXm3/74QlTi86M5FaBL/b6mS3mv6jiZLktMf/M5dEqeNjJSZwaNnpHlP0qTpVhwOBQMMZys7OM7ByPs5ro+V97GZA4wwyGR5qIC5x9hsPzjsTEdUrZIykUiMXqRokRxcxCyQNRFMMbl/jRyKkcMxUv2AVCRo5RZ/7KlK/0JjFtsf/esYPfvqfP1joSKB2S7Vq0S9QgwrpOM2OSZZperbJH+RZM0SxSwBHy1zhMj9bMU0V+wjRj8x3lZm9jEKJxH6oHux+f0kw85U+Gku9jYmywGfVN1P5H3UtaSWQ6WDOeEjDX6qtpIrE2yamYKTSE30mJVhwBjqZHR2JM1jm5SyPeQ/Xdg/qWf+pP7D8s+7x47B8DFVF0nCdzfZkbIfizj6oXTfxaTOliSW+4Dz7L1bwDOkpXZl0u+iH3ItvWPsfGtCUFkK8Sn5/7bLp4gqQdfvpmksc7hNJzeybCeX1sVwuG6OEaycYGPPTgilTtLYS6q95PKS6vK8cr+PBB+o942RU9fJ6AT5IVp+LZpXMU1mY6ory8QwjWTjPRFqXaZnp8jQEhlaIRWr5GSYtK+S0XsKa4RMxujci1rjG61DPP/7vG9/niP3TfvsFrf2THEloQR0+qNCxypjWMS19sMRei2ibJwj3gUyscRfjvCacZI/xThW1VUB0jFFOhYIfNtxnTVPM/618iI/MS0qT0yTEyNEO6HI8TGnp2nHdXJojHiWFPtHMBjR6CNaH9nrYRxTpMXP1Xip2swe6mWqB3iFhTtsJapOhjUI77jI/uXyLyvt9w+RXtc/uYrs42//JdtgF2F2f/E+Z+k705N+aJWSHdsAhGpSmsroe8Cnb4Ui/eDPzs6ut3solN/J8l3v8P2RTS7VSARuexSyPTSd5VStQs4AyRmk+7ys2kv3+miBj6r9jDrA75vjNXNM2QI9uMSULpGyJaJZAm+dVi7TygipWiFVq4w1Qk9FaE2MVsWYEzFafY8c2+CPxfmTCaExzrVsqU9vCad/Es6BL//LkbO/1va80Q+JFwKi7/m/jlGX6O4Qzxhe607/2t6wxZ/8SVGXUFUnuGMJrmKD1sT56vW8mnV1ZYyt2WBqYopq3Pi6mKYuylXENFVRTfUa8mhWrWpqVtUNq+UNa0LlmlAV5U+sKo9Fj9SsKisjCtiqInlVEb5iWVGznFexlFe9dPzgbF7phEozIZSNHzh4XXkwoK7wHykdKz/s1aTsuR0B81YIvOUafMek+SE4kIt1x4X6qAV9xyq489pSWvvDhinS1rcg+H35r7UN3grAPbvT3toGsrfgo6nvkwdIkpf5iIVyB5cpqH5kG8jobrAB0vZwXIZK4IWefwff37+l/DfjbOBkO475W0+Z/A4070NF9ruvPgoIyN4D347rAY50ihhSJvEe7oLXv4eSt2y5kpPxe1bXPyz/PttA4kJ8j4HxfT1Ok4zUyZNIHhU0lmD7PofqDjQpGru/sw0QuixKUJblFFnKnrH/1y97p/w3w6iALJiS1HzrPEnxnVT48APG5ff24etddCeUiHBM24P0pEm1m5RkSZZNfK+UJRJdO92zS7b7Mxm03GFkl5hI2SSl+wc4/y+2DVKUqruT0VDpULpLoopOlt0S1SxKTZrqY7tZViF8oYaWabsZupu+5UdN9cS3FLTv2QYcS+Go9M8Z7nNGEBSWTxj9jxX1P5QcT9IzODnPC9kqZjfHygSMfr8NQ+6mkuZkZKn4No//JoPkklBE6bgHfYKM3TttdvPpPCNn81io/JwDMcLsweB8Os+xuxVvA+zpLCNL2/PZ7rQ9u/9XGqtIY3l2DyAgLfN/fC2TsQygeXda8rqI9t0Cw9LPMjJku3d/xqTLPiOyz/7nns/SZbvTd+1KoYLu2g0d4GOLAkXgbtDmu5k9cMLP2T0yFk6Vl8Ey7B5BnqHAaNEeJoOlDMt9tnuXxAX8mWyXRMqN/Yp8BkJ1jyCTKdJ20/TP+awvQDRSuNUMVsjklSzLy6SempNbnLIdKOUzsrL+oRD+IQifY+q1/GxVYcGBoU8Y/VQ+lX+xfMLop/J3L58w+qn83csnjH4qf/fyCaOfyt+9fMLop/J3L58w+qn83csnjH4qf/fyCaOfyt+9fMLop/J3L58w+qn83csnjH4qf/fyn8XokHN7dkS85hNdgzMe78PLjrBnULTYQkOD25cHXpptwYuOKYfz7hXvdo9txmwLW213HLaHl51x10B4wid6B0WvW/R47ixOicExMeARF+f/Lb/rU/n/p/xnMTo8EOqxXbWYfSabxWi7hOnGHT6T+ZJr4K6p66p38I7Z4hsaCI96gq7+KYttpscadvRecvVf7XEGrd2+4YHwsHPqssPnGZga9cZHveE/SpL6qfz7yyuJEzr5CWVT2raldNZr0j7shEXxB2lb3NmgZva1OPdGvPlGnHiBG+z7n4lXnorep6IrIQ4/Fh0J0fOTaE+IQ1tYczEuWhKifUvsgf2EePkx/mvcEk0J0fFUHP1VHH0t+kVx7s9v9T+L0R6rr6fvxuW+G6PeGbvj6mXHDcCoxTF00XbJ0z/lcvig0jVww2HzDTtv9PTesFivOuw37E6fdyB40Xzhsu2qw+a2O84PuUPewWCPzf2HV3ku5dTYkjIc35c+4cHdkp4mPKPZV+Loz+LoY3EUfvOWeOUn3Hc9EC8nROs6Pib7umiNiaaYePGe2LOOO+1ronFV1IfFUxFRv4LbqRXx3Ip4ekXsiOG/usjL01GxIfJQt7J9KhI3hu6cWAzXhILVSzPalZd1oWDNUujYUrAmNFW9HKxeuXBi1X0q5tNHLnjXgxejl7T32htj+vpVy4kVX91q+4nVC/VrusbYpbropfq1S9rV88dWdcei54/FLjwSNw3R4/WxM8fWyitjB07EdA33dCfWdfXrqvr148fWtY3r6oZ19bH1A9oHR6oTfEWcq0jk1cWPVCXUdXGhOnGg4oFQk9A0bJQ3bKjrosKJmLompqiIEe2G8kRUoYspa9a5qnsEtrqYWhtVnIop6mO0JqasjDFVUVa7TvQx9kSUr4vm1a0rq2OqkzGuJcY3xtiqKKm+R+GzJaY4e485ESNwWjiwIcab1vPa15WN9xR1MeXhmFAfFczr5T3risaYqg6aRXntPYV144grcVyL1+Wq15n2DcG/dSTwk+50gtcleMOWwvNL7cab9keiZVjUXRF9238Jo9dAQIqiXRSNrzbNr8TTz2YaH984+XiqMTF0MnG+ZsN9LH6pPoYZXVy9U8Me38TIHRCZfm948Tqo/vDwwI1Rz4zXE/S47wRHQIPfmfUFJ3wz17zBgC/sdQevucOuvqC3P+RwTrl6Z1zOIAjaHpvF4cSU3kPRYFmEL4swVRFldZgeDgkHl/jSBbZ4jmgW2ZI5UjTPFM3DJ1c8R0vmaPG8onie37/A7p8XSueEkjmheII2RFSl00LxNKOeYouncWli8TwpW6SVK4xmiZTcJvsWiXqRaJYobGW3ySFclEOLl0hDmD+2TKrDsDGHcYEOJrRxhDE5yumwqjHM1Efo4TDtWFWejLD1q0S3TM5F6cRWrX0FV8Oeuw0tHzaEiH/rwKkwP5TQRV+cN0SIayPvhThkjqku31NfXGMu479Tp5bJ4taNUwukIkROhEjNMqlcJqW4cpIeXiXFK5hnpmyVlK7gth9qoqQ0hisqi2NUs86VxHDVblmMKYshLeyPW1PR2NSPifZjq2R/hNSs8BuJh883Nl8/DR+TVmM2Rvjf4phUZ+vBpeoVcnCFnFzVPFkXn6xvbzxIHWVelRLvvBK3E76qMDkYIaYopoMU34g/ruuqpPMENny4hP6xuJVohzuHmmsbQczV81jciGsroU1YmdKHb+BybniYdWvsu5z0v7TrYuT0+vs8874JceiPOEX+HKMBUbwouk+/uXDqdbv2hbbuWXnV0/LDW3kVCe5wglQ/4A8+ECrW8ZUER7Zvjjy8H3oZXxJnr69N+tfmpsLX/ADNtSR9bXQJue0C3tAPc5uLgTuzY6Hg2Mys787NsbWAb2bu+kOv+6rfG4qMi35fCAwDBETognqW7Jsl8a2r24mZhjGiHiG5XgbT93mYvR6qGmTyPRRq5Lhklig8NNtL5F42c5DJ8dASN9PgJPVOzIlcb6fH7PSEm5waJDovpp0/5ydnfeTcCLJ7aX1YeRo2D9FL3xr9bx8Irk+0T+C/c6tSsoOn71JgnJogriVMaDN7T4sddYJMrOgcAWxsDCABPewYdpLCnRzEVDx6D5mM4FuJJHT1mGrvRgVSiIRuxnTw1Uk/OeYlNT5yNkBqpknhNC2cIjlTRDXN5M+R3FkC/6pmiWqR7JfWuBWGiSrC5EfI3jDNDRP18v9m7f1D2ki/9uH7nbzfwdGHIfJZHIl/JGvVCBspFdrYtbQuu9qVUksrixIQQv+opoSKrRUS7RST0IA2VmJ+gMyIhmL8EYxI0IhBxT+aUKxBsC21jVCVblkWu2wrtIVyv+eMdre7zz7P+y68YYiTcTJJZq4557rOfe5zSHobCy48X1emtr9ZqZgji+v4E14+UUoyvJkoj5HnSnGut0qJm91ty+noYbmbfWV7PF13co7BdnWfsJA5/rr1U2diGvzvh8PiULEnZ2tiGnx5sOUT9a6oa6ZPHRb4VlqEOR/wFxc+NwL9BYuFXY+xVxKfiza+wfe2P4CbYeZLyC3Sjn+HUbCj1z/dNe1fq31jqv61qvKVoXK7qOKFevOLfSxJrB+0OUdj4Y3Zyb3NhfcA0Nj46lgomYjtROS9+HhmNrz6cgV2WJmSVxLjWyE5uTi+BStjwZXk+FZkKJmK0WD/RLAnGpF3QsHVwIBim2fbS4JMRT8asA9PaSyqFNDax7a+8K+Pn0uClYgkz8VwLp5zqnOw7iRX4BQMDr5eZPQin2tjtTbhiI0rsPKFNk7byRu6+aMOvqKbq3Sxp/uxbnKljxg9jLGfwZUB5uQAqfH9pZOEbRLPz/5vM3aJ+2Nj5kNycc306An8/Ez8QV37EKnwk+ByXXINKyBMLWkOdtt9cdho0K5g1zl+WHDdMUpuT+KnrD81vf2t6uP+zNQKcUaIPUbEKDk5RKyTpCFKjkRJwTQpjDDFMR5cwWlltm3vHLa+tY2T6xHSEGNblkjhEilYISUJknzx+fvt42IIkc0vtnx8lTk2yRxWv9lHoDxeDxwLqV8/PayQA1sST84axhnszgOn+g2a27GU0ShrXivI+/gr7hNfr6sMFb17o3SA+VUpVrckVMoG+BfsgPt8ouIc90NIwehvym6fqClEqoeUGt+f6EG1PescY3nwF4yOfTK/+1cYHaEZy8dr9b+ZEaC/1J18pTvzgrnx8C87pzeRP6RjNCKtPl6i6WkaH98A65iaxiaiAMREmI4NYW+7RDgdk3cWoxvrsY3N2b31ORoZTYLdDUmZgH9maigDjj4sbcCeDhfCcdhnPtdCrtrZdGIjtUDnp9N4Wn+nU35KgVD2HLb4sIeqqjtJfSfR29isLqa4ia88oWtoutbQUPU4QeH48N0ut14aDKZ3V2h6iTpd98/Xn7pQf2k2SqvbsKNcsUgMLjbfQWDJdRHeRQpd5HQfW+NnAMRGB3HPIeyMDuZ2oqrMSU4OsOf8xD3NlPnVY6mi+hDvjpGCAcY+SQr72EqPutbPgwk/4yEnPUytm5zpIT/4CR7Kw1QGyUkfU95PyoNwP5CKAXK0h1QOkDNBUusj1RIuRyRs71QpEfMoqY8QTYgUhElehPCjrDBEjBK5FyPaICkMcxcnsXuTME74aZIdZYQh9uqcvPeU7mzSl5u0d7mjwE/OSQHw0S+f0pdp2jJUdMSnNg3F4T5/+XRv5wmtD7LafvaKdDeTxpsfcFPeQwQ/1yDLsA7WN7m8auglpUGdSZI/vqC7afo4tVHWx2j96iujcaqAGMxtyQAp8KuxINkuWs3nT9L6AbZEYsS5w2Lf86lAsURKgkXeg1ZMoLGWO0oj5FiMD6QPsfT4jdnxwfzfZ9b/bxjtpXHzvvncm0uVPxuPbYNbJ8E5cm+cfNnmJr2Avm9kYHXnAU1EttZjW/HJ5EF7cMDcYHAlNgSMU47Iq2Py6tTozuzozuby+9nx1dnoTnx0B4hBTNob9seHB+7H5PRIMAosdnAA65qHpI6LVqahiblhI06RkYLoT+Gk5BOiVRovHRSUPGPlzlnV7l5zRA7Ew3eDvZecjmvGr4sqTuhPn9AfKzHU/9h+sb6u5sdTZmtH9YmqgCdp+FpXWWaMAZt6QodDPnGoKquLJ9084+BUIqywxU7SIqOzBk/dPkoGl6twJYSd7GDFGSUlfuKAZw8zmy4q7mHuTDKCm7REYAuxDxGzjzT6yQU/uegntX5S7cduIWf6iNFHTvaT035yDAx2HynzkHI3qfCQYx5S4iLHeolBWW6Gid5P2sfJaZncmSZ6iQCyHTJiN2+IyZHJlTCykZYwEeGuCBFhmuRMkqwQ4WWW97PVkqlm4Ox5qSq7h+QMMLwHS5xWu+oq+jW5vRzv4XI8fHlPUaVLd9TD5fWSXA+b6+JLnUWVDp3excNLvpcV3KzBpTF0FpX2YGlEvofNcav1IlaLN/SweX2wkc11c8XdGm2nRujh82AfjxpWtA6hzKHRuFksW9LHFvSrtaK62m/Q9BEhCJSM1Q7ANzQcCzLFo8hkQFGcXuAblo2WNRZUlPi76d9h1EtXL/5mqf31lHG3qOYFGV4hQLka5L/sbFeaDw0H0V5uLtPnS3RxdmNsKLk4nUlMb0WkvcXZPSk4MSXFsV+tdH8x9n5KWg1LM/PTmVgojW3rByYC/dHZ0HuQ/0AGIsEkKC04ZqPTcMTGYtsXE1bgzvmO2X1DvVLAG5IrWnSXbYbqJv3Vng6ugtxwtLs9E3dsp8Ke9sfrSZt491zN2ZamjoYGs7FE7RXbZz3yejDptt09WWK46Z45fUJnbm4fUzqDZlaot38it43BLppK9R5BJOVOwjoZ1sWxPSzn5pBI9JL8XvX+Pn2ntG98lNnZz9DZZPzDzzTxMAnW/b+zKAC3M4yAA7QhPZWQZd6MkKsA9CFikYkF7oEwuRIiV2UEXAvcA+PkRpgc8bA24J0ucmOSiHNE20uCPlZ0saVBki2xORIa3Zuj5IcBMrjEHJVJrsxyMquSOKy26Wdye/kCF8v3MFnwzXthhc3r5bUuteBis+Dn9HCqHuaIizX0clp8yWT18JyL0/eoAXyaXianh1cBTN1MsYc3egRDP0I2BxYPf8yjPu3RwfYcN5/bq85z86d9Qo1fKPUw2fAWD6/p4y749Of8Ahwqt4/X+tnCPrV13GiLVJUNgGzg83zcsaDaOV1nj+orQ0qNnRhpXDGubwde/nz3zi5g9Oz6fzuT/xtG3Z8mfvoNjKj+/DYfSpDhBdIQgYMyf7kSShU1r2dldjTz7iFdX6KPF+jm0h6AdX5yD3QSYA6o6pg0EwreB6oK1BMI6Jicjo2mY6Hk5gKdCq6ODEyMBFcHAcS+qNR3P+xH+Fy063NaeHJQtb6WqL4n1Z3qiy7hnCiwheSHVnVNs67aqiNl5Kp4q8V2C0N5r6ijS3+yUBBySLHAX/zREmg2PO+xvHRe23XffdlzK+Vsryw0FH8llGg0z2P0+TNsvCsF43B8rGDYzPDNjL6NyW4lxh7mTD/63/NB7EdzHpDRi1RSUSCAS+UeVuIkY8pww+Z/a8BsEMH2gLFh8uDZxZa5SVkPOeYmR/vQdhrBfPaTk31oRCv6mPIBJAOArUI3+WmUgEDUu5GSXo+SYgcZmSQAFNZPsvysIYjtHsv9JMdDbHAbJEiun6j8vGqAUw3w+X1cLLUC7v7j9pbBzeS4mEIn//wJ/fCEPl+LA4fhnJzWxScerL5O0ecPVgBMrBOwqFsHNzj3fn0terQHy99V9+tfr9FHiZ1MKgrfmXcyDZIZm7Ol6N6TjaMe/FHtoxZwRC/XkCEc9bBCD4AvDnxsM0VfryXLPeoKST+lnCilz/Qe/HC9TzhQbLAlsxb/YYg5Oa75spVScP9S4l9h9M7HJGj50z8XJd/oI8vEkiDCMhFif9n5hh/FAXA7+AHAR5PT78eGMusr2GLr0cJWIvp+FnTS5BYYy3h4YzcJ7PD91ChopozXN5GazExJmUgwDVp+MBhIL+w4XdfCcnTEj9X5zKKhtInl65m8RizwrvmOYOzjFbWYDD816XlCdhMrYMCIhqg0pN5qqbdVOV0TR9TkivXW0QJjmU5nq9VnXJaXPZYdV8dzl+V1r2PXde35gKzX6Cu/qfvwEBvNX3FZcr4lpBbuBMLWk8JWbP9g7MTGIHmw2PGZbyNcM+FbUDDFEgjSOz4sPnihVanK60TV2NiNqj+m9It5rXS1yhP5LOw+SHIc2KDR4CBAIQDrBicp7SalLqJ3Ag8mJU5scqdxouFsjxK+G43r+SGigZUIaZ/FHXqjBGwb008E0HNBkttLHOPIRm6HgUMzDUNCVh8CVDXAjCiK3jtpefcz4GCLd7Ah5SuFp30vX9BHD2XewYeU2ofxpYnXLwC40RyROcDN/HL09RO6npQLPer0M/p2e2t2RQY5n07JWgf/aJ3uZbYeJSfAZTxKWQSn/m2Gvn4aT6UmlPbgHYJLgJ0z6cz6GkagAtNVBrcByOj+073nT7BfsGPceMSFXvfjLva0hS3Xh0iN/JdSofEPRYv/CqP3Pq2eewNyvmjzzdmpBfLDEskFjM79ZWerH2sZA9fcTKD6frmMlmknSddnqdQ3A948LGdisAytJOe25se3puT0fDgNVjYkRRPjq1Oh5Ji0Muy7L/mTIG6Ggyvx8E5c3oJj3hbVV2yktolcaCX1dnKlS7HfH2h93bXT31UBHx0ZuFtZrs47KEmcc1i9FojqVbuvXHfWVGem4++fu9oz7vaM8xaC1d2x02N53R+oLdGc/M4ANsDwHck7jv2b2R9JTh050kSYb5VO403YGwSLS2J364N1PrtNd6bOYihVV35vFv7DVNZ1FGtISalQ+o3aUKjR6nRaDSnQMIUatrhEV1lrNPsNBSK6XXsUhRGHZJepGWDA7wNkbw6R6+P4jCujpB1cfA85FyQFIrkiE9MoQvZyCFe0TmQIgFECMO1hmB6O8YAf5xk3GDyicjOkh8Oll1X1cGGQPh/ocKpjKpX+sP0+t5MdURA5/1BOpvZePsnkdrFBpcVt8mE8/ZAmkhN8txqbLP5GU2vRdBqs4GpulzoFAnVzbzEl723SZCIgiOo4WtD4o7X77zJ0MeXLFXlQZq+frSbW5LfPqBRr13SrNzMgvPYerc/sb1JbSMh1aN79ihb0+VNs2WqVeG2P7vFTtLsAU8CxRRbKpbN7X9jR2G9n/6ehpn/GqPjbRPWvdadfFcW2heFljMnxSywfI+KnS3/sYxlAOxqRd8BwzsfQxadmaXqWPo7R1MJOSI6H5NXF8Z0xOTkfToZ8K6nZLSCsYTn+KELDQ/H4eHJYmlgMrUp+GVaG+6NhKRmRUDOdq2Nyv8XG4KoThKkgWUpzb9RJ60giA30zLS1VpkYj4vJLjP4fYmq6dKRQ0/idsOfz7fS2PxYtmW7LpqvqZbc54za/9NxtqddUHj+1s0RVOpJ+EHi0ZEZjfJxw35HyRpLdQIQWFhgw28loRb4xWFUDZ3afXrBWaTVCQWFRrprVFxSV5AtHdFyJRq0t4Kq/PVWqMeg1RSUa/VGdQavRaQt40fVnzyF9NwMAre4n5/qJUg+QUXUxWd1Kh3eRYUQ2W2Rsk6Q2SPK7yeVxUgPyqJtcnyYXR0m+SK5OEsYDEESMEg8D64yLJb2AV0blZlVunnh40sfC9lynDvT7o7UkWMTLQSPXyWlshsw6TT6Ig4o/59RkwW3TaUin6OMH9OVDaujC8tkFbUUvkQygtDfYCCfy2i49oArbM2RogZXhRDiOce8FhcPCJdDY2exuVttleItOnO4+oQK2KOKOiGffKt2UUw9WCkSsdWxwmTFcsAns6H6ek+Vd6qM9ZtD+sPHOdDvGuWX+3NBhx7BHry7ZfjWO/Us7unHu16rT27r075rYCo7BgK/PnWY/0vQf+0h+pXupvPVyhYK0fw5efgHbLbx8AOJpa8QfTU1uzYbSyWhyPpqOhzbmoxtSMBoLg1pKYjNwfxQkvzSwMuxfGZGjw9J9sKnBfuz4WN0k5NSx2AW07PNyUFVe+LOt8mEN+Ryiyvn8UkWsoq+sQNd4oo6Gk+DcM45rzx3tm2JdxmHecV9755+5XGesPGGkT2lphRIc2N4A87z/5C7dnnF7NOCDRmRNo5OYg2TkCwJvEdu1+eqD2kympms1x6uO5BcBo7gpmkY8gYg/GuxxBD0+r6M94JH1JZrLbdfS2/SDIqbyWrAB+Pk+pU2KyCrdfFiAxt4pxwAAIABJREFUJiAGCKJKRBN7YxwDT7yNWCZJdRAb5TSOkp9CJFckl0cJcTEETSZLAKa9PK7AS6fSg8DBKdtZtKbdbK4oGEXDGZcBjkm64AbgeZu62C4IrUr3RCxBzPJ2tbZNk2vFcsRcF5/TyQutQoFNnS9i4Vjl5lHnd6l54Fo2llXwp+rCjsu5NnVOF5fTzfMuPlvk8+3qPNhN5Ap8arabz+nmCroEOEguVjxW87Cbg8/rVoPx5l1Mfg/H93IFLnVhj6a4TwCAFshEO04MUeb8MjGtEcu2YH1TFf5XGHV+jJ9/U1e5XfTot0vhBClfJnlLhIuyyQPa+wYdhNeDGB2RgGKuZpbfL8Yyuykam9xIzdGQnElGdpS4/QbANBKOx0Ors6HV+OTWmLwiSTMgpAb7J+bHd8LBVakvGpJnJCkeGb0fULoI1DRpuO957Kf4DXZWxqVE6YZYQMh/vsAod1j9nvlc7MkuRstK9dbmax/mNp47r+24bj13mp67rr3ucTx2XKJztFwjnD5RtZ+mQjmxOo02j8ErXdIfJ8OxS4YK4pTOwgflW0k2dkLShyLxyw4cGbohWooL9AfluCuPGwu+0hwr1FSU6kP+ACxej+We69aI/761RV+m4/Qlp6QBpdKxgtHbIba6j/Di5zLbb2hmeyN9ILOUQEGFA2loZRCt5vVJcm6U5HYSS4TUykQA7z9KslyMChYHw7ox4KBCaDKck+VcrMrFKwhmAbIqB5sjske61MWIe84QMgKYckS+sJMr6MQVgBpj5/K6uJMuUubg2C4e+Yyo1rvU5d3q0z0YfcvCrgT8MRd/xq0r6+a5LgGAy4r86T7dub6iSrcajGiOgsgGn8Hcr6/sgR2wP5jg4i2S8aZkqulV5ziwGLfWqbaPWhyj5uoBEHAc71YbPOrY2kxqbeNKiOhlUiiT6ljRy+0Z+mYr/KrI+qtx5F9hVPwg1/xy6vSuJv1KP6UMvvELLD/Nfylhb0vYpiQiZx4n6GJkb2xoNT6+MRxMJ6ZpBKzm6IbkSw4Hd+JSZkyKA0BHgpg1EpKSU9JKKCiDig8FV4KeeFiKg6i/1xsYHFgZ7MP4/NHj4OWVfvHYkp45bExfSIprueudZ692nrrQZGww6fUn2D9gis8MudkVKCnRgXKvP3420SMjJXXe3XS1bzrbx1ouXa47e1SjP1liBD6qOuh+W/q56/03Sm/6clLWTErspNoNih610fOf6eNdau5sL8zXaASiEYrO/3j2ZLnRatW326+ZG4WrrfqbNqOj03RbvOZ2mG1d5pIC/RWT+c4AHY7Rt58oMF2VjctuVQaftoHY4V8c7/mZflBG7YAEN0jkjB/5KEilaj+OLMBVhBWhk9ycJMknNBZNpx6kHyc3rKNGVTdb4BTAY75dA4V0CdvWA2pd2BMQxA1VHO6FHg348dxOHrw8GA6Q5DUuAew3+OX0Cp1PrL5L0wsebHlf4tJ83MQGQO/W6UUPz9rVRo8x84Cml+nHZ7QWD8vVS+1wO8EbQSFd9GCnWjGCKn5xYesDHkcD1vTO5Ap4ofhcBrx5jYcFIxpIYCOy5PJ7+NUX+oGda9JP8feup5CPXgmTUkl4/ORPOCU+1P07O3rng1z7i7Fym0/u6iJLxJggfILNiZDB7T/3afSjLgsFk88f0Plp4J3p+em9xOReZDQeltOBgWigf2Y4uDHYvzoszcxHdmKA2mA8OLAyC0bUL8dC0VAwOuyRx/yr4eBMcnxv0DcDYguOWfkjwx3H9smHMC1VMFRCLotmi9VRUEI037DDQ1vgtdF8Kh1hGKVQYWk+X6grMhToDBrWbfddBKVfSFq+ZmpyiLneYtAZjnylKy8x2rtkTSkRjhP+O8KeIKoKJL5Z35LsH7GTBPBRjY2tFPXrT+jjJMaYbrvaizWc/iteq2E0/yHnTYYjAjlZJhgEtrLEUF7CHy1hSvKJHj5dwwNhvee5/8dZKgXV1abWdv7ZOyvz5P251rN/vHRIRedcpLKH0XaR9gj7gYJq3BtZ5n7wo/e3T5JNpXPXUZsaYNEY1IHXXlyj757Sc64qeDswXQzuiowlgmE7UT51Z3zmw+Ye20xEpTH94KQvEJ7ZXJ7IaWNs00jVRqYt4cQM9oWycdIK/fAzjSXkKdiSeZ/Vyk09oPtvaGTJMbW8Q59RVRubWgOFtDW1fH9qmWZSvuwuHtTPzpPkbFJeTNHE7F1QUYk1urkWAF2VeUbjS9fyRDXch+nU/eSaDIicmr2mFTXrGfo2s/d2G7E7lTxV6Td8+GJIaO9TlfTFy/93jIq/IUYrtvn0rn4sQSoShFsgmgW2YJzXSILg1+X1cUecGB8FPZSIpmcjmVRsKzaUXk+AbAevnQTrOKUkOiXn9iRJBis7Iq2Cow+A4QwmY9LqPc+tqaEZUPcxORmRZ+KhnbGh9L4yXFZeRlSlCvXUKegsJFw9B0Yut5w1WS0/2YsauqrONVYJXysVHhU+WqZDO1pdYTSWGCrLjDVl+tofq87X6U1NxvPfnwI0G0sNl60W49fGMyXGYM9E7Y/s6UZD1gGXOK4QiePYVlT1I7noIXo7MSg9kC7741c99KL1UqHOIOSz9aaqYxryQ7k+EvTdEe+e/Ea45wrMyzvenmvVx5k73XJhvtqQb7hYW3Vd9F3ubpeWqbaJLRT5alFDf4HbDzgA3LcChypQpp/Aabyv7GLPiBg9LRUxonR4wfYvnfZh8Ms6SdJPaOYNPe3DTI76AaxOn1yjj56smiQ9bDnfr1MpzQXMQ4hR93SdO9YB5pNrYVrGsWXC4Jw5MOcD15HVwlgjGJ8Kzpojy6tARTgb732gDE4uWOaXse88a+OCD/ALjMy1zydXwChm2fgpRYOElzoep+m7ZztcJ5t+hkxmdhm1f2LZkdOpxraLv9DZ1N39bRqaNQNqY0m0l4/W4mDa3aNGjUPIKOP+OPr/C3VOGo54hNQXdjS1b5T+GaL/kx3dT577xXByW5P+2RhbIqeXSN4sq10gueO8YVLQBFmNXy3Y8CqGZRDs4Nz3hoMzY6ENSYpOhTKREF1foIO+CYAjMM4RKT4YjAMlCAYDgOCATx72ySP+mSkpKQ3Ek+Nbgf6A04NDTcM+tKNXm4Ssr0i2jqgKSH4Fk1NIzpg0AFa+Xjjo0HXQOQks6NHvjLX1Z6+3VrU3CRGf5WqLvvxrzU8N166aTFebLTXfn605YTj/Y9W5b40/nDCOyZkL39ZVnzA4RGS9s0MrN8RrIOor2/Sp5S04cXtrcH47SD1G9QtFxfIp8U53/92SgiItunumukR/shBMNafVCRe/N1Z+YyjT8Ge+0dy0t5dpOK1GXfp1kde98ceZfLzrE2XuZJeG/h5XUodXF8MGvpxguvAnDLRVdpLTTmJ0o6/vndZ4I6bFh9fujJJKDzYIBV+fSNJEYie9RpNz9HKfDjB6RNSnlFacu093smwIUFiyWtUjiffra8m327QaKGkby9nUsw8BQ5l3T2i5jQPBpLIK3shOJkXBv5fZsD+YqkU9Akp3DcPPQhPeANk2IRBTJAdssRLWzmdbBTClyEx+pnwzAaWV3SYEZulmmiYevOfamKxONqdNvaNAMJXayYW3dPGFojCcAKdBB6dlHtizk8+36Q8SppyTxvwgr5XI6SFj4gl99yuNb9fd+NXg/Vd21Pn7/XO/njq5rX70SjeyjEOrqlk2N8ZWT/4ZezoYNA8FV+cje6mFnXhkZyyU9PbJ8UgG80cHVqeGdqZC6fXZ92PBmdhkPBHeSY1vTYU3Hi+8B9SOSdGwlInIccm/EkJdH4+P07Eguqf0ZHI2NPN4Lp2ejT+flfdTK3DK8moU719w2BLugIma2yz1jZduNqsTfXU7yYnzNZd4FRG+IsfKNPqSotJCfWNTu8V2v+xrQJL69LdGraDO/w9zuQWZ9OtlarXd0v/IBUYnYqNybFIGIWhoxs6cTAtb2HbJGaLl9RpjhcnwfdGRfKHwPxq9oBkeiFutl2q/Mx4p5K3WOpvYfqxQfe5EkdcTLQHgFmpKCg2NDde8QVpdV3TdeddgYqpduvLuP3Ml372hpSbNHy8vd7OXfThkX+YioSTSp8AyiFG53EPyrBjbz23ickBlN/HwnIVtEXHhrUJem1rVyiBAuxWYdgHC+OxWvgC2K23ZDpol5zWps5T2IMSudFVs43IaWK6ZZWwY+SJtjNIOlM+x8gQ7YoJm4lStfE4zm21FyGKbzC7YwvGwsZXHQARgHdstq/lmlmtjs7qUOJqN5Ts5QCcsoMZUGFNj+S4uvxP4K8d1s5xDzbvYAhdX3KPOH2CFIGZalo3ypxfITyli2iTXfy5yf3j/7+1ohn386tTYMtrR3ARTOqerHj/cIZM8TChMhmlyEkjJ1vxkeioUHwlOrC/TMTkeH9oJD62kl94DtY+FQCpFgx45Hk5L0kQ8ugHiKSyvRoJJrwdMLBCDmcGBwFRo40AzPZ9MH8S4LtSQXtGCN8MLmqtQUvDs2JXwv5T2gTlEW6ZubLxm77oG+1w1CYVqUqJhstWH3d8OKzv/H6VcvIJpY11VyXEBVq42mcB42/p9gPsj37P02fuDNoTgj6o7OYufCyxM/HE2el0T2q/UBcLBwhQKaq2yFAo6rUavLxC0arZYEAo1TKGOLy0U7OLWH+/d+5iMJc3OcWV+wavDjcNKdD09jZek3XMKjKXBSbStOGqP//iY3HllNrhJThNpiRLAB9fCZyNAsXsnY2cAbZyNze1SZ3cypJMlyogDwJTr4godfDHII6UbObHxQpdQKWrKRDWodRyPsLEFovq0QwD1jfvYOcbGGroFk0dv7i0CJ84ofdrLXYbbsumnoAYgCPcDZxdqPAabZLZJp0BCAQRzReGqVCdF7jqkszx+Lp8nCr0xR2Ip6hytUhrBcQVgR5fTL9Pg6C9hwoCbL+7hd1A1bo0kzIVBki9xNWElFRXO0m+Gm7tC7/7Ov8Do7d/lcz8bKraFqW1BWiJlsyRvjimcJdWhv7cXDwXvJyYxev98iaZn92ZDG+HReGJy51FkKzm9tzi9lQztgQVNRtNjwTRQz1BwZ0SKBvyg5eOpMIalwMWDoZ0Np70e2durBHUVCz2myDynePemC13n+RbG6bn0OBoHoVpYQrx9ty40GRCsaqL6rz9DpPj8fxHmD0rwX0q4KoeoCj+HVwUcHSBKQ1hcCknON4RuBuiLDvpmK/sbbPCqqiPZdXxlozEvn1Q31lV8V1RYqCvUCIBUTT5brBH0X+mE/wBMi4CAFuv44oIi2FIoCEcKNEd1usa6S7EFWtOoG5QyR61sddB00l335Un7aSC9/3n9JPjWZVLuIlobppACMb0h85vPDAY3o+8ktmmS3cygn30BynoiG5skcfldfHw2nVjY2Vtb5ewM2DZGZHJEPp7a2U3T5BK1SUYMJtj4xBKNRNPzicyNgbMqKwCUx8B7CuPz0qQF0F/qKPoj2jAYNsOWih4j0J71FNJTKdTB2tmanjpglvE5HNUcjp3K6lSbJRlTJedmMH90/FJeJ2+bxlt6LJoEdz84bc7t4qQlBR6j6J3cIUOeQ51U7E58CWPSYyt1pZLuy3yct7Qu8OnfYNT5Zqb6lf5ohovvGodBM82SnAW1PkJ+WjD8bU8wmZvLNBHbebxMAZSpyb1k5P3iNH33EIeFwL5uLm/Fw6ugqx7Nbnj7V0aklc0lCjQUxNZw3/3ZofjsUBKo4YgvOuj3Bd3o6z+s4fjExTKlS9qu8vINvSyyi7H7z+fild8S4QQ3P0kvN9WBNa3vLHqbuk9/fv84dpeuTTj6LgE6s7/G0amDlZwShCl2IP76szyC5TuGwJY6hpQRQxNcubv05wn6ZjVPkfaVLlZ68OfMKm8waSjUlWj0RzRFWrVQ8B+hWNDBuiAIBQKIfd2RrwxHNEAGGBD1hfk6qyj/8d4zYhG4v/xOvtylMYicoUsAX1wMhs3E2oYI08STBuKOkTIHNqx3J8iFXlLTTaRlHAjVWnGw9CBAY2wV4Ir2jp8lJialpGuc6UbC4J09C24dTGmFD28D+5De6je/fLDHNZMape1vb7jOJln212mujbk6tIJvmTQ7JB9AEHz37Qja8mDEbBuyALxUJuJVsBWYvuQeugs3Bmdjbs+9//gbaK9b94YCH56kc22sdxmToMeWHYPTAYAvb2VjKfr6xepUsiM0m6aZPfjJz5/QzXXU9YupvfmlDkHUgfh7+yTzfDP98ilNr90t69PQvxBQOfApTf/p8T/Y0d+i538pMmTU8YwaMKqfIwUJ9ihgNPJn0OTgA8bkdGohMyatpuZ2InI6jQOhe7Gh1V1MrqGJUYye7j0EgbIqBeXZ8ExYiob8M5IvuhjeCfmis+G4BEJKnpmSk8GBqNcT+OPI9CAl9mfl+Td6wcofOUFGhtSZ5Q6vfMs94Kg0GQCj4oBlPnqWbqL7jMmG58s+w3fIBHJL8Rns4pFvcQXH4r9B81nZoLQqrcF29vh8gpg9f/aoPG/jNQ3E2o/ANZTrjpaxXpmeqdXrS3iNwBZowLkXga8vzCfo6/M1xRpdSX5Rcb4a/ntUY4CXpQJ/1Wb+8DsorWtTC7QCnHITc9TJ20fNTqnK5j/bK1lu9FcZOsllD8HGxlamd4nAS1g+0I2Xv+G9Mb/OFwJqRczl+6Ccgeoefu9nOrhgVrUwMUUw1Qf1cKJuymcVd8/oldbwNyf1znELWFO+iZT3ILv1Ri7dDl3ae7KT1UZq/EjEA6MWb+QanNicFu68kmgWjF66Fw6AOchuIZdHMXUmGDZPLSTBoOa0sVaF4AUjplQKlVOuTW2PKZd+6W76IeitjRwbc0Mpnh9fufXyCQgpH2fn3Quo/THvZJsOL1zjunmv8rXRZn+gvTGd3sfOfxHK3Nyv8n5c/RcYdbyZufBLUXlGHXuhGZ4lZdMAU/7kEmmfXfnbniPB1cXZnYg0A3Y0Im8N+lci/pXY0E5ifCs2tALmMzH9PuxPg8wfkzLDQVnyrILTn5Ki8RBmnISk1QgYUfD+fTPBgcCI57P1+oTj/l8+jpRhFBP9tZpkHT/02qii/qOsK2OkKoFUVKCuEr4jWbB/CeFOkNJaosonp9sQjl63pvIr4vUwVg/5qZec9xDAEBx8WHYE+nCQffcTPSkyeSYyvBL982y42gWB1f6HN3wlFHylLv5KU5gvaPN1Bf/hC4GMKiP4ekGt+UoApBo0Okun/Ee2ROpp/IakvhFSNNMmhg4OmExuPcHMw2YGFu8yVygSoxOvhTIFhc6nNFqR5LZgEmquidvZpPsv6OO1PfZHomriVXX81DQe5O1TSpo5FENdLNPKexP0dRrv5xqRJyCSWvibodXgqJxcpkZUQizo8dvT71PLG/DGkhalz2KrGgznJoBvl+aaQPpwbCt/I5R8nqYfQAPgAASf1cpa5ORiim4+oXwbss9suxBMUYwfr+3wrewBOb4cjIYSG4OxqGBjWHiXTW0LbcwugUkOZIs47g8s9s5SZj5FHVGj0M8ckRjDkGYwRdMZGtk0Wnd1d36foP/0+GeM2n9ZqX6lM2a4+V1jcA7TUTUxcnK26Er073vOD+3EJzcSsQx4/MhQfCqczKzQVBgz8x/FVncf0PnwKnjz9Wk6G84kJjNjcuaeJzAlpwf7ZuIyGNdkZDQZCYOjX3E6fV7XP39LeGi/IYed1gsV8aRRoqcFSoDzYF1DSutxB+G4ko9SSrSg0L8hRxtwt2owNhUIU64OU6cRHA1Kt9ZmptafQcv9O008occcBtjojrClberrzls1dfz+R3qhzlD2ta40X6cVGP1Xei1Q0nx9gYYvyGdyvyLF+UUA08ICvjBfDyqqRKM2N+PcnVQK4/+1oo7Us0w9945Sa5fxepe5oRmnFagaGbTiTWBH2TsLpLCL6G1EihVl1s4mE3U3QxiKMjgZxzTLAZjq+Sxs7Kv0UEXTy6qaeQ6UOKzbGGy+2skrml3NNbGwAPVEjCp9PkHUZ8GntHKk9WAfLreZz27mQM6r2ngGdkAVz/MtqOgPdBWIs9xWNWvlYQccIAUVb1fzVg1vU3N2Ncr8Tj7XxsHCdzL4EoU8n93J5rbx2TYlFIDDqmq+U63p5PO6eTCirEud51IXuNQlbr7Aw+b61VqJLxtlqmPk4gNifkYuv9Ld3v83vr79l/TpXd3RF+rYtto9TY6BHV1QV04XmSN/7768Obe3GKPv0pikl8L5d6vg+lOwcXQvs0zjSE/3Hs/tAILj0+nhUDy9hElPkm8iJq+G5ZXBgfjYUDwUlHs9t0AzBVyHnXr/e3Z7yXforDmB5OtIXiHJ+0bhl+Wfx6IKSWUjgri4lvBlhD9Oyk243WjF5wawKwBQJKAs8L9DjB4sLcqFh6VJWZqZK0Fe20ZyfhT++OjyE5rK4zq9RlOg0Rz5Sn9EpxO+UhdqOE2+urSEK1TrDAU67X+pS4CtCurykqozJ+qk5IFgpRc9BlUjgIzjvuPMbVUXaqrO159tEItUNQrlAOQ1c4MJRrCRUjtm7hltxDtd9ZFawLJqO3EmyTkfyWnjBYz+cCrAZRu26QZ86AEiANA2HucR2MCagnnjql3q2j69ysrgbjY2r4s3959qGTBgo3UbqHg+v1vtlsxiqCpHGQDLauO1Nj6dWu2NXuOsDGNnGTt3ukcvTfvS6WhuJ6uy83wnXx88OzIbSKbi+V0cK/I5NvX1oY7NtfcfdjO8neVEda6owaTmn+nrzUwBDvGzpS4OBz/f0I+ZTF43xkdzHfy9ufvgRh6l7muDjHaIPR0yHJ6mT6uOn9WOffnvV/1/waj91zhopooXwvqrs8Fp8kOUGCJ8+bhwLvj3Gg3gr1/irOWNt2sU3H18KL0+u7OeAPu6B1sWxzOpKGARJ+Ul57Zmw1uDA3fBxHr75PDQzHAwGvRPBIMTkdGV2CgA9z4wgX/8PvAwVDDnWg3B/gmg9rka8nw57fbIgL+jTUJJDfH26zdXLJm1ifYeIlSQ0gZEbbmVUZWR6i7M5Fc4KBrOYjspBaNlZ4wiEj5DNz6fdLHHXMxRF0qWChfQRB5wYGjlG9waUsGS79mrYnsoGL9g6gjJdHGBXgZb+IGamuqAsWn/DwHdcOQ/eCaLv8LnQhBkJ8BTs2WAA1BFdTihIK+JH/bdHXbfcne3h+X2y6UkNmBEjDaxwQTR2slJkSw+PZT/ooRJ1gWdSFjPufnU3MbzJE0mJgq7eNhfYxeAGqaXaTqRLulSky6MK2XZOfDX+08wFzsRdXDNbLHIPkrRx4m9zQd0atLBtDLabj19hbQBqOe79S3QQwbRgNPkU3uZNbqe9GXDFpcex+LnkmgmfqHZNr6yrwqgBnRo9wUSFTClF6Rb8N+RUcfiA7qTimbbOPcCOo1wFCfPwJkpcfAjSob1yPjM3lP6ei2QJ/JBhScuAon6CCThriHI/vUKZ7wfHfSfHv+DHd2Wf3ilO7qpXswYI7Nse1RojxXdSZ01yzN/2zM5tAUYDQ+l0ZUP7aVi4NDTb9OYszw/uQcqCraDBscIfzCZCNNh38ywFF+cTHs90VBwxeuJ33E7gn2yt18elOSR4D9be3hU1DBBaTUW3qlvPZVXxnx4Qq+LHUwJCUZuDfejXDjzLXm9Jh8pIcda0MRWthEA6Hm7QgYOIk11pN1PSpvIURsGI7VNBOyl0EbyW9Bi5dqI0EpAaqAFauVzu4TgnFrVxKiaOHDKB98BJbYyYXdkcgsu21Wx7uMbWlbC7D2jpRoCrPHMj0ZAQHEzq2rggLq1S0TVyeSKeqZFwFatb+jeCt1dobPd/D01SXaybqcBPkJawq8B94Yj8vlyfKrSiCSvi4CBl1ZQep/sEkAzPU6lSQsbUtRktVPz+hWdWrgPnhe+s1bEoekb/lNXpUsftlEzVbiQ2rplY2+4Az46t5nU9iAI3OFT7nFlSwv5oR9pyXCs3Ru9i1uayAU/GrN7EfO9sAwUSNumvjyEzjMYq3JHAh+e0sIu9p6ifobnzNK0/OHZntAGX1JB5EJHSMkEgC2zD9EZRpbvTi3E6bOd/C5+XZmn//jJ6mYaz2FxD5/5+csr/N77of1fYPT2ryvVu8LJTXZkreiPjXANfuq5/7c9QY8/WtgbDEVT0+n1ufezQ3uPY3vz02lw7mFpYhGU0/hqfHTj0Sj9mKaJ6EZqdg9UfGwoA6ZXCsbnp7f2U3RKig/2y4uI47/PDQRPceD3c8uRdDaIZqvTlFzea7DXCccZJJomZjjcccejG4uZH6VNjSKGQms7CfctuSwyqOUBnd8j+bvhZ/hawiDsWFULkjkGnoGStrKHTr8NaVzJgI5r5bJbsAO0xqEGLwnk7B/P0uNnyqUKIYbmlck4z5UtWit+BBwQQA/CXLDxnE19GPr7RN+lknTB8rqV/HSCnLMhzfACH7WR0y4SexJ4vW0ZWai6OYSpeiCb4L/hNby0NW4htUkTS3FQQrNKNOp8rwYMXmQ5cPC1BVG/n6FX/Brb+KWXazSvhS0VL+3/Tu9IVffGOx7DFiurF1G6DYZPBSJ34ZhwFxmVwO1wtCM8fZdmaK6VPdlrVrZYInNR+LbZrcyZPowGjI13JJOrgC2gGdWKtB2LdWSU1Pp8G1vZhwGZ+LIDTO+H7T3exl9QYJt+sAIaLjzbkSeyNX4Ez9tnaJ6lmEk/wF4d/9Mkvfyt7s5+x7/AqOPXeO0rTfkLLpBBEROM+eyjGL032YS/7Tk7tDo7mlmMbc2HM+uJzFQ4Pj+5MyxNJKZpKLT6MkXHQtHk7N7rBzQxiWQgGJRxZnP/Sti3MexLhuTMsLQS7JfH5K1ej+x1/Z2R7CyYDwbN+cJD3ok6SXeonM40KRy0keQeJ/nH0UaCVDojou08163s/y2uF9SyNp+hoZnRHCenW3XlTdxlt8Eg8mDDNC28wY6KwRYNLK6lRbnqssvQ4NBHovHXT+MM3MRSAAAgAElEQVQvt6nGxhaKGvpPj5eKeH+k3FbrX4RR4E44FDetoGyIHbS5jcurFc47jdoaRqUh75YvnQY+iqKNRbv4gM1rJpUOYhkigRSc573dbT0w1EKXEpwy8eEVureJV5dpJABHEEwvM5gDn0m/x3sMtE4n0s2agfbY0sp6ip5sQ64CTLfadW1+aQMcrqGNY3CKgfrMwK35hQyaMaDvVg6E0WlXe2QuAxygEAUcDocanR0vN9Hq5zURppVlW9hKlxms+N6vNKeZUdnVLIDSeTf0kMZSG8Bis1BLCWfcpsD0jjQ7weNAA59j50/3dAzHMqJsETCllc3BPFTLDenuVX9Rfj+rDbJ6Sbgy6QilV6ee1t3YZd3/io/aMoGbvxiqn5DhbcR+MCX3TmN1hmoT97c9w3IyNpROzO4lJ4Fu7iTCG3F55/EKTcylx0Lp1PTeMNBNTBaZGOyfmJJXpODKSDAelme8nlvp6T3JPxFS8keDmCwsB50YOBj2y+6e+KCP2rvi6QczOIS4S7mDRM+SQ9/NnSAXwAgVYOCzoIYUfEt+sLMg56s7UeCbPMhEEaDlRPvt5/tqTVkeHr5afEorWnHCZ01b0U7qi5+UVHb79fBVPuC+VX1SNFRY1e3+dlBj9X0WbQ1rDd7VlJPe8Vv8CS640AH3hmNIz55ghEbWFuJVimBH8wwavIH8NMBd9pEWCWw5aRkglgFy20dICwIOFscyyW7GkhMtEQKc6uBzH2/qSsAndKp5uJdA8ZiYrM+WnoCdbuFBrTPNB2OeLO9WE7sy+6qZ5eBzQUgBRltRxYNPwGF9q6LZ7ai6UK2DqIcvZlMrW0CNYQQA0MnYWEbR/lwLB3IKh0ZxEFWt6uRyO3nejgmmGJ/qBPHOCzY2uw2xqKTrg4pncrvYPBzfx0kHnMhld/JazMxnsruZHAdm5h9x86U96pIBVvATQeIKx/kfFtjra2rrM2J5Jdh//+eKdP/D/Prd9yPbmJ5YuaDZ+1xt0R25dd79Z7j7QJGFpXigD8uSScFoZCgDzh3kPEAwHIyG5JVYKLm/TVOjmRGPDDgDGir5oyNAVUfT91z3B/vuP1+mw/0zY9LGiBR3i5aAwiVG/D6nu8PSVecdCrx+SheXaHoNhIgye+Sziq+xY+5zWQuTdwKjoQci6RzoXPiXDZnoYf5yCSmtOxwb2wfnk6L7X8BxN7V11XMW1MyXv/3jsoLjz1SpsJVjm7mTLsbQQqo9SFhrPExBG6n3EaEJnw1drNFFzg+QrAYU5qpmpqQNq0pxnWBOcIYG08nDdc1pZY6JRUY7f04UTnfqhFriniRcGyKsd44ILVg54vo0KetiwnP4hU9iDRUkx4ByMMP5bazQpgSbMIrE5nfyxTYmX1FLRMlggmeula0fuGT1V4HWBhOuamVzbLwoXbstWcCtwz4M0FYb75BMoZisQV0PKOQMoiaVXJldltFGtmJ2yDlPXTyR3klnCgGjbXBYvtpT9fEZkshS+EVAXey8NYSDnOC1i3ELl9PJ2kcD4Dbp0z3YwmEqiXoqtaNUztkr7WL4brbQJTxSlD7c/9VBUigxRtnw4ZfD8zz8psj5u4X+0+N/wOgLpMm7H00VS+zRUb58oEjv5g0+oXboUrlYZ+y8VG7TVTZiDlQouAowHZFWxqSVEf/KlDyTHN8BCEYkWF8NShO72zQzufN8Og6YHpbeBzwz9jbHHVd0eGBmTJ7ZTGAKn+RbGfRMuN2BA19/uoLhywhXjkOXTDmjKmcRcAdjmIr6AboJLh4sKP8dEWqIoYGAeIKNgMgrLlZV8kWO/dfEUGs++FFwq7x9QB9P0ncKwe2dpXnfMl5Zfpuh3iEl5gViaI6mxpPJ6Y3FyZ1HCu0rMTGqRrbcxpY1k3O9JLsRR/OvSoQzKUCsx6pmJTZAKrkcRHNoGyKJbfmyEpB/vqtUqqJb7z5mQCgMSvHIdDS2DFqYptZWVd9jyRMAnH0aJ0lX9uDMEFBysQV9KIoazuDB//Kt/Hw4PTaUeZRI/+DigBvwVj61tBeB7zm7eqZXQ5SxUDB4L5/iKI5Dan+cWs3tZNlOdRwcWmJmODJDN5E1ajrVu8/o5oPV4ekZ+gKVTZ4NqXZ8bkYKzbxMrfLN5Ahor090alq+HZTpE8rb2AqXEehWOOwbnEyCT8uzs2f8GOINjzvGgCT8inSoQXIoW+5K0Y136b3sFgZr8qDSlyNL7+HTwd1LyhSx1IP45lPk5aU+Nrb2F9Td+f0S/afHP2M0tE1f7gf26a0zs2x1hA+u3Lq31FHi1gludWm//rR8Se8Wqu1KIplHHkEPHk/GMvHQRm9PVBqIAjoDA/e9vffdbp9TvOV2dQSU1PRe8a7Ucz/guut0+e6I9+PjK0BG4+PxQP99QGdv9zWvC339nf66vO9wuqamjs1v4nG6yME4uzJ0Caoou4z80MrkAkBrSUETYrHahnBscKOKQqp6QFsLSBb8y6QhDOELMLzPHWdUasKXkMKKIiAP2ScYHIsqIVnfsyr4FCXzHyFefmitc0+wevD1TazFTlrsjMlFBBPwSFZVS8wDBJy4dRSt6Tk/MdiJvotcl0huw+dTqmTxRJbwDhHqmeEQzqMobGK0TRrQNB9fUbC47SFAIXNlHFOcKtw4ZVl6AEolvrdp4JqIwY181DKKp85o53Ak/Q0FAno9itGVM6IwlgKZHD8I1+fakdKYfUU3lXpgpSD1FPzdloquS6fAnumbmCPKdIA7IdOdUbRYJU3kiB239IaqnCHLh21wGqxBVEb5R43OcVwpAO8xgFLm3uRZL/C9j1RoYc4rV9Mbs3inb2GNo1ZiGkJWPhgzB2cxAipYmZuTKCXHEtGxpShAvMCuvqOUzHi0fv/5OjrhCh/36K8KObBv/hcYvbe7Z3qC374lrJA5RbXsbdOTbl1hDw8MqbLPcF7ESMG9noDkm+lVZiPddjncYntwQF6cXgWDOtg74XU5Aj237I6O4WDU2z8BAv9Od2C4f2JEmrB333I6LIN9M4F+OeC5ddtxy+uWnZ1oeALhDk09y/3I1ffpDjilCuRFHcPWM40ukg26x0aONJD8OlLaiENKP3Si1aw5EEkHg0/qw17wKhUxljFet8Xbaxn2OaT+dsnfMTbu2F1LZpbjuw/vv12P7yaTr9c23j3Z2n+yk0mlHyeji7Nxp+uS6v8m2hKSX0BKjqu9YtWVRrxV7g2pVT8qsfc6Io5yTC2xj6JNrRkADkC0XeRGkJiCQmZ3Vd/CSEngS+9vTFcBjM5LjtRnmvHyCT3WpQH8gQUFeF0eJVn1SCQuj5NE5uC6+ThQUf2AUa4RLP1T+oNTGJnb2d3cA4w2jvqAQZ13qx+n6dQDmbQxSD2twvwybQ8absqm52lqsLFZTerILA2Omm/Kp4AyaZqZ/FbdoxTtlQz3wo53azTHRLKtwuwKHR5tH5nGgXVgMnyLDpz41HT7cGzi3ToofZLXqn+9TWcTvvkkDsjltTD5NmPqIdjjCVByNEN5K1Mi1n38laaT8f0X9FFqIxtjYcbUGs2svQfT+3x9B+x6maPqubI/bEmn5GIfa/SZP/5+eE52f7c4fzf9C4yGf6V7dGX300xwGYEIt0IgjDmRyYfti2nd4ANNY1Df0I146hXliD85PDAx6Pe9S9Kp4MTIQHR9eUMamPD2tEueqNQnD/ow6W544L7UF5dAGPXcGhtK3hE7hj0OR1eH1+XzOhx3utu9PXcDiq+/0KzWNrGqGtZgZQ12dXYzju9lNzBXXQz3LbkosvoWUtzAHAXVCSq+DTloddfnOXp/TG4mpKKAe76QuSNeEu0WZ5dJtJptrabbXRZ7p6nXYfG6LHe6cEqn19E+5onfcd66aTffsJktTVVXms5G/B3goVq+M+RypKysCMe0DkTYd1h4LKsJjXptL4EvdqQLSCToKnI9hHJ+cBnEEHNlEomp3kEKugCFHJJI0E9NHC6NLIrxFhxQQIyCowSUN5HKPtIQInwDeAMWrqQK7GgPHlBlUltHV7yT8XiSqpoUEdbKtkgTgXD0UZpi8jLwUVBFNi632Tgc2RiMxE92CTjy1MYXtBruSPI90PU2XtHs6twmzXAsOZXYMFiV0TUrl9eiH4nu3ZPiWhMeOcvGadqMsQf0XigKrl9lY0BI5VkFe/D+dV87GFHWzgPd1Ir66/6Ac3wCSDDQUxw+tQqN/luXJXOWFVk4hwOh+hvBgKXfxIN+EtU53Xypy2CL3LfIVYX9nFZiSkJCzeQlbyoQXDdef6W5/du/iY8m3tDdT0BJN7wLaPClJVmKxP/8txJzabGfmlWiGP9/PvZpaok2ihptM5fdxBscQs2A/iefoaKLswPRxJw60t5DymxspY3kN6BBZY+TSitRHQyNfq2M3SsZpeeO4wjKDVuVUzT1dneEg74p/93HszuY0vGERnyBgKv9bZLuLCEBpet0fTy5M7e6Ob4X8jgGXbcc4qV7SikHR7PpqI7H9NMDNvwjyaoB6omFqC72E6aOaGykvBsQSW7IcEUx2ElsTINEsqw4sx5jnLbD0XOgkgQDQDyuWBFt9gQhncwFiWSbsB6qZZwUWsm9SfXwNHp/Y48SewKYNnOcSckuaD14L0Z2Vc0K1gH9nWqtZMCBe2WYNAtLrTAMii1U91lNHAcqvoU93AEsbhPDtTCo6/HmYVUtqP01doIpJgBlu5LPb2VxH9T7uGThFkwuUbUxWSLLdiEoC0UmTzkIBgfsPN/F5dlwkDYHNCKqe14QBa3IabvZHJGDdynDoUBgOEM/0fRxeRKjHyLV07z1gcb+hL/6SrC9ufX2/ztGB9/QxmenTi6T8mkh/uIQlCfb/pI8eqSWnBGN9G89Fn5Tls95ga8/e7c/sgUOV95gcdB/fuzSBqcurxGIUVG5Q19m0+U3sfYeFqgneFjws5tp8/lukgtA6UfDWSuyaD4LiFO63+Iyiv2yu9+B9R8VxXNHNI35o16X+Z7T7HWY6Rr1um+Bug8P3D/IUqXP8HmkP/AWhxY39pZ3AKOhfp/Uc+ueeKB4aOVBoZQMJhkGg/Li8sxlDwtgrZcQmlobOSoSpgmL4wEI0I5a2SuAV/CALtRSB8FLQMaFPsMN+ZQ3cuumVIX1+nCiJryFOSehHT09QOpDRNNApGUMP2W3YB3Tg1yC7FZe3yoUYjYTp0CW5W3qc32Gk6Iat9gUsW/js7sY5+TdO6O+Qpz1AfYPZ3R4x+8OT9/XixhbIC18vp0fGV8Njt4/ioDDrPvSbvXi8vvXD2mFqM6yqeGNRpcB7uR3T2h1N+aXwBure6qer2Ed00oHr7Izqk51w4DleWpn/xn9yYNvyQYjMrqSfkBTy6sXe8GyquGj51cwkQMOZekXwJQKDk3ogZJh/YHaxpmCICmX1a8zSoBom+7smxxv2v+xY8c/Y3T4d3r+heFkkjfMEUOElPhZg0eXI345wLpXUgtygb/X9/fM/C8fl2sP606Zfjykw27X4b8cYvzve39GdmUTk60QPr4Jk4KtbqI1YSWmbBvPNrG3/Uy9GzHa2IN5waqKQ30TiWKtlMwD+vbBaq6KYLWFp3TQZQm4zXHf3UFXe6AH6G/7cH/7iD8w0ucY802MeG5JvbcCfXfnQ/enZDnovjsmybP9twLuDmngmtfT/k6JzNvt5t3PMxh3Vqi313zZrYavBwwSngGj5SJ+vZuTaEG9c+jrkWJasUzV5q5veC3wk79ofU3Jo11ZCS0jRQMbD97cu4yaySRhNtaFIJYbP/35JOc0IJeAQ3FW9djS+/Bo+vUmvSGdJeBhWvmxaDIU2gC3cz2kO8yEsqoX1zG/09p3Kz2XKe7CGCewxscP0ldd5r00LbFx2W3C7BzNLG/dcJkzya3SLtT1yeX3qeUZq8NEf6EGO69p04BU9wZNZhEriGut7JFOPVbQlusc/vbnD94X21iDqwjOTDDU3jvkg3f9NFB01FUHly8QPuuWZHxXJ1PTj8HO+Nyt3hDmoWo7yU8hFMSJlWhkbgP2MfZxjqWtL6+/97ez9J8e/4zRqc8evDxGysLkyqTBPHo2z8XkgSw1keJGRqgh2jrE6M6Tz9j6p0l9mYMyUx8w9QRX3tCIhCsfMnT4vw/NKxWvYTnvMrBN6NpAOHtlNQcWtAm8Fad1qNlG4pZIrYMIdaTFg1lCWT8eZNez61+ktlZ/Qw4mDz2Pbgy6LcN+xz2XOTUuT/k7QgO3cLLUU7qX3Hm9vAPmEy3uJl2f20oPJZ/PJvce7E35ZdgNBN+BAxn2BNY/R/73n9BwZLXWxZJ6YnQxTD3JbcXZSEwTc2MIzB7jiBBOZC1hVmhBtN30AFIzV/18ZOH94Oj7H0S2uE0AswHHAcvqBl9vZRpkkt1EzvuxMlmlyH3cj6YeqHkTFtolJuaYux3OLdBHb4TuvoirWpifJLz8xi7+6lD04zY9CI7ybcLmM9ro5BskdHfnXCxnFQBtN/qKLvsxeGS0szkt/P4b6uw3XpcQDWdENteEhapv+w2ihNGAChsnNGlAvIuSQRzCYVIg/QWK9vcOWe6Mt8Nx9E0gDXFLMHLtzqQFvtsxK1vmRBsUiFYNxgKwpcTKGl1ovKaWbiVSeGFK7eRgBDW5tpJRikGc9LDiX3txed9c+seS+P+M0fRvhyvnR7kPn0dc4kuB9r7Pw/dPo7k/kliKPj8wMJs0HrkWlKrEXr2zz2D3VNl6jMEgfl2721LdWLT7kNY06S+LAQDH+UZ9g83wcoUe/ZYB0WP3FPHfE75GfcRmrHScqnDqs5vw/uaamDsDQlkXk6VMdOS61Fl2NK53ZHLeSbjvyU8uUtnFKsPxLAgajLofVID/nWpVh2H5cO/EPdHs7b423N+RkJO7CRqX5UfR+/A1Momttw+34kPybgJwuSP57oYljAhGBhDHvZ72e67AwUHa6z7/6k90aohOxaIXPZgAUAk4aCGaLkwHYVqY6xLKcHcMdYZplPDNjH3BfNFNrNMWpgGv62ySPn6y8/EDKF9qEDnMHJ1DuVPjJ3AcQCSQBxD4Zg9clA2Q2OclBH2F51Im/f6cqB6MboCcJw0gok+lH1KTUxNe2kuvxQ/sKGsSRhIYaWrxnXr5lJ52CFyr+l5wNbEsi5Lp7TrVtjFMExdegO8Pts0B50pjZXJbhXc/Y660FPMB/gQTYVuK0ut0d20mFJ1QypIB1vlkimZSWyDYwU5nm5gcqz7xEG6zvamFicWlJN/M5nYWBabp/rM9oGrry6u8jRVsRQllkg9cjtTKSoEoCKLm8YvDCkKxpWvnIrojA0UfPlvDvY8T934z/QuMhj8Xzbk9jbdX76jsDN7HMmi//bmP0ERso4F4AmN1r59uzCfM/w97bx8TVZb2iy7WxtVs6OyzudOXzRTvO1QjULzTm2Ek3RY2jGBaUMYDRogHbmW4p8I5kSpSkYuASQG9vRQVKgFBwlclpIog8YIfRIyXIB1JS/hD6hobQjINF0b6RiTa6Rgx3Zq0JGbf59m7+NDWfp0z557uyWWlLDer1l77Y/3Ws37PWs96Hu8lc88luXeooGcoy+WXh29oTj7aTlc3V4O0d7izqrrGAUkd/p5iV8HXk9+Uuw9F5gAQ6e4KQao0xroMaa1ynGLY32aKqeM7Bg1SmbY87RSEBpFXRKaIoGk2eUmeh8hlxN5K9sBY/2lwUX5Ze/6lCbXHu5yduLHHbQ0oaZbXbT3fdnrUe3aoswdgujqpXuzsGvB93tNi9zSc7G1xDbR2+VpOn+88e771LIC4v/X0ULf/W80bwotH6n6DOD6jjs2p5e4Re7O/uutkTjOO8iZQ5y1EAgmBC+v0zCWAHY86UyWFUTvMSSOcNAFoQKVmFQ+qkrY0SjSjFjyuoJ5bSF4PetEI3+4loDylN+tjfRdfiB56tfJCTnv19LTac2WEKwrauWY2FLT4r5+7dIEro/qCKlyaLzE2DYw3es+mKfForgX62WFW3e73Xbub6MA9ygTNmQ2Obn91+9kEbYoAzhJK5Fp/V8elcUMx4TTj/AiL6OzscbZXR6L6JXAOPswh2X0XrC2WsFxCK1AVAy0+pzH/oCJHQc0VuKYKUDYr5nQlSwAVDW2leYBpqmJKqTMYFFwIFUBnqsNV5fRGaXcnM/hYbJ+QPmi03yiomZEcK6bqNevfoTOdW9Ttm2bLJywAzfM3Llwc/etyQL24TdExV4qshI/8lEpFwm6nIbkufr9izK43Wtz5eS5zle9kk+8u+qV4rFZ3Ie344al6woWzBOeGx094xn+YVx0tWUIubewmMK5Bp4+sE0yueACoqYFv7GZRJaB2MIomFHy4wuJcEnViA1d34VRoxGFS2kpTbbr3Gx6lqW5x8iHuHjHvlQWCo9jsyHhTQ0GNM7/UknWm1lpuM5fbsmwlss0mn6rIqnIeOuWwWopMthJzeXFBlcNSVZnvqDAV55rhp9VbaF2mVFSnfSKj/RR8cgSQ2dArMt1oEZLshIZH73bZLYQ6aNM17FGI0Qp23EcAoJF1aJyKGNXX2TUrJ808XsADG3NpYz3K0RJS7NfG+gbdWbafy9V0sgrtFAsNmmDrFKgM9HpGLUw3SSH6W6pgrEJw3lBdI6dR5S8D1R4nASIAdg5cpqcaJcDVdhtgDvV6nSQAy8ct9g5RAzGqX1ENkuQUohyCtgea18ylcdN9VK3Iapnun5XV0tg6PqFW4FBd42mdwNfzUi0faaNRKE0EVidE1fMpbjFBYYKLCo1iZCMf7RHS2037u6TYLiL5hIQBkj0qNN0p6FmQTq1I1WsFP/GJ/XaMdqz0jH1fDU28/wqtnuxaBv70VI0+LIze2ijxUhVyKJpX2njBIcqKlN1sylOM2yspbLAOTamn2uzQldcfqrbWQ9IBClxbLjEIh4WJgJpQhoYRTT6SWMei68TdblF2G2Ir+cCUPa6ShFUyRxspaiVhZdTRSaq88ZEuibORFj/JbkQ27GgnqfU46KMR8WHNzD45OI2fXmjVJ/DPtZ3tcNsDw+qxA8xRYqyqMF1sv24vMdU4TQ6HqdZpPqccqnWerHVaTxSZHcVyR8vpmgrTmdqC/rbqr0f+mmbkEyQh7YAJq/2E0GIWVoSRn0CI8mX0jI8nJURw0mwPEEd0fQ86U8sNlKOAUaGWRNWR5EYS5cYBPapWcA5VnxvumQg8uTo5kukxoNCdxFNQ6JaQIi9iNNJCznixUZLqcYG02IePD8ISJ31QFuI35EQiAQVGBOM+2e+k/a2GpApgxmL/mHp+8EKmS9RNDSMqpKHR6eEby7bODMRWJYt2CtMTdwMB1dYsRmBXobJiuD+vfnX7rrU1Hqc2K4R9jWge/+3ck6aBgjAN/elu8/IddEt2xiej7l/LTngt9zHSiFrrNXN1MGiItUNdL+6p32qe0oCRC4p4bnJKH8p8Y9aoRowPMb2hes7NnJZ9LH1wu0FZj2st62/vjlHvI/8P6oOJ9cvJI3zSAJN9kqGFRTaIoFpuTojGFGlzbGUC9NT+CUv/jYKvAhtW9Jr+ZGswjU37e0Yt3mv5Z4ZA1gqRTuHclYxIhwiM0zMoJTaAJKYdfhKNLS1KihRZK5zpk/e7SaRL8I4aDQ4QpYKzWzAcJswJer0ELQR8NMdF4krIGZ+Y08zjpot8bWNQrrYdea8m8AyaH6hQba0phERGE8lAkhNJ7mEqJ5LsQjEzX8wuNqTliPst8em5xryS+CMl4v5ic65FPmgxHqmQzZ9pS1UcEUQSbtDUssMMOOKxVuwM4WXkOOCyBPliuFMb60uo6xIAjj83hvkwTPNlW+/2q3uo7T4IgFYL+tYheIc/zKLOhIXLaHon4YsxiFlaM+FzyNcrp48qOGmQrMDwgq7KsztJQgU6hIp1ElMd2V2PM7LJtbgFCthOZhnpccebisjXc2jk4fQU3A8s57VKoMaN38KcYiVrfVk96jGktJpX51H3L6ozg952zG0QKvjVBfXL6aliN26rL/ZAjgDq5sVrZ6u6Ua/KdqPnUbj50RG/0mkHqpbjlqKd4vqqevHKac8AutTLVnBKHxrd67c2+c7CQXoDM2nOiPoHPu/tQ1vpNIWmNGdAzsTty2OTSAKPdrLjQ9v2x71Uh56atwcA+3cwqqxeyFkS9wSIfINaxoz3V6a+XAYabvxaU2+Xtd6QrO3k4ko0q8dhus8pFSpoKoXTXRqOM/NJzw15aFL23igwOSWpDp5f7BgTJKchyim4Bkiswk74jD1DDHdm1RtgBIxt5Wt8YlId4Sv5qxNybD0ajPVfIjXQ5LhBjEF/dfkwtFJkDhp2pNUT0PRxE0g+2+fCZdvIT8kXMxdgOM5zGVMsAtk0gPqIlDceOlqG9nv4piYxmqCjS9Zn5tMd1JCjTdGnAnMQ9d153AFQyCjuxAc5XcSHA4y6cR4UZJ69i2DYE836zjFIop0409Q4rM09XaOcE2eRIh14oYExtGYETeiHh+q3d9Q8hSY42eoSukXmoTACmma2IUZBDIdpL5M7jN/AxXPb8RltXuoYJrY+Mbsb4znlAW3tprZuVuMTEitwIx4tw+/wQv7BrFpULxS3IjhqvXJ4mTgxpdrcRkunDG1S45V5G7oSP+WJt3YiXFy+Q5ElwpMVtdQj6pq+q1uOckqAP4cn/lQflrG1AgfAdX+Xv6BpENeBchQWaTOtP1VbfOamK6jO78P5fLSe7hk8iSv4MIQqfLKCKsH5ayfP38KlkH11LLsL55u/mPZ/vTgLLx8eJK/vFYPRi0/lN4a/eYsPiGW8G1CyTtxEK5hVbZpwaTIYdNSl4PdBl5F3CvZBwTmIWy+gb8kOg/ryifp9j7rW09icBbInoVZK9cjmxvg9LoNJEQB/xzp55uRL20lhCzneKnR4sTF4zXiRaJ6OnZekhHoSXi82XpFz3SRaEU51s1OdNKaBhTdIuH7oI5kutOSo6UbbddSrQIIWsepL+L6ePQ7rp9YAACAASURBVEYmXdNdfd5/fezKX9OAmWlU8lR39dzNJ4Gbs3u2mcAigj8jmXUsoYRQALS27SmtjmkmnpKtldqaBXsLdBvJ0kYUH04whVVCVZrbfLQ+plYg/k6CpLCSdYwgRs+M4K+53YhRk5Md8WAoCOB5fAk6jZ+YVZ+9UL+cQZ+PIPvPTwikmMlucrCF5LjJwBjConEArVWK+siR5mAgl+hiklAPNeDiE4w5kU4Y7glXSC76yNV2Q7hGVTmLcHFKnbs9ddRtWF1UczwCIHJ4Sr0//6SmKwNG4RQb6mpfaO7HXF77+oqaBP3Nxo/dRv/f5wZd3y6ou8twOra278GLZXRDsjqn7q5gYRXCkCabxm7d/WFRDQeC5xA7NM1k9s43cG5UpdABNejzjCu4ChPh4KNqDVc3fGEvLz6IVUii29x/ewOON7tkL9vjNU1v2IY/Wx+veZzxxq1Cb+OjwQn2lkmchG8Z7lK03Xbfzj+ocltzHPHZOfmxNtHaxxwDMPSw8DIeNL7qtg37v/UHMHCwAyzGKZzoM7QMG3tvZtVeose9YmStWDUoAaEE8VAL2lIl7umGUZ6rFWJa44GM233G1GYSDpqgImY3g6BFm9n9rTQTxlag5zbS6CPQ8FIxKsKgWOQ1Y2sBXMwe7O77nWw4cHZ0FAdW6GS9/pO4gppGW/zjwyMqkKpyt7m8z5pSohHZYgpj0P56zUakAlcXS7sYKGRcPn5AQnPFaC8Slk+EMiCjFAgiXBTt57WNl1Yfv7sClzp5hcJInVyPGG0awbmno92AKqDU5Ag6eqBUD//g0FQffRuqDbelX5xkKAVLaLqHVPuDttiRxag/AfG1+016ToINpQCoX3FO1BdTFazWVEnNZaTFJUoWKthQlHI5rLr7bEvfWafHFFMbBG5xy+nyVuuphnhZofqm52PN1qquk6WNYpQD1wiATRV3n3W228s9YrqiLT45hGzPoSMNZkkjtRR3IEr76uVM0OJBbNfhyidAWXZKJqcQXqF5TIcDp2Gfyyw7jMCV0W15nSAphqS6+AQHOiAXGkTQ66VGyVQnpihCbDuL8TKTn+27FH9k0FA9FW9blhyP5S/eHaPnl4P73M9NnESfPjc/P38DLUpNJcTaDSKTXry1RUxz2szQunBQ6MiCgR461rdad+Bz6Am/MRuFhKmqz+Toi6/qi3f1GQpbhHIv67hCDJrBLIhV4OBhLiHaY4hrNngvxWe7cUc2pwgmbzx6j69jR4ZkXcGMsFHFS7yDwr5aAgIVcANy1NJCygekI20GGN1w7CuiT5bRbj88iZwbPqt5ziFPHqrRqbjV6eL0FDBL4Aagtxa76LfL+RRwgzoy9YwAXbNGlIhwzErE2HpW2BUk9cAFUxSkjGE2El1Lv169bm9DaghoE7T1JPV7P04D1dKaYSSO+lmA7OxOaGY+SgniDzFagUuaOV1B/AlOluTDTf1Wf7y3D7tZKTCKHAw1VuXj1fUfVdVu6yaFOMST83eCy3WChRR72T4nNSmS7jqKgVauaf2WPsvELBoQMW0vAPQB21j1fW0/BShemjqPehL82XQD6JPAVYpcndgxFxRhzMmgRSLRT77IIUA1RudAj3yRuDELl0ahPNQMQ9zuOoAv7ngGmIbXign1gqwIkuZCH/R6qUHc12LIbTfGNLIIDG4mxHn4Yr8MfRuEaKyfmAbIwWtGz4x14J6lZkUof2wefneMeu8hRu+r4+Zh0RsIkobEekmoFwoxqACP66pr6v07PwIHz2yWuTIcQL192q5RbRoVtybmksaR+P1uwdlHctvEfYoQZ8MxutQrNg5IUgXa+IUrPF/LR7pFwW1kimDvC85rCi4hQsFJjejG4Gx8rIuPVhjg8ribTYwi5RLSSHErARFyvDV+KYB0ii8TsQ0Os/HboJ18MzT6xDVop0UCYnRJbeq29/bN9t+8TgpxPiu5IjjoM21zfW4bq2pnTX7j31bGQfwcUQTACggtPQCzwYJeQ4CD8iX6/OWPQA9wA0YlrRkw9V/Bq+PsTy2zD5CoMjqLVnkwLGL4B66WgtRcWv3rbm3TqW5fYnAGn0vbyIGSVSjS7+cuaGZWHzGUkf1KMCfqM3xvMMpnK+Lq9+PLC1lFXhLloIWdBNhh7xXT2KQ5tp4kKHS3QvfV8w43mZ6xxChUm4RiMZViZgUZnS7AuaQKbRNpvZSnSOfvuHjNBSStEw56jFYPmV2s5mvhGNfr0avK/Gy4NvGU3WZ5cgedrHw9M87XsbBawaaZMMOwPnv7suBEUVp+JagA/TA3LTWA7BR6N8jh84Xp3W5B8ohbu76eq/v8ZF/f1o5OSC1rGT9ZH387Rl2PL+fck/dMC/IYiR0iuGO/BQNKxLoZaKxCJf+D7ivmEd6lXGGAlosrExNy6Fcrqr25J6fe+vwhenovbsf9uMBXnDcOKUNCzSBxDbJzV8huBT0UMAy/Ika6YaBnES5DuCLGFoFM+vH+SgEAlEEZRYhwsLnFzy/eskaVkXNXDJmtfGwx3vO3i2elCt5QQZxeNMjHm/nejyY/IEoLaW5rdbWrR2m8kF5nAD4AhLXQbTnvn2p0+3PcZmw2G61q25B2Tra/mexvIFElQf5nqsCFVlJGJEcQxySHgFCJrGOpShBbun0dSNb9tcF6YoE6+1B/MmGEBrTwDS+jsbXE6icy9jQYiJ6E6bOSlUz2GNdfjGj9SsM6OhcRCrXF+uPtaCgtV8Lbk+Ax4ay0OsA9SagjDl98SyfeQNhhdJgfXgiUSb46grcdW4LUHHpFbqfYP6yF4gXZ70ZBWOSz9lzCPqNNpkK/4gsH8n1jKGtBE+WA5DiFvEHr14uo7kQ7ETdjY/4zPmRuit8s1UoPFtXRCbvHj1qK0ytL9ajX9/urzw19DupKVXt8tGIE2HX4rOcu4eLiiVbjbtD011XvgLVfs8i2d7GkZtSrxif94wGcL68aImndmpK9sTD05fOCvwujFzJXaMosMd0i5ZNZz5+jsg6vNcYtQBePcND+Kf+zgYL7zeLXXfEwpgN5OjdMz0/S/muG/hHTmUvSQRduYy9tF84M0/2NcJYUVckkpwhdUK4nRztJWC0PUhk9YjZKUS4Dq8doLKVeOXAL3u+TSAzFIoFkzW2We/34bB1DLAzZunC82zp3G4e82Do0Agq3kN4r8pMlfLoqEFol2jxUETPZjEklYoSFz241xNoobxNii4WoHB76krNLfvGdP60siMjjrajD0TJe2pCslk6NqNWi1089B0b2vFaS20yyXcEcoKrVfYhIYMN6jsOreW2oYBEVAqibP7xc5tAJCh9Ti+rdF8s9/YHPSXCeHG2Xem9bWi5laBs4cX4AFJq8TinqAAGOW+3Dyh0+1nPNBOTH5iWOPlrqFyxeku5kidpEFehVOd2kqJtA89tbyfFucqQTaQZfJkgHCAwywJtTPOxoF0X/up8i7pkTr4X8qkIAng19Ek31tJU8zilG28huJ4tVpPXH6im3we6TAWQdfkus0whjZmOnrAzYQZ3v8NuFSuP6I7XJm9EImv5T9YzPHFWLU+M9AwUdIwj0qnYxug77ycA1e/+UHdDj8Elxbm3uKXB6egF5IwAjZxAt/Nc3FtsDL/P/Dj7q/O5y9qqUusBK7xDQfqZ1E7vvVUmhpQMkp5X5bvT8cM263Gme9ZrDPyVH3RJfQvkKllQCyJAavdXFDabsEtHZmtXRd3bs1l93p7Hdh6WEw7Ihh1V1i1yZtnRRJ0S6JF7Bpc4Izflvojve3imaK4mgIPsMU8QoRZRySYfXCEMtbod3CHyFUOQWTBYiNeI0OFeJs0JKtyEsCRefavygKJCwCjGsiHJFjO7FB8xVcL8HyaGSjS/UQh1ASnQIeYrR4RGAMaP3JQtKskQHf6ZTTGk3YFtC+5Wx2BJB8cvpDbjTl1dEkDoxTjHJKSiD6EKC0/bEpSjiwKhVduqmdHDnUv/keMe106DRCy4JMuGnsckeu88epi81OVhYGftqfvlcXwGHJl0CtbFwG987cdc74g8vIhgr9TDhC+lXMz82eu3sM93RH02qFCYmRzr8Z8P3wpOiPgcK1sWb44HbdyMKEZRyI8nzCBdHZr+46Rc0VTJZodXeQ8uz6leTszE2fA/w2ecpmJhQJyaf7FF4beGKt/hOXx26Ozv9DcjjpgkcHgO3ZwF/0ZW4yFnYfRlwhiFBvlOlMhpWyZd230X5t6I+W1QjbWiMd7Rd87P0EsOYAEcHldfie6LnPFlU4zxM8EhFvuAM+uq966l9zAQ698Smz9HLnqeH+t9kmfQWjK5d2P/QaF6kvatIO/qn/Y3DSLqBZ4AOm9f+ik+EwAwQON3InJo+M8nG+KQ49I6UlBhvMpqSYkxyYobJKMsfwgH8bYzMZ+jZpkJTDxWBR34thmm7xmIU8W+zDyYCl+VWoKdouR3rFJbn4f1OSXVoywjkaV9j/N9uz85OPLB0mYVKIaJSjC0Tl2bUsaHxuBKB+4zUDpB9tcw7eOH88IUES1BYSmlk4ub0l2NT9wPB8aRnbHz82vKLeXU8MMLDW67k5Tqjz3e33zub6pQ4m8CV8AcbswI31S+vPTjly9JUK5rtzpq9pQJtcHYfAtoKZVrGHgS04GkDN/0ANVLMe2fUAf83kPNs5QEtQUuOgXksEBhTr4LGpi1pNo3dvXrpydiIurryI1fMoMy5W0/+dluFypfu3EW/VLns3KXZ4QHV570wPXMX54AL6VAAA7Wp2r65sM+AOJH+K1OBayp8ro72QJ+MKBMHbmD41tkbGFMBKoE7/PKW+kzz1/f1fE+4hYWXSff1ufJ1dSzgp9ri6v0FtPWEYhM3/ZyNJVXEm+vNsZozaNyI7BSgr8olklRCQSvQ3eLBuBRbwkfVau7J61Gdiq0QpWIWVcvCgaQ1MMHFditSksJLbhbZyqK6WEw3n9guJLSzxEESPUJiJ8ieSXJ0WrbOyqceSVXf5/e+uxyteXw2e9WYukRPzeOoejUwMqF1kqhmgWuhQiOOic8fYVwfSOWtGRIuu9GoCpbrOCR/Iickxu9ONMqJ8SmJptSPZPmjeDnOmH3YPODzy4mGDu8FthdHZFYv4rPVMr5eBFEKIgraYPzaE2jOlpGTkU6ed4qNwz1fjPx4ceBHz0h1eC36F8FLbnhBTqqTUkBF/V5V7z1Q59TpyW+4HCoUs8Ct8fU5ZP1Xx87O3cG++2xJnR7z93e++pwruN4DiS/CNarhmw9AQYKHWl5Wcd6+hB8LqM+X8XLPHqlUc1mqR6LRUyyQufxXXiCHE0CaL64NeUA1p7tPVre8rCH+PiPnR5+g9eAC3PNZcoDSXLLdvFffYzg3o84OdAEilwNTeuSTqxshNb8C/O3F3bDwyE8mZ9V76tzkdZzuTaVLuvHXsjo6+jlGSvmUbu4+X15RgZ1zORpd+Q6JYFO7GW6PppFv4Q6/06LSXDHr+1hgjKIO3UO5AKCU6kTJgUupMI6FVQphFcDZhGRcfAFBg9HxQANOc0uZiiQrJNotAUAT3UBOTFafydxGpE4q+JjUR6QBIl2iMWNUuinsvkVSAiR1jmQuC8cfGW1PMwbeHaOep5dzHhr3LBLTNHHdRl78/KWa6OH5Nso6ea5d6NmYnn3xQj01ZMpuJmmNvKmSHa3MkJPk1FQ5PdVor7eWO605RYfKnfaURMORnIycz+SURDk9R+I+wblJDv0AYkC0JBi7m4WYevrVneVSl7mqs/r8yOl9LQahlg/MqHlOQ3qF3DL8OQdjogVznk1ffxJQL96cAios27RJnKUn9zUnRBhiNJXcX1NXb1mA6CytquimVHMVdrEzy9c5AiDDfXnJ5P66+tWwv0mLMaLvhfp6SZ0b8w93+0Hz08toDTurm/zhetWHZFqLnqFqu8K5ZMKlanJ6cRlyAIRwaRK38Uo1+wiqRT9b2mYvpkfz6R28oM4D/u7O3u7BgGkxG2c9VKdnVNw2KJGO7svPJgvUlbv3b/t1Z6vO1tPq3GlQVb+c+BzXe6HMSI+6YFVXnnx5owvtaaJJx5Vxdf6uVqZat17oHVZfzOJ4+Gwt+BTaPXfBtc64ef1+mgZ71PkpyPH2mUmJbsWiuZzQPJekg6b/nebPf1EFLVBwitkeXNFFpfk7FQg3wLRqRJuvfIx9GGhxgovvuLnlYS7bxyL7aMQQixwmEnxukthJYgoQeZaYl0jmCst7FG9/WvB3yNHqpxeyHxn3LJDdAZJwi0SP0shLLGKQcn2U8zHOyyLbxfB2kWvmOZCsHkoaBH0D11HlZPqn5rzcrNS98dVKdXFJVs5hs63YkpoYfyw/Kz053vyR+URDFjQ/LSQpLtI0IoCq4ehCY9BiN30yp8pOXq4wjs3Ocji9LELXlx00Nl/wTU7hOlAuYuLLEXzj03ceYETaD8nzdXVVM5sdn1Rxw91vyNXR6cAwLjq0tF7HhXuRfLUtFBCWEUmHL+iuFsOM/wZx7PK+WuY3ZGgwOA18dULV3fMWb/gRnwOsf4A5Ps1d7QvNpFq3E6hpxeNnK+r9lWCZmtZgNJwvx1TcFRhBLO6gb6Plm9P6/VS14Kj0bFn9ala7+i5iUfARnqyoS5PfYE4oya7EFfPna+q4366XOVKv7aVEw9YefbPhUaUagPLDijp+8wLeM0/K3T0YFvW5OurXciJIkWLXnVwMX7uA9/MbcrQxuJ+itisexEfQxgr9mzKmubsaHjvr7LY+WMYwYr2X4gGaF699rgxYoeahmyclBSVF76Dl3LA2g/twvH8UpxEvTpwOzOPK59fL1t2DLHGUpNwgx2eF0jkxe5aBUp66QA4ukZwVvvx5vuVp1rYW+Pcw2vT8Ooz1KQsCYDR6CgPaCjdI2DXKX2L8EOMBpj7GvIx1Ma6dhXUJGGW1Hh0PObzXMw9knGm8nv6pXO48WaOcTd0rVysnzZ9m2cuqzXsBowXPH6qxB9B2KbkBdQ6MXKGIcC6oliDk/jY9+3xRbeqzA0bDnVJgEX2Ww6h9pEGGQQooINze0i28yVlAgBaSwdkyrb/xExUFaEcSQewN/jkNtUdLTHokp9zCoKrkcB/SQzukW6z6iOxsKNAjkKTnB/cqlDoMenzHmERRH6LzbEY9CERsUnBWv9wZzDF8hDnra6qr2aUjKW4vNtiLp+qA169Hho5KDs5YVTUewnsOJRGG4JvPTKPYizjCRMx5sKruSyZCKiWERH6IHfJb6KW6c2CK7lcRtd+rcqpmNEMJ1c6CB5E+JHo9nDZoPHusRhu0kBVa4ArIWf1ONRg2Ns1+ELx6RHQwQgvZuJ/YTzUvrcW8NiOGM7ucTXyxpta0iqe6rcvQHIGepj7xhwW1d8RcO5D/AmMt90TV4yKF15/RMWLXuVDHsBmg+UXg9DPtz8BcgXyNFM9k9S4FlyG+eGH3PpUP3gMhSvevSkfXzOXPC94YRuwt/kfXrmc/MqWDHL1DYqZZ1G2MXx93m+TMsNKFrGN3MiIvSdwgIFUI9zLaSUCaEtAQa+lRJetgfoa1zJKzV7bA9wGzQzmbfVje90n8vr3xe/bmJ3+Edl+mT4mjDdeZgraJWkhgGFN2Ow0P5tSvZ1R0q6k5OYosAy1K/XoaVwQSi0zhMSQmIiP1A8nlnuY0qEmJUtgukvaJ0e4aCdcaiUYQFkLTEyWnWw0L1ZqNJ5SS/Wnm7L0nMQcgIhLhfZocI+Tld/FaPWFa46UnGlNjzNEio1oY0rAIIonEIMbzG6FLeJ5P+TA+7n1ZEikL5lBDBIkR5QiRcSLhP4CqmDnRHIs+dLWw0KF4A1E8iQiVuF24ZxX+TNtrjeSIwIkCD9DDHHgcracwLkSz2AoFBJIwQsKhFNEi+FDtWSCHQmFeL40vQQ/yE4ohd7mNMhzZiP4TslVm88+tszisltMCBsK1GPy1S3uHu4hZMRD0K4g6QFKFLh1xHI8rYeF1fHLDSezh69quh3oiNDB9SxMOTetqnMLiWgWze8unQ/YYyb0jjS73bIfZunq3cU3Kfcgf/c54bC3D8SK/Q/2r+pP0Fhvn9amcR/H7lqg8Q+LukNgZmr0gzKrV5YGsU7ezTgUKXCvW2DESOSxxAwRkang3E9zolf2U15/5CUBBTt+bf8LZVVpSnZ4kA1zkD401Ln9qapacKPdfe4J830KbBsgeBachCe52xbknvh4jprEyIehXGw5KhMw6IToXI4Ek783SA3TToIMHoh/BF+U2ckgwB1uLYuHNbG7jV46jYRzlKAPg0mBrsc3TOA3TgD9oJzzYRWgoAJEhLELw2lxoCII+FOvRACEEbwj+DAlekd/FR0TwHCdy3MadaGGbwzgWForF8N61fJ4XtGq0czmEmo6bjToJFxK8kJ7CRaMhRtbgBY9AdeTBEaFs4728krTzhJ/+RDWrRf1uSQhWgJemAtbJ8dCXhGJhw7YauWlkLh/7GZNKcJEpQhESPKa4SkGu5GPq+chGgW9goLzvaTTsc0kmDzH7hIODJMFLj/sMmZ007QpJv00GfrIRZGDNv6xmHHkk5T4yWp5mlL849HfI0cbnI0ceyenLyBhMM2TfInmivuIKvzbgOrFQAMw3fITwQ7zkEznAqIulOMxpyaajRRmmONMpZ1dhyaGUODH7M9DrpRMVh/anyXKisboddVJ4fuakHcMkpZ5EKgLo7AL67qLh9Vo0N/SPhevmCU52otWIFqL5REozbjbVm1NIEA1B4RFCyGuNA4DiN1spCHAoGBnBdNxgB9DAtNkBgg0ZQl6/NOKbbRXb/nvIxumbfYCjW/ncK5Xo4AzWEBLC0ZCtvzcq5TYfgjIUoNqdY2YIpdt/DXn9cYOZmJh+/NP3t/W4wffGI0x53JSLYSlLNGFRQoVKpCsvnv/onTmZqmzBptRHBTeL8AjRrVggszv+4lRwQbvqhvGHdRSc8k2yJ0B+ull9aM01p5oLv+OPfCeXfn+oZv10r/oG67y36PUvu3Iw7jK/Z54kL1DrqjC89roPCagsCajqKOGvMa6PkGaBr6e5lebkOFN1vT01Tq6q6zphsx4ryqpVelIMwErt2YczkuOMx+uy0B1NGcZo4+qJ6xKooqQDvkdI0xBR/Gj8lucm6QoulyfXoVFSmFMCbUkqMmObbvb+d0h02xGOs6E02PBvrGETbZxAQjaA9fYEUjXifTHY7K/hePN4+7U0DG1VSzd+CNlAsFbn6/e2rVrKCTo0g2WohtetTkLJW+6Z26j/1Z83sE6A0pj1LBaK4jnsfRZRzDTlSROlFSysjDa2CS1+8xf3tmAko9XB3UgPLzSz6BZUrbJ9pi9mqpdWDu0eINV3sixXMJCnaQLnmI7OW168eMX4bvj7076Xct4jqfCxwbJmrnph96lP3hWjTc8vH18zZ66I5kVqXiSlK6aeldf97n25vmwKkIgxEnaFEB+h7VRWhFPtPQnGeDnRBGP6cUvWqXqr09VzrMi85xOD01VdVGQBMpdaYsSNcg4W7gEWiyYznIuGNTBSxwu6xZNTI+w2bZSBrgwvy8KTIsGQH//G4extiW62MXm17TaPuY0fXquWvk1eb4HptZpeuxykcI0y0m0IptsBiqwhhG5I0Q246kJeCNk83oAgt1E9sAOsdds9bPQFuv0ZN8jF5vGridsspVdFt0YVyusMPkIb4oPxLWyML6G+gfgvZ6q/mBnJ2XAC4OyWVXUkspVGtvJSG3Nonpcs/qClSKEf0IVL8wkTJGmapAaIc8kysHz66j3X0Iq/d8U6tJ5xbJXlrApHH8vWp1k169aOV4frn5ejF46uZRxcEUCOpi7Q7BXS+/gVXw/n5i53PL1umCL8TcYPgxylpIvSFhZpEeREgxxnlJPiTYliYmJ8cpLZfKAgMcmQkiin7M1ITJM1s3acBODcAmlEwxHew3N4wLgGgaK5kza+WBgWs6AZPFeJcjTuU9MmxXz1XW9LbxSQIfQn+VT7x95UepMOvqkubgumXMiu7SDVhmCA3i5OAyCnN/124LxxLOZekXB4xi4+yLO3hvjXHhB1m4Ros15If5KtSjaGCp1obOuPQbqMdwF9gmrSm27hOPhQGoHhRCpopq76Yi8alVawbI+U3UB2u4TdCkvvppleyeqLT3STmC4mddKobiZ1S7FddPcgzfTF5/hI3AhJ6iOmazh9mXQbMbpvhhTNE+eKrKwesq2y3BUCGMteFY58F299aq5et/eqbwja8Rad6eXl4qdZR1aYeY4kzxPzAju2wruWgsN900x1+WxByh0SPUm4MaphlHBeQloRdpwDZX51uzVXybB3n+wYe9Bxc8TedXJ4cuqUz8LKeKr7xm5gnEegHp40Us4tMjjRxQQPz2N4Vuy4mhMvqlt2kiK0+IxMFl+XCe886L8laYNdqPhabkjIq9DYfhVN6rwqsDbyUTCGajoH3VSVghJvGzPmyKtn083RXLuZkNBNVUZT8kRU+/WfNk7igv2Bvl7btj6gK4ivPUfwp5CwjfIaE9XucKty7eYpL0aARq95zaVaGB3ceupkYQqMdTiyR7YKkd34HdUO0OQNXTTSSzBovI+PHSRHJjNSvCTuEpGvkaQxsm+SJE+QzEmSO02OBUj6DEmfIwfn8ZOzrE/gg85krlm3nFNfD1L3Vox61cvH1rKyV4Q0kKNASWfwkz1PcmeF6of24sUCGOWlST7qBom4RvkrjB9gvJfy3UIEfDrRQD3SRRGviiYsQXlXhP2dYrSLgV5FdPHp4cPclPdQzsNwiHcLUc0AUCHSDYWDAeA43at8vmb6XsTiisyb0ubn0s/rVT9NKPXeVOM2XSRE37/3DhxAGz4ZNvxPER6ywSC352hdgm5yU6qDdktzoq90CfKKkhXMCNm8y6Ak3WCreo9+rUttcADK0eAwj1MHej/FaSkxnOehX0TacIMyLtbXYQBwwcWiGsUo+G7mUzpJqpeP9bI9fpbiJ7KfxPpIwiDJvkQOMhtWwgAAIABJREFUXiLJl0jqCDFfIznXSMso6Qiwi/OGzJss8EieWDXZbhA7SL1ZUjRDamaIbyW+Zp541uIdTzOqX1p7/465p5fTpWtZR1dp2gIB1V4G4N8h1beIMkWSp4h8iyTcJDE3SOwYrmtFXyHRQyx2gKb4qee2YPGRFBD77TS2k0a2s9hmZgC+4mF5Q6KhRYjpZFGtNKmLxLaTpE5aPEj4Nr43IEa30o4JqRS3mBFO46YJCsttQCPw/W6aUAEyVYg9LL8RIxz9ecxuts6/m/MOdbwjB9jOFzc4gD4Q/70cIGSzzOb3dkV+eyXBSVQAGHvt15/jACFBsAZ/4GgYTrSRpHp0ghdWzwsKi3QJkS4+yi0W+QRTGxkNZE0vHUr3sZpBvmPKlDvI9vsQqfcX5P5rxHWNlt8izlvMMUhqb5DxOWkowI5OkC9WzBcDxDdNCkF/miNfPsyyzZChFcOXC2Rsydj44tAZ9aT375Gj07Pfm8cXiTJHagHys8Q6QRpvEfsYOTcrjN6WOqZYyhXivERqxuCO6f5uku4jgLDzAVNUJ4Ee1jIqFnWjgePRdlI9gG6za4fQBRdkym3oPd5zjZg8fOkAEVroQECO9ZDGYRLnEmr8JExhQh2LrOcL20TqZKyE7alFmSok0SBK6Nab/++UtilDKNXejPpfigNo7PEVKGvCNeyNHGCjE4XglTanz36WA8D/YZyBagM9z0vwHSGS6EYiuVlMC5Oa+chOauhihm6a3EY7xiRljDjHSO9NUngFvvmOG+LxS2Ri3jwwa+4IGKumaE9AHJo02EdJ9jTxzBqyp0CakmMzpH8160SAOObJ2IoMuPLMkY4VY+8CubiOClOTaj//7nK0X1Unvs8aWyEd86R3XmyaJfbbpGaSdEyT84vy1VlpdDGjY1ZoGiLnJsSegJB4jaQMk/IrAtyKY5QcHCQtY/yZYWodZHmXQPrK+y9JnpusJVCQ2Mcn+0ntCGm5RfZdIk0jJLaPJvpJ4xW6u51ZhphrkKS0sePNJMkjFDezWIWlNrP9CkEzvFThFZ3pdYi8OYXzPzuOb6Ztk5DcW+bDXz/3fxgHCAne3XYc/wwH0JW2LQn8LhwAL8FwdYM38rtwFjYZRsIuluilyT6W6Kf4GaDygLBnREq9Ie67SdJusvRJYp4k6VMkfZpkT4lHAiQnAISQgaTsmJGOzJLceZY3R44vkGNL0rF7omVZtKyw0hXRvhpvXxUdj83Va3LV00O169Zz6sle9eyY+oYQ9m/D6LLy0nLiqXz8kVS0Qn0z5OgdcvAOD93CDJw3QNJukz1TbP8kkSdx6E+aQov9PROCPIEBcOUJcc8oSb5JUm5SeYzsGWOJY0S+Ico3gCTQhDEeMuGTMEISR+juEbJ7mGTeNsZcofIlsruPxvYJIIyFVqC2gtAqci0szMNHuCXhUyRN3Ost83Y0/RS43NsLbApCuqk7v3P6H8ABcPo9XL9/qik9P8cBdN65Oe31bhyAAUAjGGiQjBcieUP/zN2e2ZGLy5e9S5e/WJ3uX7jcv+gfWIHP9elHy4G15YnHDwJrI9PPr0+/UJfW1a9fqssv1W81e69nmnHYDyrOdr7Q/nyjs7F3TG/G6Beq6lJPn1q3nPi+wLaWb30oHF+Vj60Y81ZY7rJw5B7LvcfyFjOOLIrZi4aj8/TofPyROTFv3nhkzpg7K+XOmY/MmnNnaPacdGTGfHQmo2jGmDMD+VLerKF4NiNvRs69YzoSkLLxY8iehi5oyp6Uciazsiey0kcNqUOG/cPyvkE5fciYOZCffaUg80pWQq681fX1heZQIfjX1oQfea0ZNnK2iZltDU/pxrrTazUHwf9r4QAhmyKQYyH0rRxgC5bb137fjQO8FyrqY70gGqQI0z8Aqv/O6c0Y/XWmptZpbhdPX51QDDbdxuvmNpc6f7Jg84oM3VgV5HRobI3A+loo01bDeUTAr4QD4LEQPJH+HAfYmrqi7wWv9W4cAO0QdqGJTIQoSL95c/iEXyT9M2F0dEQFjAbNdjiy7XVvQCFEm4LeTli3GnwbXrYXCNZDgxOOXPBbk2009L1fCwfQjFc0y49XtMZXOACngVgjmmHwPLj2SzdsZbbd0ds4AGA0jOfDAaG/EaKljF+6tbfSPxNG52bVCJ5Hyadb3FFhE1XcBiIpDU4w0g0Js2mrFrRL2oQCweUcDe4MkR3M0XFAd70XHhFqYDy29OYJvxQHCKEhHC5f0Y2r67fzOgcI2oag8ZSgrd0TJrLN17B5/bdxAD5UjHxfZBFEet9oMJz8pVt7K/0zYXT6tiqIVF+s020cAV46zrjQDRFINgTeBuXiQiWUTJollN4ecMCHao2nQXkTDZr45GlosP73+HBu1y4uNDS4avjLcYAQLoTjggZZSCYp/2YOsDHC8PwHUaKsC11uc732ZzmA9BsDMNFwUYp4n0SKUrRhZ6z/b0rPVlQhgobxOMkcFkpYBOU2DMvCdPm3gcKg5NQlq049dXmpmd5pbIFnGtbZLk1WhfIslEaJVG9mTrf9AYWMQys1bZQN3c4BdoVhsaDGQnVh9goH2ET2W6H4bhwgBB8qFG4PtRldrHI8v4uhBXTITziANppA+QheAMUKnpTfZeBCNXO+93YBcwFwv5EDcBz2TYEn4e/TcFHYHSenfPTmMN2/SPpnwuiTZdUgMeF9XhAZUvv3hTBOYpwA+AnTjIw4FDzBb30CEK0hAYi8yO3SrZI1kEFjcBRtjbXmDeeF8AgpnDdEvM8iI0CcQHnKiwLIFRZqwIpDsV3DeIELo3yoxPO/4/l4uAGoQYz4PceFvQdowtsAvO/SIB4BvJmPYIwX3tslou0wE7mwD3ZBr9KXH3XhCKfs0kw7XuUAgMZQ9l7orgg+LOS9MJHj4ZYEvEneEAb3s0sA1shQuQnjuHCc1NT6Jt0YT8JDBcZBSSjGot4XYqMFqE7g4Y0JkhjPtFFiOwfgmRD1viFKFAy/MUa/L8VFxyd9aN6zg9H/tvT8kZpsMP7hX/b9/sOUlH/dnZmS/rEx8/dJH/8u5qPY/znJ8MFv/yU6xvjb/xD72//w+/g/SoJk+CD8X6LT/zelt93zf8WIv4v91xTDb40xH/xPn8Cp//rx7pgk428/Nv3WaIr+3b6kQ5/EZ/7+d0kfGpP+Lclsis00p36c+ceM5DgZimX88S8mY2bmH3P+lJDz2e9LzYkZB+QTebmVeX/KKUh3mP8l5T+mOQ7v/Utz0//dWDt8KPXPn8Qd/dNHZnNiTrIx5fAf//MBOefjuMzMvTkp/2aGg8N7K4786T+lxO3P+LecP8n55rjM//Vo939M/fPHsWnmpOw0+bgpNuXA3r/k7v3zp3EpGR+ZD8gZeVmWvLS/5Kb/5bN/O5gh5x9O+/Mf4z7O3Xvif9nryPmD7dM/HMpIyk2O/deCA868vf855w+Hc+SMQ3vzM/9wuDA9v/Q/nc3/k+1Qek7On/6y748fF6TXFB1S/vzx8QN7/mu2+c/7/pBZ+l/+j5N/6Wuo/j8LDzv+q91h+y8uz//+//haf+nG3pb+mTC6k/7/mXYwupN+7WkHozvp1552MLqTfu1pB6M76deedjC6k37taQejO+nXnnYwupN20k7aSf9Q2hGjO2kn7aSd9A+lHTG6k3bSTtpJ/1DaEaM7aSftpJ30D6UdMbqTdtJO2kn/UNoRoztpJ+2knfQPpR0xupN20k7aSf9Q+hWI0Ze4Y159pL5YVZ9rB+uP1RePtM8K5kD+uhZV8MVDLdbhmlbgIX4/Ww0WxqBqj/GjF8Djp+rzh8G4levfBT/PH2kFHmuhFde0eJ9r2qUfYnn86Plr2vHzf//ed9JO2kk76ZcXo77OaV/7+FXfjx0tF3paL3iaL59r9yutJ2vcJ2tcJ11ul9Lob2oeP+MZV1w9ZxS/U7mgNEwprtlzrXd93uUmj/8cnNVyoaN9vLf7ss870tHm72i93NI87XKPnGu5e65lusMz3tsJB5c9Hn9H2+WWtgsTo2pP23hH2/WW1svezuu9neO93rs93qmrl574vNM9ndfP++5e9S8/uK1Oj20F+N5JO2kn7aSfpl9ejHpa/Z7WHk/LyID/SUf7dafrbK27q9btd7kveNyXzzVfcLkhx3+mcaS24XNP63XF429093S0TjV5rvd0jre0QMmRGvf1prbrIHMbG7ua3H7trJ4aF/5U7brQ6L4MAvqM+/PG1p5zrZc7Wsc7mkcaG3p87X8d6F72tU8NdI/3tHR1eLr6u8Z93vGO9ss9bdfPeVAc978xSvVO+v8mPVHRx/hXqjqnxU+cVtWvtc9X2vH4S3V4XR14rvY+Vi+uBcvc1wrrx1DsS63kF6oKw9/Vl3jKhKqOvlAnXuJPYy/Vq+vq6Lp6/qnqW8PP+cfq+Ufq0HdYYf9jtXcNPz3fqR3fqV44WFPPPVS98OdDzPesqo3aR1lRm1ZVz0PM8ayojSuqS8s5s6LWLuOfLY/U2hVVeaRWraiOZbV2Fb/hVzgR8p3wgWIPVdcjPD61rFavqNXLas2KWr6gVi+pjsUH1fee1CypVQsPTs0vn1r4xjoze2L2bvn8cun8Zdv8Zfv8ZcfCuGP+m/KZafvseOn8VOnClG3xOvxaOn/BOn+hfPH6CSizNGWbu14+j9+Oxeu2hcvWuZHS+ZHjs/7i+R7L/NnS+a4TCz2l82ft82edyyMn5nvsi5DfVTzXVX5vpHihp2i+y7LYZV20ly5ay5fO2uZdJ+ZPn1jwQ37xwmnbPVfpPXvRohXKwKdoPr906dCJe/CxlC7aTyzaixeqSxfPli5Un1g4WbpgtS3ZTy1Vly/mly4WlM4XQJ3WBXvpUvWJpdPWJWvxYtaJReuppdOOe65Ty9aqpXz7Yn7xPFRisSxlWRcKrAtwoQLbPat9yXLqnrV82VK+DN92y5IVrmtZyrDcyy9dtpTeK7AtHypfyapaLqhZsVatFFQ/LDj1MMO2arY9kssfmqu+K6h9bG383up5mt+7bve9PN2rwqf6/6Xtf0PaSLv4f/ww+XyHjn4YIrs4Eh+Y1WiEHZEKbXQVdVm1K1KlSlEChdAHrSnS0tYWojbFGBowjRXNH5AZ0SBGazAiIUYMNeSBCcUaAtZS2wg1si3LYpftFtpCme+5Rrv33vfu/eW38LvDYbycueZvJq95n+ucay6PdHtKEuek8Kr04d0/uW//hxj9Xb6zn8o/jN0vN/ejL/f6H0NNTqAkRB3qmvGgjcaRXHOTKDNRPy5PORFwcZ8Qn/CEhxwzdoc4Ni5OCYEJ1wyqztWFvaCYwQqCMyZ4YoJzWXA+FFwBvxj2icsTzoDgWhZcMa9nc07YFMZjSFLBEfDYEZEP3aOBidFNzwjZi91G5tgRo46HE54Y8tdiE23DonskPuGMP7Adj28xnZKuRGMd0XDjmrslJjat3T8fnWmJuM+t41RsCt05uyZioS50tXGlt3HpavPaHVzauOJsjrjrlq42rt2vXuqtChqq14zVIWPt2v3aYG9tEAu91ZHbOLMh6myIWHBRU/R28/qdupXbDZGrdRFDy/rVprWrjRFjI07XDE0rBn3ifmPU0LDeWhc1VEdbq6O6xo366gjfENHVRWuqopraDXXDRk1jTNeYINaQOFMXPyOX6+sSutqEui6ubYjztfH6hviZhjjX+FjZkFA2PcYC27ilaUho6xJ8U6Km5bGu4bG2aUvfslVzdkvX9rjm3NYZLLQk+bak7nxK17TFNSa5Frl8d6f+j69+VxINW1xHUnk+pWxKUk0p5dmkrmVL15xUtWyxbUn+XKq+bUvbtsW1pNjmlLJli2lKAlpLkunaoi9ugSGpMW6pM38aAOcV2SZ9Nsmc3VG2paBji2lJqhu2mGbc0Za6A+dvQdMWNG5By2Pofa68gge2xTRuKRvwIONwNkG14NIEND+GzsdMy2O6YYutfQzdO/zR9rsTVN1jpvoxGeShIQG18lh8tfIGG44KKWgiRjcmoTYFVWg78hBoKTxBnMq2A3U7WKAb5UL1czSq+hnUPYPa51TVM67yGaN7RlU+Z3Hd2h0yv/o5XfWcwqVYbngGTTt02w7X9Ux16yU/9Fx375luaEfb9xyvFX41yjo8kiQ07lB4ofRJzpzS2XY0Y89q3LuGu8/UZ3HRF8NDOptku1O8Z8fg3+3177b7d7GyupNsh65OkvHbGpJMc0ptTPHCM/3i8/bQy/pgusb+TNWVxHWpxqS2IcXiWXfusLbdmuRPV1+8Nj79yZA4aLc/03QkyWXBHdUlyZVpSYL5mS60f/XpvuHVwdX4fv3dHcA6dXhNtvCKUfjV6HcY4aXh1f7Ddwfh31+Hn+wb7j1Tnd+h8Xjw8uLxtCTZG1s1iy8tr/Zj7/bj7w5mUj+13nuubpPPqGGLatxSnUvp+lL1uwcPP/2yJ739IL3dfv9r74MdwGNuTpGR4/BgDDtK775R+vynUT8+O4V9jfEldX6X0r9UXkpzln3di0/L/04sMSXp56Rer+RclNK//xPW/TOM+iTJLj0cktwm6X6vdP/K5/vGz3eMn24bP169+N6g/01/7m1781t98y+tLT/rzr7WtvzENe8zjft0476ycV9Tl+Zr06q6l2zzbo3l+fFJLgqZaedycDIcWYjHA9u7EWk3Ki1OJldnD+eE2OpCxicmF32EjNNCQPAs+zzLXgGla3JaTPrEtF/cCy9IoYAUWTh85DuM+zKr3s3IQtonxsKT8cjsJq6F9f1COCiixXGz/sm0IMR8Yhy3NoZsHYl7HOGJ0eUxu7jqyyyKschCcnEyPjYimsz3Teb40XE+eCy2rHNVG2xFlNJFqep1uLjBenZ1dxP0paiycUVZG2LL/FC8ACXzVImPKlqAAh+U+kE7TxV6oWQWiieh2EsXe6HYRxap5qEAy17QzhLDmYXyKgVeWoWr+7AmVYQVZumiSU4rKksFSidC4wJdNQllAlUhQKUIlQKUC1S5hy4ToGISKkSo9tLVXsA6tV5o8pLRtExJdbMfmhegeZ5MG33QOAsNC1A7D01+3CC0+KFlAc7OQ9sCdPrJtAnNB2dx5hL0Rlj5AhxOPaYladmdgLtR+oU0Y4nBlQj0ROh3Utq+whDS/WK8uwD2oPLBEmtf0fwuj17z++eH+NB8I830xKnGKJhf/kHbQ+MKCC/PfJSwApr0/uMdIc59WeoOb7Xjn6l1uLsGfSEwr8C9KKR++teg379/tjxY+o8b2D0dhfSvM0f/hBNnZIF79GvJPNnhw1vqo13LJj3ZYjxryhf7ZNTyB0GwrYM9CvdW4EGIDBpmXwPbClii0BElY0iWR6AySldG8QaA8g0yjM7JGFURY0/GoGIDTuKcGJwkM4HfgDL8Nw7aBPAJKH8MFVtodLk8SGQZGYmP4rdANuZLAXCpDimPlzelevNWjgqkpRcp6fdd0oj/bt9pS9BNMTK8UPMG3EtefbFLmvVJOz5Kkn0yiMvhS/FeApqiULsOzVFwpyyH+3KT1IH0+0u5zmvpcP/+WJJtXoeGdWiL0tM74ruX8iVJS+mE9A539/xD8pm+L0EGzKyOgnFDe/CTHDOQpE/PpUxK3iN+WT89NCeoanlczZsJffzZl7avl9KbJJniTl/tG/riyqoQtMSUY8n7H38+/pIOtqRXO8fRiDcv7/dtsI0rTNMa59l6SOIWEpmf2ZIOUvIgNAdSHHVrjJzUuQ0+/If++ii9eyafFzky6f2B+wYZ6YW6sdX+/uOXOm+lw+ckrHJ8w7xtvZUkwL333PLfIXc/JN1e/LtBv/8/Pv8Mo1NkHBxkqAUB2v35zsVPved/M5z71dDxa2vb2zONv+gaftY1HmjqDjS1++rGffWV12dsP7fbD2rGDs54ftY/2G+177ff2tWhgrj37Ph6RCYRo7HQ5GHc/yEeyjxZ+bC78iES2Pb54tPecHB+e0qIB+c3U+uZ4MJ2aFZCBboopBN+adEb8wtxryf2akPyesJ+cXlKEBeFWCJ4+CSY2V2RHvnTyVAmFToMTcYezaefzCOyN1e96cjkZsQbn5sM41rJFSkVkeZwXc/DifGA15lEm/Js+sXMlCdsGXZarMfDrNsjxjqkoY/QsHySmoo7ycGvJcfGyUjpU6EzRoHVT9KXJtkbC5pLXo3Bq6120VobdU5Q9szyN2b5uwGdaUHTM6+6OK8tc3Gcg84doVkHzY6jMewImzPCcON0jpMmQ8SOMzmjbN4Ile+gTg7THQ44a4FaM1SbQYdTC+gGodJM1ZrpajNVbaZ1ZqrcDBUWqLZC7TDUOci0wQGNstXZodYO1XaoHIZqB7HKUdDhVC6Uj0A5/jsK1Th1wslxOOmAqnHQYcFG3fIT9IRXCNSCUTLW96o8HQqSsQs7nOQWWk22NlnB6OXsMZ1/B+ElPUq04vTdL4Roh+/jb96jrjQKQfiTH0I+wS0DTkMx7U0fVLugwQV9K2TjhnG4t0aAe8UDZ13Q4gL9LJjmCdAnYsouD3R6yHDJq3FyVKu7rdXj0DBKjiR10No4TAqRlPq8FeSxoNLNVjjrwaOl5X8ftjigyQm7v+I3mz5nh+Az8jJ1Pe5IhHOT0DgJDSKc9UKzF2rxySSAfhJMQWgLQvk8lCxAsZ9MCwKQH4CiAIUPP5UfipagJEDml/mgQR5G72QA2kJwHp9DZExKuBsC4zoY4qDfYnTrNL8C1RugjUNhFFRRKIxD0QYUR6F5TfNo59/HsPr8xX6TjCGoCsC5oDbzb1dRrv8rqfN+P6xfgoolfHwaXr389zpH4VOk266lzQ9V89SVoPFg5y91fpU+vjx8stPeGMBTYG6tB5BE//Z5Kw+09Qm/uxp5VFjV2Mb2+/2/1JHx7U/oqidJndDuX2hyIB/z/p59jar2Qd0s73v87xWOgs/yUY3FudoAnA0YDn7+zzpHJ478NS6wDQvqK9Hl39/+ZV9H1/Nt8laUaomwfY83P/1twINUe7gqGf3yKf7//vlnGBWk5C3pzpXPty9+NHa+NyJAG9621/5ypvbnGt1P/MkDvmJfW7mvqU0ra5+hD1Xz5r9sx7RufJA4PDru1dnMlNO5OBme88ZCC5knQenVOrFFEekZjwTiwcn4lBD2CulV5KD3Q3g+/SiYSQRxxXTIu4luu1/YTgYlrIZUnfYkd9el+FImvrAX8qWfrBwmg4fJJSk+n0ZBiqyMzJN/01EJNemcuIeMXvTteYX4nJD2Ove84+lV74dp/NcTnxgR0ff3OD4cHfOUeL/JzJ0cok+awWDjwkth6UsmAH6L6dSXc3tNJo/W9ngVqL6G6tNQWUIVKOGWufePpfg5P6KstFL8IPBm4AepPDPDDiiz+lnaTCvMVJaJ4S9wdT262h6+2cSf69EY+3VtParSMsjJh7wSKCgBjoPy76nzZr6tj6+9oCkohKJCUOGiMtD9QJ836S6ZzzRf1rT08C3dWv1ATcd1rtvM3B1lb43SxnHQj0LXOJwfhy4HdDuozhE4N0r+7Rgh07ZROOeATjtcHAchQnDmXSADiU3MEngJIdWT/fvyeSSPZF04WuOLtf/5K77lgffS3pNnhsP3sYO3YmLf+fR9rHaI/vf0h2Ry58x7KVbhIMr6og/uIa1GwP/M+Una7hGYsT9t0x2lu5zQPfmv8cy8j+sbrPDqcxglsAxWOnIg2tfU+kmmzaMM7ovmFdaywZvXlUjnJg80eqBDVPZt6A6lw4y07Xtef84FBh/sft578qvoiUPzKEF28ziheZUTGgW4FYCbC1AtQrkHrvgIDTuXiGOhQmdiAfLRn5inikPIRGXJiqZgni2QfY5mAczzYPPDPT80CKD1QKlATIvOhAh3/WT40W4CMshfgtwQsCHIDkHeEhQswEmf+lFaysj4+P219PtP0pt9Uvh0QPJJzs9TWvRCBD6+K+NDvqPevyYpKyThZFc6SG83T7I6r6ZONES2juvg6gf7RJR92pcOd6RI0t0g0CUeZaPXSHD8kdzAqFtfpVEbErqlk5tC4kyhEwoEumvh/osjHL+X3u0igqX0LpF4b3YPhyK6EifFe7SdXjH98phlKA8PXkqZI4H8s9Qb4HjiRWlvLMVeHDFRFtoEzQdyas3+hy4BeA/Zzq0Vsi75oPp+KTP0F7LfN7vJcyJXKjAnBW1fJP3x6MR/kzNtfpXZ916Kbzkb5LGUa0WD8MePUZLP7r1ceV9aTNxpCijLV7i64NWxrb9H06vPve7P+glp82/GAf3vn3+G0Qkp3fv59qVPV7t+07e9bW/8pb7653rd65qKA7XuQFXxkm58DjcegxCDCfTX/F9GnvoL+NPPtxeDx2WUloue+CMZeUjAxPxewk8oGfTtoQhNrnxIoLc+L4XEPaRbcl0KB5IphKywPe0J2+y3V5fQf99cnd/zT4Yj88lXMelR6MOcEI94Y09X0onA5qOlvUjwQ2TpA+4o4pVwRyg/F8U9nyfp9WxOuMKCMzztIpEldPPR6/eLMffojF9EIofHHA/vmTePjtPjaL9pVp7vhs7L0H2NNvczHhsvONoFe6vbxvtchiNn5+jxGBI2h/oDD5zuTzvSjf7Wu4PuS5cN5Lv8cimMNlWTiTp7jT7bQxnN9K0h7t4of8mharSyzVa1YYBPrEm1larmH9vL8nlepamu4BsrdcVqqqxCXXlaV11aoyvRNn6nO9txpqWjpqm1pvEH3Tm9QX+hF6vVVdQ0nq5v+q6dV3NFavqKSbyidwuCFInu3fOcMXl0V5yajnEVb2NYC81YGMbKoilsjMJGK6wMMRsFNgqn7BBRpm0uOO8hosyAJhC7IUDfLKT2nUen0yvAFQGMAvSIcGsSLolgmIUmvK1doEXFKsDQEtS6oMhJ9awwY0E4i0wZpS/NUkMBQihuhDL4id4sGAFunOKdSDcG+XXDS/ZiEuGGCD0+uDIJdwNk4O6bk3Bzniw1+aDXBzdm4ZYPbmJvy6RDAAAgAElEQVTlJfrmLHR7oWeW2M0lMPqgB6thwQsXvaTaLVyE6/qhZ5KsYglCn59UwCnusTdAtmzxkXG/UZAWe6DcCTcWwLQCDV5yOgYvuNegbRZKJkHrJcbPgtaHPIX8WZoTgRPpHJHi8ASdxzA97yUAVaGmnoW7S2SPZV7I9UMO2gJwXwo5PuAmaU6gVOPsufk7yR0plZCePJYSj6VUSnqw4i4cpnNH0VmhcMrZlGc97Y+SUnD9Q3A9449svngm3ZhtLbIxuXY6z0FzDjbPqj4r3F/dQu/h8NGG9CguPdqKNY5CgR1U45A3SqlG6bIRtUF0hxNSCL236CH62tMRS5kF8oapnBGWdbDssLJgiDvn6X30WEomUP5L8ccf7Eu9/DDDORjWgVNW5VAX23R6MbCakOZWMuGND6vx7RsenrdSKgedM8rkjNOqEVrr0F6aDwSTEsptRGpqVzrr0OABEw+MOGTonKmKh2vaBNH7WMJDml6Lu4Ni04iyyEFxLjrfRamcVKGL09p5oy/sS6BvJD15JoV2AtUOqsDJqDx0gUAh+gtcXOmotts/g9uZih1ObQRuBXU6vBvnQesnQxiXoyuwwrUs3bZsZBZ3pOS+lPzpQ/CgfWifvfWz5u5vxrHPsRf/O4w+kMLdn+50ve9te6tv+uVM3S9nKl/XVxzwlfts00u4l4LpdZhegim8V/CWdSj/23YiPoPgOnZLpoXtCVfgyVpmd/1DYmUvtBA+2JDe4Xe2np7zItr24ktScDb9CCGLElJMI9qQd6mVTMSf9grhxckYYtTriXvGH46NPPR7N0MLaYRmaH6TCFJv0j+LOld8sYHoTE57NgXPsiDMeMZnkJtTnqTgiQVnkz7ixR9Ok3jUQ58QFlzhCefyGNYZD9/tP26HNjvONF1ni36E/FbgmiD/AhRcgMJm4LHQCWUd1FG1RDBNJOeOdBCUPsal3zekg5AU8uwJo4H0hjThWU5GJW8gzpSAqonqGmg1We+MjQcEV2B6fKarmUPu40bexGOhAFI+3HRaVfktz5dw1RXaKU+813S7uoxHYjae1rV9V99Qoer4sb6ruf38D7puvb7lh/am71ury3TlJfzuhmS3WarLNJUlmtoSXhhJh2bTfzQ8Rfx7E3jFBOetyTM5A6xigAEzGg1m6qigGKQpM51vptH/rbZBvgVyrZBjAZWN4mzAYtkKnBUKrCw3SOXYAK1gGHhk7iBUD5OGheZh8ETosRBXPUyh3Jha0+jHoWlc2SNwwQ2+V6SrHUp7SBtar9G76MYRWIzXxFMoD6mLgjK8UT+9xDebocVKXfKoLokqnQP4EUDRyluAtwLvoLQ24EexcGzlo1BuJ3XKXFA2DpUeqEANOPKlwjhoHVAiFypGoXKctF2Uj8NJp/yvCyqdUD0OdS6o9UCVi+Ayf5gIWGRrhxdKx8lSywL0BKDYgbCGviDkj0CxE0xOetXFC6O0fYmozlwPZHmoLIHOFigsd/kISS+Okp+DGZ9ALrgoELLnu4DzQl4AGB8oZkExSSsmGYVAo9EeinFS7AjL2TjWwuZYWHYIH3I0PUyfsNMnHDQzQjMOyHZQ2cM0a1VmW7icQTU3pMq1KdlhJmuYYmwU48DKDE6zrFSOlc6x0HlWmjXjQ5Fi8euzU1l2OtvGsjaWwalVydmQuVSuhcoZwm3SOD/LwRAboVncCz5N0awUO0irhpT5+KXb2BzcuJ1ihplsO51loxk7WSvPpuRwa0O4NTaX1EHO4lS2ERqnnJ0tsLEFQ3QR1rSRdQmpHWw2qanMsRM05zkYvK+Kh9lCNAeTO0w2kjtOcy5G5WTzxgm4C0eUWgerdTAnx7nicTrPiZylcjw0GqnmogpR3gpUraisEkjYAB9j+MArmacKAlCwAvwKVK4xjVG2JcZdTChvbHG9O1zPPttzwN16y996W2/77PxrI8T//zD6OXDpvfH8b4bmt7ran3VVP/FV++qmXRjagYl1EFbAjXeYl9x5VQtw0c/++9rIzW05Yi/1jCiHZgkvDg+kOUHyevaerki7ISkTlV6sS0+jUjL6IRk5jCxtx0PbIV8cgZgMSZHAh3hoL+LL+ITNoHfb4wiEfdvJ0PacIAa9xGFH7oS82+i2Pwp+CPvRr0dGxyecgQkn4jX+KJB8tBAPL8QTwb2gGJtyLvtc4enxwKJ3G717wRWfEh7OCQ+nxglJfaOBqdHwA/t9k/nh0dGfH9QVXWeZbhr0FHRS0EUrLrPQgQUKLtB0K5N9mspC+w5yf6S4H4D+FphTACWgKIET+ZCtBrYUIA/gazhRBooKqDaprpiNVwbu3DQ7x6z3E5PuT+uxdIDsLpk8DIp7Hc3tbZ2tTd/XlKlUxRyrVXFl3/Bnm+vdwwHfoDNiNT4d7n1h68047qcd93ftYsYTfjIS6O2oryvT8vlaLccW51EFKrrqlA7ZmtqSMl/alfA642PMPRKbCIhMNwU9NFxj4BoN12ky7aZyTdRJM/B9wJrgxACdZWaziWils60M/syQobk2OmdYyZI51AkrsMMUZ1WNJf/1Zf/RtBT+k/cU/FfgHc/xbyq/ev2vmeF/bynrm4QGO5TZQDcMFXYot5GWXEQqaee1kX+PrAxpbiPNvqU2OIk1cY4FdDYyEzmrs5NVSoehwEzahbFcTKAMCGUU3QTTNtJ8jCoV5WqZi0Ly3vTDLT+UWuHWPNwNQhEWgiTkVWglujW5pB4bIQ0giOkcFzAeNCrLwzAjhKqo31HVIo45B6o/aJqEBwGwzEO1ALmIFYFhBOaEh2U8LO1hFC5a4UGjUJepHEyDoOmZ5/v89X2++hsLWiQ+i7QaRp6CDEemcFjZIejuzvfa/bdt/va+gK5khMpChmI1G0NbmWwbU2hT3g32Tiz1ehZuj/l7zQv1/DCFX1kWQtnGZhPwsRUO1YMV53REtM8bH4SM5rWaYhvZPn7duKksK411qsc19oBzeumh4L/ji1wdCmjwOiOgs4cp/OpZVJTDyvNi+9SK27ciJuLbTxKBoSVdsZ3Kscv3jI2Qt2iYveQ1hKPLwchMPDHz5LHTvsDjF4rnlY23k53UOTmuHYsGDnak9NZ2Zif9KhmzLdSX2ZkcG4MVCkaVBSNMlUsb3sp8ek5CXtKB9PF53B5Q4RMU8cqNcqjlyz3qSwvGV7tyw4LcvPB+Z28sqtNNQtEklC7AyQB9Nlg/tbV97PJ/PnYTD97rx95qLb+1D30SU9I/+PxTNRq/+N4gu/O6htfaxgN2bJ9d3IDQOvjWYGwFOkPAR6AgAoUrVGeI/m/bueXR2vyEp5l9ySd+8Ap76Ken1qT3KSm5JqWCpO0S/fpIUEpGJERnIpJ+tLYdWdoMTYbj/syqNxl0Jedc8RA6/mL40YIUXzpcFGM+YTnh33vi34v793Br/knkZmZ1PjMnbvq921OeQMiLqjMeEtMhMbk6uRf2pn1CDAnrGRUfLWA5PCcQj35xNo5aFV3+kLg58SXEdN5cU3RByV5g4EeAJoAfKWimSLkZoJVifpCv5K/Sq3gA/z5Zc86Jt6dE911Hr2lYb7aeic8/fLESPogm0ffvc7RCPkAhVHfVXOy5euXafdPAnTHHnZvXNGaTDn3/vguqSz/Un2ttLStR8/kqtIpC1dmm1luXrwp97ZKweWC788p+9dWwEQuHDvfB8J0D2+03DsuB9TYWklbjzSa+ooQvL6vnv+FPfstXf6eVUtK5SpX0XDrcIqLe783c8/SqLlDkSXBkXcQUF6jS61RxN3XiApV1maoww3nEigf9XHrIR9tnKds8mCaJvELP1yzAXTQvGEfB6FSlfzn+fp8+l4T143IwGk5/iT/ctP4rQvpgVmbqJyn5XLItHM8c8riffqncbTX+Ubm6n8sxs1lmxATD2hHlkD1EZVmIdKp2Ec14d56wzyDArQXi9aPDfmMSegToFeGmQDx64yzckB1/0vIwCUa5WYBow1nSLHDPz2I1XIr8zUatPUx1zJO22gIbnJsF4zyBpsEHF+eJJL80T9z/4kG4uwDuAJmjsFPUKMAIdWIcskfgpIeg1iBCrQOueKHZCYUOKBohja0mL5wdhrphckj4L7rnihFaMc4onAztYrCMGrBRqE+9JF348OKkk9Ku/Bz6uLtnm68vtZFTVhGPvj55FOw+kMKh5KNoGgtPEuG7C+gm0/jMQ1XYPXt1Eed/kn5PSavBTCpKAujvkhl3UF8wCLSZLrAqbaHYgbz933ckvy+ciBLoHCRiE0v6kiH0MxjtMDsV3c7IP4In0YdTPnd6i7Rvvkvujfl1Bej+W+mqEXU8ddwOm4wGQkvLL+Jyw+VLSVipL7SgjGU752/v7hy3w8bXwtPzgUT8CHMfzL6aApuyYFh5cbZ390vI61E0HIzEMjtkO5/Se30+nneoKj28O7r3h1MVXnNH1pOHz+TN/iR1i+jLc/w4P5c6xuKnfZISkEiQnpByU2ymZ15ZISibZttf/EdM7F+fcPBj69jnmdX/tvzvPv8Mo0Pvw4bf2s++ra9+ran6Sduyz0R+4sMb1Nw62CLQEIWCGMVFqZx1UK1AW+C/bvyWh5tYIaGJj2/xmkpz3uRBXPq4JeH0RQy5Kfvvk8mwL4NgjYQyBwkpHkiiAvWKcXTw50j2Uiw4GQvPouQ8DHlj77YIbVf9aYQvWth7uDqbDPpiSNX4QmbRuzklzDxd20uF9lCxIiuDwvacJ74oYlnOMPUsr87H3z2WQt6wV0B9GgvNxqfR0XbGh8zHCmrIxluGNW09UN0JdReo5gvQ3AN1Jjhrho5+uNj/5Zmxs4k3R7MaXgSku9ctV663ez0ZBiDllx753KsLy6FAYEpwK2RZCl8BKGXLBvi/XwaHlsdLbvzxTNeFqxWF9RWFel6ta/re0JhPHwrJtM2YthpfEDOkrbfTQ5ZX1jtpa2/aevVg+DbaK+vtN3bLJ3FZMBvRna8uqamrONNU2S4lJf4ryCkh+6VRI38LcBrge4AfZPseFK1QfAGq+2imCU78CIUXgO+GrMsAPdQJM1MqaplBEv5Cw19gjk1Jm1kwMdDHEg17mVb0KE0h+Qp8lrzr6dquetL7dl/quH7GJhx+lG/96k4umCBhE/w06uU2n/dS5kBq7ibxevxxmked9zzkJ0tW7Kt59OXHabCreHRvB2jWwmQN4t6ZXCuNbrtplrTGFg0CeqxZ8uExg1TTvKaSpDdApf04LaEOp3aKZCbYoW5UbnZwEMZhuRYddicUWElLRd4Q3JiHHj/kmYkaveWD4iHo9B5jtGuWRJzyzSRqj7BGEmHNeyvAjYJilKbGacSowgFZDoobQaebpgkiqVwbaK1E7SJxGj1waRYqELU2WmFjUOudcLCKIxtnYISmHHSuQ+lLkd8/fubW70xt9E6sW4IbJODxamumy8nmmGnOzAW35NDKWymxtRxJzIQ2xNX4B3wAZ55t1qIDPsjkD2qEqPRJjs6ntgJPtsR4YvlRIoNrvdpJVtqYLDPD27RHkv/j/l4qKSaTgUQinkrIUZ1UsgIv8hCjs/MpOVJ/8Hw5vuV8tOWOPA6/2SfkWl1xlg1Q+YNs3fjVuCzeXu08fJrC7cwktzbJY2AfnwFiQR+oLGr97OYbuRnv6ZaY2plJJsWnW2FS563kntfnmpH7qktf6rzZib94tvn02fJT/DUdkO3YEaNWpmBIa48eI/L97mHm+eaLnXgqJSP7N+nBgrbIShcNa6a/+DF4Gd8fkPgbTonq3Jd6Z1WI0VrREPmPVIc/Pp/D4d809ve3/4cYtX9Od/3W2/zLmbqf+eoDriUNyZ+0qEZ9URiLQN06cDFgo5AdgZwgFAbBLRn+djuXPEqf/Aw82JeCk2lUiMjNVxvSwWOilV5EJfTxUdWt+qTECqmQWpKeLH2IzGa8qCh9sdD8tn8y4xfST9ek8Py2V4iFiM8e9gszi8LmLupQMYaoDc9uhnzxR6EPuP2wLx30xsOBzbnZ+NzkplcgyafTwsz0qBiZTy+Ky8jWR/40wnd6PCaMBlCvCa7AI1+mt+c4ijLWrzVeoJq6oPx7OPkjlDcD3wp8F1T0gPYCVF44vpIHjwl2T34FWTISsxTHbPSNh93Dd7BQroJSNTBKUCi/MFT5J5gysv0/UPvDmUum25Xf6spLdJWlqt6e9rGemvfC8oshQ9p2ddd69anZ+MJsfGW5nbZcfWHRZ6y9GUtv2mJ4ZTOkh9HTd0rr0tlvobxEVXGKb2yql55JeUpy5NrvoAqfBB2kXNgEec1Q0EGmuZ1AIUybQNUBxXrI7gLoALhMEUr20Yp+WjHIUohOJGk/pcA5JkQnnWWic/uY7Mtsfqe6okmvLdQV5KkKVeq8r5X5nLIwj8vP0xQV1hfn60q/4fl8jTZfWZjP5uezBXnKihJN7SlcpC5SadCK1eoiNVeQpylR6crydSU4J1/Dl6jLyzTVzeouC3/Jwd/01HfYNRfHOf966wORrbNAzhFALbRigEKYIiL75qFjHIoHQDVAqFdsJsoRvXg0zgyFciHHRMpsP65OmnQRx3ov5AxCm0C8eERem4dEycrGiUve4wOVmcTfkafcIHTMEkGKq+tnCRZPWAHsNDVMKey0YpjCAmWnyBwHDQ5aYWcUNhZsNAzjTAoroIGNAisDwywxBxqN9dGwMmtX9kXjR4kfiwnndNw5lxBJA8gBEVyNwxw7gCRV9SxsPkkQdrzYCYTjzkhiGWXXu+cIskyFmc42MWy/qnfhw2qMBLt3t/bi8c34xiZuFrXkXFQsGaSzB9i8ITVS6UAOsr9KJVHMPnkcfvVM+vRS8szqi/vo7H5lsbV+LCq/7AIfeKlwIuF8ukWEAtrQZHvOdZrtVxaZdfdCx8lJ6Z1Aaiu8m8y8e0byXi+6tNwgaVQtMvNj68fJUm8I+x5mnpNjyzyTGi0sZ6ZzzWQ7uK+P8ssuUGPiufz+XPr4TIpEA+WDkIPq2Kossxun4seJWdL+h/e7H8iV+Sz51m/zeDNYmRyrincYyHZkRpN0GvnSEc4uGSqdVCnJUlA3ic65v/PbU28NY29rbO/vBP9m4X/9/DOM2j6G9b/qm9+2Nv6sqz3QNKep8Gt2boNElu7JKco5UWAjNLumzA7ShX5ISvcl6cNft9M3qllcJ4VMWvJ5tlFUJiMfHq3sPZV9+VcxKbkiJZYkpCR696/WpTdRKTS7GY+kIyt7nvFw2CuhMz4nxH3C5txkfHF2eXUhGfIRuSo4l8O+ZMSflmP68dD85uLsJqpdxGJoMol+fdAXn3CJU8Ky4AkIo2JQQE26OeUJuz3ilEhaRaec4pTTPTXuJun6k+me64GjY678kS5opbN+pOEUEEMpV0lBGUAFKStKYAiFrT95xWKwjVuM5jPnrtUXV7CKryC3lCr4ltKW0tpv6eJSSvc9l62Stedf6fnFFNlQWaG7Yb5fUaEuLeR0parmUjpidR66Zl7JbjtOXwwaCTSHbj8d1O9aWtNWPcL06VBrxm58Zes9cIiI0R69VlfK1Z5GMVvzNCAVKqHoFBSeAunggzDKSM/FKybweQ3x9d6zPXDFqkonnIdJ8Ww3JOLi7y/DnWYqsXVbkuJtNmi0k0TURgcIidhfv9BXaenucG/5Ka4on81iKPLckD/VPxrKCtVl+VyZitOq1EhMXqXhVVzFt9ryUuXZH/mO7/jqb5SNp/jaU9raCr6qRKsrVNWd0lSVqKorNNWn+IoSVYFaXXaKX/RLn/6aDyhJBdeBiNAhqBolDZFt45B1DU6YyUwSKxugGVxqZhQWRkHkqmwWSg6m0UfxtBMoYF2kKYAfJNA0LhBoonJEaOb2Qa2TRJYQmk2TcCMAuWZomwS9D3L6CUZ7FkgLAMHi8BezEVyCQ56ShAfEJS0XiFFHKRDDCFyGsiJG5aUycOXVacSrYlCZa9YKG9KLZ9KTuLSK9/8z6YagY03ED8CnBXmkXefYy+oreMeuZaaCMW9o2x/bq7KwtImcsmKAUfQxdB+bY9Jd8gSmApkJ9MkiknclcLKfPnGNVvSx+CCk8cHTxxab+Vv+mGcpHop/cK/E7CtikYnOki/UCWKoW5WFZu3dpfhEaNuzlPRHpZue9oLrVBY6LmZiWC3LzHEmzXmX5YpnptcXHloKnxvluet0jplFaXxCrpZtVmotfLfr6hXPnd5ZsWeyt8Gmzuknu1CYWWaQRf+G1BnQnR93duGmRPfF8fbqIRbrZJnZrEElaaMfVOJTRDvUet4ldtivGkZ7Oz31/CBVYD0OjslBM7bAqtU52vXC7YseQ9s43+zSlDtplYfKFSBvEgq8VLFXqZvl24JGU+S+Pf5wKNFr39GY09TN16reX3R9vxmn/gkY/6FT/yl2/ld9y9szdT9pq/Y1zfvKyFt1KA5+VKNRqI0eq1F2DdgFJs/J/rd3JI05DKsbpIA3CsrA1MqH5MpeYin5KiqlY9LuOiEpKtPQQjIZkRKRDzidFsOREOrTdNi7GfGhpcOTm/Fgxi8iQLcRjqHApk9YnnY+RH0aCWa86LYLm6HJzTkxPkfSmEirqNfzEPlos96ZQi/ehyI0iSxGVev1xFGZzk0GJlzLU6SLVMAnzHgF54TTeaVHPDrm8u/o0g6ObWIB3WG0sj/ZaRms39Mlg2eoClB8R5MK3wAgLrkvrDzy3/+vDM2v5MIRNP8P0Z6Kf8cozuG/5e9aY3WnW09+w9eW8ndNYosKpKiUGb6athgPrPdfWXrR0kPGp2YDInUXqTp4NW01PLUaXgwbfhcC70OHdWqm/BtNbWV9y/f6j4+lApTAaqDygOTu7ZAMhAcOFTm3186bVhjzaKW3YfzP4yG5mZnYHX0fdd5MGitUncBcgBOycRc0t2alXpdU3dNa1KQs+1Gn+15XUgLd5vulao5TMgq5XUIhi/D8r5QtzfqKUg1fqFYplaqvlXweV5qn1FXwAj6uHFfHrFfNA7qp0dtep2VqxNLZwU07xQnHbZNJ98ByuyyPKvuGLynkq3/QdXXpDZfb3eLylYHW5g5d54U7PeaZTrNG1Q28nbjbZx00e50IqKIhdYmZLTIzFVau3MKWWuiCAapgiC6xsRXD7EkrWzXMVQ+zOiujHaC1JIQNjS646YP8QdJe2RsirESMoixF6drgIjmeOQMkiH9pgajXFgG6vHIdrLxCkE1ZUV0eaUw0mpgN9amsNwlGCSsV1mPDOgorRVlosDCyJqWPDctY2UrjIgVBD3Oin2VNypzrDGti6H5WQbhP0I8wPYFPhaOHxACT1ccy11mmn5AR6UkgO8BS/Sz0M8hTBCtznWIHKKaPzkI3Aik8QLClwO2blQqTEpGa3afMNrFsnzIHpwSgZClunxlUkvKAku5j0O1g0bDygJI1sycGWMVxmjPuBQsMghLXZQeIzmXNSkZedAK/CI+myKXOsrAMSY6m8xCsyPcBhhDWzObYlLnDWBn5yGRbmWwLylJaZaYLBmlukOFwamFZizLLqsweYrIGEcrKnCGWG0JQ0sVWumAI8o+yEayEniwJZ5HgfqGdLnYw/LiyyqmucKrLPEqthyoSoBBtkiqYpwr8wC9RTWuUMUGbtlRDKdXdXWXPPtv9WmN8e6b3tzvC/w6jfe/Fc2/bm36pb3itrd7XnN3nnrxtRYbOyb3oKqOQG4HcFTpnjcoK0sVe7XEK619o+mrr8I0ck02/lBZnM/7J5KpvM7V+uBrcfrRyiG746vweIhJVZHB+O+TbC89LXuTgbGZ1QSItpCQbn3TrfBqRwrPJ0GRMcLoXvWHB4w56Sfbo4mTSK5BuoMhEQQhPjD/0uNwoRRPBvWlXQBiPedBt9ya9YlwYjU+Phqed6OOHp8XAg1HSc3+aSNS4z/XQ4xBv9R1jtLqZ4rtogshCEn8nViiz8jSt+IE9lqWnZKqWyPPzIetbKGlmtU1K/jRb2cRV/6ipqFSXVLKFley/iJn9BaYKQs/jJgAFlH2j6TO7dWXo0nJlpSpdqWbKftisplBjvnI4X8iNoWnSPGrMWG9nbL1yofeFxfh00Ji09oYd4rlKre4bdXVZDTrOKPSkHSlHAVwZ5FRALlol5J6G/O9BVQH5p4CrIPPRuO8g53vIaZKfDRWQ3QxlJqrTSSIzJhFueujwzt8kJr9BF29kpqSEy0d3nlOeyIYsJbBKrjRfc7JEXfi1WqvSmAbu2K3uEhVUn1Yn/HvmPu2Uxy0479ts7WP2q9PjAVO//pbZIDgDbrtlCAsu8a75dvMPZ4rVbFUFP+HMxON/c08+eXm1aQQ4BEqfkjNrw6//pg5+jPb69J/zl/9ULr0OFVbiniM0q10kRTRvgMSabi4B10/yn7pmUY1SDQKpw5gIYQ1kDsHoJS8UD1JVo1yVg622c43j2haXunGcrXOwbR4tP8KQ1mQL0b+KQSrXypzz6M6Partc2g6XRjusVBCYosnwlRmKbKVJnhPd6FQLa2I4urm7lQlHxUaH8gQqzSH2pK9GYWKYPlY1wBkEQ3gDvfvtR7HNxfWHtTYlCrdjxT1AnxiguX7asuScizyMJ2am/Xd8ActZhxqBKBOZUhDwMcVmZTARfxJbTicyLx5vv0jO6EfZnD7qRD/SU8kMsFkDbKVN44vGEtHNxPp2OiGlHsfahtUIRIYAF5Umm2Pmzo0bPsqR8YMk6ab55lnm7IiSGyJikxlQ5gxwvFVrnl8m/QV2DjOPMy8S23E8L5uKHZAZOkTnDirLh1TC+ub751iH9BmVnksvNu63OICz0MwQzVjonEFllY0Pxz+gs78bld5skeBYPN571kkV2giUc2zqPJuqZbz9qCGCNJvKca13O5a+JaiehxKRKpmkqrz8vfWw9B99ot47g7+033tbY/nNOP1P3uv2zzB6973Y+fZMyy81Da911fvM+ZcQ2VfNRQDNvQ5V65CLUnSFZoNU9gKVL/KL/+WeNgnuuBxneLEjeV3h0CQJJVSaMPYAACAASURBVKFHj158ZOkDutjB2YxXjKGi9ImZ8Pzh03Xpycph0JuO+6WgmIwvSFPO+JRr2+NIErMlvaMxBF9iRQojecVNwRX3OMNjowHBGZv2xOO+9CpKUVdgcTK8KM74BZIa5RNjc56Yb5R0CZ1yxhYnMz7Pps9J3o/nHl/GdRG7flfylil8dMxlldDYx2ejI/+tDNDCL7gs+VIuhezL6uOl38DZfl2PyXCj52r3dT1/mmY54NTQ2a2bdsXqvtOWnVYzX8v0/CI/iR2VZY+Y/QrOXzCWFvIFhajkeF6tKc4Di9lt+IGvzQNba72/xxC+bogPGDOOmUi/MTXknr5Qf7dS06Vmr1wwVJXpytX1fJ6OV+l0Je0Np9sTk1IeA/wPFKKz4DsoaIKCZlD9ALnfA9sEXAeZst8Dp4eCLqqoiy7oJG2+XLOcltAFJ7pJ4J6+QCl+oGr7DZVdfOG3FN+k7DQbh8aXy8uoc92G2tO8Nh+dd5U2j1Hh+X5NF6jYykptxWl1dZPGYrt6b9jS1lFzxdTbZ756zzozNBQYsi7fMt++aTYMWZ1DZmeP6bbJLPb29d40Xb3Sp68+pS7m1HgK1RU1vSbjnEiiKLsJaWz89hVzu3ty+Z7nasl15sR1VnEN/Vk257rWHvn7W27KF74n7P3Ngs+ScVh50gR6F3A9JBJlkuNIlaNyZGkALgmQ3NJ2OeDsKMl84q6TLrDnJwlhG5xgmmfKzKrIYymxRhr3kxtSeod0Ksd/Pz6Xbvh0siij2UH2xqwzEiVvbTnckUi7yGfSvDi2ZCiw0WD9Q8YyCouywlXvTaQ/pkkQSZgVx2aPf+0fd5PVdpSHFPrIDc56//reUfhlzOm+Ny6+2yGNgJE1d8UgndVH5ZqVbYIhniA72t3YfODS33LU47Eh5p4+dlcOgcKEHrfaHNo8Cmcl1tITwv0HgvOoMTGdCpQNIf7YQgsvxMkx42fOd1/w3nfPPiS91F9KmWS8BM/OxBRY1CStTf6x+2ZvT8xaxrxhAq9fpUzCXWKGLLOy3F6ffHlMNP/SHV9QdM+KJOa+L8Vjd4rMVI6ZqXa0p44i9b9JwaX7i8HlKZ+ctb0vrUavFveTJoI6p/HpMzLv035mNWpZXBPngttHdXwrhiIiY1XdvsBRN7CP+5lXz+LpZObJhtw8+pM0FuTKR6HCo3XH/9XX/t8/hy8+nRn7rVX432HU9ilw/m178y/1dT+paveZzpfUi9d8JA7BdeLUVyJG16msdYpZISEmboGu9LeeC8xUe3obxd5GwVDl4Cvs/MkRrXZQHZExmowjFuNhX+xJZA91aCpGOsI/mt9DOZlakeJL6FriF5zxz8bCC8nF2diUSNSl4ExOOJc9TnHOs4lU8nvji77wlDiDS4O+vWmiQ2MElKTHfXJidHPaGZ7zoL9PyBgJbXonHwrjIiLVK6DzHg6jFvZuo6Qlr4ZyxSPeTFCIo8idGn8Y9h72fckbraxEalCKMpmSatm+Iab4ntH215N/C48V3BFSm/v1F6/p9V2GNj1f0USVnKbyv6WqOzX3HDPNP/KVFRrqSIH+ny/oVACVDdnZx+UHDqlMrS4rVFeW8Nqv2VKO0+axlYV8y6lWvd4wZnW7B4y3WjUXT7PdFVz3KW1vp+Fic3tDZb2uVKdVa0rVmjKVpuhrruArWqfWNFe2Gnt6k48lIn6/BkolH/+Rpj5qoKj4oqZP/aml4jsSxD/RQRJ07s6TjGCzqFqM/02ME+/aodE7lac1pfmqIo7FnRbkUbpvVZ7hh2VqQFndqT9zy3z/Rk/7PbPlgeWOvlVbRp4Kt2/26CsKVdPj6boSuGlqd9vdfB54XenmSm1xPl2UzyFGtfnayjLePCSO/Z2jVdBN05fRSVQyl+myftIf/6+95l7FbueqoayZlnuaZeRkwvQfrfYGG1t+mbyvQEUwCr0LUDQA1SPQN8vecB29KkVuH//s/vT5auF1korfNgvZ10hTQM8saK+zKTmVJ7X/odZKV45zlWYOAfEqGW8ZYRUmijLRhUOqJ3Ke0HTU2TzCtbn4c8OkIz/+zjuc3Ik+0uIpN9dSdL/SOHmcInZ3VmtZqrcttduC5NUE755LtwQdPsyyutkebzglJ4h7QwbPGlrvg2Dg01spFX14yc6xJiqnX2kKpjO7pAvp3PpVIWKcWrszhdv5jdDEYFXlmJgcE2dfk3uCvswEo5a56B3vWq9/5aEcvZEazHT2NVZl0k6tkR0d7kvhdbc/1uvbuBOMxwgQ96Wqfpox0QVmXVzOiPr9ZWYxKvrW78+tO8PRDyRhKyGeNAM7QPEW3a4c8U/vBEJR9+KGGIzPhBMZvCaRqLsYmd6vbHTeOYr4p7Ysq4nbkcc4DbyTE79SCafWTLH9KPONkQSp8yK5HN+aebTljm89PHxJTurRxp1CExSY1ec8sVfyBXyH0hht/wNJAHhPIlq+9Xqdkzrp1FoiUuq/BOsPPre6f9N7/ncYvfc+1vW2puVnXd1r/uQ+idSHXyrDUcoXAXsEKtcQo5C1QhKe8teonHmGmaXyA1RZiM0TGNbFMqM0SzozKLU23ZEafZWSVueT4dlNhGZoMhmazwTn0cffDM3vobREp3tuMhya3/QLac94ZkrY809mVucP57zhOXF5Udz0eWLC+PKUGBNQYIrETyd9Or3JREjyi8tzXpyDFQKC5+G0gKpzZg4FphCbdj0MTcbD3ljIm0TlO2YTg2LaP5l0O5y4wQlXeMKTFJCwuFnXZu+XXkxNPzInmyiSP58v2x8YKpUB9A2JMrFNDMHQt/JMNQFWbimdW0jlFJJMI75JzeTLeU7KL+hkoKhS09hV03X5jL6L13epzjVRPZe1uny4a3H39vc2nuZ1pTVlak1dhc5tEx8MuOtKVW2t9U0/6lqaW+tO6WpPqxt/4Bu/k7s2fV/f9gMKz/oyNZcMSQ8G7zd+W1Ndoq39VuMe3rabb79LSo8ml4NC+J71/s1BQ+fAGdJBoOJL266M1KwfqOxTwJ6C3Caq7BrTMsiiU8/qgeqiqAuM4gKraKb5Tu3ZnvrqH9mKH9mGDj4YlUz9t7uutVee0hXna/NUTL6aLchX6nuudnZo60rUZyvbG8t0Laf5Sz38+a76tk7DjX5RV8ieb625ed3Q9iN/9kf+XUK6eEFtvFbf/J2q4bQST7wkjy1SqYtU2pJ8kgPba7ofWZK/iU9SKBAOr0nvkRo7UkU3VdTH1FqZJgtTdY2OJwPSb2G5l0dSnpLXR02Mk0bhrDL4+DMKUjcCUfp0VOdDJtXbPKrMvwC1g4CnqbORnFCC0VGSRlp+Df78XoiJKOR0k5e2XJwlarTaSfRpSQ+7GpOebpAfba9H1y2cGfKJREu+lW4IKuYapbhO5/QpH6xkwutE6E2HbntWepNbGfxhv0qlywaVjFlJvGz07gfRBVZWOAz+KOFCMjHjCerHQoZQIiznLW03DXMnrqMAZMtHcaaUeSm9SMX8a/e9a5ZHse30Y+nF1ocK0lpKM31chePOxAquhSzbDK6IofXlFyk5OL4rIbYU1xn6urLcaghukKB2+nEsuOYOrYkf5XdB2WZ7s3ooVKwn+pQV1t45OeL/HlX2+kwSGSr3du8Z4XN66BMmlu3X1Np7n8hd+N/tpJ8kAsnEIXmYfZLOWVVFpL0FD0nVMOKcXpPe7EgvEulUIo2/fdwO7rp2gMq5RoJdOSZ147j7yY50lAlwsJv5KL8H4FEsfBKlaB9Rozl9XPOoZS5BEgMOnpFHy9H7VqbnLTxpo2DZIWWBhTcKmySvbl8WodJxf39boKZshMp30UUehh/ne4Lp1QTpAfTnT/IXg+21xvI/xejdtwF06psRowfqqn114y4kDtSrUQjKIaZKROeaMnuFzo1QuSGKW6BKFzSXovq7CaMpdubW2hn7xlVzrP3SAn9DMBy9cmV1QSJdOb3h4MLe4mxmbjbtFQkK50jgCP/dHBsX57zx5IrcNupNz5E34x2i+z/liU2Nx3Fdwkdh2TPsnHYiKx8idlGc+sXkorBNUkQnY14xPOVCLz4w4ZyZGBf9wvKEw43O/pSLaFW3YyY8ubk6u+3zIG3FCU98bJy8ddSPX8OWFPalDReO38zmd972CXfuOQyrgdjqQiy0EPCK4sT4fa/gXPRaUuuxp2skxy28ElOUEmWq+JEmcvVrOdCk/FNL6JfGUEU2dHa1n2tubetoN15vbSqF2q/hyneQWZlJRcWpEUtFHrR9X4/KjlOyvFrbqTdeudxrM2+OWTdvDTgtluVek7PptK7ulPbihatzI5J/VBLs28JIemw4NmRzd+h1J0s1+V+x2ny2qowbGw7/0Uj9JibZrcs3Bu509teXddIFlfBAcIcWROn58evU/qhZ3ack/Qv0FFwgpuhW5vTU/OW+kPAn3WM1VpxSa/M0BV+pVEpVkVJV+DVbns/5Rw87Tmvvmd3nW9VNP/KFamXBN2xVhdo9PFPyFdww9T6wP8THQPcFo31QLFUBfqHov/P5DKei8lRccb5Gq9KgDL9xzW22Zv76Yh57sLXFAuesdMEFqqBb+XT/b9Tox/29nHxQffenu/1PdTrRo/weGhGjXST5qXueeO46O3X423+2xaZ2Ndxl0jOqxwf5JqhykK5NBT1s4iV6i7Ehr2gRAmZP+IE/88CX9qxtNtjVigsU1YPMok9cU+Zf19z1b96dj9kDsanYcp1NyfQdRY1ISyU1KAvSfpJhduK6stqhN88vD83P2BeWh2Znztp4thvns9R10tlMcY1lujl+sP6ub9Pujd8VRM9aQNfPnsCvyURBH3ViQKm4ziq62QpLzQ2veNN1/67w0Dwvong/gcdD9C9N9VHUNZq5ptSatRddt3s9943jxhuCEc8IIUtCVUhbE3kMZJnUxWbdJZfTONJ73qZvMKtV16hsOQ2O6WfpPkbRx1LdSn5I1+wwdIzoz9t0dWZtlp6iB0ibBj1wHNHKMWm0Jl2tuaZhUNcwyPPXEYs0TfLnGDnBgGwtd0BV0K8pGuD4AdVJk7rwOmKaYQc5hjTFUtmy+583oOIHtBVmbdUAXz6gze9ns82kf12WlWYsbI6VzR1ic0mYUakb0lRZ+ZM2tmSEIp33XSznYYq8wPugbJ6pXuCbl/jOoM4YqenbUvc8B+M+feMXrelXg/t/qEY/BvRv68/+ghjlqvaVbS+pxL5qMQreKEl4OrkG2RGaWadz1+nCEMv7+XNLm/+5Cbk15NOz4//SESnsJd3qkaeR4PZuLEMCTUvbwQXS0X7C+ZB0PZqNp6KSbzI5J4YfBTNyz/fw6lLGOxkOLyWD3s30uoQmy8/lCY97zHEnNLuZiUrJpb1HS+kpkYSPXkQlVLVzYmxajCVCH0KTGdS/qFIFxKsL9xLDX++0EFhdIIEp90gg5Dtc9ac9w+KNy7ePDvWRGH61ko7gMYjhN+gRBGJPFgJJ/8wL/x0p+ZCg52cCoINEWNUqO8XfyGH6r76k1h+F6f/vlwynbFJouaA/39Heif54j76tEvDKvIuLH7ce6lshLxvK8qGxRM1/Tam+QqBQBSVUnpo5kQ0MAzlKOkfJMf+HBMQVDDFKbgpQfa1kGcjKhmwl5OXT3NdQVMgWl9AlJRzCq7pUV1vC+ZwzqdDhXcudW0NXz/adISI0H7gSSATjBKNH7+aRMYqP+hYTxzThIwEUHVTWZTqrkyrsUppGLZbh3l5zvb6b67OS6+P27N20iLXf6bQqVYlKpVWpCzmuME9TXdna8IO24Tt1dYXqiuk2n68qzuNKEYsluj6zs+50DXrrHZ3tFfnqW9dmbl6z6ArVHZ2GutP1RSo6X0UVoqpVq4tK1CdLdbfM4XTi+Lb59Kv0/otH1icgAlQmL99mU3bYiaeMvm16S0rFpERUyuzIPVjeSi0X6OaB9ncHEmqpaSGGj+rICklaRCf3opktvkx6QKlMUG4lqfWlZnRC4a6PO28lmQy+FaquGw7INVku6CHdTEmS6TXSi7R7AXKv0YrLqNO/TFGzI4auMdQ1FkxyDwUTTayPpkiiEisvlTOTjuYPyHlX/3qtwTFV4SjsTqoxBGpka/QXY+QtsyhLmWsMLWNa0U0rekh9XJHUuUaMrN4n5/aiIr7OMISJqDEJZ8l++wiRKROddY3NQVr1MDnX0NOnaXkt2VjSvQIPoJ9l+pSsieFMdJ6JCEMFUdlkd8wAWUoyqEy4fTrbRKsG2KIBJU6z+4+DXSRhQI7sswNsvpnV4gUfYDkT0pDJMlEnCIuZEwPIU5JvwPbTBWZaO8iUmFmeJJPKgSzy5geSHoC7I/F9s7LAzJabmTorVz7IaC0MZ6GzLLT8kh1lzjCTg49VG3vSxjWNqjo8qiYPfdIDBS4qX6A4D43OcckkWzXLtiyxxihtSbDCc+3YS+WtNNzcV/a+1va9bbd//AevHP2HavRXVKOtzT/ztQfqyn1l00sI7hKMTsu9mCpXIG/l/6XtW0PaSP+273d8n8HRhyGyxZH4IVlPETZSKuymXUsPbHUrpZYqRQkIoR+qllCxtUISnWISDJhGJcYEZEY0iPEQjEiIEYNKPjShaINgXdY2Qo1sy7LYsl2hLSzz3r87sdvu4Xn+++EdBhmTO5PJHK77+p2uH6MgxaCqFaTyq84In8Ho8oL0Iv7ZDjHYxWf2En5IFMUcE8NlfAUCTZsLe7vr0gS206eiXl8Yr76xWMgbS65Lq/49zDenvZDJFI+knq6/i/iSq4FtjKfTeAyoiM4KA6DbND4S8How5cQcNjY/FR31YJoZFgQw233CYsQbi2ASKmyMuhYnxJjgCoTGNtxDbsGz6BmetTkwM130DE0+OPaNYhvx1VIU3EbpWrRfpYNH0gNjm06ru1ajGxeJo+2NlFzfyC9CVBnKKkSVp6lbHZpbHeo2o7rTrDVaO+/ydW2munPNmtyyDLAWVMpOndZUN9TVNKivtaj1Zu31lpLzNWyeDGX9F6lootDHNMx/XNLx/f+Dsv77k7h/FgHr9DbeWwGqaNJc6daea1FX6dXqZmXOtxQqzwTEzneXSE9mpR/D0o8xSDo7SKTLh271KytakLoDXRmgqvsRXm8J7j8u3y/Si9fS7pF00xpuNdw5f1GjkMsVBaxCLis4gUk0VcCxhXK2sIBScLICGVd8AsOojJUB3CtOlOTJZPICeUEho1DSRXJGIeeK5CXqAmUZJy88QakKOTwHlJex5YXU6S/VTY1dtXU9tjEoM51+JC0nMpX4V/sZdTtyrj28MaBs9fTsvvn7W9cohG3rx//8/hkbvT/2UN2M+kKooBkK8O8HULERUvQNQSq/GdUMZaT53h5NDmIS2g5VSY1jKE+PVBZ02w+5pVl6mtHSNz31ngXRIt55ILZpelmwvjFy4Q1Lpn4Bo4Zu5Ox9T71hTDexZq61sSzmg90UhUHTnNaFyeS65nTT1zwX4lupiaDb45v1RxJ6oQ4DXDYPuEYZALbyumU3hnX+UCKykhTG3NNB8b5Qj7EpC+CVsMh2CsNZ38Ls4Y70lkgpH8RjfcIFBcY1E0AwwFY3ROq969EPuyRNnbCBcZ9WgT8OYzDNpDAZrLSeBf/vSyltzr9NbNiF7ysgXwoSVPHcwBm5K/0XDp9L73dIrwvSVrJPVKl7ASIBBE0Y+OR3x8zw+Px8LDj9k2QX6st76VzIGMXgyBbxcmco9p6Uw38gQTO82qY0J60sJr8sT8t72Sr7BWH9uPUkmSPx4NGp7ytBV4VN1+9f9dSD7/joWJD0F+AHE+u6Kg8q9qAygdGIXN/67F8Nl6P3F4TXYNQ7P/z5rf9h+be+0Vnda82VlyVVB8qTSa76OeXdZaejSFhD5hVUuYRyQxQTorkIWxSk1CH23Jg69cmBHv1FNeXFIwlzTAHY5SFG0vBcKh6SYv7kZmhvM5hKhFKRqWRQwBAJhDS2ImFL/+mStDyzF8cjg3sYUjeDhy+WpIg3sTqDyWwyPLcY9sZivpRvZMMrJP1j70aHY9PC9rwIUSnn0OzokOjzLMahAQk4WAWPSxh+iC16SJwSY5GxKGTdexeF4UWnI2y3LfLH6vf45nhF/N8VZaih9o+aAvztt7FBOvTHK/dtMi3PzM+4DuPvDmPS+y3JaK3POYHyyjCjRP6pVGOj+lbz9+pvZBmKyqCT38qqahhMKou+gn8Ly5CiEF1t4WqbuYxD4L8Qq0Q0ydvPlqMsjmTpy0mwSIayv0TZX8GG4iLRQ/kYQTpOIQB3LX79dGalvkNZtUQN4DhDi/sOST+I0vMeabdL2u+SfnJLb6IvYl3MtwhdpKC+oJFhWqj8DkptYMdXkqkt6WBHEsbCEYJNqeeSob+nukFdVCTjOJbjOMUJWSmnLuLUhV9wGFgLvqAVMmzscwpOrjih5GSyQrmyrECO4VV+glYU4H9VpQWq8gJVcYFSIaeLTlDFBXKVUn2qCHQCNeUao3n24O80Im8Na1j8GPfKuW4ut5VV6OXV1voaa51aX3LV3nXft3HL0VVj0lyxaNQmlQJPYBe5S731kSdSdff3bJ0m6zSdU4vpJynrbIYMfMMC/AvKI35U0AK5UJYA5SEq1JLUU9gM6MmvqOZ3u07xiPej8hZ0W2gjqbiAC/H0Qb6W4hHXGTNoFFCtmOix9wTXbhwe+MQj6a7jYZKgUnIrXDtM0SYa2GUHsEgMWyqbcnOHxJFfS3dtJTetKgh8wwwd7fTWAetsZ6psmtC6dEhEOY3D9Wahy+0P4PHJaFQ/osrVU2w7o/X0pMUbd+OHnf3f623a8SBJVnueahtR0di2MHD6KeLolKSnjzf6PBcMHt3oCrnhj6QbDgrPBKxBxgeTh4T7+4Nas6A2jmjHQ9H0E3HNLsfolm9SWkLv0srNXn9nn9Bm8Zi9oXQAPVFtZXMMbJ6pxL0OtUl4mZ7rHJ3rsgs9EIb6VZJ+SGqMVJ6BrbBq4jsZS0iYqptecnnmJpdjBAeTUqUB5RmZMwOdz9LR/DdSIjoZWRfHg2K6tXBqZ1YNeabK866eF+SLsCHybCuRSETn16PvSRvg1I/uqmGkHpHfCx3+c+tf0fNG6/7wT+Wif7P8Oxg1/xq+8bq+GsPoPlu5L7uUpKaTMv86aDsZI0gdQnkRNj8iK4/Qah9ST8lqfPLN5/8TN8ZmmjA06xPD2KL3jS2ScqNU8pHkGQmMexJbIWnTLwWnEpFgcnluLzyzHffvHSWAt76IAmeKRw4Ta3urwURkBuPpXiy4sezbxiTUJy7Oz4Dm0/jIpA8b8p6N0FTK6XA5ByZHB8ITIJEnTgwvxv2Hy76YD3PeMQydsK5OJac9UafjodPRg7HVaZ30WI/xkSSX4OUoGl12fPITnkipdJLNy0yvBb1Vec3ACmOdWyvu+JTuYK3tPi9XVKCCr9ANg8Y3Fm7T6yzWh2cwRJ4AwjjoafMMKH0ejbEbSb9vfEi0SXHX0zm50yavuYy2HgUAagtQYSXUwmOszClHLEFbtgzlpdHzNDj+8N4qtFRB7Sfx96+P19PH5fOXKUhgqiNpTHVEWoUEl65awRyW3hxKv6SgxQ35IXiuVmNz/iKialBlLyiS3HahK2Zl6j3wUEwGnQFpMCQ5I1LlRU3VRVX1d9ioZ4tPKDEUFp/gik4oMWgWYBjFBv4JrlQmU51gizBiYop6Qi4/QaBWXqIqUJVxKoywxYChLDbniwoYtVxVVqAsKuBKT8jwrlRy5Q1tnVrJnvtWV9vSeaml67ox6n0keR9LCi2V3YKNVrasmztplVdY2QoLe94hO2ela/o5DPoVvLyqX6WxcYUGNgcb3U0Iw1/fDFLxCKStsCHcThXymM8ilREA1BJCagPIaXvXqeMGJO8ejKDdfV0iKS80oGJi1CsMSGWGENMpPf32AEoqX/0uVfeyl6zc+W4NeABeS/YZHdOMkZTm2pXhdSh9Th1I1/vZGpe8dqDu1RGmh+86XepcAxTXQqEtxlMTfXLorJ9gsVm40DmjNsyVWPy6+BYwyvBaV14rovWy8wMYg2CMe6p+0H/W5r/QF2g7/BkCMvY5XVYzog2MVpxNI457SucO6Jz+7wf9d0AZ/oP0QFDnGZhcvdxwXBs2ivfj0zr99c6g+7dfYMz9ESXbjPAEwPthmpQgaUwL+1noci6I73+ChM2GfjanHSOgzLIkHf4E6QoTQa2wdMe9cMfpJ1ZLUrrCM/kdtNyoGo3BHYW/LrjW48XrussXIdmEP0qn9Qhz7VL+7OASvPDq5WEw2uVd7/RH3eFHGxjvPuwmK7tRjp5R8Oo4gcjf9g9X45PLj8XleCAeB4YbjpjVPINJ+mlHTywNtT9LL3aSyR+SL3YhAIif33C0s8pOnRpWts78TTFe5imWxPHXGud78T9vx/RvQ0yzt9/orv+cZqPy6l0Uei4LrqGJJTw/A4zmh6jiFeb2vq5qDZ1fYZr8Pf/zDpMxCWPchBDdimIqGg2B7EgytnS4GkyFZjZWQ3uYfmLrPgiCTCkQrg9Buf2z9UyR6Fbw3dOVd1trEgnNY/s9/GxNmhAwvQ1MewPzM1AYCpL4rpjfs4FBWcCE1DHrF7bD3m08floIz0PEf9EnTnrx37HoOGml58YWvUMcHxK9I1Gn/ZNpgJjzTv7C5tTf/ZiDTJua4jKghwU1NHBGkohOZSFWjqqaOQ4DX9Gxh5QjunlyVN7Apj9704wisQ36CxSOPxQESvo1gY1rA09VfI0UaY55ArGV2DanwPFagIovwr/4dUUNKroM7141UqfaCQkl2Uu6DsrXzfJa1MdT96zULSu6YUYN/dTVfnTFQt9wyC7xNLZnb/arVx9F8a32NC5tPcKTPORmHpDJ+MMHqclCtfWjxmFUpEelHXRjP0kq+pi3fCxy5xxyX7qokp+gCjG7/ILNl7EqeUlRQQkwU06JEbO4gAaaWSBTFMjLTgC2KuRsqVxWrCwpUpaUyrG9nDMbXAAAIABJREFUzyg4GlNUTD+LORnexjS2rIBVcdzJIjlvnXz1d2z0w9E7vYfBv+jGMLopcs7Iwz/e2yc25ifpgW9/2dZa6StmlgFpLgoUA0jojDWChKiiG8k7QC/qVDcqNaQfjcNajKePYI5J7KjujwB6ltqotjmywYNMlLwO3R0RQxHptx+kWCxgFurxRQQNpKR01SKjm1BWC5XVSN8b29h8JD2LS6HIw/lHs9CM6FcJjzxtUWa1y8AFaWLAWQmmq5IPkW5Fr6Xx0B3n3J3wehQC97FETS/D6DG9pRm93OLH+JjARMwf6XEH7syvLGL7wBt0abqhbCnPxBZ0qJ0rREj/SIpEHk4EH6Z2oF7euzAJCl7t4MPNbZHzM3u/JYHcxaJicG32gMS+PVNmRQsFZaPtstxmzrmEqege5mfP4nvPYinMflIJ6d7wBU5PYWqcbZBx7Sp8PJE4ZJhuxqPJBGykfsCUtiQffLIsY2QLDRrzFBgx0nPp6Acic/cLnLRzJoaDEBzFGJgio/r+WGp+Bar4t+LhZ4S/r0bDFR0Ua6DwTnKMsgJDiWddSgf6wUn4HLBv1N+GrwjbCyGmXF5WatZ64tKH9F36U8Y5YPYpTzpQqYcqBjXSkirPnae/SH9aEgf1fT9xhtcXBt/vHfz5zX9c/qVR/yahfX22+oA9f8Cefk5f2UXhffV4CLmX0H08hy9AumhBEJ1eY6vWZNUr6nv/W31/CtoobYx6FjdXsFGfii+AlzO+cuj3QjvP0EzC5w3Hl97Fg4fQRmnq8P0TKeiLvnqMCWnq6drGU6Ci28GZBCiViClImYIw/SKGzuWxw1XfRlDYm/akvETfPuJLJRZSy1PbwnDAO7IYHtsbHQANJ9DTC2HUDnvFWc/ApNsRHnQE7DYRg6wwJI47jmH0gJDNXzPZGH+7HJEM5OKvEFOBIF7/JYFLEqwvbuKyCORlUqbkx2thJv8Utr88fovkVGWVoYrLSPUNsdALEXcRlFCYr2CHOV8jVR1Y4mk9U00DUl0EA/+KkTpnIFb8abDEMbzqDWxjM5JfRvRlwkYb0EdxP9QEefWgnVpJBY9vmYNHh5lGOmRpmwrnNMD4nBa61sqYx7hL3UpMK3wxybsm+delRj7Q0OEulVOab5TVDRpFIVMMwXqu8ASLQbAUAyUnL5Nj0MRGuhJzzyK8FspLOTDbFXISOissKS1QlhWWKAqxOY/Bly3FeyhQgv+Uk58q05QruYqykhvNnScLqYYmXU2j+uTXtOa0uo133bNo1c2UvIMtNHJVw5qTvFLelOn0ia/U4WPp7ROQ0JbSv25fKm1AWXgSqiUY2kinMRQTUq6XdkeBipb1QsJTuQkVm+jV/dnPL6/04qAOP6sKK9LOIc4AIqT2JbqCpziDLLuBueUNP5jZuC+67gldp7u5LC1F6Rls0SO86iG2ntPCVtt0rZ5Joy+mG9Cd5DlsoRPlFwp1k5gPqfWkTEyWScZ2KNtmAgZf2DAW4H3uaguXg0E/LQuL/+ohVJWvl5+zXKi1Xrhi1l21fq/qAMdLuhgBqjzbWQpvNOMv1dywnb1qrbtm0RS30EwLHAzqAAcruFnbZQpTicakuWbDO6m71KvJawb0hAiS8WOoimWa2XKD+jSvKW9XFrWweS2YxZPwFzhYIaUJm//nBu4UtZacNGhUeq64hcnTE0etMb3CNgbcnGa2AFa6sJkuaKWxJfHxXbyRg/fWwRQauMJWrlAvK9Szctgzk2uCulJIHoC/shyjPE8v55plinZZQTvLmViWZ5hehjbTtIXNtTBsL5PfyxZiPIUglazYxBTZqLwBmh2h80Ekn1aJVPkUOumjrgRkTUFWu87diiPdDmraV+peam6/1va9j/3nys3/shj0dfLKy/pLPymxUX9qX3blOb3604WJFWQPottBUOdng7RiCVWts+eC6huRO20L/8sOMbvE0BYa24DWcphULr1bXTgMzyWXF/ZWQ4fLC6mIP3UQA7T1i4nEivRiXcJoGA9KUNcUOQz5kpEpaXPhMBaIRaaikakEJqp4TNCbCE4lBWF2XAj7pjY8rkm3axKDstMhgoHvPfSNLE4LkxOQ5JQYFyBaNSEEPEPmcXHWOex2D4lOu4gHj9qjy77jY/31OLj0vy1cBZGhKzoGyo/1Tml85FBabDRTAfUlQb20H7P8OKX/K1TZTKkbM3soqkWVjQCXeFjed+hUM+AjjPwKlTdTZww0/Q18vKgONfKgbgf2+0Ww37OaZYAXGAcbCVxqKdRK1mMWltloYphmZdZ3dGmHqqJbhe/yvEaW/pamLoK9loNvUz2lF0G8HTMUrpY9+Dvv+8TQ4k3thQolU86xRV9QpSAazSo4WdEXKtUJVZlcqVKqMDgWYuu9AOG1QC4rLJQpCqmiEzJs/hdhJFWqVHJ1YQErL+CK8GC5vPiEqvREiVquriq/cKOp6+3O33xvq0MDWtqXib/iIkXVcpV8G8Z3rV5de1nT0FB/7XJ99cWzPp8UeyLlVRKn8EXi5aghSNoEKn95PHJHwNgvMIBvFBv1inYU+7Hr868K2OfQaSuQ1tYZ0OEvtaD7CxikQC8K7wRpIa8WNvSwT6qFpfQYrUikHr/YQrAP4xqG1FaI/yCw5am0IZ8J0JvYNC2ljAyFL6uRyjUBR8ODaQO5cHoCux1kZDcE0zHRy9YzbAfNdqT3mQ7ip3MDYD8Y6fAVVJhkXAdE4Y8j7CzkDHSkk6Lo7A6GM8lOWrgiI51vINol6Wi+ETA9HR9jTQzGI4WRlZtoRTfeFQSpskwkTG+CmtHcbrrQzBR2M2W9MqJpwHJGjHcEQ7szEMmaWHk3reLZk71sVb/slJXKA93FTAk/qeWXsb1suY2rdqiqHSXn++UaG5cPUrMk6N8LCiYszyrM3Ml+5ZUh9Y0hVa2DO2dnFVYmx8rk9stoi4y1kLp7G3t6RHlDUOkEtVYoqfZwZS6aE9g8gVF4ZWVj3Kkprnqu5MGj+ukdre/HC8H9es+B5u4+e/sld/eXs4Y3s4m/ud3+fvl3MNr5c7jm57PnX6pP7ys1z9lrO2j5oATDqDOIOoOoagGVBpmTS8qqlZIzQVVV8Kw28A8OiOPl2QqGxUQksL08lxwVwi+iAIIQjp/bxjxiWgyDimggtrmUXJ7ZjizsJbC970vNe5IHUcg5nfclIUvJB3VQQfi7B3rPK9vx9XehhT1s3S/PxHyAjGIi8i7s2x4dmCSGfDjshcaf7uFZz/AsSc6f9Y8tBqcW8V+vMOkcdllsD4WByXEH5rOfHO4/+qQ/W0oxjOK1CN3kL9gcbufww2fridWZaMgXPowfCq42g7UOv5WlJH7Jj3hKwFT+DbrWjC7VEafnCXRKS11qRmwFgG/+aXRSi8rqgOrS5eiMnta0kuJ3JZDNahMqayaJ9OnqI4BRGtURrX48BmOlFmWgs5ls4CdZT6U3kP4YW1vIA0+GUXrYYNuhHcg9AZUZUFYzfmhlue3yM9bAbUGK7EhHv0u1fBv3jSrtoFB8ozxToSw7gRQylJdL5f43Jf+CLj0hK5DR8i9QcQHKz0WFMrpCKVPLmYJcJJeh8gJ0qoDl/oviGHSmqETOIPl/U5Vfymu+Kin/AuVlIU0Bc+VrTc23mqstFxSXlVydurhZU9woH11PNTjMRU1yTJ0KTLIsLY1qaKqOppuZvBbZ/TFR26ppuKhurFE31KhrL2rGxcAtSwm+LsV1SNNKy5vIWWrApwX/TIwdyBtlTpuRwoj4Bei9WtoBDenujaC2YRSJqXefg7TCblJdyYMoiX4OFRgRprH4vFVY0X0R3XTIWofq7OJDt9cdXl+8PaIuwIjWkmaOJM+phSnQs/Yl8egnaffJO0z5nf6ufCCYLMFE9o9kJiNNG9gmofPVD8fi7bvYUp6s4mmmFX8jcDoMr/lGSuvRQW+4H4Bxf8DW9PpiZTeTBmigkHq20MTdnxMhR32X7Opn6WlstmFASfAU+CxGQw2vGo9sZ1z/xOTafbJYbaa5bkiNyjLQuUa2pv/7VNo9spuh9kc7iWorw7RT2UYZGOzdsuvD2lgchC6xoY1NdZBD/UlqsMjwWzRJDCji5fenZt/vg/bd27Sm6geIC9VaWa6bzTHI8nnIYHUvHfvHPiZd/HKo7ZdxPJNvZtT9TJVVGfmTe+dnfDwbjQ6OA0EpttAqqx75PviIOBDIj4JEhZfSsyfirTGmgrQXrBK5wfXw3/X/DDx9f3bwTYn9g/v/F4zq9yev/KQ691PJmX3lqeeq2h315v6F6RUkLCBzAHqgq/3o5BTyv4nWBjj1MH1tRPyfdxhbgCD706V3B+sShkgMi9NjG/Gl1ObKXsi3PS9urPqSqzPJ+EJqdSFxEJfCc9sh73bIlwp6D8Mzh5ilri7sYQBdXcCGP2RNhWf2vMPR1ZnD6bFk0AcxfQya45CZH/MJ4Xgo1YfxcQTb74vTY2GfZ3HQPtnXL9odIoZUnxgbdc06XT2C4JoWZ6Fj8/B2aOaTw/35H3/Ip4v6a6qxV/fAavY4Aj4h9vYH6S6vyy+j8r6iyirQhx+lu6ZOPd9lFt15NRT1JbILbcFA271emfQzaJVPTJUc7Oi2ghr8ryAoR+fUGFurjUjVCCwVozNmo1d5wkDLgZZeNVDlTQSF06Gkb4nF2kBjEx4bp+Yp1DeG7DPILBKx+jFkmUF9XvKvFxpa6In4caeIDAIyj6H7HnRPhK5w97ygHm+ZoWpsiG5B+LHMxkyhm8vrlue20ncF1IcN2xbiH6ih0bcUkLsyFD8Ob6rk6KPAePEXmdtsPi5VXc5k7z9wTd51ZEZXVsqSx16FUnlm8KvXkuabjIU+vjabk662wt/VSLGtlG2K03QDshNWxWRhwxmz0SaWrmMnjrOSj+KHH55IHx4T9xleHsdWTbTxBFquRRMGcDcrGmm6kWLamSIeTT9CZ3qR3AiE4HQvUnSgwRV5n79kfKlu94l2dU1tdiB3EFXwUL90NwhiemQSwlYz8yA4m067wWubtQ6CP/BgS4NTndkYKFshpZRfj4bWUngAxqOrRo1zauO3HYiuuIM9OYSvUSTDFODGXBJ6LP1Gzk2fS9dkUd11te3+AHCwGhNZbLa3suW8HMNEum9w37D63sDZuw6i7XsgeXxteQYq28BWD915eszfH4yoDS6tcZiI5+5L3qCW1WOeK6se6Ep7og73JY+33jPV1efpSheDjs7p8tqp3HamaWwx7fSPPBJtwvd9QqdxOOPuGPTWyY0YBGV3/YtvSa3n6lqP23fB7tMZh3vSj8zd4bP53WyeUda3lgkehIJtQqAOolVTIvyEH6Vbdnm+kSk0yYOJDFnxz/RMr4gToVnIUpBI5KCfLjTQZUbV8k7G6bQcmQyuB/yRgNtHqnWTqeu9dCHPqq2ajw/j1uPAs63A0ycbGV2b/b1GD6dysFfFh3/NdoKFvBh6fdZ51BP/u/f/dvmXRv1B4NpL+aWfOM0+q0myDZiNPlf7F+jfdsVPO2un9jfGH5uvuLjrw+5PP/7hV+gR8ukSm5NCwnZiCTovhRYSUNbpWQzPbPz2GDLq48G9rQj4STcX9lJRKbGe8nu3V2dAkzQ4FsWwGBSST0NSIiiFppKROaJ7P4Xp6uHbmBSf29tceLe7JEFfZSGAQXPcNemF6NPiuCcahrL95OjIBoZUqM0XZqdHRGHA5YECJyjbnxBBA3/ag9H8k8P9J5/zp67S15K6hsmSo4rvOI9r0myDLPc+W5e6ApVVUGZ753Jgw2w18w5XWRMLflIZutJBS2/eSS8Pn8XhSVidu3D0xLW1DrfC1po2+ejOaS2x6ItQVQc6Z0SFDSj3a3SyCWmtVHkzich/dVwRfzpTCK/QU/e83G0BbyAIFmthzc6wUcI3tUDEqGYm/S9JoyGvYxLamt5gwA4lG2B2YWKiBzbKdLDVI6ywTmOMzm6lWZ7LaqGzWxnMB5lvqNTLzInSd59Np2e+eCJ18plI47gvMejKQOf9Xt2z4wboTS2aj/ePkc+Y0svr0uBwhhAE1ycrjAwkRbYylB6OSm4AhdC2KdD9pCHrWwmFqh0s0yxPu7R2H+1ZeM3EyMOgII7adJ5u5Wo3kjzfL3+FJr5G4Xbqyglk7papCemWd6PpGDpnQfmt2E5HGjPkh3rWPnka97v6gsi5AhH8PCO4sAr5DLvHJ9azJj0l/Oi0garq52qG1BOPpcMt6ei5xBIjgNHLvHEpnbB13kTVOOS1/ZotArubT2JZaadn2lo3yOS8OkRkJJ1zmnvC2Tbhwt2p792hAOaJ/qXJHDyb6tmKXm2YjAmv9zin6vu8dfaZNshDOpI8C3fYZiqnXVbreBghY3xzWtuU2ubTOP1t8+t7GCV9kS5WjzDUnhu+c0jKJeeX7gjBLmGpxxN8uJkA/5U/JOa3UvhyXxfc6Wi+c6xuMKAd9OvcAfdbchnHF7ryWqicDtntme3MJfbqPP62wQWdZ4XE+l7iuaQOX6xCnhuMZlJZ5kN3hCWdsNI5viQe7kofdjHKl1TwbGFHyWg8MzcEQ23jK53etR7/owDcSBhG7RTXQStMGv8xFQ2ttPnXXfPR2cijvTT0N9novG663KrxJaBGAy+JJ+GtreiznXev0mmkR9K1Ea7UITsvfL/1j31EUt7XKvv7ts1/ev8vy79MeHodvfGz6soBV70vO/Ocrdphgy8zJeeYHntnxOmV8MfBnin1LfPfq99/XHYfSUEf0aIXF4MzCUGYxBxwE6Pn0rvluVgsuD0tLoZmNnbXJGyVA7RNpSIz0GIeY2twJhYKJPBfvy/s94axOZ9ckzCrjc0AWPuEaPIR5KX6oM09ttzFCQ/oPTvtixMjoPfsHMAvbszPpDCwglvWj4E1Og697DFXjUEcX1x02sTPYPTvlmTk+93gH6T7aVziKlEmrV2J6C+hmhtjJS2HNM+MLMgXKC1lkodppgGU87NOoKwv0KVmurqZUpSjHDkq/RZdaqcqWimqHFwEmnZ0zoByToPhX6xFTRaqovk4pQl/3WUWYkokwVPeRLX2y+bX7xTXopw6lN0IDfioZggs5GAjzkgKbIjzDsMfqbohMNqCVwxPDNUOFdlsOx4PsdFcbBs20llNFINxFtv4LQw2omusstGQuqqbVrSCxGe2Hu+fKuW504a6j+fBH/rjFL04vl/ff5De/5rZ/vQmDq3/sR3/u3D84e9SYTuAdaYsNe1tbKVyDdC9GRSXeRIQ72DpZqXWI2XCgj9J3oXF5NY7YazNK1yQdh8eDVGv7Mz57yAAmIfxqJlKuzIxpnjWqNp+VNQBPZzPYeu+FRl86hfvPyYPvsOT/sG+5jyGWhPSr0AvPPCEtEPK1CmrLvIYT/PYZE6+2JHwE/vsiRR7tFFt5jBzx0dVYCsp79Zs7UiR9dSHJHROlkhbi9+SIFafBVEmJu3uhPR7k+zGWE+KtGPyr5kHZ9pijyHpJ/lEqrWVwIyoZ5kW7oylJxyH3vSb0cX5pdlQZCO4FA6vR6t4aLyIzxXTKquyta0mYDJ79XhjeW0WvvS9tPwoWtRMZeshUs91KG8MTD77ARD/w3NAtDTW9Am6Mj3eCak61cuqHT2vfiJWdtogewOrWazLx7euHjNfKq9dVj18nCPx+3H+xu/StV4504TS2f5su7zKIiZIioL0UYH7JZ574H7DlDzXJM8xqGpcgY9vpZfUTkKtRXkGljHJsk0cZ1RVO0RA9qMMLuMlsh4ta4X2B7lEHzrXUFI91BPfgoSHV2nr5GfJPnVBZUEKB6UYoopctHpY0+oDEZPU7h/7efuh0/Ic8a9LbO9d/7+MetvrmO6l8spPsqp97sxz5swOsv2QIRqjkZ7BqPnBehcffOgLYhK6t/lIfa2F+vTjr3788w6XF6QJjzgOekuxyMLei7i0Gtx7tiZhFhn3p56uSPNiND4Hvex38T26fhiPbCfW9+Lr2PJN+rwbId+G34uZ5mRkYXt6LLYcPFye25v2bghDiz5h2y9uuIdETC2h8503OQ6l+jGfuCiMQARpeSbpE6PesQQmpD4xgWEX09UJDwb0aGgu5RwKhHwpj3V22Zs51BcgRgWlq5kj/1SQ7SMi/ApeofzKY4UkUE6iMopQ6djRN3Q6moTp5Ll26mQzor+GiJO6GZ3pgPBRdiVSfIeumWh832AsxpZ7lYGq4RFTCTspb6YaLQh/ClUeyzKR/FDuInuwI7kdnfNTx4COzdgt4jVLkFB1ejlmfJa5LhXPZDehKl6+up5I7YAGxKsdqdogV9TJ/3yRXpM97B+7xj6XoE/9KsmbEWtgWAOnaP9j1rw3ktk4+EkyHp+0zX0peNy5IUhu0rc/SYevJd0Aeel36ehX6Z4nsz29Il3nt8fXpbTo2SkDw0CUBgI1BEOxCSwjlJnKakI3Pei+gK7b6RsOrsEuuzUs0zqomw7q3ojspou6akZOAe2uczcNSFWLshpJikLLcYStlc4xIHMItP3zDOheAJ2xovwOEGk+xeM9Kw9+Cr/9ee/ozcaH122JpLqKR4YAKuPJHvQs5uOY1uUaZaf7L1yy1VXymipefcpAyttbCbVvoalWUqypZYs61NWW+iqD5oxRVdzB4BkIgJj4Q4kAaKZ4NMsEU9op69lqK1SgV3V/X2FSwoSXPgPtJPSPP94iLzVqThnUlUZlZa9cYWBpsDDw+WEoqDplwFDQy/Ka2aJWucqgLm9XqVpYlpSNAqnXQ5kp5pu5ehnXysphmFLRKmObaFov+1gRQBlJcKyZ5Zo4hVZe0MzmNzNZNUCK8bdQpGgK4v4Q9GcK2lm2gcrT0pgRMx1plwvEl8iPIuX5HVyuXs42s3mw0nlGJtsEJfmgP02U9nO7QT06X88WGmXn7GoW0tEY5qOIqhEDLsOaZPh+49q54m5loUFW0E3npUWjexnGQvSbexnOwub1yhQWebFZXmaTFdnpohGKG6byhplCgS0WZeVetnKGPh+Q1yxxjVG5Nk617bCt+/Ttn2Sdv1wwvnZP//lJ+MflX/Zi2g+/kDJ886kkXnvMNKxcSN/02ArY/CEVjG/8lg5nH6Wu8mx1u/of95XeCQjaS56hhNezNz2W8EJFUyAoJpdF6I3sI75RyA9dAL/n9NiGDzrXLz5dl6a94a21FDb/J1zRkLgXEZJe2+S0Q/S7ZiNze32WO1uhQx+QUMjtD/q2vdBp2T3ucY8PzQpDk+MDAWFg0udZBKgdxkR1cdSO0XxycEDEyDsvRO1Ws1+I+j3b08cpojebuNuGs1cvy65+p+40dHV2t42PhKc9s06r7mBF+u0JJLJtRgG/Cj6q4ld+ogKVNr05MM8buqkzrSjra+BEGEDPtYCCMshBnYYeeeVacIDiYZcwgBpQ/rdQWlpUh67x6JT+OLW+ktjv6WjSV0he+ade1tIRtubimfW39T+fdrwYLKrVELiLxiNhkBytlV2zgQjL6tLfDP6A9/CY7C32ZwcxJgSKFvzAYDILhPe8gx5doiraKbaZaRxmH0xxCvwsaalLNpoXuGIMeTXo+pDcHqgvaKKL9ZRhDF3Cd38jiEgZZtDNEcS1Ugo9uoVhcQpyMzHHxFQXs57WEfTAh06ZQU0j/XjD2kFiOK1ACSG7CD+6eGbSopxmlNOEmFooTMqtRXl1iDmN8poQV4f0w0jAfNOO8OAsfaatNGNClgiUuha0Qxv6ajtim6F3CMZTrhXxMzKtleXFdKfSxIejTtsMdG8G+CC5R6RDdXol8bo0QKej6vo0cc40r85qZYA1pz0nrTT18YcYPvlFHSSIT6rpQdZET+WQfzMBKPg6ECghMXeMShTTgnLaIVc062Mon+SfUgbYf3Y7WBV5kADP5htBDD9ToQ9YzJBIFP4sW2igiwxUgYHiTDTbjeGVhq82wE6yMIoZZdiOKexgFAam3MSUdtNyHgReM1X/7QzdwcJcYpBVWEpqHZqmEQz9bDEPMnpQdYrf7YDU0bxumaKXq7Iqr/TLr9jwqirtlrEYQw2k8JTU8pOUALbaUXLFVnLDrr5q58rwIaX1/8mYbB5A86SVaxhSdXrU90V1m6BUm2mgor2I4SnWzLIWhrOytR6NJdjlXnE7Q533Z1RVI0jhQXIPVSDQnMiU+rhzAaUt3pbYn3z1evLwjfnZL5rRffbuvqzz9YUHb+78b4boH8u/g1Hvz/g5mvxN2iBhP8l5UH96TVbpl9dMqUM/7MV+PFzeSXoT0Vax7oqgqvKoLtnrNv/iT3y1LyWOnbepuIS5oc1qxuA16BBtDtEzInqF2dDY4eYCpNnHZpKbC6kkKDofzouLseDetAdjnHtaSK0uSPNT2/Oe7S1C2v2eRcHc47G2TQ9l/N+hwGFkRhIGwqPDMbctbLdMOh2ipVf02CcFhygMuCdGRIyVg1bXvBjzCsBJPUNRkMEX8MiH+DAsfKcwljnU6otIfZEuKEf5X6Lib2nFRQim4zX7S7DWmULEFMFGNkHArBrqD+3OdNORMsRdRg0mCkx4ktikaABfJ/s1oooARqsNFIZUDKYYXk+2o+oOxJ0GoqrAn+JRRSMpYfryOC/q6+McKVLKmVfBZUDto9f8GEMx/L39C4xGElJpJdKaNfPRQ3fArahF+TXIMCLi6ZC3Hw/6uCvMYTEoPzle/+JRUrSyYPXrZdnN7Hmr7GBXV2mksmqB3Bm9KKcBUQ3UKTNtnkMqE8rSQvmQ3oOuYOqHLTWMjwK6K+C3KKYB2N99L2ocQowW0c3QV+7+HHSTzzXQig6qmnzQ6aeqLajIgAq6qdJeAFa5CSl4Wm1l5B2YB6EH/i5fZGN+bTuyHoOjTeufv4Q00lAk3NhfkvstuuFClgCqsCIAZYwjraDVVNUPvVJuz6EqG2JboW8dPkjn+h8lJE9/uAB6eu1QSl/WmzbqSVZDC13YwfKeruWVxLh3cj6wEYyEq3hMcon/QZ9Z5bzS4nMO4CjMAAAgAElEQVRF1gLzQdEXEJ1zPeU8nfEMtBPsM2WERTAkXRmqD60fhla2sbW+vBJOPIrecqjzDZj9EYUnTP+N7HWXbn4ltRxMJdbfvXosJaPbrbYSVo/SEMwYIEXJ5p9MPoFyqSOikif9cNgn1nEtoANAEj9pBS+bWEtIRIn52SPws6UeH1rG6hWAsADf+ItO8upnJMaVUa55Cdv2MR0HoAxjCoyyxmHdZhyi8GAJ/Uwm2DeSMKUt78YIy9BGmuPZuz7z1pOMcyAtgne0I80Hu07y0KQk18iU8nLzlLgbTysAQKgdstx+kcYDd8q7GYzvOSZW0SsfjGy/+DFTTZ+p0H8pTfvbKqwMy8N6aeRCMN1XWSJjiGofHhmP66oFyMAvHZLdnDEn/9492jPxRtP3678Qefp3MOr84TOpkaQ0WxlEqgCj9rFqD1vhkZUNsKoBtniA42wyhY1Vu+SnBdUlUXN+5ML5IU2DUF9hLclr584ZMy3I/eI730hs1ZeIQINPTD9jW5FDzDEjEKaPeV0xbHH7xaTHEfYLydAYxPGnx8LhuYQPeOviA2tPn2UyQghUaCxsM99xWs2CLcOXp4V3FrPYZ36IgdLWK5p50WyZtPCzbiu262fHxUmPaxJjcZ/V7BkQnQ53n+2h2zHpts86+0Uj3ya4Yk5LYOLYUVPTQFXpOe4iyqoEpMNARn2DmO/oLIKVhYbvs5q4TL7RaSpLK8uIeBL5Ua4BXeWp8+3oVBMq/A5VtdPn2hH7HXww5yI22yGvHhjo15icAs4CgBag/O/QVRMY/h/Tof7Q2//YxUQJqG1wbIfWpd19qfqyWlGGbtvcNwxaRRlFy1B2Lrqi1WhNXVkMqmmdPXgtxXelk1pNzjfgT+Aus5WNqpv8Hac3hk0HCqqkuKYhybslDfo2KpvU2QXogStaoATXLZ4k8sqQbWy2qJKpNvR416VnRMziai+kmmOTM6eRwgx6d+lCjREIpt4lGxQpDJSoiUINYHpjVLotQIEQqoHUIv0UZqYAppiKaj3o3hRSdaOcRnSSR8Y5aFuCx+CP33Kh5EEGyz78CrHm3fhH78Ee72GvW6FhVCiu1nRQtkA4tPAuOAf1Qu9/l7AJX9jKqdPifj9JoZXU0x3pqkOZrUWnrOAGLcAHA5QNdS5Azz4Mo7cwG3WhvBaIXzXYUW3/p0x/4zomqnpkWEfqAZRWSMJ4dE3swk/+qx3AhevdqiZr58FzaSsafbGzkacnkfp2WdOY6wVRd3765LCqma02qDEKbK6El2OT+Wm0PV45XiY8Ojwgrpj7Ayr9iLqpX+VbgXbEm/FFFVBUjKGy8A/S+5/TY1j9SMktxwXfWgoj1Naj2TI9iDYVGZRx4kL57WfJ6FL3iXcMw22ZTsjxcFELMH21VbNMOM3h/juzS20e0xo8us0ngIabj2YLmhHTwlZZdC/SPZZ3N8weVd9U/f0R3W6S/JaoyEHmHFvj6jkkkBRZN7vn6pz+ugeeO29JRey4ry5fjxiD7IpnNh32mV7o9PjbnAt3bELPCwLK/sCdwnaEuWpbYPuI/KiJqQu+hbaJBbPdN3n0KxSeCgFAbc4ovzezkY7mr64thqKLodik2098Wa8lo6eEw6yZV/cd+9w2H4tbO7PPdqKrcVLV/btkm5Oph+nKYXXsOKPjr0tKqncfaf/zrnb/DkYnDqRd6OaZ1C0p30sbwf36c17m+gK3mQR17o9JWPj2vT6sUfVzCptcYSvJtypJPz/uklBfK2rO2TXXTBkRz3FhY3DAbccQ5nCbHV1uTA+9iQkh6hyY9AwHBh2z9n7o4ul0mDHwYZ44OiBi61uwBUb7F8fxAFtPX2/ng+62B3ybgddhKEysvFueSXkFzGGlZXFveiThdW1AWxHHZJ+1SxhxjQ64Bq3ihCu2PHc46JgcdQVGR8TgTHRCnB11zdosZluvKyQkPXY3Nu0fGHvGjxOebIK21iLP+w461mV9Q+XVUtVWZeeSG5hmukXoN0TF4zsKcjZrKM4sz6pDhc3oajfSmRH7DUSKzrSgGhPgI0bAgsvoXAcqbcp4UTWt6KoB5REGiv9icop5KCTql32it1/wuebeF1BaWliUaYqHAbT0K1RcBo1Ii7+m1N/Rqm9QUSWquEhXNXLVemV1i7Jay11qkmnq6OvGkpOXMaxT6iZK08yea5ada+FONjFV7fJTTWyVXlZjUJ1soE82M6o6SlVHq5uYPDw9VELSFUUwPes0U9Ysuz9QosZM+Tsq6zQ600BviV1tX6HBbrm6FtX0oukg3eZATLqE/zIpH7qIztkAIouwTdoAbZAx/bzpAusbn67qYQDQMxbENEIOPO8nbeib0LMP0vujxGriT/lzUUkKx5+U9PkgpF5rgT2cc+jiT6TwEhArzD5uO1SnOljDGBgo4YXkwWOI/8hJbmxlP9R95rWCizOrA9p8Xh0GQMfoeb4f3AKNY+iKFdlDrk++UbxuQzmtYO9XDSGwvkmg34gJI3luMaBXWdgqs7rPv3d0AKia1wiRerqFveebhYQnfJw8VWVlq6zc+KMYHrP6aDKvlcqY89hmx/ZvOxffAVHq1R+jN0dKWgW1XrzwwEsSVx9HT0KLOlpuUgox6dUvUnJXMgtnO8c098SzFm8PaTG/V9qMslugp/FTAm3h9R6L8L15qp6f0o4vZXiBvAkxUKKu8RFjJR4P2MfwmLN9M7rwo0NMkV4kYpi05hi4CmtXjHR+T8QDtrEL5rGz5hnSyeMXKRF140kRH89pS/0mcXYvR3rs3jrLjNbu73pLquwja52FzVSOXlY9LKY1kjdjotNb5wx0uoPiW0Inp0M9+e3Y5pDXOCbTrvCteJd7TudeeOhdimLse49hdE7HtdN5Rk7njaUN0OSTDX9InF9aXF0/hBjR71KfqCw0wMm5u7DnJ1kKR8l3W4/dT3diB7uZ2IB5SqV20OUDSmdM2v0H+ZGtDxfsv+r+c+Xmfwej42+k2/sa3Y/Km1HmhSS+lQITMV06HQFPKU+fSInPg1vjkbp7PmhLq/MhdT9VbJGp+5XVnvprlkxSy7z4zt7rtvMYDbss1h6bbdLIu8yYPPY/FBxup6VT6H/otpvdw9jkd++ub//2RPK4XMKI6Hbg191mvrPP3Gmzto27Jjv5NrOlB5vt0+LGuBC2O8RB++y88G7UEfA4XBOuyZAvOj+1/cDy0MB3mc2d80LAaRUHbQFjr9lm7ZlwuEftLvfQ5D1e94DvxPx0GgYEgse+wtE58xVeebpDmfsdnXOZUbeWnDdxV+wlzGX89FJp/Y6sRiq3mcYbqBKdaqX6XCWXjIA7udhmN1HXzKiI5H4WNqFLJrqihZj/Fai0AVJBKUI5C2oRJqpFdccMNA2dBZnGoowc1PDSSzZC+VnoZrMmKASeLqRWpzZCQsBj0T0wqj22O318vcFwwczXW/h63nRh0HbHacfTTNugvf4Br3Ha6gSHzmnX2i3fjzraRgc6Pf06wXHnYF1yO9oiwUWPp2tadPsFMbaQiCwsxlfCz6KH2MiSiMn2ISZNO3qqChH3Xyj/v6l8GZNNIc03KnkFKihH52qRupYCpy0RKlVj0BlBV/oRnS48rYO0VmzyY+jUjjD4jGGT/6QJuUNQiwl+Qy3ofWD0ZFoQ1UqV8aAfVoQN1Wagim0ipRdQDgkNqXlkCyAVZjqQdcAc284samZy2uXFvKbY8H25SVPcoVIb1EX6Enm7jEnnexFDXm2j7pHOdNiUZniqSSTNmbWoyQdNljDlvCGgWhuqMNDPXi+mjpLJ15OvdjUNGEb1SOdHp+xEzbqVRS0s21LSN3c4Hzzcjb+bXlmcDm0notLW45TGxBwXOECeAx/A5nwyFkm8IkJwGOifPZHKDcQzkLb904WerbJCo9YegKyPzXjUPdflXQnEY1J8ffs8L4Ni1hbIk+X0qgfejfj6u2ePN9yBNqe/azoUDa9vVECqP+TeZzXSimaVbSyVTEhJiNRH8Q4x9oUXAuUkNwN/HaVnC9pVBu/eRCj5LCYFF5KRFaJ+P9ypaqDgxHZAQD+/Wdnnfwc86SBTyZ6MvzN61LmNcMlIKQdboJdbAkn/GggyRCKHvyXBbK/F1jrJoGA6ZKxBXtiu5mc2lteloy3pxWPAjaNdqcrIsC3gOmAN+AKxCoPKFoTu89iegAN+Kb34IaXG/FpPQZDKwDAdnMpcNxqTEo8hne6IaI1PhyZLW2nOxLG8LA+TNiOn5rVBorn1fhdWDNaRR4FL/XSpiyoVaIWHKfWoz4vu8SfS20/c/anXom2fM/ysMf96Z/Q/BsZ/B6Phvzg6vWtd6byE4HrAsyY6V0SnP/rsrxj/67b0OxHpOpIOX0oN7dr0y76BsNcxm5hLHZDofHJF2goltyLbW0sbB+vvEv4kfrCTS4dP51JPQ+82F5Kxmb1ECALHRwnI2v2QkN6ToulXcaiefvtY+i0mfXhyXLOxQ9Y47DYVkV7FIIf0VRTyokKemG94dt4TjnsPI2J4y7cd9myEPBsRMSo9kVLrh1tLe7sr27sLx32vfpfOXUatHl0hvrFqIbUorxW84DpBrbHITpmhJeQ18WxeM8XUIA02+gawFY+yvwWj/no/xQ+gcmy2n0ZFWtRooavaKRZDzDfojIGq7oaqJMw65bWQ4VRae2ywNzLw99MWzf+NsmSI+j8gH1pTqbHzbfjX+Tyi0Vg/yOsspjY73yXYzX4PJux3xh09XodbsLunPaJv5KHTqnNa2wYtOoywgqPTbevEr0wPmYPC5MSIa3zooXfYNdHfFRPD8x5xYujhvCfgsZqdlp5xvBOHy2ntspvNBuMdo0mHwdo7YH66Bu3hDheSTmMb93+hPEldXsJWUukSVTjydLY8ZqDfAZ5iVt40hM5ZSS3mZQBTbM5jQ56kHFGYiThDUDuE8HTSjPRe8haJYheaoUwTG/ukdBJpZ9BNAUE4xQh00rkGXZHTxnXGwwhhEwJMJO89U5elJZmw6QEt5N1WqtSK+BCBUQxhrUjrR1c8gNSNPnSeOGdveNBVO9DkmyJY9+k79uYIwiQaG/6nh9AnZbUQhccQoDKpGwbazhjVXIssq+U4CTe9QdSkMC0taJcVtLLyFgigZ2khvYkite2kDJQG9XsDRWJTspx2mdqkVrfK1R1yhUGWBr4s0kQkyyBD7bIsPce0yhQdKkWLPK+RPudQ5fEsCf0DsSWhc6gOyPoOFWiZ/EaK0yKuhWLSkS49k0kkgPJ8GdvKlXYoz/AlGIzwSYD5jAT0M7LT+LZvleW1K9kmOg+vzWxOC02TXOOsdoqCA6ayiHw1o4V387RUXjOdraWy9RAHo40ZuWiMp9lGtggjXTOCMH0Lk6M/VkeF4lcSsufBl4pfZ1vZPFiZ3HTxfrqolDR8ZrplOQaovi8gcTPOBP5QBnqU0jkWhrWxuUQDn7MyRVZWwbOlFqbUQSuGmIIhlhth5AJdKNKlXqrCT59bYGqW5I3ryptx9tYO1bYva33J6X9RG950On+X/kPR0X8Ho6MHUuhDYFPauB1VR34PdD7R3ApqjshXvT+QEk+Sm08yzReT+9L9/r9I3x8vlwxsFa98MKILz4T/acxny+/HTuLfP3nlWGU2U6P563EBGWkBmE5/e5/2dv9y/MHX0qvnx5J3v5Axf1MN9uflaEfiLZqadrqKl3FaWmGAdA0FTHeywnam3MBqhQtFrVSBFlU1I95BtVqogm8RnmDVDiWGkhqesrnovG9QEzZmbcA3sT11zoRfR2wtgE7+t/BBRe0nCqEkcITv/kwDkhMZzXwQPM5CT8eivxEPl93eZTR8bzbpbHynmb9j43WDlja7VTdq73RbuzzWLqdZ+/aRFBbDdr7+7brkG3J5h9yv1iQbr00EEq/WU9PDDw/XpWeBMJ51/B6Xd3hycyZ1EJJsvd+/jUsHEeloXTqMbPgcneP2TgzNGHwHrfBF9l4xmA6+kauv156truB4q87Qr7O4Ou/adVdM6qoWZTX+a1Q3WC5cM5cUN6Ab/XSBnhQ+fYeqHXTDENlupop45Fmn1WYEwesWiDjpxxBtAtRQ8Mi5BDKg4IU0UjfH0L2ZdOiDKrehwSVUZEKg62GiMpLvx7FvjBQ0CYtjkzO3hcaciCFyRJks93aaM0MvZQXAKJVtohq9gJs5jUgnoioHJEVdx+g5gvnvH9km71/WaR2IaQLGWmUn6ffpCvo0ydUSAXyopv8jrISO0SrzYjtLQR4SEU9Kg2z6mDuImj0v+6iWj7EptwMfNsMZ2Dw9dJdL5xVlJowOoi2CsaaDLehgiw0s18xg3MGvkI9TGRcBCaNjJOKa6VIDq2hnFK2YO7MAo3gPrZncgBwIwXOlBu6KQ1XFs2UQyQHkgq8wMRTpJpJjYtW9yiqeu8SzGh5jEwNNREi2E5VOQuig89oZDc9VW0qqzSVneK6cZ7I7YNKiTBQR/wctKDn+Fpvq1pBaa1frR+oreTbflJaaBgVohjSvV/PKhuG2Vk/bLc+FWy5NlVXOkXwmgp5QeyrHh2FV2/wP7T6zMyiOP3I3DHHFFjqHyD8zFjbHwhZamWqX0rlk9gS7QnFxdedhm8CeGqYUEKlHCgGp8fVd0RjWdAf7RBzyderDh9nQwVnLgZp/Xf/gTZf9w7v/UAH/X0bqf5Vu7ddd/UF+7gk6/QhVriP1ElMxJ6v1qW1R1+C62Lc0ORrdu+bSFpq44uY/7r8Xn4mlbKsb8STPlrbIbzu0lv6uw7+TnIDlf/RN9PV29vUGPn1FGAj38Z/VTd1q0k54P/uUrk7j9fxNp/V/XAjOeoQ7tSauipfnNTHZlymmCU+22IpRVvBKtUmer6XVrRQ/RN3Ds18LEfHEDxWp18YmWLWVMnpo5jSqsaC2AYgpqTvQNQsx4ZupGw5K0US4WzqIJEeNNl0kkloOhuOhjfmp7QlhIzQW2wxGn64ncxHanNpOd+n67bXEG+qdZh0kJwjucccdNyabGOZ4QDq8AiXfkQ7WDqUtaVkIQ2vfWCoozvpGAuMDIiaqo45Or6fHY+902noSwQ3M7jFVx2b7wfrh0WMJ429QmH2xsvcb3hh2e8Hp0SPY74w62uyWesFh9g1/1qL20pfot8RfpqV9UJ8J+/c8Hp26Bt2w0irMHOvA5D9vgZ7GWYTQFRnQxDo6byVuyhbqloDuevE2wk+gwoxG1yC7HghRB9U2BZGobNIMo3oIhdZZjRFBcNYEpIM1Mtmt1Hg89iIhPX2UehbbO9yStuLHzwJp1jYf78kzIPxxvGfMRqGmE9IbqSsj0Eckuwm60td4wAHaMIauu1BeAymWdaUzoKO3hqBVatsMqnWgrI9kswUaW3b6J1/8IPmmAqFg8v1L6dZISU4a+CBFiaFa6QITy89Nrq5Lqyvv3u7gvwHdUAmbgbx05w+SE4rXVuq8oyS0vrEZTfiDMX/g8EVM8kz1QLYvESfN7pDlt8uvD9zZeiKFFsLesYDgnZwPRScWXBjjGIByDNbQGuTBjBgOSJsLUtCXnJ/bXl2LPnu8UdXN0lCeDyIppWbOPLe4vPTu8AlUEIBPGbrDJzAUsu0sBnFWz2Bci8Qz9en4lH4gTonDRLiml8kFpRWabYf28dDVjjSSW11L4l0l1t8trweqzdicJ0BsZK8MtYUfSYe7EMJajqRWHwH7+fB8+5oVnxwqx0jnG2XmhShk8ryGcgB/MBFLC93vbzQ6EL6+rJGrMF8QIuAxwPjw7NGefyYVWyNsaf9dkwMAF1PyyoH60XUpHRl7tSNNz4TfppnTL6nOOUbloopH6KaA7rNI/dEfOdG7v+v63uhs/5mGhvRvYXT6g6Tf1938Ud34hLsSo85F0UlscC2hsiBS+VC5iEo9bNEwnW+nWCviOuirjjpbaNK91DW+3mOe6bnt0l7vlV1qp4trUameYRvp0hbWPHBnOfjuf//uvyyjDpfF+JkGzwO+7V7LZ3VTxnat3fyJPMoH6XajxvnPNPnTkYAI7zMUOB5bvMLLK7D9RUxUyNmso7K1NNtElTUjgws1WUmQpAVae+NpGfLgWqBQJLuJuspTdgFE6a9YQeqC/QY2bvQDaJ7qANs/61ti/5ZlzOHzBp3PCyUr6WzczHJw2MerFVnkepFrf7Av2U2Ydba5rTqvo9M33BnzTX7YkiaGetw23Xi/blXA9njbxIBZGOoZHzKHxMXYVDQkzE573CHRnQiGU2vbsbFFLwZEl+jzTEbEcNDjDnpEbOnPe2aDnsWwGIj4FrcC0fmRrvmRyXF7z4RDnABN6zanvVOwR48+uQsHHaKnN/b29Z9PJD6HIW/CP7WowGeApwr1ELXH5/CUBTW6UFYTcLrCduReAc2kdD0VNuo7p7DlDlZzIebywcxbGEHa5lBfEJXyjGcHLuvmujr2pH5rH8Ivkbis4Dtk8Ae8gdRqBB4evFR10Gd6uYp2opH6i7S7Bq60vhlddgsUI/EL0AuEhJioawJwT7oRNXlR7RDEuK57IPXqTDf924fE21/DL34RhSDSDUA6aqMASaZUY5qQMtUe12oM5DU//CS12b6/Ze2MxKStWApbSxV8mnKy54a1kUfgCnz1o3SmmVbXyfD41JONZzuz5Tx1zDFBBh/D34OFvU1SzXXXrmwYUF4bVj+YA8awu7ZRbQGNqJx21o0hjxglBruy03W2daC+zQGR24NEuAqjbSvD6Fn3GtEtxQ+CTWV21XcO6Wy+aPoWqjRSOc10UYcmGJM+kNvMMFBiFrQW4c6gj4Tynksn2zFKysqMmjgJMR39IhmHSyxCXZ/QZZ8j+wG1UIzaVKlJNZ/ue/wkPCjU2aa0zrmHTm8ULL83ktqAMJKqrWfTTaFj8UXnVKdtRmefaZuPgcs1tjRb3kxhNl1haZsnO46s3RlduCAs1Y8GxVXyLDyL95QZKLZbdmUk/CodOov0BNcfBqMPQ9GNXRJ0SsTulJuQolemEzYy4az4bCyR3NxJJRIZH+ir54EqB6MeUPIfU6T/hq6Jwpt64T8wVdPLv4PR+GeNbiCcVD2HzvmRJf5Zt8jp+ORJnuba0fUBzDeVtqnvPd5Op9eMz51lRKOzlHANSN5CV7Yq//wDiHz3/EzAOWx+4NAa+rWdNm2fq8fjDTg9LsEbE3yxcV94Ymaxb+gOjCdnyukJmwcmW3ndhyRE9A7jkn0ocN++eI8Esj4kYJLhh8T7w6LOeHYrKiUiUnAq1WSqv87ranvb9I4uweu6P6BrsGrPtWsqm9WVHZrrjrZqXnNvxDwfk+Yf740/XjzVq1SYuDyjDMCxncE0U41N+AHK4KIxgKL0E4XfMslyupUcLy+2QrE5fv2cBSQ/sspRLU9hGM3+Fp3hqTYHxJeqePqqlcqkSaUz9svRLVsnnslfPZYiQVI1eLwcxKSabz4rZ/C5AomZsNfRNci3OXu77Dw4QCcGep4uJSUi/IMZJSak3qEuTEh3g2HfkBtz0uTS3m+PgaWmlkC/FZv2qZUkMFZRBOr6s+QZdglD7hTe3pHiY4uj/V3jGKZdPb5h1/SIOOF6OOroEfoDzt7PXOBOa2cMo/+jzy/oG2k3ih8SySNOMmWo2oyKOohw33eospe+PUJET/Q0xwM4VpBMzKxmqk2A8D3TirD9W2iksVF/ph9BJ/cOwC/zjCyvmW7zkxtA+swpdNcvLzKwqZeSf+HdfID0JQ91NdmU45EEng4TkXdP4+92d6RSYIhMbgfleSSDYqQOitJTN0Ri1DeDsr1WAF/BdQKsap45lBYPfs9YOQY8IzagpjGE2WvaI4GamGuCCATqd+mmTaY2MKe7S8y+2NGv0tZOuML4/2j7/pAm1/7/q2vnXHjrh5t7PAdvmX+4x8wJ5xZJOM3OpIxSj0SGSjgGg9EfucVIzBlsroXbcKDOxF8D2aRGaKacSQwzlBL/yBEdRSgjywOpnCJC45RQweH+Xu/r3szOc57P5zl8ecawtV27f+2+Xtfr/ev1ZoIGZu50/+A1Zhi5gtIRD2jy1/R54f5/JRe5mb2vEFLKIo2CPbJwNyHv7EDX0rPd2rOh0nNMVWR2JlLh5dLp7WfinZRjMrkNR49kHdBZQ7qLAxZwWy2t6d0cU+cSrsQ+KoTL1S05B8ocodL2kQg0dl55DLm91Kiy667Rm43ZN95unS9S5otawlMQHH+/vFHohHpQ3px370XSseYL6VuGSz0j1eH4Ev3vh+Wlg1ZMKBlv1MYX5Z3fgCQGKM6OWAIjtrvzG5RRvl5kHQrsgqZVP7Egv2RzdjBSeXXc0j7quMuUnjeXlyQXZO/ne0rvLkDlG9xRUWlw0jI42Q+k8o18975DY8W8UyjyWRKKdUvxdy4y+2A+Wc35SY7HbTonyIwW+i1PUmv88+VHG0+3PrxgrOg3+dpkZUWIL+rRGsf/rf7c+z8cvdtlg58e/1d8o/G38tofiveT2sUfR1cdFyfLgK/tKJd48MrA4C9KxecmdLWFHtOstvrTb6lNbMtXgqAdm2VEitD/2Vb9wWJtr2J6r8n3xmunR6tn45bro2WhYX1vWHc1rL02UTY4rG8P6+ivGAjrr/Trro8wc55Vwl4J2qQfidFdTTe+mZCXHnysadUdOKa1BpItCmCMH1hqZ+jC8oOlJw+WXi5sVTRqVYew6hg2NHHeoGjy87mNXLZdyDSLmc48yS8Z+sqK/Loin664U8r3aAz9ep1fS58aJ1/chL1BwRaAjHFFtVPVCFUc6a286BPVbUK6RyBuvjCso2TnJIXREOIr0GnGRqkJbw1iyl7TDiG6HfopYKhSlcScoeUey+7q8mFZ7u1euj4MUuGzMTkT4YmvlbATY1u9Hku7p6zdYwl3eIc6L0T7u17e2Xo/J39OyPEByi5vzUZvPafsiMmpfUjI05EbT2YWqNmuxOISY4/A5H/KUuuX5Zth71C3LdzjGOrr2g3TPY9Px8Peaz2XejsuXXwKLIkAACAASURBVA04rvX1x8NfNx9elw8L6E+Z+XT+UFRVOhVO35lO/x6d7MQ5ToY+dVjvxS1hCNcgE85yocE5VOJVgjbIGAaVKQ4qgkDCrvc+KgkgiGOYoYLeOYY4O6xY6kbSGYf2cyonDzkAySASRRCBNIjgdbHyuSDMzvEmkmMV9jtFYkxpAzZhdRsUgOa6GRttxCdCgJ6qagjQG0Pw4mQYdEUzzKj3Ab55P7mAeaMoox4QtobCqIl5b8xEZdecHojcY+IjTxKP43fWpuIf797/9ZRfS6pZfoIRYyN3sM20RA3n+xt37yxFJ6Z/hhL42MHWlCKMIsnMot4qM183AAz351lK3C5FZ25PzG1NzK0dbdVwZhaFt3PEzNf09N+Mf0zMbf08dXtqZp4uuhMzN4qdkP+AmDaz2qo51dNFDf+l+a3pqUc/xzfuzv46EY/kME1+3iPwrSJvlU4GItNzwN/XFjcghX5NnrgT2V+P2L4ESqWJWSgP9FPe+p5p971fhkTO9sglvhopblaIxds1Bv/lu4vyB1YxTFk/pd4WPxOBVvqh2sWMBu0Jn+PmLETY6fo6O/frbGK63MWpjQjUpj2Cyi2orMLhQO3Uggy6Kkwen+7U4OL5RqgE5VpBH0ft1NUNTC+vgEj+Jutqtfxwq6gRaqvUbSLvEzJ9oMt3euDyPXrPK4Hx3+WhuKPET3T9fE4Ya8LoQIQ3DNeej8eW10Hg6j0Lla+98nrXNC1vy678bur8ffo/5KN/M290XfEqKigOSgS+GcsH1itqYeFxKB7pjfd3MoD7wGbUp78qEggM1GabIEklvYpcDCWt8pfbcp3fAumKHk1Vm+aohyu2khInJWuaqlYN/TFq3FpXyHIuKJ3p0NYHJFtHV1KLfluenlvL/gFd7LgM6MMiS3R1KviRXOy8vFtNkViUiYic3QtJO31HHhyNqI/hzDpc7saeHsC4jGpq5gh8kya9VZPpFiW/tiJkMXRI9EXVcGWOh89sJPV9YnuIOMNCWlVStRP+NkE5ndrNi35h1zePFN1vKz4ZABiFnCcP8kWhXoiSsvM9nKoYFTag020pleUqVtnJ1EZyzfTO9hrstQfN+pzjWnUBpy4Qiw7llR/SZyAc3VOktjH/68L4reuhrsGOS9d7+nv9lnDnpdnIrWjwwlCn7VpP11DP5XjkxkQ4MhGODQUHQ8H+oaA31O3o7bBdaatu917wtV3u9Hf1Bi73+i+HOyPXIC03As7TYNeg/wJ9s5eic/flcDd4Bq73DF7r6woP9Mcjj77oXa3JJd+hi003xAIC0bCsPcL+hRhWiFyUa9UcsOITfpTTymClCkku1BLiobYd9JkARk8FWXSeYmU/co1SMxAiTtmthMJocQd4MOmlrh+GxFLeBQEl3oV6Z1ltuzMlZqy8YDKgSsdKFgLik5pVStRecWjaCe9BnjjStbGOTI346ADkAGSakSUEAtXpRgjcn4sg9TF0bUL6ZaZsakIzGEK2fvCNVoQgxRWUW+2KRBaPTLyqnoM12AjV4hkQuweEhYwoBrVJwDVxarOQbdbwdVyGWcE77kstqZVZ91aCrTymG2kQj/ot1B6qa83LNwuciQWyWGkpxKmgeIxPN/OimeerSEYdl2aGDs90a9j65TQBT410RxzfwNPlhK4KacpR2TklKKegNn0zvYHjjCS9nlPVgWANBlhnEOnkKEXgWwV1I2QX8EZ6CjyT0FcuONPYb0pG26ExiV2g+MuDGg5rDc06pDKJaIGOIU7C2em+IEyfCVF4TJpwcgDLLsBOIc3FU4OPa+SULCi+SaBENd0tpjHp0jQPn+7m6Udq+nRyokfIdAtqUBolvJfjoaaewN82nvdSWgNl9boOUHXK7iHZA0gTImKYyxomOSNIN4YOTqCjU2LVjFj3EJ1dQdYX3Pl16eKb6uZtS/vOxn/YR+RvKjytXtqQH+/+t/eZrXwi78ocg8JPqZan7HHOa9lYk6dm/2IjOy9kTQVb6EywSquMJKMB7rzsJu0Bt1byUAIolfjy6nrKAmP9FP4W7m9srsrT84/pap9IbAzFbpzxVVsDjt0N/jzza2GVtjzVUJ4uTZ3h/kKTcNrzxU96sduhPiYanLZPn6DXEGhq+SWxHqcbSbEbB4aRk/JEK7VxoOw32y/s93O50ISArp/8iYGyIx3aqgC50ofOB5EGiu3oSg49uw94sOjGGU7WIryBojAq8nPlQS3dThoTa6Czt9wPip/8MYBRTwjY6Jk+kPXkS5DeiWu8SEmxBI+hIsyuVMofwrtVpEpzEb5YOPiDjlchwlom34xC8t3azK/hoMXl0tkbpXbPhZqfdBXHdRZzpbWh9LxVZ7fmXWwqc7lqHa4yn7e2xVPmcEkud1mzs9Tlqb3oKnU69S5nmcNuudhgcthNzU2mcw1lFmOl5acya12ZraHsopNuKu+8WXvOpD9XV3ml1eZx1Yb8jifjS5uz8mz4sbGiTI0g4clQXaYqSKW7FmP0IwEF0uNwRqoKZGjDVQGUbWWnWY8zTMjUQc1VpiFtpzCK26dQRRBhlqhEWWHzMKRnUkzJdKHQHKSIqlphzhsj5MoECCeroFs6HnyADrQi1ZcSoGT2KExdO52HPLGTNEq7Goho5zOdPGsulKzE590oMAeNPxnW4KoBSFalJLRiANCTMyH6zvkw4utRyyjpHBM3PoFxExqHX5lrRFUhIKSiE30BaCWxqYF8Ub/efYeJ+ymqVF/eSR0qoFUjl+kk+a0kB3J9IJeI2EE7dZRZbFUecb8LskGTkf1kRpTimqCMm89pJAfcfK4LYkqsoz2vXBPIsmzkqf1kaBMKXbzeK0DvzCZQ7MYstq7UlaY7eZ1HU+zTHvblVXTkHaYsVZHob2J43chTXIbgeEB3MVxr7ZFsocqKYJ7GQ5SqU8WrC7+IWzB06IyhyvMDluawrcIvapworZVglsilaoWMCLGVOxnUO8OW8Mwt37CjOVydzUrpkYutfG6euDjJL14cvnxtdn42sTAxFzk/QM1B+nsR4mYi+a0kE8x2TTgxvfFCXlvZ2lh51DtZXRCgMMqrKYACmHJZfv5IMO/u4tpr1qwJCgEeXq4Kk5x+nBOCJiJSFB0dFXsX/9QqxjL0m9jySmzZ1rd/uv38PwPGv1kMuhm7+TmyLN9e/QP8YhQ5DWOkeFxTPCzpe6QSv07v1Rxw05Pkcry6CTrJX8idHQx2U/BKbQfdIURXRdJAOJbzQZgKN2flD3j4s2Hp+n3b0KwlOndhIbEnEPS7vPUM7AiZ+URCExFLoNoavHCqtazGra/3SS0Dpt4xx7WY92rU5A1VFlnpjSVoGoQjLt3g+IWTHg1fTSBJvpoYWvMCI2VF9C6pYHLuRlzShK+Gkb0HZdkRT01Fp5DZJGS2CvS+yfeJ5f1ax3BpaETvCwlZJgSdwtqEIx2cox+d9aMjHpDPUDeiYg/y9iCrFxXYIdaUbgdfODVA0poQwGgYTPgTPlAhEivQETfyjWByDL5u8aP0H5WYlSKBzJpbHEu2NYZa0kOpPPzvcX6JPtmVHn3Jwy/Kl5rdXc3uwc5AZCh4adDn6PVc6G1zBDwWr8fU6bNR1OsFt6mjt9PW22Hp9Vo62yzXg95o0NveVgs5TG0XfB5HoO2yt9Xmc9u8TZYrjSZvK0Xn6iueaq+71OXSX6Fb6Lx0L3bj8xLF7o/nzKViBlJhlKFCB0QxP5cvPqZLaqYo1VysBSldKQ96yJkgtamTJFRF4SmAKaeD4Ht9UrKTs0JWU0WAFXrbSX0ICt7TrEAzKSelCAvZRUzR/XQYquzTWajdFNG8XCmzBFFVH/bE8hwTfIGHZDn5iafyxjPIbP/MfGpftO6YSNXWypbkAQ0kzoyG5onEZEOpUX+SoSc9vCMDYN1zRnRiAFmGIWV17xRopoQ0gnI9UA6Q3sAYaxgq9OvC4IugPPrMAMSm6H+tUfZOGN452Y9Mw+jUAHgDTMxl0cz8v/YwCsXR0ChZGBGfh7TlGnQvUnbCBcIoNX22a5OP45MLd2OPp8eW4mO341OD5V46U5iylBWa1p3qu0Rt8JcLrFPe1Fbi/tbS3NK5Th3fyDrNNZJMO3GMDi49kD8tycuzMGznqfxpecvRIeU2QvsQCs05Tu21+8koPAhXxpeWExtPFubbI6Zs0OEH9XudR7uq+BbfyauJjYUH859W6Xzc6h25IMJPBo2YKjpNz1m7OmqdTI09nr7DqvhfyO2hsv2tIqFg7eJN0UvvWSY83dfP47eisflPz+TXD3+9NmnKbUVpYGEInjsLyYTFdfnm+O2bY2tK4XxvrDoXMkP5LI94/WFKruwTPfGleJx5Gn+Tf56z5bchNbXcA9qpVK0ntYzvzn6cTSlLJJZt5WFSFOJOj134Ct3+2KO3L18IvdN37tx48p8B49/sDLo+aF2vrlnRlj/kDQ+Ew3OawkmuYAwVjaITI9gQRgdDYm6A1wT4/IDGNTl4M/brly+nvLVTsQWpGnMNvLKAU75AeVyhhzijODyjCU3qesdrO0cco5MLf3EELKQ4OxerqkO9kbLrM2XXZrQ/z5Xena+OzpZdjevLfVxOI5/r0YpuDe/SFHuE9gm6ukJqNEdtDRMpbiK9Mf6wl/IIQldy3krOdqPQMLIFcY6dqO3UguBzAiLv5nP8otSvpQujvV8THhclD05vhVYH5UGR3vcnPCjXR9RtgsouFPm48Ahq6UBHPagoABl2xC2olGY1jeRIAF2Po8x6MFq9YZRD+Y6fXBwAtNW7cX0Aq5QOaxUMRhXDrQ6QFAzDOpzkdIqeE1MkKajHRylBYM3oueNisgteFksvZe3zVLnQiPREFa4wEo6JnKoElPkdytEi8g9oy5xdiHILEbdbIiWy53coXYtK6nARtRXy2fvalIWezba8u6P8rwr8VYUYnsdIquKToHpq4aLyAHKEUYGT9dGDXnL0xJGJ0vkGZg7v9oMyI40becYh4YmpLmGKSoEYUruBjVL7PTCBT/VTzohQIzJFAGHpumWJgrTYUBSE/XXH0L2HMCXqOuhCdfnlM3lzCVRv6OOki+hauXyXeHVmC6K9c1CpMXTHwdmx2AT1UcBGWd7PiR6onuLqwVq3ROCFvgMKAejx40PQmql+ANWzbHz6UUUnOh+hlgfOYP9Vm5FoBy2obCdUl6qtmCKsGtRa2X/tcMCZdrTfiSUnzjajHDPKZqldIGtCf/F68BFn1aMCM2hQZVQgWziWYJ4zZ7dUE9BYgqVXBiDG9Tqx4ArpQIfbzu8Kzvv69M3dkr2n0tYHUhUbi/MtoVJq5KkbRd/EI0VP2kGJ5ECpvb/WFWJR+HX5SqiUb4AqkquzSdUuR1BsDuc1R0o9YS/8f1O+0q9Tm3GmU+yd/yinovnN4VJH1OQbSQrpn/JCwlNGU95NljbwGWIkZVcozxm97ItCjfiTxK1yD9QpaZqk9woI/CEHImWBCVPnhCV8Hzj+5sLjcreQDgWspWF24mtrv4ZGLgyOXwpNDd5kCPh55XE56x6op5Yu8xauLk7fnLo8eufSxJ3+65MQFvv8VDa0EmpEFgeSBT6rK7enE5HZxVtLK4/usbop+beN8iDWh3T1o8n45Ke/8IA+mvhd3/s59l+BUd96xPaizLleZnuqLV9AxXNc0RRfF9Mur3+dQrQjXxuPTc9/Fcld2JNeoAN1bpa21oCL/IQuy65R5BpDVmrzmnGWXchp1Bx26n6OM03o7Vvy7xH591vwYv32aOSSmA+VP/S2MwTI6RB3NMDV9OWd8Gv3O8WcVo3UKWV5NFkuocjD20OcbxRLrZiaNqJbpPexbQBdCSO9B9Mdne3kwqOEUtFTbXi/m1d7BKDGjck+t6wNIWR6twwLFDdLOiA/Md3NF7Tx4UlpdF5/wEVyvCJlT/oAd31Sc86PCp0ow55sGUbcULChsvJ0X1cnYI6VeNH5AZTxExTznO0HC7fEAz5ZakgCbv6U6lhZRc5HK2V5PnEHwhrn20B34/miSZ2PxBLsDd+gS3Q0GpkYnz/pzlMdSvVfOpSUQeGP46GR6YX40mxs+u7UfI1bl1GMnANwVyWmdPTvwR/QOQ+W5S29nTkNGECrfkJVbnzWl2ro9EOKVO52JVEiYMdZY1HlK9RaP465enCocSaMqyk743Lc2kwzOtuHXGGUbWdwaaYsA5aQsz1wERhupsTl7KCB5IgJ9AbIdaFkvroZ0+vTPgbYShmouhV1TkGROyjmNWHK/lpGQTek0KPoon5k0c5+35QeDszJYxM3wUgoNVwUvd7BuCX+EOYYtWa2VuR7ifkDTtgL14CGZsmJQNLhWNKJLo7CdaCA6BpGdJ3LsaNMI6I3jDOMDF5wTWQ6oaLJOABjeCMdg4cmcHgCPEL0B5VcQLHrQjxdcXM8WO0ER3COC+yV/FaQpIKuok3woqgVvhIdQVVNSMeKXFMrCkVVQqr4+oGFuww76poIxaCTfrEuUMlug9stIX26mfB20TmxtMaQqzmoO+UXzgR1pmAlPc21xQV7v463grvMPgZNj2WWFGXp1p7t19u6mSrQqnyxW5sGu+a9cYpH8J6rX28d0NvDliujoPW1syKf75T4JvobCS3xLeVi9obLmgd0zZHaztitzyxFtMYvpDdB9wHfjKyokwyGazujpvbopfCdBcoEqTVgcHMZTYLaKXlnki3v43HL1VF9aMp2d+Hxzqq8ufyrwUM5Cp/jkcILyQyk2Zmu3jFLaPLy6jKLgryRj3o40cXnuPXRRHLM0oMbU/f7f56/oYRh3r/YKPFw+wPakqDtZkr/e/Pp0urK2sZask7n3kp/Cf2xQpojYW/i3/g+P/3Rf3VbCnwaXP7rz//8+JswutbleSr5HmrDCZiQT+TBwYRJOR/6S7j6HJ3RG4EQkylZlz8o9fWf5fisfNYe83iWQCSeDS5p06Y3cfvbuPoIOhdFtmEQVRMbELXIxFbw74hmQe8S43ccYCF8ui1/uiXvxOR3MQqjQ2GHqgAqKTPNnEhNkla+yC9U9eSdH5YuRnW+O5bArM01LjnC+Pp9/ekgJzZBg9b9bbi+H/WOklMdoHlhDKJrE5wvhI5A+x1oD5vu4XMDWtEnUquBa+M5L3QrJCC6Rc6GybVJ1gmyX+ShykKQPJxvDF0dQVdC2BbOAy+qixpoFF55uovmsJDeSFRuEYRvTdjgQ94ouNiodU9NuUwTvKAzk/LTgx5MbVK6HrDGlqzpMcupbI4B6i0vAIx+eBV5+ZDe+o+vjpf1RiKDPbFw6PbqPNQ1z9654eqR0n5IJUsdQtlmITq7cS0yvzrHco9W5LvjMUdP2cUeFmj+rEQIF67GdLiY7dEIdZklPkghKGpiKFnFoZ/oBdFAAWUVprByJij0TojNPeD3aO5H9iC62A11BOe7ATso3NA3WwYIfcfWg850guxIoRvWBgzBdHymD6rgKZsjqWZ5TJQTIhKWMHEMMIdpQ6qunJp1rTDeM4wyrJB+D5H6O8xtyox6anp7YxBep0Y9pXvtTBsU72rNNaViJkacAR5YwptZzeVxxFdhvppw5i+FQxTmph5SU5RSYJasbkIngjh0XzzRRu1uEB68O0mGIgJ90TsGJWfOKCnxU/sA2OWZMIqyX+fnSXEiDnMhkdDaQlDDWh9CzeM8te6pCX86DElUljCyjIDQyZkIZEodaEV0yaHQ2RJAdzvw2Z/QUL+kNmKVEoZSmrtUcfo227XY1urC1uvFrSlqwc1tUZO8vJVLVmpSS6WeK2jVXxl5FB2bvzv7aHp2/t7so7t3povNKJOpN7EkXDHHrg/fl+/NfXwy/3F2ag2kmxIbuVVIbGT6pMDE+Rx7Xu/k1vOH4AZZuL+WWPg4MRM5Qs01MBYhj1XVIGRZ9b74x+fLkFNIF6TXK3Jg2EFv5mRwzw45WBqrfokZ4BvLLIC+KTsHainnVSqUVC6e2MWshtLOOF3M5LUVeXlRXl6Ry72iGu4HQeUSc/x5Oa1Cjlk/u5qqXdwGJd8Kl5Bp55RezaxbvSi6pN45yJ7+wOLsT1bloiYsUrrqIaJPUPvFTK9G56kOPQBlzq0X8s6mHJ+frugR8/tITj/JHSBSWCwMSxWjXXfX5Y1N+dM2gPXa2xuBZ3nNm5rmt6VX3nn/yiL+/4bRofXIe8jUu8EoQMQxpQktXP7EvCrR+zc6p7zeicvtwzdWmQdzbfGjN6S1dKKzQXKqE2ebsM6oKamWDEapzictrMTW1iOrq4PhWQtdZA6w/tQqCN/j037pf69fMpi1qkOUAXEHPLwrlucdF21hTbGLSFCvSY74yYFGOvHEYh8veQUduFx1Vyf0xh5qUkF4xzcMKFbShkSP0jub6YQ38Ry12akxTn/sVj47oM3qEHkvp/Hw7eP6+KzucJDL8PBpbp7zCLxXpMgrenm1G+d2cBltoMsNyoyeVLtNRQ8YmCnM8yshYHlnO6GRHLUKj7YBLeUbwB9KwMZH5/tRrhnqzeHuNzFZuR9R+nHI9E6nXO84SitBuVWckkZ6uIqk/xOVmEHWKH4/lqYwR8YQcSEKsWy4A8Uos5jPLdYCCoz3q6tJcgx0DAWnMDFRIolO+VEgjGq8KD1Z6g5BP5h+ZnzQx1v70GAUVbVRo5UpHNvZJK+nf3mKO2l0fWrkNE5S5CEHW3GBk6jtrF67gVDbnIKgMYQujrCEJOWCNOEcP6+hhKIJ4KYljMq7lWRbqPIUWykxJC2jJDQOyoFpDewjNyZOZB9Fp/tRWiMqDpLemHDvAWVViHchzomco+hEB0pTctehKBvW4EI/r/eTbBecBcR/mXqIohvPwiB8eXfe6aBw70XX5rPKmiTPZZEZlvxvCKCWCNlcv3xvufT6Hf2HFybPAJBKVT3ok9rHoVMTXfIPOsmeW/LjqSYw1en7lIzTJ2Wd9HVRK9lIudte/z643wTqqxRevaOkmBLtanSAGvL1KOsYKrSToiaSWJ+W3Fi5gCqQoCZqyhWgRo5TNmLzo83fliq8AnRytrPOVCbwj6UZsaHtq7YFhS6I7UAQiZ64lc2sBlLoFH9ZV/xs8/FFRzb0/mTl+U1QoU+cYmajEF58vHc7BU1ISVdKY5covQnUQzIaeK6Rg+7QTRDswk1M3dkJ9VqQP2AFtyznpIN5zk7nNc+aMCtdnaG7PQeS+6DozDm5NEUev5VgD0SioPbUxTqOOCE+wWLxfAYFB3qo8CkhUDsPWTGZHl700NuJz3TDJM2kk5fyHi9HOVCGn8sIcHwHnxXgc/28LihIQb6wgxzo5sQBLitENCGSPUx0I1gaRfpJ4cSU9uR9wZjgbcuc7RmyrWvPv9Lbt/VX3nXd/c+A8e/BaHjl9u7rnT/gdX1UCj+8vVsC+DmllTI4O59jp/c0PtIJ6zOdMGoXyaj7WqRdkYZiiFkRlJRi5BIPoMPLp3KWBlXVJZP1ElPy8pT8JOUWKKwn6T+hU92a3inBGkY6JzH4+SuTeYGYxjfBX53VXJurHJzSe+PClXHSHBFOduMSD7GF+cGYGIppTCFew8Ro050cXdkojHJJXQNO7eczKXpSO4VyUhcpCfDL64oDBXhceV+eOgA/EiWqwFjd8Bd0tn1EdFM04bZ+l+1jZel04W2F2Kvo5Mv9XMsAova+cuQvF3U7m4O+MDobQNYgtUwhjpxBbaIqyvKwshflYenRZjZp6F0IyGWkxBCETUOxRxvrsvgD0lThnBIMAotRG+thp0SlEPkBLy3KH57Jugqk+QmLJTDVr0/dyDTy4LKsZiBYR0QTK23cTqaUX5nQk902R/WQLn66k8Rnkw3donMXcuswbxeoMa6qI9l1nMFFPCP81XHx5oyUujjgcdt4VukcBufMxQhEUSQ3xT6c6eLe7/nNX7+QHEGwf1UNX3LOTwSB/c3OJYs42uckkmo1zDUCFp8MoiIfQMmTldrP2xBavbaQp65Dvkl0iiJsMliM6ZxMJAv45qnpnd6IFDEnVmEJ1fT0dynpSEpcXxuBF6H7eSrwuu7KiIDoUYkfCObmsm56FjywE3Ogq2KLQB+9tHqASEq3y727c2f65ZLW6oOaNLpO5zvBG0BPkL44G/4K2uKz5GQ31JtyRlTTidrHwVWa1cArDsOpBLh36+mABmgmyLpjsXSlRlLYBod6ro1cnYPkE0sHrEyYBYiUfAB6zAU+2JfRwzf3wTGXeJgidbI1AGs64gQybmiDn4zOlGwzIk6MnRCIp7CV0QZgJwZ0vctJlbbnTx3yH7F8O2IZS4TilKEj78ro5cBwl2fA1jlxuZiyEJApUNYwQEneJRztkJrDF1xhEMFrn3AYOgQO9kKASLYKGa2C2CpaIpenE1tT95em798eijsMPl4NQClQgqKiM6KNmvaa9qnYh9/khYfT9xYeXZ8aPN2pyaYfsY72AKMeQefVDs3Nf2YJ/9A8+emt0z1E9BO1n6OTVAxQ9CTlA1Jib+Oi3+WWUc2RKJJG0AH6N8oZRsWLsw7568fC72Utm6LjbaXnXf9/JvnxdzuDrnedXdWdWeROPxANs8Lh+4IUh6bKJaPCqahUH6ms6pPKuyWpQ6QwRC9Hppc/FRZrQuhwB4CF2ize+6s2UdP3H4kV4BxMaxCy7ZoqiqTvvh7xKlnxusMKaW3BymIndyWmq+lBdLV0jkHVc3mQFHfw+R6uPCjaI3pTSGsMUR4qGAeIa0QcjAneYQpb0E2X/pY8kzBIdwMUUgpDeSh9Jw2avXCQA+wRMtqgmfCZHgVKkk5eS0gLOjRtJF1ZORkzpati4i1c7fZhUf7j1+ZRLe8E46KmH1xspzqg2WSOGWBrIW6ZnaylL1oiGrUZZZmpvQyut0I35R04xwiQNx3XXu2GH+WIG+N6ykw5TJkC6Mvh9HouEJev9NxIzMvh6Ly3s78zePniQHUGJAMK6WYQRkurID/Pye0dXVeDkaH+hUAgdn14aej+EgR/GIs8+qcG0gAAIABJREFU2C0d8fPNISEQ0t59SOfk1tabLonOKCtlQAQUP7uRbxR8HZQ6zT6MNPs012KVdDoZPNBY9CDl5sMaRwhiJpguAHVoYsHC6tkWNjcvZ1cwNq30u0/ZznTCO0ard36LPUlceP/iQrnSUDNpCUL9ki0KXoK7idJPr24tLEeWVy/ooGklSAfleCB6bhkAJyM1e+89nYac5T9ufHjbX2CGCijJC9rPdsrxPSCMRDnOteWFT59//bQz+PrTjcI2updUVqaSVdpK+AaysbNbfLx0ZRhOJKmwp3R5auDUzi/w93qpzN4NVJRa02f6wYyw9qPmENc5BlD7+ZWi6vDx+ig5OwBapbZR+Hs2QtFfGLzDUHhSFx4H8LIFAWHrI+hED7VFwBqo6UZDU8yqiGnCE2A6DE0C7aDs2xhG54ZZ3H8ADc6BY/TaqBBi98+1SXy6Bx3243Q7JCRRy4BrFM5FAQ5OulGVH7ZzpockpUxY4yZ67pxHtMYBqQ87kcEHuOwd16uT8iI8w0EhvVV0zcOKaLCjqgCMOduH+Eb+SEC/25fw3syjocit5QdMMe/hNNy9UC8vGPocz1PFTlOTt4aGb4HM3Rt5dTFW7MFK85KqAQskwzNt0GvRSGcoAg7WV/LG0pLeA02ZqDloGrn1QanW+UMejMauRm5DC+jPdFVbqAhq1C4uxyM2j8cUR+en3+ShkVhvOJJEjBcfyzupUc/v79QtpbKDXr+QR2fmr91ZS9q4n7bORlFxmDscklZ3y4JkCF/vKW7emNqpvPr7hT2NGf+3x9/MG30TO7Wuq1gTDCtIeoikeZR/Bx2Y4KQxUjLCGYaRfgBLQeEAPVu/QDldjp+AVyiE9H5EbQqNXaA/xufFx2vhSwl/2V2fdtojLPebni9O5zeCXDxv57OdnOQECZnDblLl5U+7xaNWodypOeXJ05lJbh29gyXfuOYIdJvgLZ2gZUktu/1uIrqEEwHtxvYj+yiRXDjTjDMbsGin0wYiEuV+NBQTz4QESvI5j6IoQxRFGc6jNB4Q0loFEJjxCexNga545eyOhDjGZ3CStIxLlKKqAwIdQ5+g2eUSDnuVMRvv34E15Ahpq/zEE9WU+zFvRuVh6fr6xtkBmCo7b25trcC97hrR8kyIjFrQPJ1LfnpSyNkHUPvLnOnmBGutvFRGGTSkcBshuxss02qc0SDYo7HO0O32nlvezsh5vyXTBPFxXAc92jAUHfLkR9wyHJma25iIbV0N3TrlLU07htRWkuOiV5VrifA2JuJHd3GlR1vDLNOhuUqRHmoPahmG0lWIPDTxBR4wHdq7JYcfIGBtvfRKCJ0KQOiZaaMB08l1w5jVZyw/94/p6/OWHMgBwmfCSi0QORfJC0yybl3vkvog1xcug63t4nUBYgmj+iDKdeIiN8zYz6+SxXnxZctBD7XleWMfyqBUkSU57veIe2/FawmHyoQw0/GktLc5Cj7Zcu9eQ1sOzVlUilyeUiME3dmgUdreMeG5Su6LkJ2S8slnNAlLm/LnJLFdMzSAU9vUjQ9YMV38RCPK/rNRL7t6kM4K5ny2HdyO+W6uxMMdbPxqzNAEDwmwRiS6klX5UhMytO4d87jOA5RW8mDJQ3KcYNpTE43U4bubSehfe/UouxpCYQUe2MiRIDhASAOXZRZCDyMbnz6+/vwx+qA224hUChNvwCnJKD7Dync+uPT6D/n577+2x/NABYKa4U0Cy59XOh3xlMq0TDkW1m/cXfXSu2U/nUSNomMiiUF2v2gf0LaEKycSjFv8JgfCZVkNONupaY4sKXmNnh7RG60OjFgCY/1AgNblzohDtJJsT97gQjL30TdQ6aFjxmztIzfAln0jtwSlTDvJ9Ui9zB+581buHKkMTNb2Tl7uHWdG8Du5pT9PdJIct/4aG7Ox/nFowjI0cyE8C0mmySMc0OR4RSlg+qCQ/G15auFyfDEyu5wUe6a7axlDB+mlC5m+XPh/USG596ky9PnyXyW+/8Xj78Go803k9Cvx6DpX8gwVLaOCBNLPouZ5mGavv9YYvTp7I6dNyA3w58Ygsa6iA6pNMq14aKFLXonsjJW+DmlfBoWXQc1ySNcyoOeqoXlRcavgGhZqOiDkXeyEKLbRz5/2kHI3pkuoL6ql16jci30TmnIf9sbyjEFMidWVUa3BTgbjluaQNteM0k1YdHLZTjG7MS+zUcM7+QOtpGWYbx9DhT5qyEBvrLRWPp2CJr2xPACImRQxRy1HR8oy24CoUmBlq7dQF9Z/dfpjunSWKqxiBgjXJmQHdYW+rwy3u7NSfSeLvYIzjsdQIiJmmvnld2sQs/xj7cPnabo457dpoV1wA9SK8E6uwEOMHeLrN5Rtbb3/tLH8W+yoC53wgAOxuA0jI0qKWlJmaiKqOl5l5HAdYWUzwoc9ez8T1qVZCWmABrzqBjHXraV/y72ps/gdgH4iYcv9CZ/wCNZgnrVTtASQtQNRUnbYDd3tIRHNBN4VlZGIZlLSRM514MExci6INI2pjsSNCt+E+hy6DOTUYfE4+PicPcg7grJdoLhMwYIOTqP25k8w5zOqEf8TpPKkVwGFdNHFtQNlN7FQvpV1T6tDfB30Ri00opYgrCvZTsSqcXZ7YQqoBB1x8r3hygMVEMIijXxOh44ufnAZGzC1tV1h3BzABVXQHDDjOCJm9sWmVOc7aD8HBTlp9fhoKxkakYpMsLqnKpFSvecaSFpjMki1v0nMqCaU76ebIBSWaweMo/cYJZXUKKYsvrwRRA71RpRfhbKMLPPJCB30Mk3gBK/pw77R0vJWTmclohFzx5HBj84Po2IvRJnoJcowQ/bCfkqrG/DBBkwpdhb7opqF73VtAJQlfsoDcJadM7g15W6h2MVBFJ4pnGIjltqgVMEWEXLMIPRzJlht7zOV+7SURqSDygkzMkDmGdSXOTt0VTozYKnrqT4Z1OdAzIfsqrKqoAoApKpOdOjPDpS5hmtrenT73Vyuh7fHkt68hblYS7feEdIHxgah09Fb2Rmq1TiFLKemZmBQAbKpmUEn/XrYdnNuTYFRS0BLr3NGo6YmNK/IoGwuTQ+GLUPRG1NMwOnDslwT0GS4uAyXtqL/lpIc+eHZ1vVRR3TyBkTqWTn8aT9WQz5TXv3AgtI6k3Lb6bnIVOLWB2an7qx/pFeY93Nih64u+sUiX316e3M96T/cWX90egAVR5A+UmqP/TtRpMHRd5W9ny/H/83Hf3r8PRhteRupeZV3Yp3Xr5KDK6hkEYXWbclzfisPxm8NTi70jift9qH5+Ry/oPYhqRMC8ae68ZWRPfJLiiwVWwR+mek3mKFnBr2BMOvbo/yu6Va+0Kw/kC/tzxelAjE3m8/V4P0aPuc7LGVrD2Tz+7OJTiPoNBqdJi/zOz4nV1eQr9Pl6/K1eZJWknLFgnwhJ58crhMP1LHknmMsd6chacjQp7oN7HdKP5kXnAd9JtbeltFSFnQyU2NNOzVXW+7ncrx8OjBQjlDD3ymABwA6OvBiI38yqLker/X1geoK10gyWPVIGmjrwpisNkFqFa5Ga+9OOer9mtxWLtMF9SdwfzuTjXBJPRar0eCoIz4TOe3RFLlgAlPQOUx5WRjr21BaFawQajM51aFrjpiKnWKWmc8w8tnH0M05y8KiBZo4mSG2rvqBWnZlxkDlaa+uyIzPB6j5CWTw05tLW+sROuelRv6eIu7wSv689nEpMXiATulGnm8SFOF0ilBpZnLEr+8ciczO3goPXzrRCqFSLimBnOxxz5t5g1u6PrPWHnI8X1zojepZ43I6GwX2F2orMhtFe+TybEIODccCocuj8QstIUIRExSLzRwT6OREp9B+Z3r6wcfpmcfL849eLkKrDNVuBSe1tRuFXJ8E9dGr8ur8xvPE2vOltQq/SNc/bCW72UJFPu3qCkgrTc0sTd15/PLp1hGvAImZDUTx/FJkLwnoJiDJfGN68vG9GTpGNtDflJI+s1K1CcdjCEh01q0tQ9LP52fyRmKpyieqmG4/+Jd/wriCVHTYfr4vhyLT4eHptYS8mpg/5dUmb7Cf4C8x8paBS8sJ+W58bXpiY/W+vJZ4fLFHUlegE37sHeGPeDBfTUmuKTq6NB3bujv18ZfZjecP543dGlLHcuCgxg+VtHHRmRsTY0uJGQgS3Jt8TIHpYo+ewACOGisqEzb4haUEaO4oibFbi0yOJ5wHPeKTMCpktebdXJQT9+WNB/LaPIykj9AdS7oilgoXh9rLuvgDeWnmYyIuT0VhU/Thi0BdPN8gnB+dprTx/TJrM/eGIo0lvxErgSOuiaQ18cQqnuyJvFwF7/zWU7CR20csBxoQ38p6iMIwQW3Os4QfUbt+YxmE7O4l1s74tZSHQriJZRlyLijzr+ruX3pG4U9eeyY/WZLP+DQays2ZMDMH2qO82qWtCd/65QX0Z1x9IS8srZX7+Uwfzuwk6iCf2c1rengpWHZm+Mb1hDy1KM+ubl1/2HV6GBWMoJxxlDuB8ieQNCkYJiub56ep8fH8N3ljW15+e6N3Xbiyned6V3tl59L1/waMurYjNW/05Zs6w7qm5AXRr6De9Qjk6L2Tl1bWriUigfv93ljkNQPH6w8ei15e5SPEz6l9XGEH1xxRrD/57px8bXxtdGQtwTon08fqb7LqOAjNJe9mxlAK/DqpmiKjVsrXFhXoDuRr87Xa3GwNfaGDp6TT5hXm6qR8ScrP02m1B/OlYnitKcoV6+sq634qMxTT72qkEg33A4tTK8mPToGjJjl4NkUCvJLP8vNqr6j25QE59TCRbYqwrYJz4ga9HVfn5CcP5OeJX5cezp8Nl6qdhDIgVZNIyazo4m1hy93Zxz+PLYXD89HIwsZT2RSSMlwkzQVRJigxbhBeKk6ZF/KT+18uZqFLOED5rFvIhQwP3jVgWZ5bW76/9mTm1yczS6w/lyWjnqInKOofBZkoPDRqGQx1RcO3wz1d4f6uu1Oxc35JV4VOWrHJjuTtG1OztRc9wvLcjefzC7Nj053+y73dXQv3bxf9iJxBsbwavX9zY3kFnF/L0HUV5hK0BmHZcwfMwB+hpNVKeBPxjcXikx/jo49nx39dmICR7eELakqx6zHTAaEYyl2J9M9ObW0koELm3ihT85wb1EDVAEOBOqw6jqML8t3JreUZuIzPH7Ddbcvl/jx1E4uMm0mOWfty/YsI9w5r/ED/m+9kIRTwC1PSraOzhR7z1kPW9eAZq5b5LOcwZASGbuZ5k7D1JlXqtp7qgPBK1lBybeQUfRC1WTP1QP7lPlT+gGtvTk7c2Xj/7HFOPV1+eFwNu6Mr0+wyO57tpOYOPN7J+WYOV7FQ3nG6HSE6tRUfXnqfSFqp0VDXk6WlzJ9S6RAViKviphfk10tf1MEnQl10szlVSMW6Whk8iC4896YewUltgmqMvCz/Ev91eW5JrICcXPQTXVwFY3j+XmJPQ9ZtuAhPlm6pq6B7Df6JqKrI/kb9MoPOvXqvm5tyrhEUAFR1IBZhGZH/9fHk6QJd0rBSQVeHijz6jV1pYHaFwXH58EaWGZRhWfV9cuVTig8xc6omdbIhbAtFgGoXn97IZ9g5vomjr8+Mm9ROnKakxCjPJqJuImIjR1duSpkBPd3KUxG3p2yGZHiImrVxLvRrz89a1B5EGcyBAakkolN7KZ4QNUVMLzkQwLoAzg+QnAARO4gYJGIPx/dx/AASQ/SJxQgRwwieI0gcQ9kxpJlE4iTOvoNy76MDc6jwASp5iAyLqHwFnVwT6zb5c6/E89uS/V2Z59Ol8H8GjH+ziml7sOZtZflveUfWBekZKlhGhgd872LXv47snLmh8fJcgHBBTLoJCXIkyGe7a//dlp+sP7IOQNGLMQgJQHS5rmER1Yk7cmGBTvqhVFcoMTwVCvI1xcX6ou+1Rw7pjhyS9D/oDxbr9PTFIamkWCflagtyNeU/6kN9XaH+wSM/6ou/158zQ8pxe9hGjUFOqV5vYGXXrVwa1PDCcpoGflIB2mQrSfhOLsvJLyzKTxbk1QV5agruY7oIzz64UdOjvb4Sqx+tpngqNuCbD9bonFydl+N3Nj68kH+emvdNXIAAAuSjUGOTV/0IDsSXK5DpSW/0pftwvsvrsmTVasz8AavG4NEXmpI5CS8fDL5PxF6mCteKqP3+I1TR0L/c90hR8v/wMPJ8zvF5BTJX6OTJL0H2oGT16yxtWsNPSQfi1aDe6Slr70jaLDn5qKJVqHJx5U7uQDFK1uaufJwKe39JedENRpL2Y1JuCuej2ftJCd7rfZfuDictDPUxlo1fgOjsJYeSTr1f4pFfJvs/pWrvSpr0qpJURUAxUvTKXieml2duvU5lROdWYbGBoxyHDij3J9+kcLwxd+v1w+R/s44zJVZI58L8sbzdW2VzPra7L80xnNxXCUr7gXxQIG8HdrebNJJrFNGPSTVCroRAXzlKOqKVz4dt0z218vrWk8SguhjtdnJVV39RI3z94LYi/be8IvO73VhzkaoA94Zvyytb8YB2Z+bSxuQF+enjlw9iai0bo4X6LlU+uh7bovi7OWF5He/6zK7DvdlLnCKVwAp8Mwow5J8v3tiM27ZmL23OREDQb66fK0iNyUeqQwTE5V5Ag5y1mVubUzF6/PEpR8ahlNp3AeKO5a0p3r3PrK0OeyzRY/7hiwajeDx1Xqu3dh7c+pwAZ6LTK0JrW+V3/x5xP5K7iS155Yb8oEtemP/MrnN0RJdRjVLqKinBf+ZrVtpBgzqJkxlzLkHvz5t4sLaQ2PglsfVy8WNzUMqhFpuLsFb14EbLcmvrQ7bE4se1JfnlEsR/WsKmA25I0CYeTgnEi17N+fFBEFreTibe946XFnhwJsToIa0w20sMAe3018nxSyu2w/0ga09Bkx/G6cOEH8H8GMqkz1H6gqgniBgnmvtYfR9p5tCBeZS/gKRFVLSEip+SklV8ZA1XrGtPv9Ke2Zas70pbPtn+KzDasj146o2u/DeNYZ3Tr6KiFaRLoIJ5dHgGHZng9RGhOKIpCml1YVEdQtwAUoXoE6tCPBogqn5O7NEU9lUWB22F/tqj/bVH+ywlnZZsj5gbEHI6qKWM6XWE2KKZg+xFEynwaIxe25GSsqMlZRazw2K2tXhvGEqkOmOtyayvqdC0+7sqjkv21ktnzab6KsnhcZT8oHX6vWetlS3uyyZTraFQKinQ2ZymX5ZlmADFjI2awainRgTvJIU+/mSP4BnX98bKOkfFwDgOjOHeCeH6HennqUuKznw+ZUxujc4MPtB44lGmCcL9lCil2fncJlHRgpUacE4rr6kTNv6QZ5+uZUAxEtQjqeo57hiZePARqNbi4M79yzKDv2vRLi4f4e+h1j7jEMksuJG8xJvy5uSlD6msX3V2Si1JA01ElCZXH+Yuvb5z4wMTrbg5L3PZqYLO7xD3z9RC9fTXm4HKnRQkkX+was5/sO18h35h9HN19MaUv3YrJbqYW4hRdqr6U0DTbPs7idjPQf0nxaP/Rk7LTlWOalDad0mX68bspYke/a5sgio7uRdlZK8Syl55dDds2U3AEIvx7nmJJansjXV5qq/yc8rJLlVg+MlEpc5Vc01ZWv6Qn4w4dsWl9h/CXzpWfYeiyphl+clo1y4v4xVcSxW8uoL0J5iWE5emB/QK5UxMDRIGfPD8Dqm0JJ6AnO3XD6ejnfpd6Oe1yVYu8OSQrz/2y3jXh7kLL2O1n0DtRr4btamUi5zBRnLI0nbh3sSg/ODybKhUkYOgUEs0qa4w/wNjzvfbntwflFf6d+a6oODyd3l6pD/5YwnJPbr6YxuztzenvNc79JtKA854V0Y+K89N9elyBgfvxS59mOuKhy4o/dl/eSjz/0z9FuwGgNh3wLQZ976MJ3PdQtFSZWFI3kJa5AnfvjvKTMzdcPlwGYQujEp1gOJETgXlWDsTVROf3iRKHv2TF8lrNRi61NJhi04w82JR9obyyv10vRRdw4NrK0mOH4oMenps8TvJvseOYV2GE6s9Qk34SyvWwfCl9j7vxAz7zzt5Y+WyM4Ts4bzrc493U8sn7s+PziztNtO8+bBMF8KaYT5znGSNo5xJlDOF9s9CMLxgBulmkW4OFTxAUoIFyR+iwiVUsoL0T9HRNVS+zpdvCqdeaU3b+nO/W1x/eP/DrnZ/k43+Hqt5k1f+Kq94XZSeYmkJ5TwAXM+eQ5r7SLyD1JMoI4a4OCLjOG2EkGGiihAV/RsmJERUIY4McFwfSusjqgGCu7Gqm6g6OFUPp+rnUYBHFEbdyioHAYEMu1hQoSsqlAyHysp/rK04VnvSWFZcIhmO6y96Lthdlhqj3nBId8pYS0Gz0x85Z7+gL9Af/l46/ZOpqrr68I/6g9/riwrKTh4v23omu7otdHHONqJTHbh9AuTWbWFo9rvfA0V+mU6soYuhGaXZMefEnJXkmvklFlj0RkxVHnFoCrzs8bmYaGcCo3ac4RR4s0Ah8vVTuXfEawlIneHB18vyaY8ENZoshUtlJPnmpPTU2rzc6fySpJam9PtUAO5/0M/j7N1t2VYCCZIbD+Rm5+XkvOWSfZVvsm7P9Eb0Mn5NWfBFj0mZsfD8BvRKmj3Ju/BKFWTkvH9LIfuRMmOTTwFd9D9SElPOFgBDef+KmuTzmf9M7Yv9rfcMKj1CLv4ITPDzJ7k3eCO5r2+Sm2r2De4wlcZzxxlb/EMOBG3K6aBvk9upc3t/ZvFOWwUcz847uTPg2AUR5VneMK30ejFVCEqb8niUwdY/vow55ey6OQIeXmeDpMgwLk1upGlS0Ma2dqLRcm0SEM1hLlMuwnTktkrBrG+SR26wWhbuQH6uz5lkuNF+RxIcv00Oq3Be2mArUMApKULrodBl+PQfbIAKIYwKK0oHuwGMvK15zxl89PZcTmIfBwPoSOm41BkAW812nPvEQgjRkO3LvjCMLDZXXhuBTFiXSbvDlhmXvzoJjhzbF4cK6sqGwjDmbDW/w5Yru1dSfZ+CbBU8pQopOgZLUGfApoy54q0EcNy9hQSUWy9FR6Fu+2x98vqcqBaSAKoM+wfKqtBdj8OyGe5M3qsnnZCepVSFgGvYxPQhrXv7TRFVg2DovqzkNpz38Rf7pJawxRvuTywBkj5PRKKjaGhE+3wx6Z1w9SFHROOMVgbGu0BY+pOcSHTlOFGWJ68l1RjIN6ALjFVejdWGpiKft5mHYXttKo6vxcp2M5MmZh3XH3qX19Z2UsbHk2c2fZS5PqeQdAedSoieZ6XhTVPvWmlovez6b7ZZ+daUPOhY11Q9RSXseXQVHX1BMZSjGHryVZ5xWzJu68/+Xub548J/hY163902bddWvZIOv+CLnyKA0QTKTiDNAhLn4ameQ+IcopxZPYvVU1gdJ+oYp5ngNaOEjxBuhKPYSoGVDHNpwzxlqXxYyAjzhHJVCqwUUoN0leeQh0duUNbiXLy+USoqoca7vqrCUvGTvt6sM3yvMRzKszotNqvpnN1m+KH06PHqE4f0R49Jh4/ppIK88pIym/3SuQZH+fFKatEXF5YaCiSbucxQgXNKkPoQC7Z6EAdlFVB9AdUv4Cfleb9GRXfN1LogIdnOTz2Ftub37jxWmsr+8mDjdJAJQygyo2Ze3aTz3VlaeiArdv2TOfnJwsciOw+17UZBVUFUP5L8qltx5qqfGJVddph4d0eXDD/lJW9xDigAZSj6EiCSWy9kyzEwzLcWZSkfw4Bv2TxhMyEnGz76ZVGuL4RM9ffLcm52aiIpEPAttA6V2S13+p8sg2JFVu/OSQZtaSLSaAgIjL+RT3wH2T8ULgvpvjJS85Zth3yHFJ1DSz5sZ3NNPnIIF9DD5pLzn25TRUnrA2hfeLK4dGcHOmyL/0xNyG+T6Kb6H3TeD1Sh7lDpp22wjnM1TBVFQOoSUcEL7jt0znOZjjlVIFLYWnsr535PVLusjSE73ddpK0DS6UN5U8yfbjHrDhwS0S6SCihDg6/0AdSeLJZWV+SFp7KYvacnoID473ndIaneDD76wxryck2enpez6YmkmgbC6QtwzKcbbJ925JpD2vAEtIOnY2z+iCoreYk4SqLzhTNm4NdnS6ShMACBoVDACg/9NvWLcGh/vpaOOfE9Hx6WRx/Iqm/QV9eZQ+kUx7IJ1ET+k7SH6Tot8/SiMXxUsbOmY+hfOuzlslys5Zv9MIb7nz34yCUvkSaXm3rwqOrHvHOtWzfvy2kcbAe6ySov/kENCJTzT3xz/LY+W3QFZU9HJPMf7NzZdjDbKfcPQt90eW8d4ERPSG4O3uZzEclPCtOkH+LL/bX5bhFMxobdTFuIFmY26WeZE+D1iy2HX3IEa0Mj05R4fn4m946WUTZa7MMVgeqNVKrm6OSlq6B+v6GU4bSEpMxWDhTw2kyvU5bNaMw2cSeitFT6vC57R/RHvKjEy53pu7SW2g69M7808KSsdhLpY+jwLDq3Uhta/6oz297HE9myIztC73SWTVy+jk6s4xO/iUd/yzv5Vn9qu6x+u/T8Tq3rjwtD8n/U1O5vstF3t+q29eWvJGrUH36KDq+AZyFnAWUvEHEBixRMEwCshiV0cV3qfWsZ3Kz1rpS6Fqudi5bOtUvt612GBzpxAqfT5yhJi3KqCObCWEXN/wGMKJL2cGkdvMpLkIdQWprj1x5uyDv8Q15JSWmL93aLp/9kVamhWKqoMpUc0h39QSrJz9Pna05VlxrN1U5vP/1rKMw7XW+ScjUFBVLB93pdgV7K1xu+rywswKBaxNxJOWYUGCPeMXG/h2Ar5r3gCYX0YzfT33aymrNWHmJEDdDMyx72to/FTndU8/WQPpJsAwnawDwyC9gkZJqEqyORjZUNk1+vruPpXjRmUV9VmpGB6bRRYUQwB6xChVWqpLodnUWqb5OSd/RNOkbpnMw+wckx+9iAfanXMADjJBlKDdqX+mh3y8mN/HkY3UXOP8RsgVd2hxBRYQyk3sMZAAAgAElEQVT7VQbg5BOr6AdIpXAuFQebosPgL+I5gai+bJq+qzxTg2GcclJwlPuS50LfTuN4nuN4jnAcSeNIBsfRYapvONgoMGg6hpBvORX95xuiUgkqFa/6lkvj4HKp2CHSDdLtZKgENcerMwifwXPfCORbGEa+Jards/3TC/g6Ugta1TdYuZIcJtw39LuwL7q35JPu9JvUeDgArGwBs6/TU+a+wbvXHY6EnSBOnZ0K86p9PIGzgKNMHsDuT8N+3/T/IervNCoVUbHLvnu1ld9FlfoK3vM+2vuDwqZgBFYpe8DKDQNjk3qJ9Ks8Hab8HOy6fb2FP90byi3Hjjf1S6U+3YfS4OaAjaft41T7lMtCv0KUn3j/DyJfzzrBmPBX4qosFU9n1f88D40PNhIgce8L2fKt0DmKsPYQvEeb6ZYOukujc2BUrS2DUklLvz63CQR8071cOkgvE7GNLwlInolY/MHH6bmN2cSvzRF9gZ/TdPKaIM7qRqAZ2i0c7pFCc9P3VuSfF7eerMud98vO3EeGOXRiAV1cu/Rc/j8K4pdBfn5r4g+d5Q1/8jfh1Bvd6bdSzVvJtC1Zfy+1f671/vHf8Y22f7phfFd28o10Yl08skaOPEV6hqQFiyh/CUnLyPBUuC73v5ZjV59Vtyx+FVByPLQ0P7Q5HpqurFWXL5KsO0iMIz6G06j5P4q5YcKFeTHEF0Xx/hAPMOoh+7ulmk7vwWL90UOlF51dza4uuytyss5WXmdpbo2c+anM0dp15HvdmTpbiyfiaHXYnBcK8vkzpsqrwRs+f+xISVlBvrYwV2usL6v36MEBpMQ9TGCSS26Qehoc1Ro8XEYTqB4kVZ3cTLXezaV5oMaJ94PaNqQ3OVMi6rsSEoq73UxyGnl7d16VF/MmFsU+jlWHeHW2oFJ9UQVV7U4P5Z7ft+e+Vubb7tz7Gte+jGH/Ve2FSZUyu/DuqN1vAUzs27N3ClnfYtUezKQz5cu3kjCI+P8Rkh/vUzaSnI3wgn79W5TOYV7AdGs4hTLKOSowlIQDZeIBQOxLnu4+vC8FGfDFb4CIqXZPYfeC7Nt7PIDnf15IFFgUeVXKslbtHgNOLSffUPAlWAVoqICFmhModqtUe083uUEF9+Ere9AvdQbfqtjlTq46yR9Iub5EAbXkhdunnCyAzN7rmYLG5MmIop58i1PHCTDFgGnPdftyt+Cv7gTQ6f43D7xnWOoW2nMUaO81/t8feO/qs2/38mL2JPDE8JpwpLC6TG0WoCgOAhhQt6pMCgwNBXjcwKc18FlOfr+VHHaLOheoZWf7OBAN8XMFHWLFgN4QyKvoyzMOaE53E0MQ7/eTzAARAxyo1vvpXyx2korR0p/Xb0tt+HCPGFrpso1rLCPaDVmROZ4/N4GKwyi8lnSXxV+UGcapCY+lWehYfDTBJf4Cvf78iG5HtuT5l3LZxbfc6Vdc1au8qjfS6e1Sy7uy8zvVjk8Wn3zh2n8DRn2fbxm3K6ve6A3rxLCGKSE9uAw+Wgqg0go6vY5nZduGHGlfMv27LQQWB3tX+qPv5iuWpP33UeYURVKUPoFU45wqilVhhIIE+Xl4tpGC7jxrf3/xD3nF+boTxySX/9KRQ3klP5SVH6t2uPvDoQVLY21RsWSxWpyttvNOi6N10PC93uG5fNFV3eKurTNTEpon5etq7Dbv+DyEPhWdN4p9rUzAyYlz3aDJNjiBzg5AqnP9ADrdB6o8xjB70Q/6GvRZ04dP9oAKhsEPTYQOenBJGy7y4GIPPtuPzgSwaEw2OCONHLiQKJIWk6+wcu/duvv+f3KDfz12l3X+39NDgaJvgFn8H1/Yl5xCu/9V3sHKR8rk3OVHX5OXv3jsEubd0f96aN98+803IsWvdI6nrPMvt4H/jAEpcNk9HXgPK4CefGfv+rT74huk1uR9xdb3rk//+t+9X6fbU6W2tO/fnM2+P397D5oSdZaW/we/50NYvRgTpChFEE6eJePv5KuvIpTE2X/d7L8eZ2qI6isUTW4HKci47682kLRylGUgaXlglGTaFDbpQSqmgIoeHgY/Q251HijkKnlvRqxwUtzAKfULqkaSYYcUjoWF2pMutPlq8OZc7dQq5NjdW6w9E2SKWVFwSY3e0dn6IGy7sT2Y64Wcec7Pc6AqQimnaJkADCnvQMV94MKeXQRH7fJ65X4v0vWjk6PIlwDPzOkBJIVRObXiJ1H+DOQwSQl0Yon3QiWLvLV9498B0c1Xl0e3L2/J07Oy3rot1LwRz7zV1LzNq9/WUxi1/m5yfr4UkC+F5Y3/pKvd34PRq58j596VnnpbWvGb1rDG618Qip4HV1AhpaXPkPVN2XP5UXj90v++ketPl+ia4tu+JS2QnDmsjqP0ScRNkLQxBqP9mCKpYSyvPqjd2gYhrP1ZpCBXe7Ag73CB7mCuVPhPfVWFze7y2p2Os3aT4VDe6bqyEyW6knxN+aFafb7+ZH31iUO6sw2W8kNlRf+UJI224hAEN4ZGLAdYBrtSHpfhF1Rt4IFFbqxmSpGiHTTQeDPKckFzCCmA8kHdGamboKEFZ0YZDTjNBO0lCvy8xslBemB9skEbLM71PKqjGEoQtetLsHhc+4VfqP4dnvx/PVS7M0GVIiMqlCEIakFMsom9/oGv0G3PO7vosO//AmacnHJf/vtXj3379o74N4OUSa1S7Mp9+75RNg6HokLffLFV95Dr3SMEkz/JxBVGjP/ysDF7JL/1LyeCMTvtfXs/+8LWdx8pCrsP/3knOIVKZNdKUKWM/L2bYUdKqRyHmS2Pd7ey642BTaXwb/dN5kL5VwKd2vce5oj//NFXx7/3P3++DkmSq5yaKvX1NBX/ZbxywRWijcGMSMvABfX6DDOAJis+TtZipPpcQd+RDCuUNfv68cY6hMV2Xs0n1iA75fXvSSu7dxTmY2hSKHKSWXBt3ir2Y02PkMnS5sUeIadfLB8FlHy+Xjm1AjoA0XmIib1/W1vVh6xzaPBFaQtrMuiaQlXjKLSur0lAFL5gDhUnkP4hOrKs8fz2/8i73pC2sjb/5Nz2TG4zXK68L16JH8y21vRDiii8b3Qj1mEbOyIqVUQRCqEffJsiU7aNBW2NNIoBM47FRi+UKG0YtL6GKoOog1JDPmiQnYjQjbSrA3srZhGZSEF4W5C759wkmmid0dkuLDuHw+Uk99xzz/33O7/nz3nOwPqHwKv1gVfrg8n445Xc3g23d9PxcrdyUjbatrU1Ea5skyvf0l/f1tdGjfU7Rdbda817FsfeN33yYnJgnc8Do47dvzfsVFZsG65uClQ9usbSuUyr1F3A9BYaJPyTPPN0s+3XGxHfBJ7vzBSvoMwFao/iZoGdADUhpKMIDWEQMTxByImZTuqGlvE1fylHMORkGy4ZLuUYLv1Ttj5HV/BXQ8Mdy+0HtvK6EkJUzf9cZP7aYGmxmuqNWTmovJ7y0LL6a/kFRuqin6PL+kpHIxDH1mj8m+LpZseMkyWEFxwkc8wjlnEgkqmjaydHozXbWUQkFLJ9SIM3U7SNxRy6wx5I9LHckDBixjLBUyUCfMbXuiPqLUj9xD6VjlKeT5KI0ybVp1r+rb58opHT0Of4GfYRMIUnEuw4k1IttS9MQsUaw+4DPphK2BBCKWMDpI5YZOcZ/gg/Sz3rPiCpUgUFpYKicFRsaojlvtQxZw/6fPhO7KtljnDTGHjSLcLMJ641fkwMT39ruI2T74Re+rB4k9KRI31hvqDD1IGygZBNFceo+MT4cfCkYrpX5SeR6LUMQ15mxJxFmAdTayW3//Lvh6FR4m3HCmwT1+xTFHq7FD1b3MKAn3qPGG4hywjlmC2elLAGXYRI9kBaD2hFSHuMhMeYZrdw/rHOMnHtabjI4IJcr1Ds0feFbf/5YTC4UXndA5c8UDYuzEQcP0ZsjgU+dwwuzoM+AHrFmalgCa6GuIoVw+3Vko71ygHJ5qHZKpK8UdIbKXFsGawRXLMBpRvUycm8KZRuCmVb2VXbhoYdYyOFUatjzzYgBz4/jPbuDVreV1+PlpRFdGaJJdBJXa7C1IE0dxUK3+IqiW/eLOp4az2uhY6VNnHL3bJlubRIPaW4OYynMTOJCRtlxxDjVVxNPUjt4ZgegqTsuTu8UMpd/Eqf+xfDrX+11N0oKS7ILv7aSEiouc54pd5oqiwqu2Ex/UtJfcs3pTcqK5oart+qbrzjcHQEzDVG/ddC5lfazHodjc94i40/7wcEQHmmg4MOFnWz5/p5iqd0thXPOHiCqqgDE2CliwvS+CPUJRgeYHioRFeML32B8UNegVRFrqlBMZc6GkCEnKiG0zRkG+pKUBJJTIz4nwMTP1tCCVRHzLFYE6+5v0mk4xV2v3lW5XRxzFCp9sExZYiJc9WziAq2bEzVS2hr7JbG72WcnCJ0CNKOjkOHri6ujEYHAAqQgqdJ7VCxHp1TobjiA6nih36hUTTC8Z4fBr8UDUn8H4KhHBXqEac5q41fAsXCA+VPfNhIPfbwg0mC2vjzSz2M/dVHsw/iKNbrfaPcfsuqlAEsZl+KITdzFjCvLX10/9wNJYhfPAa28l0oJINOalKi6sXC+GpaFG95B+acbLqTS+vEaS460YjrwWlP2PQeXvudoMw7AuEJZNIwoGxGPyuIOI3kfo5TyukeJHghc5iI7dpJJe64uF6UNwZZoyCQrQ8uTlPPUJL189Qn1OCHXLJVwDRfmZ50JQTmZWWSUhiqwlAWhtI3ULoGZpLXoVjCJokvlnizhCsiVK6/GTVad422jw0OuY2w0ZMsDno6GHXtDd7avVYbNRAOTFD8qkRhNE/JhmW6JZBqCsP1dW3LpqVdsjaHrY5wmyvcNrDidr25f3u16EpIMCwJWYsc4aHCHKRNIs0EdY3ixtG5UcBDBEBZtYhYEbMixzzh2H425lsqdPK9E5an45YsJfYajSLcQC2AXCvPNCBMHmcdkGEwrYXDZVDh0rV6igyPOCq2x6hlB4ZOhXt2IFroJm0SmMbgRKgbMTRjdSevcfKabv5cN6vp4Vgnp6YrtWKNA6GHEIfRW8rijn9LzPWOOSTHlEQ3lICeykIgTCXL/UU4sB6gY3jcycgdg/gTVDpRU8ek04J7Uv1kmxgtq1T7kvInUeBIShKsVfFNgmKpYvKyigAZAVAiWVNFJYqpQBNoQv5TqZJhLFYnhdkxsbMc6spx1C8FyFQxS9rhUSYh06M4vVOhVKnhWD3mkR2HyDRSJe1gErb7mO4yGW3hsHEJKWa9T543WQmgSpyAUQaymM0PJUxkZExiNdqU24II/PPUySRm1jsLJvs36U2smq5pihBdVBklllCmCyzjB1j9ALMPOfUDVgmxTI3vaZ1cmpMVXDijBwk9nODi0gnf7McZ/ThLpNvzHqQVUXo/ZIlwYRAyPHQy0gUPyhpEOV4aG/T8CEXSnGFEyvoR0I/R+JzmMWj2gz0IV6epbtS1Klz3Q+EsuumH51JRkx+ehbBrAfqWyC7OHIKCZShYgSsrUEpQdQWuh6Fv09gbza5ao6haK+H6LW39tr4hari9e61lz9Iu3++VF9d/GxdPuzKoHLj7wVYXrSyN6EolVLxOxfm8VcgPK4amEFxcAr0yApQHoSoIZQtgDNCR4ZIf9HMox4+y/JA1TwFUmEXcJGioYhSx41SoZ0eBeuwPslgEjQdzHj5d5C6JqGIIlQ3CFQ9c7kFaJ6idSO3EXDcnuDkyrLEujnFyBBCVzGmcXHoPGfpQlhOR0Y9xUvQku9QuTuOik1NxJ6ZbJ7roRi1T2kIRyE/GhdluXDvGXRWp0dAoorvThgwHyurAN4d0ZhGpHyElvr0yg5gu3ovzHtG4c0x8KXCUdgvR6LNNMXKKmUr+fFnCMrv/ricjzv/ddOLOHae620+fVQmA0BmGCJjoiwOcTe5LqhLgoLVkqKTge4A0qv0j/8dKAIJNaubPKpSKyvvVVIkDjzDNTyWVKgWRD+oxccE/pXvoGOjc33+cEgBBApfJUJHwaVOzHNpXhiZEKCI7aFhewwrU7YmFqo62Cw85JXY9gUuWfBfYjjg70tixRgnjS0DTPFad0clrnXy5J7tiSJvpwoUi7l2srumHvsXqQpE1iFyrv+TepK7Lb2iZ114W4cog8qxfyx+Gi0NwYQjqR+DlPPd0EjzzqDeAa4ZhJGy8OQsFY9A0zw6EdLdG4UVA2+6D9kn4cZkWXi4J9/xgngabnxt5g5un4dWG9uYcNM7DizXD3WUwLUFxCK4TVF2GvmXcHgTfqvbpurZ1BXxv8MswnpJ03h1Dy46x6UOJbc/SIbd55NfvfhsXTw2j67aP97uiRe0S1yzBLYLiq1CzCqWKvT4/BDUrUB8EMUyvoWYC6iehfBJq/GD1Q+MckEsqVqYWGCahYh7IcNEwC3mjYJ6Fm/NwaxbsISO5TfWz7PMF3DwOtcMwuWos88D5J+hiP1WaXHDj68O4cRjITTR5IMcNd/2CbQRax+AeGaDckCdC3zz2zOpMbrg9yTWPgWOcrRtiL7pQ3ShuGaGR3MjWKIK+B7dPG+qHIa0HaXpwRid0kd72g+CC2iHSCOR1QlUPejqsbfFg7SMi5hNWixi6mjbKfEhXK6ntEai+tQmrW1htE9T1sIY7dElh5garvsGn/1XLnE0yTKhiplj22Pf91z6GE+w/ekDyh3o8nB0xURw50XEffAIgGDhzZN8fTgmgip0mFbhRTHubdCdQgroeusbjlQBEoj4T010yidYV0o8Rwoo2RnPoQn6fEgApT0hxpGWZff5Lb5fi7URda9lzrCD8iS+zV196pDgwKXHZ0xw05rwSdp4K70I3zRdEnrDO9G5UJSJxNrvBQ9dYnQsbrSL8h3StZZguDONd4LpmkXOae+4X7o3hRlJh7Rr55O9NQtcC1zIBG5KlzwczS0U/rVbbp5C4pLUvQO0UtEzjmdXK1imYWc9u8EPFHLxcNbqCYKOFbFcAxCXkCIFtAeYknvx8EeKer+KGRQIv4JWMhL1OSXrXG7i3Ai/eZk9t6/uW4a2EXrzlPFK2a6eo/cO19r0Gp2zrk93P5fX/+uww6pV/8cjW4E724gZalmBlgxfD4CN9CiFzEG6TXq7qLLMUN29Owd0pEIN8yzTqXeI9C+inN0ZfgH8R4msJPk6Dcxb6puA5KUyCy4+eLYBZieyfNcwZx5D3rfG6B8qG2ecr2VWDkCNCgRcKPNC1KDjn2fzvUKmHNI7J43kZLiknRFUEu19rn6VE0jbNt08IBd+hZ6HqlhFscCMiOBQOgm/FWCZSVts1BbfGQP8YDSxV2nw46wlkiCijHwikdo3SWOtd43CTYHcPl9PNdkyi9mHIc/GCgzN9x1W4uBw71tqxsRPfdrNZrcDSFfE44QFb+1gg2Jp2B+MmjsAo9fY/aqA/ib0+qc5JyBz+kuUE3QkqnqwPyXwwqT6K2ZqTq50C2P+/KwESHWFSmXKSBZyNtYniUvyplQCxiQpKUR0H9PjlJCp/DiUAdRJV/ZlOKIgJ+NS4xKtZgbBUOnPgDHUZzm/NvtCNhG4QurmMHjbrMV0hLvMx0rqBSOXafiKM01U6iJCuFXGOh356V4ag1AumEcgdA9MwVIxB+RhUTIBxAnInwUxIFclTUDAFxlkoHSfsiislnGYWyucpxyLbUj8q9fOWedw1B0/nYSCcXRUAgjmFQTAvQdkilIfArOTyJSgNQWkYylYoq6sNQ00Y6lZprn8DljVUtwb1a2Bdg8Y13Chh6ybfGBGaInzLtr59p6h591rzR4tdtjrlb0TZ7ZNf/2/AqNy7Z/XsFPVFtS4Jnm3rWiW+aR33vsF9QfAGYSQIjUGwhoCMG3Y/YddQMQvWIHc3CC1L2pZFvinEm+b5innUPAtkPLlHGOs41M2y5dP48jToZ+HiFOinoWASVUyypjG46gPLBNydhbpxyB+nj6HWB9YxaBiFq3QvrppERh8YxsE8zhWPoJwxdHkUmUfA5KXeZLkjSmwCH1wYg8vkyY0gIh2QvQYv5I1AxTB9ujle0A4jwYu0w2AYgkIvnPegtCHu/CAu9MCVfij2UJJLXpQMFwgdIDiVAPh2nOnAROpP7+DUygKi6XZIs4PGjmjw/Ac8m49TqegnP5TfQA31GYQ/5VZ5unToczp9QspHxcQpINrHO9UJTMsH6Q+gBFDaVKecK0ZRicCvUh8A2u9QAsQHnRgAqxSeqI79/bmVAKRvarXC6NVnCHSy+AxBUpbVYCLXa77ExfZKs0dvHNQaB4U8Ao5D5HMTzD7t1VHOPK4tnuCKJ3jTOHd1kjdPac3T2aWzhjJ/UWlAX7FQWe43VAS1FQvZFUFjfUhXF8K1IVS3zJFyQ6ikMVxEcsOKsTF87fZqQ9NK5d3Vausb412p6J5U1LxmaF/XdYUJkaxuXTPapOxmqdImWW1SZatksUuWZsnYvGG0b1XaN0vat6pbI9WOLYtrx+bYbnCRHKXlru1qcccysFPt+WB9tud4tmd7utf2Ym/gxd63I/L3Pnl8hnqSzizKr3+S6ZLMJzHT/w4Y/dkpt9n2LLf3LDd3qxveV1ZtG2u29HUR3T2Js4fh5jIV84vf8lfC/NUwtY6Zw8i0QqeNmsJQuEIz+XllmTUt48IQ9Uu4vETDPxeHqOaCjC0FQchfBFMQmRagcBGMtIxJzl9E+Qu8cYEvDHCFC4j8n7tAaxoDQp4fGf1g8uMCP1tACgGO1MxfIC2gwgXOuMAVBIT8gC4/oC0IsAUByA9weYpFj+Z5ktHleZw7B7mzcHka5U3zedNYT5UPuGBayPXxBp9gGBP0o1zWEJs5yGd62EwPr/VoBSK5eNg0kUv3cGluNsPNC4+1aU90ZJvl0mrLdIeFx8NvLOEowiFwYeAASpizOpY3JtU/fPyvth4TYOOVGPhUX9A+4sSsDYl0lEHv23NjwKNIpQl+dwRG/+BKAHL4F/uPMH7f6AxXfE51eiXAgVozQZdj7lNMypgRq/nZlAAMaYFRJneR20PnR/DnNAKn0QlfGjK/NLa6ToUZf4h0Ohh9J8tzcuClPDgiD3rkwQF50CUP9Mrfd310d3wc7P3odu3ed+zYOgjq79jaoxbHjtURtXRFrY6t6q5ta2+0zRmxtUr3uyLf2iVrR+Qb51abc/NbV8Th2nSQAskO6Vun9G2X5O6VBsUNkt2idF/cGBA3xkVpxhOZETf//nRznO7a/L4vMihuff8s8oM38m8vou9eRv/x6v0vk9uB55Fx7/bM8+0ffNGZuffrr96vL0Zf/7Qrz+28Dn54Hfz4bio683LnB1/kh5nou7kd2bc949v+uzcy/iL6w4/R14s78tTm8sz2P4JRefG9HNyVR6SffdLPLzd+GZFev4r8Mie9eyXJKxF5OSIHN+XlbZn8/PdNeX1HfhuV3yrbensbq8wKT7FIJD7h/27vanLjtqGwRFIUn57M4WB+OJARe+JMPAE6BYKigQMkiyy67qInyAm6anqAdtF90Z9VN9m0yx6gQI9QdNMuil6gN+jKfY8UZ8axkzi1DRswPxADjUamKEr8+PGJ/NyzmyjSgtEYmzr5SuqMZ/yt2NIwp0XoGbI0ThjXokjrFE+hFP26z3AhOgbLYg4iklQOAmwHAfqdgft45c+p/uDcQQAhXq2JtCy1FOJ0fPXyggBloRQrebrpprII3ZA4dEzJ+/boq3OuM79NeDcazTg/fnp57KGTkKY9bQaDWqYJ2a/FVgsR4tTO8tU2c15sZxs5W5woWNGrmK3jkwiNAi+GzNI669cW4LYHAcS4kL6QW6/1+27nHYIA1A9tS/L0Vr0qmPSDCYDQYMZXFASgg/lPQAAK4lEEZ50dOrc8/Pzrn6+7ad08ZBq9Kvzy67FXFisr05STQiW3Spme+ZOEKLeXb/aKaUv1bJ590b/xL1PatO30U5zAciZlbbPA1mhdxtG9SKPvMkmYtIoxmoDwUmsFpvJaidqULZSvThC6rUGAsux5MdxwSJOF0hrQDWufKwhg0EvQ61lHYaw9JpbnovKComiqwkPv7Zq4lCAADeoNaGgdomdTrraAVgyd936+P//kxffX3bRuHjKNXhV+/+24A2udpqE9SCsF9C5qMmkiKTZ7UpInvyZtcoIypDhBPWJtvLYm5fWMvzUTlCKOxNmLSMaBfBDEfewvUQOXCJLYic4UmxL2UrQqZQ1NPan1uK4rQKWNkWLDdLc2CBCpeN1riuA/Eiot/jUWZR3zPVcQQKQ+su8RSyUB1ESm9a/st1SRSHREpiX7UV1OEEAph6ZqKj9s5yQ/SY1qLBDtFBd+tNq/+9kXP15307p5yDR6Vfjrj+P9thg60WDUDkJEN7kwh1lGM82q0Jj2k4CBwgZLt43bRpkUzTarpvjZJqV2uG4bfAoVPExjMw5vDBrnh24hg1DpuTcw45oiRT9gL3SwE07OlSSoYeNQmS6B3+kG1zsRHaNF0XumviEIcHoGWCz6uwQByjOzKK41CMBsWgetGj1S2VgrmfjFa+/r+QSLvyEIsB4iCFuGOq9qtTNwuiImFaB6CxQOX6qgWKMyFUYk5f7/ggCUCQwK6vs1v1zS4IASItCI3o+7/W517+D5i2+vu2ndPGQavSr8/efxIZstaYvCgjCVBmSi5Ml3qifWQE9WbuQePf1heCWCeBTJ7lPQtjstXQux8eboG23/30RizrH1MgOyEXpVAJVBWsNDcog5c8OHYJMs2VxZkhJRnVGdZn/jQrcFeycDFVs0vBESu9t5hHmYVMjWn5Qzk2mwRqavFV1Y3NMHAaRUDVS7tWqoXUplpKHTNSTo6JxhiqJhWSeZxkNYgWXeOgjQhwEC5ZNQqlRZm4o4RapaSsPHl/0LoaD+SJjRfn7RLMotWXm5QQAqLHNouCGq5CtSVIcuUSfXPEht+u2uIe5j72eq9lAnBlnR8wWKNwUBUp8iRUUi1CoH0lOdB+rkrpT4bssAAAJ3SURBVAvAT91q6uZ+vCTWYzvqSoQb5w10Ld4fDj6sK3fOIICiZwOqptUNkPB005YyLIagPXW9Izscud1ucW939eDg+Zc/vP3hv23INHpV+Pef46NutT+z05GmkVfTeuvm+7Olb/VsRI8pTPl57Sx06LxEAWCZ3ZRlfVEVgbwAqXlQom3H70yJe7g5KUvNhuhY08GVN8r6UXd4sHrQHQ2xYzf4ME2akg6JqBCRmkfRkKwIRvRIWYMnpcGqk1neTZHaJDvs7bZLKtWw9UN0Q6SD3ZDnu2ieNtg6dGzbHD4tXRQ6p1vKin4l3dIBzBH40qzzDXq6EEsXiEv6CWmEiKtpe2TbObXSYSumTtNQ0bvF4/c+tfwueEXnsqobwsINZjum2bMPvfWTAdrWIngL84a4G51taSS7Qreks1Axprh3Z/TIDdzOYLIzmJHcpv2UE31t7Z5Go00dFuFopWqtiINBV80AF9PBIxq0IuVvF4iUOWqiPkkcqdDNuQPifgixGu/A2OEeVVttSjvAyWDiBhPvOk9X5+aIVFcLSxmOl3Qjpo6/NgChDmkjJC6qCH0qPQzet90M7R08cGaMxtFNqbSC2oCiJIwuLBqqmclob+bpdlimM7opQE8LVWM35elHVAnEcXpGnxj/s4DgU9OJWjoL0GG7VEI6F1GtfWhh1xrb1nzbZBWmhMqqrmAH7ATG97ujB93TVXf0/t2nq13aPtqf8efSd4ez+dHhsyeHzx4fPn3ywccfPf7mu5fX3bRuHjKNZmRkZFwImUYzMjIyLoRMoxkZGRkXQqbRjIyMjAsh02hGRkbGhZBpNCMjI+NCyDSakZGRcSH8BwC+QPsG8/ADAAAAAElFTkSuQmCC;" parent="1" vertex="1">
          <mxGeometry x="164" y="657.79" width="498.63" height="207.21" as="geometry" />
        </mxCell>
        <mxCell id="z_Cnbzt3vv1uX7zdXVBy-105" value="2" style="ellipse;whiteSpace=wrap;html=1;aspect=fixed;" parent="1" vertex="1">
          <mxGeometry x="71" y="198.75" width="32.5" height="32.5" as="geometry" />
        </mxCell>
        <mxCell id="z_Cnbzt3vv1uX7zdXVBy-106" value="1" style="ellipse;whiteSpace=wrap;html=1;aspect=fixed;" parent="1" vertex="1">
          <mxGeometry x="71" y="258.75" width="32.5" height="32.5" as="geometry" />
        </mxCell>
        <mxCell id="z_Cnbzt3vv1uX7zdXVBy-107" value="7" style="ellipse;whiteSpace=wrap;html=1;aspect=fixed;" parent="1" vertex="1">
          <mxGeometry x="138.5" y="326.25" width="32.5" height="32.5" as="geometry" />
        </mxCell>
        <mxCell id="z_Cnbzt3vv1uX7zdXVBy-108" value="6" style="ellipse;whiteSpace=wrap;html=1;aspect=fixed;" parent="1" vertex="1">
          <mxGeometry x="198.5" y="326.25" width="32.5" height="32.5" as="geometry" />
        </mxCell>
        <mxCell id="z_Cnbzt3vv1uX7zdXVBy-109" value="5" style="ellipse;whiteSpace=wrap;html=1;aspect=fixed;" parent="1" vertex="1">
          <mxGeometry x="258.5" y="326.25" width="32.5" height="32.5" as="geometry" />
        </mxCell>
        <mxCell id="z_Cnbzt3vv1uX7zdXVBy-110" value="A" style="ellipse;whiteSpace=wrap;html=1;aspect=fixed;" parent="1" vertex="1">
          <mxGeometry x="532" y="276.25" width="32.5" height="32.5" as="geometry" />
        </mxCell>
        <mxCell id="z_Cnbzt3vv1uX7zdXVBy-111" value="B" style="ellipse;whiteSpace=wrap;html=1;aspect=fixed;" parent="1" vertex="1">
          <mxGeometry x="598.5" y="276.25" width="32.5" height="32.5" as="geometry" />
        </mxCell>
        <mxCell id="z_Cnbzt3vv1uX7zdXVBy-112" value="C" style="ellipse;whiteSpace=wrap;html=1;aspect=fixed;" parent="1" vertex="1">
          <mxGeometry x="663.75" y="276.25" width="32.5" height="32.5" as="geometry" />
        </mxCell>
        <mxCell id="z_Cnbzt3vv1uX7zdXVBy-113" value="D" style="ellipse;whiteSpace=wrap;html=1;aspect=fixed;" parent="1" vertex="1">
          <mxGeometry x="730" y="276.25" width="32.5" height="32.5" as="geometry" />
        </mxCell>
        <mxCell id="z_Cnbzt3vv1uX7zdXVBy-114" value="D2" style="ellipse;whiteSpace=wrap;html=1;aspect=fixed;" parent="1" vertex="1">
          <mxGeometry x="274" y="630" width="32.5" height="32.5" as="geometry" />
        </mxCell>
        <mxCell id="z_Cnbzt3vv1uX7zdXVBy-115" value="D3" style="ellipse;whiteSpace=wrap;html=1;aspect=fixed;" parent="1" vertex="1">
          <mxGeometry x="320" y="630" width="32.5" height="32.5" as="geometry" />
        </mxCell>
        <mxCell id="z_Cnbzt3vv1uX7zdXVBy-116" value="D4" style="ellipse;whiteSpace=wrap;html=1;aspect=fixed;" parent="1" vertex="1">
          <mxGeometry x="369.75" y="630" width="32.5" height="32.5" as="geometry" />
        </mxCell>
        <mxCell id="z_Cnbzt3vv1uX7zdXVBy-117" value="D5" style="ellipse;whiteSpace=wrap;html=1;aspect=fixed;" parent="1" vertex="1">
          <mxGeometry x="419.75" y="630" width="32.5" height="32.5" as="geometry" />
        </mxCell>
        <mxCell id="z_Cnbzt3vv1uX7zdXVBy-118" value="D6" style="ellipse;whiteSpace=wrap;html=1;aspect=fixed;" parent="1" vertex="1">
          <mxGeometry x="469.75" y="630" width="32.5" height="32.5" as="geometry" />
        </mxCell>
        <mxCell id="z_Cnbzt3vv1uX7zdXVBy-119" value="D7" style="ellipse;whiteSpace=wrap;html=1;aspect=fixed;" parent="1" vertex="1">
          <mxGeometry x="519.75" y="630" width="32.5" height="32.5" as="geometry" />
        </mxCell>
        <mxCell id="z_Cnbzt3vv1uX7zdXVBy-122" value="B0" style="ellipse;whiteSpace=wrap;html=1;aspect=fixed;" parent="1" vertex="1">
          <mxGeometry x="91.5" y="860" width="32.5" height="32.5" as="geometry" />
        </mxCell>
        <mxCell id="z_Cnbzt3vv1uX7zdXVBy-123" value="B1" style="ellipse;whiteSpace=wrap;html=1;aspect=fixed;" parent="1" vertex="1">
          <mxGeometry x="137.5" y="860" width="32.5" height="32.5" as="geometry" />
        </mxCell>
        <mxCell id="z_Cnbzt3vv1uX7zdXVBy-124" value="B2" style="ellipse;whiteSpace=wrap;html=1;aspect=fixed;" parent="1" vertex="1">
          <mxGeometry x="187.25" y="860" width="32.5" height="32.5" as="geometry" />
        </mxCell>
        <mxCell id="z_Cnbzt3vv1uX7zdXVBy-125" value="B3" style="ellipse;whiteSpace=wrap;html=1;aspect=fixed;" parent="1" vertex="1">
          <mxGeometry x="237.25" y="860" width="32.5" height="32.5" as="geometry" />
        </mxCell>
        <mxCell id="z_Cnbzt3vv1uX7zdXVBy-126" value="B4" style="ellipse;whiteSpace=wrap;html=1;aspect=fixed;" parent="1" vertex="1">
          <mxGeometry x="287.25" y="860" width="32.5" height="32.5" as="geometry" />
        </mxCell>
        <mxCell id="z_Cnbzt3vv1uX7zdXVBy-127" value="B5" style="ellipse;whiteSpace=wrap;html=1;aspect=fixed;" parent="1" vertex="1">
          <mxGeometry x="337.25" y="860" width="32.5" height="32.5" as="geometry" />
        </mxCell>
        <mxCell id="z_Cnbzt3vv1uX7zdXVBy-128" value="C0" style="ellipse;whiteSpace=wrap;html=1;aspect=fixed;" parent="1" vertex="1">
          <mxGeometry x="461.75" y="860" width="32.5" height="32.5" as="geometry" />
        </mxCell>
        <mxCell id="z_Cnbzt3vv1uX7zdXVBy-129" value="C1" style="ellipse;whiteSpace=wrap;html=1;aspect=fixed;" parent="1" vertex="1">
          <mxGeometry x="507.75" y="860" width="32.5" height="32.5" as="geometry" />
        </mxCell>
        <mxCell id="z_Cnbzt3vv1uX7zdXVBy-130" value="C2" style="ellipse;whiteSpace=wrap;html=1;aspect=fixed;" parent="1" vertex="1">
          <mxGeometry x="557.5" y="860" width="32.5" height="32.5" as="geometry" />
        </mxCell>
        <mxCell id="z_Cnbzt3vv1uX7zdXVBy-131" value="C3" style="ellipse;whiteSpace=wrap;html=1;aspect=fixed;" parent="1" vertex="1">
          <mxGeometry x="607.5" y="860" width="32.5" height="32.5" as="geometry" />
        </mxCell>
        <mxCell id="z_Cnbzt3vv1uX7zdXVBy-132" value="C4" style="ellipse;whiteSpace=wrap;html=1;aspect=fixed;" parent="1" vertex="1">
          <mxGeometry x="657.5" y="860" width="32.5" height="32.5" as="geometry" />
        </mxCell>
        <mxCell id="z_Cnbzt3vv1uX7zdXVBy-133" value="C5" style="ellipse;whiteSpace=wrap;html=1;aspect=fixed;" parent="1" vertex="1">
          <mxGeometry x="707.5" y="860" width="32.5" height="32.5" as="geometry" />
        </mxCell>
        <mxCell id="z_Cnbzt3vv1uX7zdXVBy-141" value="" style="endArrow=none;html=1;rounded=0;exitX=0.5;exitY=1;exitDx=0;exitDy=0;entryX=0;entryY=0.5;entryDx=0;entryDy=0;strokeWidth=1.5;strokeColor=#3333FF;" parent="1" source="z_Cnbzt3vv1uX7zdXVBy-123" target="z_Cnbzt3vv1uX7zdXVBy-21" edge="1">
          <mxGeometry width="50" height="50" relative="1" as="geometry">
            <mxPoint x="390" y="540" as="sourcePoint" />
            <mxPoint x="440" y="490" as="targetPoint" />
            <Array as="points">
              <mxPoint x="154" y="930" />
              <mxPoint x="30" y="930" />
              <mxPoint x="30" y="520" />
              <mxPoint x="30" y="155" />
            </Array>
          </mxGeometry>
        </mxCell>
        <mxCell id="z_Cnbzt3vv1uX7zdXVBy-142" value="" style="endArrow=none;html=1;rounded=0;exitX=0.5;exitY=1;exitDx=0;exitDy=0;entryX=0;entryY=0.5;entryDx=0;entryDy=0;strokeWidth=1.5;strokeColor=#3333FF;" parent="1" source="z_Cnbzt3vv1uX7zdXVBy-124" target="z_Cnbzt3vv1uX7zdXVBy-105" edge="1">
          <mxGeometry width="50" height="50" relative="1" as="geometry">
            <mxPoint x="390" y="540" as="sourcePoint" />
            <mxPoint x="440" y="490" as="targetPoint" />
            <Array as="points">
              <mxPoint x="204" y="940" />
              <mxPoint x="20" y="940" />
              <mxPoint x="20" y="215" />
            </Array>
          </mxGeometry>
        </mxCell>
        <mxCell id="z_Cnbzt3vv1uX7zdXVBy-143" value="" style="endArrow=none;html=1;rounded=0;exitX=0.5;exitY=1;exitDx=0;exitDy=0;entryX=0;entryY=0.5;entryDx=0;entryDy=0;strokeWidth=1.5;strokeColor=#3333FF;" parent="1" source="z_Cnbzt3vv1uX7zdXVBy-125" target="z_Cnbzt3vv1uX7zdXVBy-106" edge="1">
          <mxGeometry width="50" height="50" relative="1" as="geometry">
            <mxPoint x="400" y="610" as="sourcePoint" />
            <mxPoint x="450" y="560" as="targetPoint" />
            <Array as="points">
              <mxPoint x="254" y="950" />
              <mxPoint x="10" y="950" />
              <mxPoint x="10" y="275" />
            </Array>
          </mxGeometry>
        </mxCell>
        <mxCell id="Ex41afNgKblN2Ln950W6-1" value="" style="endArrow=none;html=1;rounded=0;exitX=0.5;exitY=1;exitDx=0;exitDy=0;entryX=0;entryY=0.5;entryDx=0;entryDy=0;strokeWidth=1.5;strokeColor=light-dark(#3333FF,#EDEDED);" parent="1" source="z_Cnbzt3vv1uX7zdXVBy-122" target="z_Cnbzt3vv1uX7zdXVBy-20" edge="1">
          <mxGeometry width="50" height="50" relative="1" as="geometry">
            <mxPoint x="390" y="610" as="sourcePoint" />
            <mxPoint x="440" y="560" as="targetPoint" />
            <Array as="points">
              <mxPoint x="108" y="920" />
              <mxPoint x="40" y="920" />
              <mxPoint x="40" y="440" />
              <mxPoint x="40" y="95" />
            </Array>
          </mxGeometry>
        </mxCell>
        <mxCell id="Ex41afNgKblN2Ln950W6-6" value="" style="endArrow=none;html=1;rounded=0;entryX=0.5;entryY=1;entryDx=0;entryDy=0;exitX=0.5;exitY=1;exitDx=0;exitDy=0;strokeColor=#FF0000;strokeWidth=1.5;" parent="1" source="z_Cnbzt3vv1uX7zdXVBy-128" target="z_Cnbzt3vv1uX7zdXVBy-110" edge="1">
          <mxGeometry width="50" height="50" relative="1" as="geometry">
            <mxPoint x="570" y="500" as="sourcePoint" />
            <mxPoint x="620" y="450" as="targetPoint" />
            <Array as="points">
              <mxPoint x="478" y="950" />
              <mxPoint x="820" y="950" />
              <mxPoint x="820" y="440" />
              <mxPoint x="548" y="440" />
            </Array>
          </mxGeometry>
        </mxCell>
        <mxCell id="Ex41afNgKblN2Ln950W6-7" value="" style="endArrow=none;html=1;rounded=0;exitX=0.5;exitY=1;exitDx=0;exitDy=0;entryX=0.5;entryY=1;entryDx=0;entryDy=0;strokeWidth=1.5;strokeColor=#FF0000;" parent="1" source="z_Cnbzt3vv1uX7zdXVBy-129" target="z_Cnbzt3vv1uX7zdXVBy-111" edge="1">
          <mxGeometry width="50" height="50" relative="1" as="geometry">
            <mxPoint x="570" y="830" as="sourcePoint" />
            <mxPoint x="620" y="780" as="targetPoint" />
            <Array as="points">
              <mxPoint x="524" y="940" />
              <mxPoint x="810" y="940" />
              <mxPoint x="810" y="450" />
              <mxPoint x="615" y="450" />
            </Array>
          </mxGeometry>
        </mxCell>
        <mxCell id="Ex41afNgKblN2Ln950W6-8" value="" style="endArrow=none;html=1;rounded=0;exitX=0.5;exitY=1;exitDx=0;exitDy=0;entryX=0.5;entryY=1;entryDx=0;entryDy=0;strokeColor=#FF0000;strokeWidth=1.5;" parent="1" source="z_Cnbzt3vv1uX7zdXVBy-130" target="z_Cnbzt3vv1uX7zdXVBy-112" edge="1">
          <mxGeometry width="50" height="50" relative="1" as="geometry">
            <mxPoint x="570" y="750" as="sourcePoint" />
            <mxPoint x="620" y="700" as="targetPoint" />
            <Array as="points">
              <mxPoint x="574" y="930" />
              <mxPoint x="800" y="930" />
              <mxPoint x="800" y="460" />
              <mxPoint x="680" y="460" />
            </Array>
          </mxGeometry>
        </mxCell>
        <mxCell id="Ex41afNgKblN2Ln950W6-9" value="" style="endArrow=none;html=1;rounded=0;exitX=0.5;exitY=1;exitDx=0;exitDy=0;entryX=0.5;entryY=1;entryDx=0;entryDy=0;strokeWidth=1.5;strokeColor=#FF0000;" parent="1" source="z_Cnbzt3vv1uX7zdXVBy-131" target="z_Cnbzt3vv1uX7zdXVBy-113" edge="1">
          <mxGeometry width="50" height="50" relative="1" as="geometry">
            <mxPoint x="570" y="830" as="sourcePoint" />
            <mxPoint x="620" y="780" as="targetPoint" />
            <Array as="points">
              <mxPoint x="624" y="920" />
              <mxPoint x="790" y="920" />
              <mxPoint x="790" y="470" />
              <mxPoint x="746" y="470" />
            </Array>
          </mxGeometry>
        </mxCell>
        <mxCell id="Ex41afNgKblN2Ln950W6-10" value="" style="endArrow=none;html=1;rounded=0;exitX=0.5;exitY=0;exitDx=0;exitDy=0;entryX=0.5;entryY=1;entryDx=0;entryDy=0;strokeColor=#00CC00;strokeWidth=1.5;" parent="1" source="z_Cnbzt3vv1uX7zdXVBy-114" target="z_Cnbzt3vv1uX7zdXVBy-107" edge="1">
          <mxGeometry width="50" height="50" relative="1" as="geometry">
            <mxPoint x="570" y="500" as="sourcePoint" />
            <mxPoint x="620" y="450" as="targetPoint" />
            <Array as="points">
              <mxPoint x="290" y="460" />
              <mxPoint x="155" y="460" />
              <mxPoint x="155" y="440" />
            </Array>
          </mxGeometry>
        </mxCell>
        <mxCell id="Ex41afNgKblN2Ln950W6-11" value="" style="endArrow=none;html=1;rounded=0;exitX=0.5;exitY=0;exitDx=0;exitDy=0;entryX=0.5;entryY=1;entryDx=0;entryDy=0;strokeColor=#00CC00;strokeWidth=1.5;" parent="1" source="z_Cnbzt3vv1uX7zdXVBy-115" target="z_Cnbzt3vv1uX7zdXVBy-108" edge="1">
          <mxGeometry width="50" height="50" relative="1" as="geometry">
            <mxPoint x="570" y="500" as="sourcePoint" />
            <mxPoint x="620" y="450" as="targetPoint" />
            <Array as="points">
              <mxPoint x="336" y="450" />
              <mxPoint x="215" y="450" />
            </Array>
          </mxGeometry>
        </mxCell>
        <mxCell id="Ex41afNgKblN2Ln950W6-12" value="" style="endArrow=none;html=1;rounded=0;exitX=0.5;exitY=0;exitDx=0;exitDy=0;entryX=0.5;entryY=1;entryDx=0;entryDy=0;strokeWidth=1.5;strokeColor=#00CC00;" parent="1" source="z_Cnbzt3vv1uX7zdXVBy-116" target="z_Cnbzt3vv1uX7zdXVBy-109" edge="1">
          <mxGeometry width="50" height="50" relative="1" as="geometry">
            <mxPoint x="570" y="500" as="sourcePoint" />
            <mxPoint x="620" y="450" as="targetPoint" />
            <Array as="points">
              <mxPoint x="386" y="440" />
              <mxPoint x="275" y="440" />
            </Array>
          </mxGeometry>
        </mxCell>
        <mxCell id="cl_4Tt4zVMDy11uOMdRp-2" value="+5V" style="ellipse;whiteSpace=wrap;html=1;aspect=fixed;" vertex="1" parent="1">
          <mxGeometry x="657.5" y="630" width="32.5" height="32.5" as="geometry" />
        </mxCell>
        <mxCell id="cl_4Tt4zVMDy11uOMdRp-3" value="GND" style="ellipse;whiteSpace=wrap;html=1;aspect=fixed;" vertex="1" parent="1">
          <mxGeometry x="707.5" y="630" width="32.5" height="32.5" as="geometry" />
        </mxCell>
        <mxCell id="cl_4Tt4zVMDy11uOMdRp-5" value="+5V" style="ellipse;whiteSpace=wrap;html=1;aspect=fixed;" vertex="1" parent="1">
          <mxGeometry x="452.5" y="83.75" width="32.5" height="32.5" as="geometry" />
        </mxCell>
        <mxCell id="cl_4Tt4zVMDy11uOMdRp-6" value="GND" style="ellipse;whiteSpace=wrap;html=1;aspect=fixed;" vertex="1" parent="1">
          <mxGeometry x="502.5" y="83.75" width="32.5" height="32.5" as="geometry" />
        </mxCell>
        <mxCell id="cl_4Tt4zVMDy11uOMdRp-8" value="" style="endArrow=none;html=1;rounded=0;entryX=0.5;entryY=1;entryDx=0;entryDy=0;exitX=0.5;exitY=0;exitDx=0;exitDy=0;strokeWidth=2;strokeColor=#FFFF00;" edge="1" parent="1" source="cl_4Tt4zVMDy11uOMdRp-3" target="cl_4Tt4zVMDy11uOMdRp-6">
          <mxGeometry width="50" height="50" relative="1" as="geometry">
            <mxPoint x="390" y="380" as="sourcePoint" />
            <mxPoint x="440" y="330" as="targetPoint" />
            <Array as="points">
              <mxPoint x="724" y="470" />
              <mxPoint x="519" y="470" />
            </Array>
          </mxGeometry>
        </mxCell>
        <mxCell id="cl_4Tt4zVMDy11uOMdRp-9" value="" style="endArrow=none;html=1;rounded=0;exitX=0.5;exitY=1;exitDx=0;exitDy=0;entryX=0.5;entryY=0;entryDx=0;entryDy=0;strokeWidth=2;strokeColor=#000099;" edge="1" parent="1" source="cl_4Tt4zVMDy11uOMdRp-5" target="cl_4Tt4zVMDy11uOMdRp-2">
          <mxGeometry width="50" height="50" relative="1" as="geometry">
            <mxPoint x="550" y="310" as="sourcePoint" />
            <mxPoint x="600" y="260" as="targetPoint" />
            <Array as="points">
              <mxPoint x="470" y="480" />
              <mxPoint x="674" y="480" />
            </Array>
          </mxGeometry>
        </mxCell>
      </root>
    </mxGraphModel>
  </diagram>
</mxfile>
